# Generated from the approved Charon statue B; positions are in blocks.
mtllib kingdoms:models/block/charon_statue/charon_statue.mtl
s off
usemtl stone
v 0.45625001 0.15625000 0.70625001
vt 0.12890625 0.26953125
vn -1.00000000 0.00000000 0.00000000
v 0.45625001 0.00000000 0.70625001
vt 0.12890625 0.27929688
vn -1.00000000 0.00000000 0.00000000
v 0.45625001 0.00000000 1.00000000
vt 0.14747191 0.27929688
vn -1.00000000 0.00000000 0.00000000
f 1/1/1 2/2/2 3/3/3
v 0.45625001 0.15625000 0.70625001
vt 0.12890625 0.26953125
vn -1.00000000 0.00000000 0.00000000
v 0.45625001 0.00000000 1.00000000
vt 0.14747191 0.27929688
vn -1.00000000 0.00000000 0.00000000
v 0.45625001 0.15625000 1.00000000
vt 0.14747191 0.26953125
vn -1.00000000 0.00000000 0.00000000
f 4/4/4 5/5/5 6/6/6
v 0.45625001 0.15625000 0.70625001
vt 0.86132812 0.14843750
vn 0.00000000 1.00000000 0.00000000
v 0.45625001 0.15625000 1.00000000
vt 0.86132812 0.16700316
vn 0.00000000 1.00000000 0.00000000
v 1.00000000 0.15625000 1.00000000
vt 0.89491733 0.16700316
vn 0.00000000 1.00000000 0.00000000
f 7/7/7 8/8/8 9/9/9
v 0.45625001 0.15625000 0.70625001
vt 0.86132812 0.14843750
vn 0.00000000 1.00000000 0.00000000
v 1.00000000 0.15625000 1.00000000
vt 0.89491733 0.16700316
vn 0.00000000 1.00000000 0.00000000
v 1.00000000 0.15625000 0.70625001
vt 0.89491733 0.14843750
vn 0.00000000 1.00000000 0.00000000
f 10/10/10 11/11/11 12/12/12
v 0.79218751 0.00000000 0.70625001
vt 0.96557617 0.22851562
vn 0.00000000 0.00000000 -1.00000000
v 0.45625001 0.15625000 0.70625001
vt 0.98632812 0.21875000
vn 0.00000000 0.00000000 -1.00000000
v 1.00000000 0.15625000 0.70625001
vt 0.95273892 0.21875000
vn 0.00000000 0.00000000 -1.00000000
f 13/13/13 14/14/14 15/15/15
v 0.79218751 0.00000000 0.70625001
vt 0.96557617 0.22851562
vn 0.00000000 0.00000000 -1.00000000
v 1.00000000 0.15625000 0.70625001
vt 0.95273892 0.21875000
vn 0.00000000 0.00000000 -1.00000000
v 1.00000000 0.00000000 0.70625001
vt 0.95273892 0.22851562
vn 0.00000000 0.00000000 -1.00000000
f 16/16/16 17/17/17 18/18/18
v 0.45625001 0.00000000 0.70625001
vt 0.98632812 0.22851562
vn 0.00000000 0.00000000 -1.00000000
v 0.45625001 0.15625000 0.70625001
vt 0.98632812 0.21875000
vn 0.00000000 0.00000000 -1.00000000
v 0.79218751 0.00000000 0.70625001
vt 0.96557617 0.22851562
vn 0.00000000 0.00000000 -1.00000000
f 19/19/19 20/20/20 21/21/21
v 0.51562500 0.62500000 0.75000000
vt 0.78515625 0.26953125
vn -1.00000000 0.00000000 0.00000000
v 0.51562500 0.15625000 0.75000000
vt 0.78515625 0.29882812
vn -1.00000000 0.00000000 0.00000000
v 0.51562500 0.31719420 1.00000000
vt 0.80058007 0.28876911
vn -1.00000000 0.00000000 0.00000000
f 22/22/22 23/23/23 24/24/24
v 0.51562500 0.62500000 0.75000000
vt 0.78515625 0.26953125
vn -1.00000000 0.00000000 0.00000000
v 0.51562500 0.31719420 1.00000000
vt 0.80058007 0.28876911
vn -1.00000000 0.00000000 0.00000000
v 0.51562500 0.62500000 1.00000000
vt 0.80058007 0.26953125
vn -1.00000000 0.00000000 0.00000000
f 25/25/25 26/26/26 27/27/27
v 0.51562500 0.15625000 0.75000000
vt 0.78515625 0.29882812
vn -1.00000000 0.00000000 0.00000000
v 0.51562500 0.15625000 1.00000000
vt 0.80058007 0.29882812
vn -1.00000000 0.00000000 0.00000000
v 0.51562500 0.31719420 1.00000000
vt 0.80058007 0.28876911
vn -1.00000000 0.00000000 0.00000000
f 28/28/28 29/29/29 30/30/30
v 0.51562500 0.62500000 0.75000000
vt 0.13085938 0.21875000
vn 0.00000000 1.00000000 0.00000000
v 0.51562500 0.62500000 1.00000000
vt 0.13085938 0.23417382
vn 0.00000000 1.00000000 0.00000000
v 1.00000000 0.62500000 1.00000000
vt 0.16083308 0.23417382
vn 0.00000000 1.00000000 0.00000000
f 31/31/31 32/32/32 33/33/33
v 0.51562500 0.62500000 0.75000000
vt 0.13085938 0.21875000
vn 0.00000000 1.00000000 0.00000000
v 1.00000000 0.62500000 1.00000000
vt 0.16083308 0.23417382
vn 0.00000000 1.00000000 0.00000000
v 1.00000000 0.62500000 0.75000000
vt 0.16083308 0.21875000
vn 0.00000000 1.00000000 0.00000000
f 34/34/34 35/35/35 36/36/36
v 0.51562500 0.15625000 1.00000000
vt 0.19335938 0.24824806
vn 0.00000000 -1.00000000 0.00000000
v 0.51562500 0.15625000 0.75000000
vt 0.19335938 0.26367188
vn 0.00000000 -1.00000000 0.00000000
v 0.84073230 0.15625000 1.00000000
vt 0.21347740 0.24824806
vn 0.00000000 -1.00000000 0.00000000
f 37/37/37 38/38/38 39/39/39
v 0.51562500 0.15625000 0.75000000
vt 0.19335938 0.26367188
vn 0.00000000 -1.00000000 0.00000000
v 1.00000000 0.15625000 0.75000000
vt 0.22333308 0.26367188
vn 0.00000000 -1.00000000 0.00000000
v 1.00000000 0.15625000 1.00000000
vt 0.22333308 0.24824806
vn 0.00000000 -1.00000000 0.00000000
f 40/40/40 41/41/41 42/42/42
v 0.51562500 0.15625000 0.75000000
vt 0.19335938 0.26367188
vn 0.00000000 -1.00000000 0.00000000
v 1.00000000 0.15625000 1.00000000
vt 0.22333308 0.24824806
vn 0.00000000 -1.00000000 0.00000000
v 0.84073230 0.15625000 1.00000000
vt 0.21347740 0.24824806
vn 0.00000000 -1.00000000 0.00000000
f 43/43/43 44/44/44 45/45/45
v 1.00000000 0.38521040 0.75000000
vt 0.63994817 0.28451810
vn 0.00000000 0.00000000 -1.00000000
v 0.51562500 0.62500000 0.75000000
vt 0.66992188 0.26953125
vn 0.00000000 0.00000000 -1.00000000
v 1.00000000 0.62500000 0.75000000
vt 0.63994817 0.26953125
vn 0.00000000 0.00000000 -1.00000000
f 46/46/46 47/47/47 48/48/48
v 1.00000000 0.15625000 0.75000000
vt 0.63994817 0.29882812
vn 0.00000000 0.00000000 -1.00000000
v 0.51562500 0.15625000 0.75000000
vt 0.66992188 0.29882812
vn 0.00000000 0.00000000 -1.00000000
v 0.51562500 0.62500000 0.75000000
vt 0.66992188 0.26953125
vn 0.00000000 0.00000000 -1.00000000
f 49/49/49 50/50/50 51/51/51
v 1.00000000 0.15625000 0.75000000
vt 0.63994817 0.29882812
vn 0.00000000 0.00000000 -1.00000000
v 0.51562500 0.62500000 0.75000000
vt 0.66992188 0.26953125
vn 0.00000000 0.00000000 -1.00000000
v 1.00000000 0.38521040 0.75000000
vt 0.63994817 0.28451810
vn 0.00000000 0.00000000 -1.00000000
f 52/52/52 53/53/53 54/54/54
v 0.49374998 1.00000000 0.77500001
vt 0.87890625 0.27539062
vn -1.00000000 0.00000000 0.00000000
v 0.49374998 0.62500000 0.77500001
vt 0.87890625 0.29882812
vn -1.00000000 0.00000000 0.00000000
v 0.49374998 0.78419811 1.00000000
vt 0.89283608 0.28887824
vn -1.00000000 0.00000000 0.00000000
f 55/55/55 56/56/56 57/57/57
v 0.49374998 1.00000000 0.77500001
vt 0.87890625 0.27539062
vn -1.00000000 0.00000000 0.00000000
v 0.49374998 0.78419811 1.00000000
vt 0.89283608 0.28887824
vn -1.00000000 0.00000000 0.00000000
v 0.49374998 1.00000000 1.00000000
vt 0.89283608 0.27539062
vn -1.00000000 0.00000000 0.00000000
f 58/58/58 59/59/59 60/60/60
v 0.49374998 0.62500000 0.77500001
vt 0.87890625 0.29882812
vn -1.00000000 0.00000000 0.00000000
v 0.49374998 0.62500000 1.00000000
vt 0.89283608 0.29882812
vn -1.00000000 0.00000000 0.00000000
v 0.49374998 0.78419811 1.00000000
vt 0.89283608 0.28887824
vn -1.00000000 0.00000000 0.00000000
f 61/61/61 62/62/62 63/63/63
v 0.49374998 0.62500000 1.00000000
vt 0.32226562 0.24583579
vn 0.00000000 -1.00000000 0.00000000
v 0.49374998 0.62500000 0.77500001
vt 0.32226562 0.25976562
vn 0.00000000 -1.00000000 0.00000000
v 0.83549526 0.62500000 1.00000000
vt 0.34349204 0.24583579
vn 0.00000000 -1.00000000 0.00000000
f 64/64/64 65/65/65 66/66/66
v 0.49374998 0.62500000 0.77500001
vt 0.32226562 0.25976562
vn 0.00000000 -1.00000000 0.00000000
v 1.00000000 0.62500000 0.77500001
vt 0.35370973 0.25976562
vn 0.00000000 -1.00000000 0.00000000
v 1.00000000 0.62500000 1.00000000
vt 0.35370973 0.24583579
vn 0.00000000 -1.00000000 0.00000000
f 67/67/67 68/68/68 69/69/69
v 0.49374998 0.62500000 0.77500001
vt 0.32226562 0.25976562
vn 0.00000000 -1.00000000 0.00000000
v 1.00000000 0.62500000 1.00000000
vt 0.35370973 0.24583579
vn 0.00000000 -1.00000000 0.00000000
v 0.83549526 0.62500000 1.00000000
vt 0.34349204 0.24583579
vn 0.00000000 -1.00000000 0.00000000
f 70/70/70 71/71/71 72/72/72
v 1.00000000 0.85791925 0.77500001
vt 0.50957152 0.28427067
vn 0.00000000 0.00000000 -1.00000000
v 0.69499998 1.00000000 0.77500001
vt 0.52851563 0.27539062
vn 0.00000000 0.00000000 -1.00000000
v 1.00000000 1.00000000 0.77500001
vt 0.50957152 0.27539062
vn 0.00000000 0.00000000 -1.00000000
f 73/73/73 74/74/74 75/75/75
v 1.00000000 0.62500000 0.77500001
vt 0.50957152 0.29882812
vn 0.00000000 0.00000000 -1.00000000
v 0.49374998 0.62500000 0.77500001
vt 0.54101562 0.29882812
vn 0.00000000 0.00000000 -1.00000000
v 0.49374998 1.00000000 0.77500001
vt 0.54101562 0.27539062
vn 0.00000000 0.00000000 -1.00000000
f 76/76/76 77/77/77 78/78/78
v 1.00000000 0.62500000 0.77500001
vt 0.50957152 0.29882812
vn 0.00000000 0.00000000 -1.00000000
v 0.49374998 1.00000000 0.77500001
vt 0.54101562 0.27539062
vn 0.00000000 0.00000000 -1.00000000
v 0.69499998 1.00000000 0.77500001
vt 0.52851563 0.27539062
vn 0.00000000 0.00000000 -1.00000000
f 79/79/79 80/80/80 81/81/81
v 1.00000000 0.62500000 0.77500001
vt 0.50957152 0.29882812
vn 0.00000000 0.00000000 -1.00000000
v 0.69499998 1.00000000 0.77500001
vt 0.52851563 0.27539062
vn 0.00000000 0.00000000 -1.00000000
v 1.00000000 0.85791925 0.77500001
vt 0.50957152 0.28427067
vn 0.00000000 0.00000000 -1.00000000
f 82/82/82 83/83/83 84/84/84
v 0.66986847 0.55327003 0.70312500
vt 0.83789062 0.14843750
vn 0.99452190 -0.10452846 0.00000000
v 0.61171745 0.00000000 0.70312500
vt 0.83789062 0.18367721
vn 0.99452190 -0.10452846 0.00000000
v 0.61171745 0.00000000 0.65703970
vt 0.84100450 0.18367721
vn 0.99452190 -0.10452846 0.00000000
f 85/85/85 86/86/86 87/87/87
v 0.66986847 0.55327003 0.70312500
vt 0.83789062 0.14843750
vn 0.99452190 -0.10452846 0.00000000
v 0.61171745 0.00000000 0.65703970
vt 0.84100450 0.18367721
vn 0.99452190 -0.10452846 0.00000000
v 0.66986847 0.55327003 0.58750000
vt 0.84570312 0.14843750
vn 0.99452190 -0.10452846 0.00000000
f 88/88/88 89/89/89 90/90/90
v 0.61171745 0.00000000 0.58750000
vt 0.84570312 0.18367721
vn 0.99452190 -0.10452846 0.00000000
v 0.66986847 0.55327003 0.58750000
vt 0.84570312 0.14843750
vn 0.99452190 -0.10452846 0.00000000
v 0.61171745 0.00000000 0.65703970
vt 0.84100450 0.18367721
vn 0.99452190 -0.10452846 0.00000000
f 91/91/91 92/92/92 93/93/93
v 0.54244536 0.56666274 0.58750000
vt 0.84960938 0.14843750
vn -0.99452190 0.10452846 0.00000000
v 0.48288670 0.00000000 0.58750000
vt 0.84960938 0.18453024
vn -0.99452190 0.10452846 0.00000000
v 0.48288670 0.00000000 0.63190199
vt 0.85260951 0.18453024
vn -0.99452190 0.10452846 0.00000000
f 94/94/94 95/95/95 96/96/96
v 0.54244536 0.56666274 0.58750000
vt 0.84960938 0.14843750
vn -0.99452190 0.10452846 0.00000000
v 0.48288670 0.00000000 0.63190199
vt 0.85260951 0.18453024
vn -0.99452190 0.10452846 0.00000000
v 0.54244536 0.56666274 0.70312500
vt 0.85742188 0.14843750
vn -0.99452190 0.10452846 0.00000000
f 97/97/97 98/98/98 99/99/99
v 0.48288670 0.00000000 0.70312500
vt 0.85742188 0.18453024
vn -0.99452190 0.10452846 0.00000000
v 0.54244536 0.56666274 0.70312500
vt 0.85742188 0.14843750
vn -0.99452190 0.10452846 0.00000000
v 0.48288670 0.00000000 0.63190199
vt 0.85260951 0.18453024
vn -0.99452190 0.10452846 0.00000000
f 100/100/100 101/101/101 102/102/102
v 0.54244536 0.56666274 0.58750000
vt 0.15039062 0.43164062
vn 0.10452846 0.99452190 0.00000000
v 0.54244536 0.56666274 0.70312500
vt 0.15039062 0.43945312
vn 0.10452846 0.99452190 0.00000000
v 0.66986847 0.55327003 0.58750000
vt 0.15820312 0.43164062
vn 0.10452846 0.99452190 0.00000000
f 103/103/103 104/104/104 105/105/105
v 0.54244536 0.56666274 0.70312500
vt 0.15039062 0.43945312
vn 0.10452846 0.99452190 0.00000000
v 0.66986847 0.55327003 0.70312500
vt 0.15820312 0.43945312
vn 0.10452846 0.99452190 0.00000000
v 0.66986847 0.55327003 0.58750000
vt 0.15820312 0.43164062
vn 0.10452846 0.99452190 0.00000000
f 106/106/106 107/107/107 108/108/108
v 0.54244536 0.56666274 0.70312500
vt 0.82617188 0.14843750
vn 0.00000000 0.00000000 1.00000000
v 0.48288670 0.00000000 0.70312500
vt 0.82617188 0.18453024
vn 0.00000000 0.00000000 1.00000000
v 0.53309082 0.00000000 0.70312500
vt 0.82921633 0.18419782
vn 0.00000000 0.00000000 1.00000000
f 109/109/109 110/110/110 111/111/111
v 0.54244536 0.56666274 0.70312500
vt 0.82617188 0.14843750
vn 0.00000000 0.00000000 1.00000000
v 0.53309082 0.00000000 0.70312500
vt 0.82921633 0.18419782
vn 0.00000000 0.00000000 1.00000000
v 0.66986847 0.55327003 0.70312500
vt 0.83398438 0.14843750
vn 0.00000000 0.00000000 1.00000000
f 112/112/112 113/113/113 114/114/114
v 0.61171745 0.00000000 0.70312500
vt 0.83398438 0.18367721
vn 0.00000000 0.00000000 1.00000000
v 0.66986847 0.55327003 0.70312500
vt 0.83398438 0.14843750
vn 0.00000000 0.00000000 1.00000000
v 0.53309082 0.00000000 0.70312500
vt 0.82921633 0.18419782
vn 0.00000000 0.00000000 1.00000000
f 115/115/115 116/116/116 117/117/117
v 0.66986847 0.55327003 0.58750000
vt 0.81445312 0.14843750
vn 0.00000000 0.00000000 -1.00000000
v 0.61171745 0.00000000 0.58750000
vt 0.81445312 0.18367721
vn 0.00000000 0.00000000 -1.00000000
v 0.56110549 0.00000000 0.58750000
vt 0.81752231 0.18401233
vn 0.00000000 0.00000000 -1.00000000
f 118/118/118 119/119/119 120/120/120
v 0.66986847 0.55327003 0.58750000
vt 0.81445312 0.14843750
vn 0.00000000 0.00000000 -1.00000000
v 0.56110549 0.00000000 0.58750000
vt 0.81752231 0.18401233
vn 0.00000000 0.00000000 -1.00000000
v 0.54244536 0.56666274 0.58750000
vt 0.82226562 0.14843750
vn 0.00000000 0.00000000 -1.00000000
f 121/121/121 122/122/122 123/123/123
v 0.48288670 0.00000000 0.58750000
vt 0.82226562 0.18453024
vn 0.00000000 0.00000000 -1.00000000
v 0.54244536 0.56666274 0.58750000
vt 0.82226562 0.14843750
vn 0.00000000 0.00000000 -1.00000000
v 0.56110549 0.00000000 0.58750000
vt 0.81752231 0.18401233
vn 0.00000000 0.00000000 -1.00000000
f 124/124/124 125/125/125 126/126/126
v 0.84168507 0.87137165 0.67812500
vt 0.73632812 0.00195312
vn 0.99862953 -0.05233596 0.00000000
v 0.79601841 0.00000000 0.67812500
vt 0.73632812 0.05703946
vn 0.99862953 -0.05233596 0.00000000
v 0.79601841 0.00000000 0.64402777
vt 0.73863199 0.05703946
vn 0.99862953 -0.05233596 0.00000000
f 127/127/127 128/128/128 129/129/129
v 0.84168507 0.87137165 0.67812500
vt 0.73632812 0.00195312
vn 0.99862953 -0.05233596 0.00000000
v 0.79601841 0.00000000 0.64402777
vt 0.73863199 0.05703946
vn 0.99862953 -0.05233596 0.00000000
v 0.84168507 0.87137165 0.56250000
vt 0.74414062 0.00195312
vn 0.99862953 -0.05233596 0.00000000
f 130/130/130 131/131/131 132/132/132
v 0.79601841 0.00000000 0.56250000
vt 0.74414062 0.05703946
vn 0.99862953 -0.05233596 0.00000000
v 0.84168507 0.87137165 0.56250000
vt 0.74414062 0.00195312
vn 0.99862953 -0.05233596 0.00000000
v 0.79601841 0.00000000 0.64402777
vt 0.73863199 0.05703946
vn 0.99862953 -0.05233596 0.00000000
f 133/133/133 134/134/134 135/135/135
v 0.73558068 0.87693235 0.56250000
vt 0.74804688 0.00195312
vn -0.99862953 0.05233596 0.00000000
v 0.68962260 0.00000000 0.56250000
vt 0.74804688 0.05739099
vn -0.99862953 0.05233596 0.00000000
v 0.68962260 0.00000000 0.59607695
vt 0.75031559 0.05739099
vn -0.99862953 0.05233596 0.00000000
f 136/136/136 137/137/137 138/138/138
v 0.73558068 0.87693235 0.56250000
vt 0.74804688 0.00195312
vn -0.99862953 0.05233596 0.00000000
v 0.68962260 0.00000000 0.59607695
vt 0.75031559 0.05739099
vn -0.99862953 0.05233596 0.00000000
v 0.73558068 0.87693235 0.67812500
vt 0.75585938 0.00195312
vn -0.99862953 0.05233596 0.00000000
f 139/139/139 140/140/140 141/141/141
v 0.68962260 0.00000000 0.67812500
vt 0.75585938 0.05739099
vn -0.99862953 0.05233596 0.00000000
v 0.73558068 0.87693235 0.67812500
vt 0.75585938 0.00195312
vn -0.99862953 0.05233596 0.00000000
v 0.68962260 0.00000000 0.59607695
vt 0.75031559 0.05739099
vn -0.99862953 0.05233596 0.00000000
f 142/142/142 143/143/143 144/144/144
v 0.73558068 0.87693235 0.56250000
vt 0.26757812 0.43164062
vn 0.05233596 0.99862953 0.00000000
v 0.73558068 0.87693235 0.67812500
vt 0.26757812 0.43945312
vn 0.05233596 0.99862953 0.00000000
v 0.84168507 0.87137165 0.56250000
vt 0.27343750 0.43164062
vn 0.05233596 0.99862953 0.00000000
f 145/145/145 146/146/146 147/147/147
v 0.73558068 0.87693235 0.67812500
vt 0.26757812 0.43945312
vn 0.05233596 0.99862953 0.00000000
v 0.84168507 0.87137165 0.67812500
vt 0.27343750 0.43945312
vn 0.05233596 0.99862953 0.00000000
v 0.84168507 0.87137165 0.56250000
vt 0.27343750 0.43164062
vn 0.05233596 0.99862953 0.00000000
f 148/148/148 149/149/149 150/150/150
v 0.73558068 0.87693235 0.67812500
vt 0.81640625 0.00195312
vn 0.00000000 0.00000000 1.00000000
v 0.68962260 0.00000000 0.67812500
vt 0.81640625 0.05739099
vn 0.00000000 0.00000000 1.00000000
v 0.72065910 0.00000000 0.67812500
vt 0.81811548 0.05728845
vn 0.00000000 0.00000000 1.00000000
f 151/151/151 152/152/152 153/153/153
v 0.73558068 0.87693235 0.67812500
vt 0.81640625 0.00195312
vn 0.00000000 0.00000000 1.00000000
v 0.72065910 0.00000000 0.67812500
vt 0.81811548 0.05728845
vn 0.00000000 0.00000000 1.00000000
v 0.84168507 0.87137165 0.67812500
vt 0.82226562 0.00195312
vn 0.00000000 0.00000000 1.00000000
f 154/154/154 155/155/155 156/156/156
v 0.79601841 0.00000000 0.67812500
vt 0.82226562 0.05703946
vn 0.00000000 0.00000000 1.00000000
v 0.84168507 0.87137165 0.67812500
vt 0.82226562 0.00195312
vn 0.00000000 0.00000000 1.00000000
v 0.72065910 0.00000000 0.67812500
vt 0.81811548 0.05728845
vn 0.00000000 0.00000000 1.00000000
f 157/157/157 158/158/158 159/159/159
v 0.84168507 0.87137165 0.56250000
vt 0.80664062 0.00195312
vn 0.00000000 0.00000000 -1.00000000
v 0.79601841 0.00000000 0.56250000
vt 0.80664062 0.05703946
vn 0.00000000 0.00000000 -1.00000000
v 0.76478337 0.00000000 0.56250000
vt 0.80836078 0.05714266
vn 0.00000000 0.00000000 -1.00000000
f 160/160/160 161/161/161 162/162/162
v 0.84168507 0.87137165 0.56250000
vt 0.80664062 0.00195312
vn 0.00000000 0.00000000 -1.00000000
v 0.76478337 0.00000000 0.56250000
vt 0.80836078 0.05714266
vn 0.00000000 0.00000000 -1.00000000
v 0.73558068 0.87693235 0.56250000
vt 0.81250000 0.00195312
vn 0.00000000 0.00000000 -1.00000000
f 163/163/163 164/164/164 165/165/165
v 0.68962260 0.00000000 0.56250000
vt 0.81250000 0.05739099
vn 0.00000000 0.00000000 -1.00000000
v 0.73558068 0.87693235 0.56250000
vt 0.81250000 0.00195312
vn 0.00000000 0.00000000 -1.00000000
v 0.76478337 0.00000000 0.56250000
vt 0.80836078 0.05714266
vn 0.00000000 0.00000000 -1.00000000
f 166/166/166 167/167/167 168/168/168
v 0.90686912 0.99891452 0.57500000
vt 0.72460938 0.00195312
vn -0.99984770 -0.01745241 0.00000000
v 0.92430523 0.00000000 0.57500000
vt 0.72460938 0.06496765
vn -0.99984770 -0.01745241 0.00000000
v 0.92430523 0.00000000 0.60584181
vt 0.72669328 0.06496765
vn -0.99984770 -0.01745241 0.00000000
f 169/169/169 170/170/170 171/171/171
v 0.90686912 0.99891452 0.57500000
vt 0.72460938 0.00195312
vn -0.99984770 -0.01745241 0.00000000
v 0.92430523 0.00000000 0.60584181
vt 0.72669328 0.06496765
vn -0.99984770 -0.01745241 0.00000000
v 0.90686912 0.99891452 0.69062500
vt 0.73242188 0.00195312
vn -0.99984770 -0.01745241 0.00000000
f 172/172/172 173/173/173 174/174/174
v 0.92430523 0.00000000 0.69062500
vt 0.73242188 0.06496765
vn -0.99984770 -0.01745241 0.00000000
v 0.90686912 0.99891452 0.69062500
vt 0.73242188 0.00195312
vn -0.99984770 -0.01745241 0.00000000
v 0.92430523 0.00000000 0.60584181
vt 0.72669328 0.06496765
vn -0.99984770 -0.01745241 0.00000000
f 175/175/175 176/176/176 177/177/177
v 0.90686912 0.99891452 0.57500000
vt 0.17382812 0.43164062
vn -0.01745241 0.99984770 0.00000000
v 0.90686912 0.99891452 0.69062500
vt 0.17382812 0.43945312
vn -0.01745241 0.99984770 0.00000000
v 0.96905619 1.00000000 0.62670077
vt 0.17814733 0.43513392
vn -0.01745241 0.99984770 0.00000000
f 178/178/178 179/179/179 180/180/180
v 0.90686912 0.99891452 0.57500000
vt 0.17382812 0.43164062
vn -0.01745241 0.99984770 0.00000000
v 0.96905619 1.00000000 0.62670077
vt 0.17814733 0.43513392
vn -0.01745241 0.99984770 0.00000000
v 0.96905619 1.00000000 0.57500000
vt 0.17814733 0.43164062
vn -0.01745241 0.99984770 0.00000000
f 181/181/181 182/182/182 183/183/183
v 0.90686912 0.99891452 0.69062500
vt 0.17382812 0.43945312
vn -0.01745241 0.99984770 0.00000000
v 0.96905619 1.00000000 0.69062500
vt 0.17814733 0.43945312
vn -0.01745241 0.99984770 0.00000000
v 0.96905619 1.00000000 0.62670077
vt 0.17814733 0.43513392
vn -0.01745241 0.99984770 0.00000000
f 184/184/184 185/185/185 186/186/186
v 0.90686912 0.99891452 0.69062500
vt 0.70117188 0.00195312
vn 0.00000000 0.00000000 1.00000000
v 0.92430523 0.00000000 0.69062500
vt 0.70117188 0.06496765
vn 0.00000000 0.00000000 1.00000000
v 0.95427486 0.00000000 0.69062500
vt 0.70325278 0.06500064
vn 0.00000000 0.00000000 1.00000000
f 187/187/187 188/188/188 189/189/189
v 0.90686912 0.99891452 0.69062500
vt 0.70117188 0.00195312
vn 0.00000000 0.00000000 1.00000000
v 0.95427486 0.00000000 0.69062500
vt 0.70325278 0.06500064
vn 0.00000000 0.00000000 1.00000000
v 1.00000000 0.70324688 0.69062500
vt 0.70727997 0.02070156
vn 0.00000000 0.00000000 1.00000000
f 190/190/190 191/191/191 192/192/192
v 0.90686912 0.99891452 0.69062500
vt 0.70117188 0.00195312
vn 0.00000000 0.00000000 1.00000000
v 1.00000000 0.70324688 0.69062500
vt 0.70727997 0.02070156
vn 0.00000000 0.00000000 1.00000000
v 1.00000000 1.00000000 0.69062500
vt 0.70763963 0.00198719
vn 0.00000000 0.00000000 1.00000000
f 193/193/193 194/194/194 195/195/195
v 0.90686912 0.99891452 0.69062500
vt 0.70117188 0.00195312
vn 0.00000000 0.00000000 1.00000000
v 1.00000000 1.00000000 0.69062500
vt 0.70763963 0.00198719
vn 0.00000000 0.00000000 1.00000000
v 0.96905619 1.00000000 0.69062500
vt 0.70549108 0.00195312
vn 0.00000000 0.00000000 1.00000000
f 196/196/196 197/197/197 198/198/198
v 1.00000000 0.00000000 0.69062500
vt 0.70642766 0.06505098
vn 0.00000000 0.00000000 1.00000000
v 1.00000000 0.70324688 0.69062500
vt 0.70727997 0.02070156
vn 0.00000000 0.00000000 1.00000000
v 0.95427486 0.00000000 0.69062500
vt 0.70325278 0.06500064
vn 0.00000000 0.00000000 1.00000000
f 199/199/199 200/200/200 201/201/201
v 1.00000000 0.06916989 0.57500000
vt 0.69192601 0.06068886
vn 0.00000000 0.00000000 -1.00000000
v 0.90686912 0.99891452 0.57500000
vt 0.69726562 0.00195312
vn 0.00000000 0.00000000 -1.00000000
v 0.96905619 1.00000000 0.57500000
vt 0.69294642 0.00195312
vn 0.00000000 0.00000000 -1.00000000
f 202/202/202 203/203/203 204/204/204
v 1.00000000 0.06916989 0.57500000
vt 0.69192601 0.06068886
vn 0.00000000 0.00000000 -1.00000000
v 0.96905619 1.00000000 0.57500000
vt 0.69294642 0.00195312
vn 0.00000000 0.00000000 -1.00000000
v 1.00000000 1.00000000 0.57500000
vt 0.69079787 0.00198719
vn 0.00000000 0.00000000 -1.00000000
f 205/205/205 206/206/206 207/207/207
v 0.92430523 0.00000000 0.57500000
vt 0.69726562 0.06496765
vn 0.00000000 0.00000000 -1.00000000
v 0.90686912 0.99891452 0.57500000
vt 0.69726562 0.00195312
vn 0.00000000 0.00000000 -1.00000000
v 1.00000000 0.06916989 0.57500000
vt 0.69192601 0.06068886
vn 0.00000000 0.00000000 -1.00000000
f 208/208/208 209/209/209 210/210/210
v 0.92430523 0.00000000 0.57500000
vt 0.69726562 0.06496765
vn 0.00000000 0.00000000 -1.00000000
v 1.00000000 0.06916989 0.57500000
vt 0.69192601 0.06068886
vn 0.00000000 0.00000000 -1.00000000
v 1.00000000 0.00000000 0.57500000
vt 0.69200984 0.06505098
vn 0.00000000 0.00000000 -1.00000000
f 211/211/211 212/212/212 213/213/213
v 0.50624999 0.57812500 0.72812501
vt 0.18164062 0.41992188
vn -1.00000000 0.00000000 0.00000000
v 0.50624999 0.46875000 0.72812501
vt 0.18164062 0.42773438
vn -1.00000000 0.00000000 0.00000000
v 0.50624999 0.50790895 1.00000000
vt 0.19842303 0.42493731
vn -1.00000000 0.00000000 0.00000000
f 214/214/214 215/215/215 216/216/216
v 0.50624999 0.57812500 0.72812501
vt 0.18164062 0.41992188
vn -1.00000000 0.00000000 0.00000000
v 0.50624999 0.50790895 1.00000000
vt 0.19842303 0.42493731
vn -1.00000000 0.00000000 0.00000000
v 0.50624999 0.57812500 1.00000000
vt 0.19842303 0.41992188
vn -1.00000000 0.00000000 0.00000000
f 217/217/217 218/218/218 219/219/219
v 0.50624999 0.46875000 0.72812501
vt 0.18164062 0.42773438
vn -1.00000000 0.00000000 0.00000000
v 0.50624999 0.46875000 1.00000000
vt 0.19842303 0.42773438
vn -1.00000000 0.00000000 0.00000000
v 0.50624999 0.50790895 1.00000000
vt 0.19842303 0.42493731
vn -1.00000000 0.00000000 0.00000000
f 220/220/220 221/221/221 222/222/222
v 0.50624999 0.57812500 0.72812501
vt 0.00195312 0.21875000
vn 0.00000000 1.00000000 0.00000000
v 0.50624999 0.57812500 1.00000000
vt 0.00195312 0.23553241
vn 0.00000000 1.00000000 0.00000000
v 1.00000000 0.57812500 1.00000000
vt 0.03261468 0.23553241
vn 0.00000000 1.00000000 0.00000000
f 223/223/223 224/224/224 225/225/225
v 0.50624999 0.57812500 0.72812501
vt 0.00195312 0.21875000
vn 0.00000000 1.00000000 0.00000000
v 1.00000000 0.57812500 1.00000000
vt 0.03261468 0.23553241
vn 0.00000000 1.00000000 0.00000000
v 1.00000000 0.57812500 0.72812501
vt 0.03261468 0.21875000
vn 0.00000000 1.00000000 0.00000000
f 226/226/226 227/227/227 228/228/228
v 0.50624999 0.46875000 1.00000000
vt 0.06640625 0.24884259
vn 0.00000000 -1.00000000 0.00000000
v 0.50624999 0.46875000 0.72812501
vt 0.06640625 0.26562500
vn 0.00000000 -1.00000000 0.00000000
v 0.85532406 0.46875000 1.00000000
vt 0.08808353 0.24884259
vn 0.00000000 -1.00000000 0.00000000
f 229/229/229 230/230/230 231/231/231
v 0.50624999 0.46875000 0.72812501
vt 0.06640625 0.26562500
vn 0.00000000 -1.00000000 0.00000000
v 1.00000000 0.46875000 0.72812501
vt 0.09706781 0.26562500
vn 0.00000000 -1.00000000 0.00000000
v 1.00000000 0.46875000 1.00000000
vt 0.09706781 0.24884259
vn 0.00000000 -1.00000000 0.00000000
f 232/232/232 233/233/233 234/234/234
v 0.50624999 0.46875000 0.72812501
vt 0.06640625 0.26562500
vn 0.00000000 -1.00000000 0.00000000
v 1.00000000 0.46875000 1.00000000
vt 0.09706781 0.24884259
vn 0.00000000 -1.00000000 0.00000000
v 0.85532406 0.46875000 1.00000000
vt 0.08808353 0.24884259
vn 0.00000000 -1.00000000 0.00000000
f 235/235/235 236/236/236 237/237/237
v 1.00000000 0.52273638 0.72812501
vt 0.03183844 0.42387821
vn 0.00000000 0.00000000 -1.00000000
v 0.50624999 0.57812500 0.72812501
vt 0.06250000 0.41992188
vn 0.00000000 0.00000000 -1.00000000
v 1.00000000 0.57812500 0.72812501
vt 0.03183844 0.41992188
vn 0.00000000 0.00000000 -1.00000000
f 238/238/238 239/239/239 240/240/240
v 1.00000000 0.46875000 0.72812501
vt 0.03183844 0.42773438
vn 0.00000000 0.00000000 -1.00000000
v 0.50624999 0.46875000 0.72812501
vt 0.06250000 0.42773438
vn 0.00000000 0.00000000 -1.00000000
v 0.50624999 0.57812500 0.72812501
vt 0.06250000 0.41992188
vn 0.00000000 0.00000000 -1.00000000
f 241/241/241 242/242/242 243/243/243
v 1.00000000 0.46875000 0.72812501
vt 0.03183844 0.42773438
vn 0.00000000 0.00000000 -1.00000000
v 0.50624999 0.57812500 0.72812501
vt 0.06250000 0.41992188
vn 0.00000000 0.00000000 -1.00000000
v 1.00000000 0.52273638 0.72812501
vt 0.03183844 0.42387821
vn 0.00000000 0.00000000 -1.00000000
f 244/244/244 245/245/245 246/246/246
v 0.64062500 0.57500005 0.69687501
vt 0.50000000 0.47070312
vn -1.00000000 0.00000000 0.00000000
v 0.64062500 0.50000000 0.69687501
vt 0.50000000 0.47460938
vn -1.00000000 0.00000000 0.00000000
v 0.64062500 0.57500005 0.73124999
vt 0.50195312 0.47070312
vn -1.00000000 0.00000000 0.00000000
f 247/247/247 248/248/248 249/249/249
v 0.64062500 0.50000000 0.69687501
vt 0.50000000 0.47460938
vn -1.00000000 0.00000000 0.00000000
v 0.64062500 0.50000000 0.73124999
vt 0.50195312 0.47460938
vn -1.00000000 0.00000000 0.00000000
v 0.64062500 0.57500005 0.73124999
vt 0.50195312 0.47070312
vn -1.00000000 0.00000000 0.00000000
f 250/250/250 251/251/251 252/252/252
v 0.64062500 0.57500005 0.69687501
vt 0.50585938 0.47070312
vn 0.00000000 1.00000000 0.00000000
v 0.64062500 0.57500005 0.73124999
vt 0.50585938 0.47265625
vn 0.00000000 1.00000000 0.00000000
v 1.00000000 0.57500005 0.71428380
vt 0.52803112 0.47169226
vn 0.00000000 1.00000000 0.00000000
f 253/253/253 254/254/254 255/255/255
v 0.64062500 0.57500005 0.69687501
vt 0.50585938 0.47070312
vn 0.00000000 1.00000000 0.00000000
v 1.00000000 0.57500005 0.71428380
vt 0.52803112 0.47169226
vn 0.00000000 1.00000000 0.00000000
v 1.00000000 0.57500005 0.69687501
vt 0.52803112 0.47070312
vn 0.00000000 1.00000000 0.00000000
f 256/256/256 257/257/257 258/258/258
v 0.64062500 0.57500005 0.73124999
vt 0.50585938 0.47265625
vn 0.00000000 1.00000000 0.00000000
v 1.00000000 0.57500005 0.73124999
vt 0.52803112 0.47265625
vn 0.00000000 1.00000000 0.00000000
v 1.00000000 0.57500005 0.71428380
vt 0.52803112 0.47169226
vn 0.00000000 1.00000000 0.00000000
f 259/259/259 260/260/260 261/261/261
v 0.64062500 0.50000000 0.73124999
vt 0.55468750 0.47070312
vn 0.00000000 -1.00000000 0.00000000
v 0.64062500 0.50000000 0.69687501
vt 0.55468750 0.47265625
vn 0.00000000 -1.00000000 0.00000000
v 1.00000000 0.50000000 0.71384120
vt 0.57685924 0.47169226
vn 0.00000000 -1.00000000 0.00000000
f 262/262/262 263/263/263 264/264/264
v 0.64062500 0.50000000 0.73124999
vt 0.55468750 0.47070312
vn 0.00000000 -1.00000000 0.00000000
v 1.00000000 0.50000000 0.71384120
vt 0.57685924 0.47169226
vn 0.00000000 -1.00000000 0.00000000
v 1.00000000 0.50000000 0.73124999
vt 0.57685924 0.47070312
vn 0.00000000 -1.00000000 0.00000000
f 265/265/265 266/266/266 267/267/267
v 0.64062500 0.50000000 0.69687501
vt 0.55468750 0.47265625
vn 0.00000000 -1.00000000 0.00000000
v 1.00000000 0.50000000 0.69687501
vt 0.57685924 0.47265625
vn 0.00000000 -1.00000000 0.00000000
v 1.00000000 0.50000000 0.71384120
vt 0.57685924 0.47169226
vn 0.00000000 -1.00000000 0.00000000
f 268/268/268 269/269/269 270/270/270
v 0.64062500 0.57500005 0.73124999
vt 0.91015625 0.45312500
vn 0.00000000 0.00000000 1.00000000
v 0.64062500 0.50000000 0.73124999
vt 0.91015625 0.45703125
vn 0.00000000 0.00000000 1.00000000
v 1.00000000 0.53701719 0.73124999
vt 0.93232799 0.45510327
vn 0.00000000 0.00000000 1.00000000
f 271/271/271 272/272/272 273/273/273
v 0.64062500 0.57500005 0.73124999
vt 0.91015625 0.45312500
vn 0.00000000 0.00000000 1.00000000
v 1.00000000 0.53701719 0.73124999
vt 0.93232799 0.45510327
vn 0.00000000 0.00000000 1.00000000
v 1.00000000 0.57500005 0.73124999
vt 0.93232799 0.45312500
vn 0.00000000 0.00000000 1.00000000
f 274/274/274 275/275/275 276/276/276
v 0.64062500 0.50000000 0.73124999
vt 0.91015625 0.45703125
vn 0.00000000 0.00000000 1.00000000
v 1.00000000 0.50000000 0.73124999
vt 0.93232799 0.45703125
vn 0.00000000 0.00000000 1.00000000
v 1.00000000 0.53701719 0.73124999
vt 0.93232799 0.45510327
vn 0.00000000 0.00000000 1.00000000
f 277/277/277 278/278/278 279/279/279
v 1.00000000 0.53798286 0.69687501
vt 0.88407826 0.45505298
vn 0.00000000 0.00000000 -1.00000000
v 0.64062500 0.57500005 0.69687501
vt 0.90625000 0.45312500
vn 0.00000000 0.00000000 -1.00000000
v 1.00000000 0.57500005 0.69687501
vt 0.88407826 0.45312500
vn 0.00000000 0.00000000 -1.00000000
f 280/280/280 281/281/281 282/282/282
v 1.00000000 0.50000000 0.69687501
vt 0.88407826 0.45703125
vn 0.00000000 0.00000000 -1.00000000
v 0.64062500 0.50000000 0.69687501
vt 0.90625000 0.45703125
vn 0.00000000 0.00000000 -1.00000000
v 0.64062500 0.57500005 0.69687501
vt 0.90625000 0.45312500
vn 0.00000000 0.00000000 -1.00000000
f 283/283/283 284/284/284 285/285/285
v 1.00000000 0.50000000 0.69687501
vt 0.88407826 0.45703125
vn 0.00000000 0.00000000 -1.00000000
v 0.64062500 0.57500005 0.69687501
vt 0.90625000 0.45312500
vn 0.00000000 0.00000000 -1.00000000
v 1.00000000 0.53798286 0.69687501
vt 0.88407826 0.45505298
vn 0.00000000 0.00000000 -1.00000000
f 286/286/286 287/287/287 288/288/288
v 0.44375002 1.00000000 0.96875000
vt 0.23242188 0.37890625
vn -1.00000000 0.00000000 0.00000000
v 0.44375002 0.93750000 0.96875000
vt 0.23242188 0.38281250
vn -1.00000000 0.00000000 0.00000000
v 0.44375002 0.95467033 1.00000000
vt 0.23435354 0.38173935
vn -1.00000000 0.00000000 0.00000000
f 289/289/289 290/290/290 291/291/291
v 0.44375002 1.00000000 0.96875000
vt 0.23242188 0.37890625
vn -1.00000000 0.00000000 0.00000000
v 0.44375002 0.95467033 1.00000000
vt 0.23435354 0.38173935
vn -1.00000000 0.00000000 0.00000000
v 0.44375002 1.00000000 1.00000000
vt 0.23435354 0.37890625
vn -1.00000000 0.00000000 0.00000000
f 292/292/292 293/293/293 294/294/294
v 0.44375002 0.93750000 0.96875000
vt 0.23242188 0.38281250
vn -1.00000000 0.00000000 0.00000000
v 0.44375002 0.93750000 1.00000000
vt 0.23435354 0.38281250
vn -1.00000000 0.00000000 0.00000000
v 0.44375002 0.95467033 1.00000000
vt 0.23435354 0.38173935
vn -1.00000000 0.00000000 0.00000000
f 295/295/295 296/296/296 297/297/297
v 0.44375002 0.93750000 1.00000000
vt 0.74804688 0.25197459
vn 0.00000000 -1.00000000 0.00000000
v 0.44375002 0.93750000 0.96875000
vt 0.74804688 0.25390625
vn 0.00000000 -1.00000000 0.00000000
v 0.50247255 0.93750000 1.00000000
vt 0.75169557 0.25197459
vn 0.00000000 -1.00000000 0.00000000
f 298/298/298 299/299/299 300/300/300
v 0.44375002 0.93750000 0.96875000
vt 0.74804688 0.25390625
vn 0.00000000 -1.00000000 0.00000000
v 1.00000000 0.93750000 0.96875000
vt 0.78260919 0.25390625
vn 0.00000000 -1.00000000 0.00000000
v 1.00000000 0.93750000 1.00000000
vt 0.78260919 0.25197459
vn 0.00000000 -1.00000000 0.00000000
f 301/301/301 302/302/302 303/303/303
v 0.44375002 0.93750000 0.96875000
vt 0.74804688 0.25390625
vn 0.00000000 -1.00000000 0.00000000
v 1.00000000 0.93750000 1.00000000
vt 0.78260919 0.25197459
vn 0.00000000 -1.00000000 0.00000000
v 0.50247255 0.93750000 1.00000000
vt 0.75169557 0.25197459
vn 0.00000000 -1.00000000 0.00000000
f 304/304/304 305/305/305 306/306/306
v 1.00000000 0.93750000 0.96875000
vt 0.64903143 0.35742188
vn 0.00000000 0.00000000 -1.00000000
v 0.44375002 0.93750000 0.96875000
vt 0.68359375 0.35742188
vn 0.00000000 0.00000000 -1.00000000
v 0.44375002 1.00000000 0.96875000
vt 0.68359375 0.35351562
vn 0.00000000 0.00000000 -1.00000000
f 307/307/307 308/308/308 309/309/309
v 1.00000000 0.93750000 0.96875000
vt 0.64903143 0.35742188
vn 0.00000000 0.00000000 -1.00000000
v 0.44375002 1.00000000 0.96875000
vt 0.68359375 0.35351562
vn 0.00000000 0.00000000 -1.00000000
v 1.00000000 1.00000000 0.96875000
vt 0.64903143 0.35351562
vn 0.00000000 0.00000000 -1.00000000
f 310/310/310 311/311/311 312/312/312
v 0.62946515 0.82622956 1.00000000
vt 0.94811722 0.32617188
vn 0.97814760 -0.20791169 0.00000000
v 0.62946515 0.82622956 0.76249999
vt 0.96289062 0.32617188
vn 0.97814760 -0.20791169 0.00000000
v 0.66640119 1.00000000 0.76249999
vt 0.96289062 0.31486297
vn 0.97814760 -0.20791169 0.00000000
f 313/313/313 314/314/314 315/315/315
v 0.62946515 0.82622956 1.00000000
vt 0.94811722 0.32617188
vn 0.97814760 -0.20791169 0.00000000
v 0.66640119 1.00000000 0.76249999
vt 0.96289062 0.31486297
vn 0.97814760 -0.20791169 0.00000000
v 0.66640119 1.00000000 1.00000000
vt 0.94811722 0.31486297
vn 0.97814760 -0.20791169 0.00000000
f 316/316/316 317/317/317 318/318/318
v 0.27343902 1.00000000 0.76249999
vt 0.00195312 0.35326700
vn -0.97814760 0.20791169 0.00000000
v 0.25348966 0.90614562 0.76249999
vt 0.00195312 0.35937500
vn -0.97814760 0.20791169 0.00000000
v 0.27343902 1.00000000 0.94996010
vt 0.01361385 0.35326700
vn -0.97814760 0.20791169 0.00000000
f 319/319/319 320/320/320 321/321/321
v 0.25348966 0.90614562 0.76249999
vt 0.00195312 0.35937500
vn -0.97814760 0.20791169 0.00000000
v 0.25348966 0.90614562 1.00000000
vt 0.01672653 0.35937500
vn -0.97814760 0.20791169 0.00000000
v 0.27343902 1.00000000 1.00000000
vt 0.01672653 0.35326700
vn -0.97814760 0.20791169 0.00000000
f 322/322/322 323/323/323 324/324/324
v 0.25348966 0.90614562 0.76249999
vt 0.00195312 0.35937500
vn -0.97814760 0.20791169 0.00000000
v 0.27343902 1.00000000 1.00000000
vt 0.01672653 0.35326700
vn -0.97814760 0.20791169 0.00000000
v 0.27343902 1.00000000 0.94996010
vt 0.01361385 0.35326700
vn -0.97814760 0.20791169 0.00000000
f 325/325/325 326/326/326 327/327/327
v 0.25348966 0.90614562 1.00000000
vt 0.47851562 0.24499222
vn -0.20791169 -0.97814760 0.00000000
v 0.25348966 0.90614562 0.76249999
vt 0.47851562 0.25976562
vn -0.20791169 -0.97814760 0.00000000
v 0.38891211 0.87736069 1.00000000
vt 0.48695757 0.24499222
vn -0.20791169 -0.97814760 0.00000000
f 328/328/328 329/329/329 330/330/330
v 0.25348966 0.90614562 0.76249999
vt 0.47851562 0.25976562
vn -0.20791169 -0.97814760 0.00000000
v 0.62946515 0.82622956 0.76249999
vt 0.50195312 0.25976562
vn -0.20791169 -0.97814760 0.00000000
v 0.62946515 0.82622956 1.00000000
vt 0.50195312 0.24499222
vn -0.20791169 -0.97814760 0.00000000
f 331/331/331 332/332/332 333/333/333
v 0.25348966 0.90614562 0.76249999
vt 0.47851562 0.25976562
vn -0.20791169 -0.97814760 0.00000000
v 0.62946515 0.82622956 1.00000000
vt 0.50195312 0.24499222
vn -0.20791169 -0.97814760 0.00000000
v 0.38891211 0.87736069 1.00000000
vt 0.48695757 0.24499222
vn -0.20791169 -0.97814760 0.00000000
f 334/334/334 335/335/335 336/336/336
v 0.66640119 1.00000000 0.76249999
vt 0.29687500 0.34806610
vn 0.00000000 0.00000000 -1.00000000
v 0.62946515 0.82622956 0.76249999
vt 0.29687500 0.35937500
vn 0.00000000 0.00000000 -1.00000000
v 0.49986851 1.00000000 0.76249999
vt 0.30680753 0.35027018
vn 0.00000000 0.00000000 -1.00000000
f 337/337/337 338/338/338 339/339/339
v 0.62946515 0.82622956 0.76249999
vt 0.29687500 0.35937500
vn 0.00000000 0.00000000 -1.00000000
v 0.25348966 0.90614562 0.76249999
vt 0.32031250 0.35937500
vn 0.00000000 0.00000000 -1.00000000
v 0.27343902 1.00000000 0.76249999
vt 0.32031250 0.35326700
vn 0.00000000 0.00000000 -1.00000000
f 340/340/340 341/341/341 342/342/342
v 0.62946515 0.82622956 0.76249999
vt 0.29687500 0.35937500
vn 0.00000000 0.00000000 -1.00000000
v 0.27343902 1.00000000 0.76249999
vt 0.32031250 0.35326700
vn 0.00000000 0.00000000 -1.00000000
v 0.49986851 1.00000000 0.76249999
vt 0.30680753 0.35027018
vn 0.00000000 0.00000000 -1.00000000
f 343/343/343 344/344/344 345/345/345
v 0.79736217 1.00000000 0.79687500
vt 0.52734375 0.32329649
vn 0.88294759 0.46947156 0.00000000
v 0.84908642 0.90272082 0.79687500
vt 0.52734375 0.33007812
vn 0.88294759 0.46947156 0.00000000
v 0.79736217 1.00000000 0.74679523
vt 0.53047374 0.32329649
vn 0.88294759 0.46947156 0.00000000
f 346/346/346 347/347/347 348/348/348
v 0.84908642 0.90272082 0.79687500
vt 0.52734375 0.33007812
vn 0.88294759 0.46947156 0.00000000
v 0.84908642 0.90272082 0.60937500
vt 0.53906250 0.33007812
vn 0.88294759 0.46947156 0.00000000
v 0.79736217 1.00000000 0.60937500
vt 0.53906250 0.32329649
vn 0.88294759 0.46947156 0.00000000
f 349/349/349 350/350/350 351/351/351
v 0.84908642 0.90272082 0.79687500
vt 0.52734375 0.33007812
vn 0.88294759 0.46947156 0.00000000
v 0.79736217 1.00000000 0.60937500
vt 0.53906250 0.32329649
vn 0.88294759 0.46947156 0.00000000
v 0.79736217 1.00000000 0.74679523
vt 0.53047374 0.32329649
vn 0.88294759 0.46947156 0.00000000
f 352/352/352 353/353/353 354/354/354
v 0.59916241 1.00000000 0.60937500
vt 0.54296875 0.31756903
vn -0.88294759 -0.46947156 0.00000000
v 0.69457060 0.82056330 0.60937500
vt 0.54296875 0.33007812
vn -0.88294759 -0.46947156 0.00000000
v 0.59916241 1.00000000 0.70174983
vt 0.54874218 0.31756903
vn -0.88294759 -0.46947156 0.00000000
f 355/355/355 356/356/356 357/357/357
v 0.69457060 0.82056330 0.60937500
vt 0.54296875 0.33007812
vn -0.88294759 -0.46947156 0.00000000
v 0.69457060 0.82056330 0.79687500
vt 0.55468750 0.33007812
vn -0.88294759 -0.46947156 0.00000000
v 0.59916241 1.00000000 0.79687500
vt 0.55468750 0.31756903
vn -0.88294759 -0.46947156 0.00000000
f 358/358/358 359/359/359 360/360/360
v 0.69457060 0.82056330 0.60937500
vt 0.54296875 0.33007812
vn -0.88294759 -0.46947156 0.00000000
v 0.59916241 1.00000000 0.79687500
vt 0.55468750 0.31756903
vn -0.88294759 -0.46947156 0.00000000
v 0.59916241 1.00000000 0.70174983
vt 0.54874218 0.31756903
vn -0.88294759 -0.46947156 0.00000000
f 361/361/361 362/362/362 363/363/363
v 0.69457060 0.82056330 0.79687500
vt 0.50976562 0.38671875
vn 0.46947156 -0.88294759 0.00000000
v 0.69457060 0.82056330 0.60937500
vt 0.50976562 0.39843750
vn 0.46947156 -0.88294759 0.00000000
v 0.84908642 0.90272082 0.79687500
vt 0.52148438 0.38671875
vn 0.46947156 -0.88294759 0.00000000
f 364/364/364 365/365/365 366/366/366
v 0.69457060 0.82056330 0.60937500
vt 0.50976562 0.39843750
vn 0.46947156 -0.88294759 0.00000000
v 0.84908642 0.90272082 0.60937500
vt 0.52148438 0.39843750
vn 0.46947156 -0.88294759 0.00000000
v 0.84908642 0.90272082 0.79687500
vt 0.52148438 0.38671875
vn 0.46947156 -0.88294759 0.00000000
f 367/367/367 368/368/368 369/369/369
v 0.59916241 1.00000000 0.79687500
vt 0.51171875 0.31756903
vn 0.00000000 0.00000000 1.00000000
v 0.69457060 0.82056330 0.79687500
vt 0.51171875 0.33007812
vn 0.00000000 0.00000000 1.00000000
v 0.67883631 1.00000000 0.79687500
vt 0.51642955 0.31987140
vn 0.00000000 0.00000000 1.00000000
f 370/370/370 371/371/371 372/372/372
v 0.69457060 0.82056330 0.79687500
vt 0.51171875 0.33007812
vn 0.00000000 0.00000000 1.00000000
v 0.84908642 0.90272082 0.79687500
vt 0.52343750 0.33007812
vn 0.00000000 0.00000000 1.00000000
v 0.79736217 1.00000000 0.79687500
vt 0.52343750 0.32329649
vn 0.00000000 0.00000000 1.00000000
f 373/373/373 374/374/374 375/375/375
v 0.69457060 0.82056330 0.79687500
vt 0.51171875 0.33007812
vn 0.00000000 0.00000000 1.00000000
v 0.79736217 1.00000000 0.79687500
vt 0.52343750 0.32329649
vn 0.00000000 0.00000000 1.00000000
v 0.67883631 1.00000000 0.79687500
vt 0.51642955 0.31987140
vn 0.00000000 0.00000000 1.00000000
f 376/376/376 377/377/377 378/378/378
v 0.79736217 1.00000000 0.60937500
vt 0.49609375 0.32329649
vn 0.00000000 0.00000000 -1.00000000
v 0.84908642 0.90272082 0.60937500
vt 0.49609375 0.33007812
vn 0.00000000 0.00000000 -1.00000000
v 0.72900500 1.00000000 0.60937500
vt 0.50013543 0.32132115
vn 0.00000000 0.00000000 -1.00000000
f 379/379/379 380/380/380 381/381/381
v 0.84908642 0.90272082 0.60937500
vt 0.49609375 0.33007812
vn 0.00000000 0.00000000 -1.00000000
v 0.69457060 0.82056330 0.60937500
vt 0.50781250 0.33007812
vn 0.00000000 0.00000000 -1.00000000
v 0.59916241 1.00000000 0.60937500
vt 0.50781250 0.31756903
vn 0.00000000 0.00000000 -1.00000000
f 382/382/382 383/383/383 384/384/384
v 0.84908642 0.90272082 0.60937500
vt 0.49609375 0.33007812
vn 0.00000000 0.00000000 -1.00000000
v 0.59916241 1.00000000 0.60937500
vt 0.50781250 0.31756903
vn 0.00000000 0.00000000 -1.00000000
v 0.72900500 1.00000000 0.60937500
vt 0.50013543 0.32132115
vn 0.00000000 0.00000000 -1.00000000
f 385/385/385 386/386/386 387/387/387
v 0.82500000 0.92499995 0.56874999
vt 0.57226562 0.38671875
vn -1.00000000 0.00000000 0.00000000
v 0.82500000 0.75000000 0.56874999
vt 0.57226562 0.39843750
vn -1.00000000 0.00000000 0.00000000
v 0.82500000 0.92499995 0.76250000
vt 0.58398438 0.38671875
vn -1.00000000 0.00000000 0.00000000
f 388/388/388 389/389/389 390/390/390
v 0.82500000 0.75000000 0.56874999
vt 0.57226562 0.39843750
vn -1.00000000 0.00000000 0.00000000
v 0.82500000 0.75000000 0.76250000
vt 0.58398438 0.39843750
vn -1.00000000 0.00000000 0.00000000
v 0.82500000 0.92499995 0.76250000
vt 0.58398438 0.38671875
vn -1.00000000 0.00000000 0.00000000
f 391/391/391 392/392/392 393/393/393
v 0.82500000 0.92499995 0.56874999
vt 0.27929688 0.38671875
vn 0.00000000 1.00000000 0.00000000
v 0.82500000 0.92499995 0.76250000
vt 0.27929688 0.39843750
vn 0.00000000 1.00000000 0.00000000
v 1.00000000 0.92499995 0.65400000
vt 0.29023437 0.39187500
vn 0.00000000 1.00000000 0.00000000
f 394/394/394 395/395/395 396/396/396
v 0.82500000 0.92499995 0.56874999
vt 0.27929688 0.38671875
vn 0.00000000 1.00000000 0.00000000
v 1.00000000 0.92499995 0.65400000
vt 0.29023437 0.39187500
vn 0.00000000 1.00000000 0.00000000
v 1.00000000 0.92499995 0.56874999
vt 0.29023437 0.38671875
vn 0.00000000 1.00000000 0.00000000
f 397/397/397 398/398/398 399/399/399
v 0.82500000 0.92499995 0.76250000
vt 0.27929688 0.39843750
vn 0.00000000 1.00000000 0.00000000
v 1.00000000 0.92499995 0.76250000
vt 0.29023437 0.39843750
vn 0.00000000 1.00000000 0.00000000
v 1.00000000 0.92499995 0.65400000
vt 0.29023437 0.39187500
vn 0.00000000 1.00000000 0.00000000
f 400/400/400 401/401/401 402/402/402
v 0.82500000 0.75000000 0.76250000
vt 0.30273438 0.38671875
vn 0.00000000 -1.00000000 0.00000000
v 0.82500000 0.75000000 0.56874999
vt 0.30273438 0.39843750
vn 0.00000000 -1.00000000 0.00000000
v 1.00000000 0.75000000 0.67725000
vt 0.31367187 0.39187500
vn 0.00000000 -1.00000000 0.00000000
f 403/403/403 404/404/404 405/405/405
v 0.82500000 0.75000000 0.76250000
vt 0.30273438 0.38671875
vn 0.00000000 -1.00000000 0.00000000
v 1.00000000 0.75000000 0.67725000
vt 0.31367187 0.39187500
vn 0.00000000 -1.00000000 0.00000000
v 1.00000000 0.75000000 0.76250000
vt 0.31367187 0.38671875
vn 0.00000000 -1.00000000 0.00000000
f 406/406/406 407/407/407 408/408/408
v 0.82500000 0.75000000 0.56874999
vt 0.30273438 0.39843750
vn 0.00000000 -1.00000000 0.00000000
v 1.00000000 0.75000000 0.56874999
vt 0.31367187 0.39843750
vn 0.00000000 -1.00000000 0.00000000
v 1.00000000 0.75000000 0.67725000
vt 0.31367187 0.39187500
vn 0.00000000 -1.00000000 0.00000000
f 409/409/409 410/410/410 411/411/411
v 0.82500000 0.92499995 0.76250000
vt 0.25585938 0.38671875
vn 0.00000000 0.00000000 1.00000000
v 0.82500000 0.75000000 0.76250000
vt 0.25585938 0.39843750
vn 0.00000000 0.00000000 1.00000000
v 1.00000000 0.84799997 0.76250000
vt 0.26679687 0.39187500
vn 0.00000000 0.00000000 1.00000000
f 412/412/412 413/413/413 414/414/414
v 0.82500000 0.92499995 0.76250000
vt 0.25585938 0.38671875
vn 0.00000000 0.00000000 1.00000000
v 1.00000000 0.84799997 0.76250000
vt 0.26679687 0.39187500
vn 0.00000000 0.00000000 1.00000000
v 1.00000000 0.92499995 0.76250000
vt 0.26679687 0.38671875
vn 0.00000000 0.00000000 1.00000000
f 415/415/415 416/416/416 417/417/417
v 0.82500000 0.75000000 0.76250000
vt 0.25585938 0.39843750
vn 0.00000000 0.00000000 1.00000000
v 1.00000000 0.75000000 0.76250000
vt 0.26679687 0.39843750
vn 0.00000000 0.00000000 1.00000000
v 1.00000000 0.84799997 0.76250000
vt 0.26679687 0.39187500
vn 0.00000000 0.00000000 1.00000000
f 418/418/418 419/419/419 420/420/420
v 1.00000000 0.82699998 0.56874999
vt 0.24101563 0.39328125
vn 0.00000000 0.00000000 -1.00000000
v 0.82500000 0.92499995 0.56874999
vt 0.25195312 0.38671875
vn 0.00000000 0.00000000 -1.00000000
v 1.00000000 0.92499995 0.56874999
vt 0.24101563 0.38671875
vn 0.00000000 0.00000000 -1.00000000
f 421/421/421 422/422/422 423/423/423
v 1.00000000 0.75000000 0.56874999
vt 0.24101563 0.39843750
vn 0.00000000 0.00000000 -1.00000000
v 0.82500000 0.75000000 0.56874999
vt 0.25195312 0.39843750
vn 0.00000000 0.00000000 -1.00000000
v 0.82500000 0.92499995 0.56874999
vt 0.25195312 0.38671875
vn 0.00000000 0.00000000 -1.00000000
f 424/424/424 425/425/425 426/426/426
v 1.00000000 0.75000000 0.56874999
vt 0.24101563 0.39843750
vn 0.00000000 0.00000000 -1.00000000
v 0.82500000 0.92499995 0.56874999
vt 0.25195312 0.38671875
vn 0.00000000 0.00000000 -1.00000000
v 1.00000000 0.82699998 0.56874999
vt 0.24101563 0.39328125
vn 0.00000000 0.00000000 -1.00000000
f 427/427/427 428/428/428 429/429/429
v 0.72499999 1.00000000 0.76562500
vt 0.91015625 0.37350109
vn -1.00000000 0.00000000 0.00000000
v 0.72499999 0.88750005 0.76562500
vt 0.91015625 0.38085938
vn -1.00000000 0.00000000 0.00000000
v 0.72499999 1.00000000 0.83103196
vt 0.91424419 0.37350109
vn -1.00000000 0.00000000 0.00000000
f 430/430/430 431/431/431 432/432/432
v 0.72499999 0.88750005 0.76562500
vt 0.91015625 0.38085938
vn -1.00000000 0.00000000 0.00000000
v 0.72499999 0.88750005 0.92187500
vt 0.91992188 0.38085938
vn -1.00000000 0.00000000 0.00000000
v 0.72499999 1.00000000 0.92187500
vt 0.91992188 0.37350109
vn -1.00000000 0.00000000 0.00000000
f 433/433/433 434/434/434 435/435/435
v 0.72499999 0.88750005 0.76562500
vt 0.91015625 0.38085938
vn -1.00000000 0.00000000 0.00000000
v 0.72499999 1.00000000 0.92187500
vt 0.91992188 0.37350109
vn -1.00000000 0.00000000 0.00000000
v 0.72499999 1.00000000 0.83103196
vt 0.91424419 0.37350109
vn -1.00000000 0.00000000 0.00000000
f 436/436/436 437/437/437 438/438/438
v 0.72499999 0.88750005 0.92187500
vt 0.36523438 0.40625000
vn 0.00000000 -1.00000000 0.00000000
v 0.72499999 0.88750005 0.76562500
vt 0.36523438 0.41601562
vn 0.00000000 -1.00000000 0.00000000
v 1.00000000 0.88750005 0.84946646
vt 0.38200267 0.41077553
vn 0.00000000 -1.00000000 0.00000000
f 439/439/439 440/440/440 441/441/441
v 0.72499999 0.88750005 0.92187500
vt 0.36523438 0.40625000
vn 0.00000000 -1.00000000 0.00000000
v 1.00000000 0.88750005 0.84946646
vt 0.38200267 0.41077553
vn 0.00000000 -1.00000000 0.00000000
v 1.00000000 0.88750005 0.92187500
vt 0.38200267 0.40625000
vn 0.00000000 -1.00000000 0.00000000
f 442/442/442 443/443/443 444/444/444
v 0.72499999 0.88750005 0.76562500
vt 0.36523438 0.41601562
vn 0.00000000 -1.00000000 0.00000000
v 1.00000000 0.88750005 0.76562500
vt 0.38200267 0.41601562
vn 0.00000000 -1.00000000 0.00000000
v 1.00000000 0.88750005 0.84946646
vt 0.38200267 0.41077553
vn 0.00000000 -1.00000000 0.00000000
f 445/445/445 446/446/446 447/447/447
v 0.72499999 1.00000000 0.92187500
vt 0.82226562 0.37350109
vn 0.00000000 0.00000000 1.00000000
v 0.72499999 0.88750005 0.92187500
vt 0.82226562 0.38085938
vn 0.00000000 0.00000000 1.00000000
v 0.93953483 1.00000000 0.92187500
vt 0.83534702 0.37350109
vn 0.00000000 0.00000000 1.00000000
f 448/448/448 449/449/449 450/450/450
v 0.72499999 0.88750005 0.92187500
vt 0.82226562 0.38085938
vn 0.00000000 0.00000000 1.00000000
v 1.00000000 0.88750005 0.92187500
vt 0.83903392 0.38085938
vn 0.00000000 0.00000000 1.00000000
v 1.00000000 1.00000000 0.92187500
vt 0.83903392 0.37350109
vn 0.00000000 0.00000000 1.00000000
f 451/451/451 452/452/452 453/453/453
v 0.72499999 0.88750005 0.92187500
vt 0.82226562 0.38085938
vn 0.00000000 0.00000000 1.00000000
v 1.00000000 1.00000000 0.92187500
vt 0.83903392 0.37350109
vn 0.00000000 0.00000000 1.00000000
v 0.93953483 1.00000000 0.92187500
vt 0.83534702 0.37350109
vn 0.00000000 0.00000000 1.00000000
f 454/454/454 455/455/455 456/456/456
v 1.00000000 0.88750005 0.76562500
vt 0.80159108 0.38085938
vn 0.00000000 0.00000000 -1.00000000
v 0.72499999 0.88750005 0.76562500
vt 0.81835938 0.38085938
vn 0.00000000 0.00000000 -1.00000000
v 0.72499999 1.00000000 0.76562500
vt 0.81835938 0.37350109
vn 0.00000000 0.00000000 -1.00000000
f 457/457/457 458/458/458 459/459/459
v 1.00000000 0.88750005 0.76562500
vt 0.80159108 0.38085938
vn 0.00000000 0.00000000 -1.00000000
v 0.72499999 1.00000000 0.76562500
vt 0.81835938 0.37350109
vn 0.00000000 0.00000000 -1.00000000
v 1.00000000 1.00000000 0.76562500
vt 0.80159108 0.37350109
vn 0.00000000 0.00000000 -1.00000000
f 460/460/460 461/461/461 462/462/462
v 0.59190961 0.76369737 1.00000000
vt 0.63555195 0.31655844
vn 0.99026807 -0.13917310 0.00000000
v 0.61922459 0.95805355 0.75625001
vt 0.65039062 0.30468750
vn 0.99026807 -0.13917310 0.00000000
v 0.61922459 0.95805355 1.00000000
vt 0.63555195 0.30468750
vn 0.99026807 -0.13917310 0.00000000
f 463/463/463 464/464/464 465/465/465
v 0.56529501 0.57432469 1.00000000
vt 0.63555195 0.32812500
vn 0.99026807 -0.13917310 0.00000000
v 0.56529501 0.57432469 0.75625001
vt 0.65039062 0.32812500
vn 0.99026807 -0.13917310 0.00000000
v 0.61922459 0.95805355 0.75625001
vt 0.65039062 0.30468750
vn 0.99026807 -0.13917310 0.00000000
f 466/466/466 467/467/467 468/468/468
v 0.56529501 0.57432469 1.00000000
vt 0.63555195 0.32812500
vn 0.99026807 -0.13917310 0.00000000
v 0.61922459 0.95805355 0.75625001
vt 0.65039062 0.30468750
vn 0.99026807 -0.13917310 0.00000000
v 0.59190961 0.76369737 1.00000000
vt 0.63555195 0.31655844
vn 0.99026807 -0.13917310 0.00000000
f 469/469/469 470/470/470 471/471/471
v 0.31586008 1.00000000 0.75625001
vt 0.65429688 0.30472875
vn -0.99026807 0.13917310 0.00000000
v 0.26202541 0.61694645 0.75625001
vt 0.65429688 0.32812500
vn -0.99026807 0.13917310 0.00000000
v 0.28934039 0.81130263 1.00000000
vt 0.66913555 0.31625406
vn -0.99026807 0.13917310 0.00000000
f 472/472/472 473/473/473 474/474/474
v 0.31586008 1.00000000 0.75625001
vt 0.65429688 0.30472875
vn -0.99026807 0.13917310 0.00000000
v 0.28934039 0.81130263 1.00000000
vt 0.66913555 0.31625406
vn -0.99026807 0.13917310 0.00000000
v 0.31586008 1.00000000 1.00000000
vt 0.66913555 0.30472875
vn -0.99026807 0.13917310 0.00000000
f 475/475/475 476/476/476 477/477/477
v 0.26202541 0.61694645 0.75625001
vt 0.65429688 0.32812500
vn -0.99026807 0.13917310 0.00000000
v 0.26202541 0.61694645 1.00000000
vt 0.66913555 0.32812500
vn -0.99026807 0.13917310 0.00000000
v 0.28934039 0.81130263 1.00000000
vt 0.66913555 0.31625406
vn -0.99026807 0.13917310 0.00000000
f 478/478/478 479/479/479 480/480/480
v 0.46562050 0.97964120 1.00000000
vt 0.19713880 0.31952618
vn 0.13917310 0.99026807 0.00000000
v 0.61922459 0.95805355 0.75625001
vt 0.20703125 0.30468750
vn 0.13917310 0.99026807 0.00000000
v 0.32076009 1.00000000 0.75625001
vt 0.18780946 0.30468750
vn 0.13917310 0.99026807 0.00000000
f 481/481/481 482/482/482 483/483/483
v 0.46562050 0.97964120 1.00000000
vt 0.19713880 0.31952618
vn 0.13917310 0.99026807 0.00000000
v 0.32076009 1.00000000 0.75625001
vt 0.18780946 0.30468750
vn 0.13917310 0.99026807 0.00000000
v 0.32076009 1.00000000 1.00000000
vt 0.18780946 0.31952618
vn 0.13917310 0.99026807 0.00000000
f 484/484/484 485/485/485 486/486/486
v 0.61922459 0.95805355 1.00000000
vt 0.20703125 0.31952618
vn 0.13917310 0.99026807 0.00000000
v 0.61922459 0.95805355 0.75625001
vt 0.20703125 0.30468750
vn 0.13917310 0.99026807 0.00000000
v 0.46562050 0.97964120 1.00000000
vt 0.19713880 0.31952618
vn 0.13917310 0.99026807 0.00000000
f 487/487/487 488/488/488 489/489/489
v 0.26202541 0.61694645 1.00000000
vt 0.21093750 0.31914570
vn -0.13917310 -0.99026807 0.00000000
v 0.26202541 0.61694645 0.75625001
vt 0.21093750 0.33398438
vn -0.13917310 -0.99026807 0.00000000
v 0.41562950 0.59535880 1.00000000
vt 0.22082995 0.31914570
vn -0.13917310 -0.99026807 0.00000000
f 490/490/490 491/491/491 492/492/492
v 0.26202541 0.61694645 0.75625001
vt 0.21093750 0.33398438
vn -0.13917310 -0.99026807 0.00000000
v 0.56529501 0.57432469 0.75625001
vt 0.23046875 0.33398438
vn -0.13917310 -0.99026807 0.00000000
v 0.56529501 0.57432469 1.00000000
vt 0.23046875 0.31914570
vn -0.13917310 -0.99026807 0.00000000
f 493/493/493 494/494/494 495/495/495
v 0.26202541 0.61694645 0.75625001
vt 0.21093750 0.33398438
vn -0.13917310 -0.99026807 0.00000000
v 0.56529501 0.57432469 1.00000000
vt 0.23046875 0.31914570
vn -0.13917310 -0.99026807 0.00000000
v 0.41562950 0.59535880 1.00000000
vt 0.22082995 0.31914570
vn -0.13917310 -0.99026807 0.00000000
f 496/496/496 497/497/497 498/498/498
v 0.61922459 0.95805355 0.75625001
vt 0.73437500 0.30468750
vn 0.00000000 0.00000000 -1.00000000
v 0.56529501 0.57432469 0.75625001
vt 0.73437500 0.32812500
vn 0.00000000 0.00000000 -1.00000000
v 0.31634993 1.00000000 0.75625001
vt 0.75387531 0.30472462
vn 0.00000000 0.00000000 -1.00000000
f 499/499/499 500/500/500 501/501/501
v 0.61922459 0.95805355 0.75625001
vt 0.73437500 0.30468750
vn 0.00000000 0.00000000 -1.00000000
v 0.31634993 1.00000000 0.75625001
vt 0.75387531 0.30472462
vn 0.00000000 0.00000000 -1.00000000
v 0.32076009 1.00000000 0.75625001
vt 0.75359679 0.30468750
vn 0.00000000 0.00000000 -1.00000000
f 502/502/502 503/503/503 504/504/504
v 0.56529501 0.57432469 0.75625001
vt 0.73437500 0.32812500
vn 0.00000000 0.00000000 -1.00000000
v 0.26202541 0.61694645 0.75625001
vt 0.75390625 0.32812500
vn 0.00000000 0.00000000 -1.00000000
v 0.31586008 1.00000000 0.75625001
vt 0.75390625 0.30472875
vn 0.00000000 0.00000000 -1.00000000
f 505/505/505 506/506/506 507/507/507
v 0.56529501 0.57432469 0.75625001
vt 0.73437500 0.32812500
vn 0.00000000 0.00000000 -1.00000000
v 0.31586008 1.00000000 0.75625001
vt 0.75390625 0.30472875
vn 0.00000000 0.00000000 -1.00000000
v 0.31634993 1.00000000 0.75625001
vt 0.75387531 0.30472462
vn 0.00000000 0.00000000 -1.00000000
f 508/508/508 509/509/509 510/510/510
v 0.55000001 0.42435898 1.00000000
vt 0.23096955 0.35634515
vn 1.00000000 0.00000000 0.00000000
v 0.55000001 0.72500002 0.58125001
vt 0.25781250 0.33789062
vn 1.00000000 0.00000000 0.00000000
v 0.55000001 0.72500002 1.00000000
vt 0.23096955 0.33789062
vn 1.00000000 0.00000000 0.00000000
f 511/511/511 512/512/512 513/513/513
v 0.55000001 0.37500000 1.00000000
vt 0.23096955 0.35937500
vn 1.00000000 0.00000000 0.00000000
v 0.55000001 0.37500000 0.58125001
vt 0.25781250 0.35937500
vn 1.00000000 0.00000000 0.00000000
v 0.55000001 0.72500002 0.58125001
vt 0.25781250 0.33789062
vn 1.00000000 0.00000000 0.00000000
f 514/514/514 515/515/515 516/516/516
v 0.55000001 0.37500000 1.00000000
vt 0.23096955 0.35937500
vn 1.00000000 0.00000000 0.00000000
v 0.55000001 0.72500002 0.58125001
vt 0.25781250 0.33789062
vn 1.00000000 0.00000000 0.00000000
v 0.55000001 0.42435898 1.00000000
vt 0.23096955 0.35634515
vn 1.00000000 0.00000000 0.00000000
f 517/517/517 518/518/518 519/519/519
v 0.24374998 0.72500002 0.58125001
vt 0.26171875 0.33789062
vn -1.00000000 0.00000000 0.00000000
v 0.24374998 0.37500000 0.58125001
vt 0.26171875 0.35937500
vn -1.00000000 0.00000000 0.00000000
v 0.24374998 0.67564104 1.00000000
vt 0.28856170 0.34092047
vn -1.00000000 0.00000000 0.00000000
f 520/520/520 521/521/521 522/522/522
v 0.24374998 0.72500002 0.58125001
vt 0.26171875 0.33789062
vn -1.00000000 0.00000000 0.00000000
v 0.24374998 0.67564104 1.00000000
vt 0.28856170 0.34092047
vn -1.00000000 0.00000000 0.00000000
v 0.24374998 0.72500002 1.00000000
vt 0.28856170 0.33789062
vn -1.00000000 0.00000000 0.00000000
f 523/523/523 524/524/524 525/525/525
v 0.24374998 0.37500000 0.58125001
vt 0.26171875 0.35937500
vn -1.00000000 0.00000000 0.00000000
v 0.24374998 0.37500000 1.00000000
vt 0.28856170 0.35937500
vn -1.00000000 0.00000000 0.00000000
v 0.24374998 0.67564104 1.00000000
vt 0.28856170 0.34092047
vn -1.00000000 0.00000000 0.00000000
f 526/526/526 527/527/527 528/528/528
v 0.24374998 0.72500002 0.58125001
vt 0.33007812 0.26953125
vn 0.00000000 1.00000000 0.00000000
v 0.24374998 0.72500002 1.00000000
vt 0.33007812 0.29637420
vn 0.00000000 1.00000000 0.00000000
v 0.28693909 0.72500002 1.00000000
vt 0.33283253 0.29637420
vn 0.00000000 1.00000000 0.00000000
f 529/529/529 530/530/530 531/531/531
v 0.24374998 0.72500002 0.58125001
vt 0.33007812 0.26953125
vn 0.00000000 1.00000000 0.00000000
v 0.28693909 0.72500002 1.00000000
vt 0.33283253 0.29637420
vn 0.00000000 1.00000000 0.00000000
v 0.55000001 0.72500002 0.58125001
vt 0.34960938 0.26953125
vn 0.00000000 1.00000000 0.00000000
f 532/532/532 533/533/533 534/534/534
v 0.55000001 0.72500002 1.00000000
vt 0.34960938 0.29637420
vn 0.00000000 1.00000000 0.00000000
v 0.55000001 0.72500002 0.58125001
vt 0.34960938 0.26953125
vn 0.00000000 1.00000000 0.00000000
v 0.28693909 0.72500002 1.00000000
vt 0.33283253 0.29637420
vn 0.00000000 1.00000000 0.00000000
f 535/535/535 536/536/536 537/537/537
v 0.24374998 0.37500000 1.00000000
vt 0.35351562 0.27393830
vn 0.00000000 -1.00000000 0.00000000
v 0.24374998 0.37500000 0.58125001
vt 0.35351562 0.30078125
vn 0.00000000 -1.00000000 0.00000000
v 0.50681090 0.37500000 1.00000000
vt 0.37029247 0.27393830
vn 0.00000000 -1.00000000 0.00000000
f 538/538/538 539/539/539 540/540/540
v 0.24374998 0.37500000 0.58125001
vt 0.35351562 0.30078125
vn 0.00000000 -1.00000000 0.00000000
v 0.55000001 0.37500000 0.58125001
vt 0.37304688 0.30078125
vn 0.00000000 -1.00000000 0.00000000
v 0.55000001 0.37500000 1.00000000
vt 0.37304688 0.27393830
vn 0.00000000 -1.00000000 0.00000000
f 541/541/541 542/542/542 543/543/543
v 0.24374998 0.37500000 0.58125001
vt 0.35351562 0.30078125
vn 0.00000000 -1.00000000 0.00000000
v 0.55000001 0.37500000 1.00000000
vt 0.37304688 0.27393830
vn 0.00000000 -1.00000000 0.00000000
v 0.50681090 0.37500000 1.00000000
vt 0.37029247 0.27393830
vn 0.00000000 -1.00000000 0.00000000
f 544/544/544 545/545/545 546/546/546
v 0.55000001 0.72500002 0.58125001
vt 0.35156250 0.33789062
vn 0.00000000 0.00000000 -1.00000000
v 0.55000001 0.37500000 0.58125001
vt 0.35156250 0.35937500
vn 0.00000000 0.00000000 -1.00000000
v 0.24374998 0.72500002 0.58125001
vt 0.37109375 0.33789062
vn 0.00000000 0.00000000 -1.00000000
f 547/547/547 548/548/548 549/549/549
v 0.55000001 0.37500000 0.58125001
vt 0.35156250 0.35937500
vn 0.00000000 0.00000000 -1.00000000
v 0.24374998 0.37500000 0.58125001
vt 0.37109375 0.35937500
vn 0.00000000 0.00000000 -1.00000000
v 0.24374998 0.72500002 0.58125001
vt 0.37109375 0.33789062
vn 0.00000000 0.00000000 -1.00000000
f 550/550/550 551/551/551 552/552/552
v 0.53749999 0.69375002 0.77500001
vt 0.45898438 0.38671875
vn 1.00000000 0.00000000 0.00000000
v 0.53749999 0.51250005 0.77500001
vt 0.45898438 0.39843750
vn 1.00000000 0.00000000 0.00000000
v 0.53749999 0.69375002 0.54374999
vt 0.47265625 0.38671875
vn 1.00000000 0.00000000 0.00000000
f 553/553/553 554/554/554 555/555/555
v 0.53749999 0.51250005 0.77500001
vt 0.45898438 0.39843750
vn 1.00000000 0.00000000 0.00000000
v 0.53749999 0.51250005 0.54374999
vt 0.47265625 0.39843750
vn 1.00000000 0.00000000 0.00000000
v 0.53749999 0.69375002 0.54374999
vt 0.47265625 0.38671875
vn 1.00000000 0.00000000 0.00000000
f 556/556/556 557/557/557 558/558/558
v 0.20937502 0.69375002 0.54374999
vt 0.47656250 0.38671875
vn -1.00000000 0.00000000 0.00000000
v 0.20937502 0.51250005 0.54374999
vt 0.47656250 0.39843750
vn -1.00000000 0.00000000 0.00000000
v 0.20937502 0.69375002 0.77500001
vt 0.49023438 0.38671875
vn -1.00000000 0.00000000 0.00000000
f 559/559/559 560/560/560 561/561/561
v 0.20937502 0.51250005 0.54374999
vt 0.47656250 0.39843750
vn -1.00000000 0.00000000 0.00000000
v 0.20937502 0.51250005 0.77500001
vt 0.49023438 0.39843750
vn -1.00000000 0.00000000 0.00000000
v 0.20937502 0.69375002 0.77500001
vt 0.49023438 0.38671875
vn -1.00000000 0.00000000 0.00000000
f 562/562/562 563/563/563 564/564/564
v 0.20937502 0.69375002 0.54374999
vt 0.18554688 0.38671875
vn 0.00000000 1.00000000 0.00000000
v 0.20937502 0.69375002 0.77500001
vt 0.18554688 0.40039062
vn 0.00000000 1.00000000 0.00000000
v 0.53749999 0.69375002 0.54374999
vt 0.20507812 0.38671875
vn 0.00000000 1.00000000 0.00000000
f 565/565/565 566/566/566 567/567/567
v 0.20937502 0.69375002 0.77500001
vt 0.18554688 0.40039062
vn 0.00000000 1.00000000 0.00000000
v 0.53749999 0.69375002 0.77500001
vt 0.20507812 0.40039062
vn 0.00000000 1.00000000 0.00000000
v 0.53749999 0.69375002 0.54374999
vt 0.20507812 0.38671875
vn 0.00000000 1.00000000 0.00000000
f 568/568/568 569/569/569 570/570/570
v 0.20937502 0.51250005 0.77500001
vt 0.20898438 0.38671875
vn 0.00000000 -1.00000000 0.00000000
v 0.20937502 0.51250005 0.54374999
vt 0.20898438 0.40039062
vn 0.00000000 -1.00000000 0.00000000
v 0.53749999 0.51250005 0.77500001
vt 0.22851562 0.38671875
vn 0.00000000 -1.00000000 0.00000000
f 571/571/571 572/572/572 573/573/573
v 0.20937502 0.51250005 0.54374999
vt 0.20898438 0.40039062
vn 0.00000000 -1.00000000 0.00000000
v 0.53749999 0.51250005 0.54374999
vt 0.22851562 0.40039062
vn 0.00000000 -1.00000000 0.00000000
v 0.53749999 0.51250005 0.77500001
vt 0.22851562 0.38671875
vn 0.00000000 -1.00000000 0.00000000
f 574/574/574 575/575/575 576/576/576
v 0.20937502 0.69375002 0.77500001
vt 0.34960938 0.38671875
vn 0.00000000 0.00000000 1.00000000
v 0.20937502 0.51250005 0.77500001
vt 0.34960938 0.39843750
vn 0.00000000 0.00000000 1.00000000
v 0.53749999 0.69375002 0.77500001
vt 0.36914062 0.38671875
vn 0.00000000 0.00000000 1.00000000
f 577/577/577 578/578/578 579/579/579
v 0.20937502 0.51250005 0.77500001
vt 0.34960938 0.39843750
vn 0.00000000 0.00000000 1.00000000
v 0.53749999 0.51250005 0.77500001
vt 0.36914062 0.39843750
vn 0.00000000 0.00000000 1.00000000
v 0.53749999 0.69375002 0.77500001
vt 0.36914062 0.38671875
vn 0.00000000 0.00000000 1.00000000
f 580/580/580 581/581/581 582/582/582
v 0.53749999 0.69375002 0.54374999
vt 0.32617188 0.38671875
vn 0.00000000 0.00000000 -1.00000000
v 0.53749999 0.51250005 0.54374999
vt 0.32617188 0.39843750
vn 0.00000000 0.00000000 -1.00000000
v 0.20937502 0.69375002 0.54374999
vt 0.34570312 0.38671875
vn 0.00000000 0.00000000 -1.00000000
f 583/583/583 584/584/584 585/585/585
v 0.53749999 0.51250005 0.54374999
vt 0.32617188 0.39843750
vn 0.00000000 0.00000000 -1.00000000
v 0.20937502 0.51250005 0.54374999
vt 0.34570312 0.39843750
vn 0.00000000 0.00000000 -1.00000000
v 0.20937502 0.69375002 0.54374999
vt 0.34570312 0.38671875
vn 0.00000000 0.00000000 -1.00000000
f 586/586/586 587/587/587 588/588/588
v 0.44999999 0.70624995 0.59375000
vt 0.64648438 0.38671875
vn 1.00000000 0.00000000 0.00000000
v 0.44999999 0.52499998 0.59375000
vt 0.64648438 0.39843750
vn 1.00000000 0.00000000 0.00000000
v 0.44999999 0.70624995 0.45937502
vt 0.65429688 0.38671875
vn 1.00000000 0.00000000 0.00000000
f 589/589/589 590/590/590 591/591/591
v 0.44999999 0.52499998 0.59375000
vt 0.64648438 0.39843750
vn 1.00000000 0.00000000 0.00000000
v 0.44999999 0.52499998 0.45937502
vt 0.65429688 0.39843750
vn 1.00000000 0.00000000 0.00000000
v 0.44999999 0.70624995 0.45937502
vt 0.65429688 0.38671875
vn 1.00000000 0.00000000 0.00000000
f 592/592/592 593/593/593 594/594/594
v 0.19375002 0.70624995 0.45937502
vt 0.65820312 0.38671875
vn -1.00000000 0.00000000 0.00000000
v 0.19375002 0.52499998 0.45937502
vt 0.65820312 0.39843750
vn -1.00000000 0.00000000 0.00000000
v 0.19375002 0.70624995 0.59375000
vt 0.66601562 0.38671875
vn -1.00000000 0.00000000 0.00000000
f 595/595/595 596/596/596 597/597/597
v 0.19375002 0.52499998 0.45937502
vt 0.65820312 0.39843750
vn -1.00000000 0.00000000 0.00000000
v 0.19375002 0.52499998 0.59375000
vt 0.66601562 0.39843750
vn -1.00000000 0.00000000 0.00000000
v 0.19375002 0.70624995 0.59375000
vt 0.66601562 0.38671875
vn -1.00000000 0.00000000 0.00000000
f 598/598/598 599/599/599 600/600/600
v 0.19375002 0.70624995 0.45937502
vt 0.91601562 0.41992188
vn 0.00000000 1.00000000 0.00000000
v 0.19375002 0.70624995 0.59375000
vt 0.91601562 0.42773438
vn 0.00000000 1.00000000 0.00000000
v 0.44999999 0.70624995 0.45937502
vt 0.93164062 0.41992188
vn 0.00000000 1.00000000 0.00000000
f 601/601/601 602/602/602 603/603/603
v 0.19375002 0.70624995 0.59375000
vt 0.91601562 0.42773438
vn 0.00000000 1.00000000 0.00000000
v 0.44999999 0.70624995 0.59375000
vt 0.93164062 0.42773438
vn 0.00000000 1.00000000 0.00000000
v 0.44999999 0.70624995 0.45937502
vt 0.93164062 0.41992188
vn 0.00000000 1.00000000 0.00000000
f 604/604/604 605/605/605 606/606/606
v 0.19375002 0.52499998 0.59375000
vt 0.93554688 0.41992188
vn 0.00000000 -1.00000000 0.00000000
v 0.19375002 0.52499998 0.45937502
vt 0.93554688 0.42773438
vn 0.00000000 -1.00000000 0.00000000
v 0.44999999 0.52499998 0.59375000
vt 0.95117188 0.41992188
vn 0.00000000 -1.00000000 0.00000000
f 607/607/607 608/608/608 609/609/609
v 0.19375002 0.52499998 0.45937502
vt 0.93554688 0.42773438
vn 0.00000000 -1.00000000 0.00000000
v 0.44999999 0.52499998 0.45937502
vt 0.95117188 0.42773438
vn 0.00000000 -1.00000000 0.00000000
v 0.44999999 0.52499998 0.59375000
vt 0.95117188 0.41992188
vn 0.00000000 -1.00000000 0.00000000
f 610/610/610 611/611/611 612/612/612
v 0.19375002 0.70624995 0.59375000
vt 0.43945312 0.38671875
vn 0.00000000 0.00000000 1.00000000
v 0.19375002 0.52499998 0.59375000
vt 0.43945312 0.39843750
vn 0.00000000 0.00000000 1.00000000
v 0.44999999 0.70624995 0.59375000
vt 0.45507812 0.38671875
vn 0.00000000 0.00000000 1.00000000
f 613/613/613 614/614/614 615/615/615
v 0.19375002 0.52499998 0.59375000
vt 0.43945312 0.39843750
vn 0.00000000 0.00000000 1.00000000
v 0.44999999 0.52499998 0.59375000
vt 0.45507812 0.39843750
vn 0.00000000 0.00000000 1.00000000
v 0.44999999 0.70624995 0.59375000
vt 0.45507812 0.38671875
vn 0.00000000 0.00000000 1.00000000
f 616/616/616 617/617/617 618/618/618
v 0.44999999 0.70624995 0.45937502
vt 0.41992188 0.38671875
vn 0.00000000 0.00000000 -1.00000000
v 0.44999999 0.52499998 0.45937502
vt 0.41992188 0.39843750
vn 0.00000000 0.00000000 -1.00000000
v 0.19375002 0.70624995 0.45937502
vt 0.43554688 0.38671875
vn 0.00000000 0.00000000 -1.00000000
f 619/619/619 620/620/620 621/621/621
v 0.44999999 0.52499998 0.45937502
vt 0.41992188 0.39843750
vn 0.00000000 0.00000000 -1.00000000
v 0.19375002 0.52499998 0.45937502
vt 0.43554688 0.39843750
vn 0.00000000 0.00000000 -1.00000000
v 0.19375002 0.70624995 0.45937502
vt 0.43554688 0.38671875
vn 0.00000000 0.00000000 -1.00000000
f 622/622/622 623/623/623 624/624/624
v 0.27499998 0.67812502 0.46562499
vt 0.95117188 0.40625000
vn 1.00000000 0.00000000 0.00000000
v 0.27499998 0.52187502 0.46562499
vt 0.95117188 0.41601562
vn 1.00000000 0.00000000 0.00000000
v 0.27499998 0.67812502 0.42812502
vt 0.95312500 0.40625000
vn 1.00000000 0.00000000 0.00000000
f 625/625/625 626/626/626 627/627/627
v 0.27499998 0.52187502 0.46562499
vt 0.95117188 0.41601562
vn 1.00000000 0.00000000 0.00000000
v 0.27499998 0.52187502 0.42812502
vt 0.95312500 0.41601562
vn 1.00000000 0.00000000 0.00000000
v 0.27499998 0.67812502 0.42812502
vt 0.95312500 0.40625000
vn 1.00000000 0.00000000 0.00000000
f 628/628/628 629/629/629 630/630/630
v 0.22500002 0.67812502 0.42812502
vt 0.95703125 0.40625000
vn -1.00000000 0.00000000 0.00000000
v 0.22500002 0.52187502 0.42812502
vt 0.95703125 0.41601562
vn -1.00000000 0.00000000 0.00000000
v 0.22500002 0.67812502 0.46562499
vt 0.95898438 0.40625000
vn -1.00000000 0.00000000 0.00000000
f 631/631/631 632/632/632 633/633/633
v 0.22500002 0.52187502 0.42812502
vt 0.95703125 0.41601562
vn -1.00000000 0.00000000 0.00000000
v 0.22500002 0.52187502 0.46562499
vt 0.95898438 0.41601562
vn -1.00000000 0.00000000 0.00000000
v 0.22500002 0.67812502 0.46562499
vt 0.95898438 0.40625000
vn -1.00000000 0.00000000 0.00000000
f 634/634/634 635/635/635 636/636/636
v 0.22500002 0.67812502 0.42812502
vt 0.68164062 0.47851562
vn 0.00000000 1.00000000 0.00000000
v 0.22500002 0.67812502 0.46562499
vt 0.68164062 0.48046875
vn 0.00000000 1.00000000 0.00000000
v 0.27499998 0.67812502 0.42812502
vt 0.68554688 0.47851562
vn 0.00000000 1.00000000 0.00000000
f 637/637/637 638/638/638 639/639/639
v 0.22500002 0.67812502 0.46562499
vt 0.68164062 0.48046875
vn 0.00000000 1.00000000 0.00000000
v 0.27499998 0.67812502 0.46562499
vt 0.68554688 0.48046875
vn 0.00000000 1.00000000 0.00000000
v 0.27499998 0.67812502 0.42812502
vt 0.68554688 0.47851562
vn 0.00000000 1.00000000 0.00000000
f 640/640/640 641/641/641 642/642/642
v 0.22500002 0.52187502 0.46562499
vt 0.68945312 0.47851562
vn 0.00000000 -1.00000000 0.00000000
v 0.22500002 0.52187502 0.42812502
vt 0.68945312 0.48046875
vn 0.00000000 -1.00000000 0.00000000
v 0.27499998 0.52187502 0.46562499
vt 0.69335938 0.47851562
vn 0.00000000 -1.00000000 0.00000000
f 643/643/643 644/644/644 645/645/645
v 0.22500002 0.52187502 0.42812502
vt 0.68945312 0.48046875
vn 0.00000000 -1.00000000 0.00000000
v 0.27499998 0.52187502 0.42812502
vt 0.69335938 0.48046875
vn 0.00000000 -1.00000000 0.00000000
v 0.27499998 0.52187502 0.46562499
vt 0.69335938 0.47851562
vn 0.00000000 -1.00000000 0.00000000
f 646/646/646 647/647/647 648/648/648
v 0.22500002 0.67812502 0.46562499
vt 0.91210938 0.40625000
vn 0.00000000 0.00000000 1.00000000
v 0.22500002 0.52187502 0.46562499
vt 0.91210938 0.41601562
vn 0.00000000 0.00000000 1.00000000
v 0.27499998 0.67812502 0.46562499
vt 0.91601562 0.40625000
vn 0.00000000 0.00000000 1.00000000
f 649/649/649 650/650/650 651/651/651
v 0.22500002 0.52187502 0.46562499
vt 0.91210938 0.41601562
vn 0.00000000 0.00000000 1.00000000
v 0.27499998 0.52187502 0.46562499
vt 0.91601562 0.41601562
vn 0.00000000 0.00000000 1.00000000
v 0.27499998 0.67812502 0.46562499
vt 0.91601562 0.40625000
vn 0.00000000 0.00000000 1.00000000
f 652/652/652 653/653/653 654/654/654
v 0.27499998 0.67812502 0.42812502
vt 0.90429688 0.40625000
vn 0.00000000 0.00000000 -1.00000000
v 0.27499998 0.52187502 0.42812502
vt 0.90429688 0.41601562
vn 0.00000000 0.00000000 -1.00000000
v 0.22500002 0.67812502 0.42812502
vt 0.90820312 0.40625000
vn 0.00000000 0.00000000 -1.00000000
f 655/655/655 656/656/656 657/657/657
v 0.27499998 0.52187502 0.42812502
vt 0.90429688 0.41601562
vn 0.00000000 0.00000000 -1.00000000
v 0.22500002 0.52187502 0.42812502
vt 0.90820312 0.41601562
vn 0.00000000 0.00000000 -1.00000000
v 0.22500002 0.67812502 0.42812502
vt 0.90820312 0.40625000
vn 0.00000000 0.00000000 -1.00000000
f 658/658/658 659/659/659 660/660/660
v 0.34062499 0.67812502 0.46562499
vt 0.96289062 0.40625000
vn 1.00000000 0.00000000 0.00000000
v 0.34062499 0.52187502 0.46562499
vt 0.96289062 0.41601562
vn 1.00000000 0.00000000 0.00000000
v 0.34062499 0.67812502 0.42812502
vt 0.96484375 0.40625000
vn 1.00000000 0.00000000 0.00000000
f 661/661/661 662/662/662 663/663/663
v 0.34062499 0.52187502 0.46562499
vt 0.96289062 0.41601562
vn 1.00000000 0.00000000 0.00000000
v 0.34062499 0.52187502 0.42812502
vt 0.96484375 0.41601562
vn 1.00000000 0.00000000 0.00000000
v 0.34062499 0.67812502 0.42812502
vt 0.96484375 0.40625000
vn 1.00000000 0.00000000 0.00000000
f 664/664/664 665/665/665 666/666/666
v 0.29062498 0.67812502 0.42812502
vt 0.96875000 0.40625000
vn -1.00000000 0.00000000 0.00000000
v 0.29062498 0.52187502 0.42812502
vt 0.96875000 0.41601562
vn -1.00000000 0.00000000 0.00000000
v 0.29062498 0.67812502 0.46562499
vt 0.97070312 0.40625000
vn -1.00000000 0.00000000 0.00000000
f 667/667/667 668/668/668 669/669/669
v 0.29062498 0.52187502 0.42812502
vt 0.96875000 0.41601562
vn -1.00000000 0.00000000 0.00000000
v 0.29062498 0.52187502 0.46562499
vt 0.97070312 0.41601562
vn -1.00000000 0.00000000 0.00000000
v 0.29062498 0.67812502 0.46562499
vt 0.97070312 0.40625000
vn -1.00000000 0.00000000 0.00000000
f 670/670/670 671/671/671 672/672/672
v 0.29062498 0.67812502 0.42812502
vt 0.69726562 0.47851562
vn 0.00000000 1.00000000 0.00000000
v 0.29062498 0.67812502 0.46562499
vt 0.69726562 0.48046875
vn 0.00000000 1.00000000 0.00000000
v 0.34062499 0.67812502 0.42812502
vt 0.70117188 0.47851562
vn 0.00000000 1.00000000 0.00000000
f 673/673/673 674/674/674 675/675/675
v 0.29062498 0.67812502 0.46562499
vt 0.69726562 0.48046875
vn 0.00000000 1.00000000 0.00000000
v 0.34062499 0.67812502 0.46562499
vt 0.70117188 0.48046875
vn 0.00000000 1.00000000 0.00000000
v 0.34062499 0.67812502 0.42812502
vt 0.70117188 0.47851562
vn 0.00000000 1.00000000 0.00000000
f 676/676/676 677/677/677 678/678/678
v 0.29062498 0.52187502 0.46562499
vt 0.70507812 0.47851562
vn 0.00000000 -1.00000000 0.00000000
v 0.29062498 0.52187502 0.42812502
vt 0.70507812 0.48046875
vn 0.00000000 -1.00000000 0.00000000
v 0.34062499 0.52187502 0.46562499
vt 0.70898438 0.47851562
vn 0.00000000 -1.00000000 0.00000000
f 679/679/679 680/680/680 681/681/681
v 0.29062498 0.52187502 0.42812502
vt 0.70507812 0.48046875
vn 0.00000000 -1.00000000 0.00000000
v 0.34062499 0.52187502 0.42812502
vt 0.70898438 0.48046875
vn 0.00000000 -1.00000000 0.00000000
v 0.34062499 0.52187502 0.46562499
vt 0.70898438 0.47851562
vn 0.00000000 -1.00000000 0.00000000
f 682/682/682 683/683/683 684/684/684
v 0.29062498 0.67812502 0.46562499
vt 0.92773438 0.40625000
vn 0.00000000 0.00000000 1.00000000
v 0.29062498 0.52187502 0.46562499
vt 0.92773438 0.41601562
vn 0.00000000 0.00000000 1.00000000
v 0.34062499 0.67812502 0.46562499
vt 0.93164062 0.40625000
vn 0.00000000 0.00000000 1.00000000
f 685/685/685 686/686/686 687/687/687
v 0.29062498 0.52187502 0.46562499
vt 0.92773438 0.41601562
vn 0.00000000 0.00000000 1.00000000
v 0.34062499 0.52187502 0.46562499
vt 0.93164062 0.41601562
vn 0.00000000 0.00000000 1.00000000
v 0.34062499 0.67812502 0.46562499
vt 0.93164062 0.40625000
vn 0.00000000 0.00000000 1.00000000
f 688/688/688 689/689/689 690/690/690
v 0.34062499 0.67812502 0.42812502
vt 0.91992188 0.40625000
vn 0.00000000 0.00000000 -1.00000000
v 0.34062499 0.52187502 0.42812502
vt 0.91992188 0.41601562
vn 0.00000000 0.00000000 -1.00000000
v 0.29062498 0.67812502 0.42812502
vt 0.92382812 0.40625000
vn 0.00000000 0.00000000 -1.00000000
f 691/691/691 692/692/692 693/693/693
v 0.34062499 0.52187502 0.42812502
vt 0.91992188 0.41601562
vn 0.00000000 0.00000000 -1.00000000
v 0.29062498 0.52187502 0.42812502
vt 0.92382812 0.41601562
vn 0.00000000 0.00000000 -1.00000000
v 0.29062498 0.67812502 0.42812502
vt 0.92382812 0.40625000
vn 0.00000000 0.00000000 -1.00000000
f 694/694/694 695/695/695 696/696/696
v 0.40625000 0.67812502 0.46562499
vt 0.97460938 0.40625000
vn 1.00000000 0.00000000 0.00000000
v 0.40625000 0.52187502 0.46562499
vt 0.97460938 0.41601562
vn 1.00000000 0.00000000 0.00000000
v 0.40625000 0.67812502 0.42812502
vt 0.97656250 0.40625000
vn 1.00000000 0.00000000 0.00000000
f 697/697/697 698/698/698 699/699/699
v 0.40625000 0.52187502 0.46562499
vt 0.97460938 0.41601562
vn 1.00000000 0.00000000 0.00000000
v 0.40625000 0.52187502 0.42812502
vt 0.97656250 0.41601562
vn 1.00000000 0.00000000 0.00000000
v 0.40625000 0.67812502 0.42812502
vt 0.97656250 0.40625000
vn 1.00000000 0.00000000 0.00000000
f 700/700/700 701/701/701 702/702/702
v 0.35624999 0.67812502 0.42812502
vt 0.98046875 0.40625000
vn -1.00000000 0.00000000 0.00000000
v 0.35624999 0.52187502 0.42812502
vt 0.98046875 0.41601562
vn -1.00000000 0.00000000 0.00000000
v 0.35624999 0.67812502 0.46562499
vt 0.98242188 0.40625000
vn -1.00000000 0.00000000 0.00000000
f 703/703/703 704/704/704 705/705/705
v 0.35624999 0.52187502 0.42812502
vt 0.98046875 0.41601562
vn -1.00000000 0.00000000 0.00000000
v 0.35624999 0.52187502 0.46562499
vt 0.98242188 0.41601562
vn -1.00000000 0.00000000 0.00000000
v 0.35624999 0.67812502 0.46562499
vt 0.98242188 0.40625000
vn -1.00000000 0.00000000 0.00000000
f 706/706/706 707/707/707 708/708/708
v 0.35624999 0.67812502 0.42812502
vt 0.71289062 0.47851562
vn 0.00000000 1.00000000 0.00000000
v 0.35624999 0.67812502 0.46562499
vt 0.71289062 0.48046875
vn 0.00000000 1.00000000 0.00000000
v 0.40625000 0.67812502 0.42812502
vt 0.71679688 0.47851562
vn 0.00000000 1.00000000 0.00000000
f 709/709/709 710/710/710 711/711/711
v 0.35624999 0.67812502 0.46562499
vt 0.71289062 0.48046875
vn 0.00000000 1.00000000 0.00000000
v 0.40625000 0.67812502 0.46562499
vt 0.71679688 0.48046875
vn 0.00000000 1.00000000 0.00000000
v 0.40625000 0.67812502 0.42812502
vt 0.71679688 0.47851562
vn 0.00000000 1.00000000 0.00000000
f 712/712/712 713/713/713 714/714/714
v 0.35624999 0.52187502 0.46562499
vt 0.72070312 0.47851562
vn 0.00000000 -1.00000000 0.00000000
v 0.35624999 0.52187502 0.42812502
vt 0.72070312 0.48046875
vn 0.00000000 -1.00000000 0.00000000
v 0.40625000 0.52187502 0.46562499
vt 0.72460938 0.47851562
vn 0.00000000 -1.00000000 0.00000000
f 715/715/715 716/716/716 717/717/717
v 0.35624999 0.52187502 0.42812502
vt 0.72070312 0.48046875
vn 0.00000000 -1.00000000 0.00000000
v 0.40625000 0.52187502 0.42812502
vt 0.72460938 0.48046875
vn 0.00000000 -1.00000000 0.00000000
v 0.40625000 0.52187502 0.46562499
vt 0.72460938 0.47851562
vn 0.00000000 -1.00000000 0.00000000
f 718/718/718 719/719/719 720/720/720
v 0.35624999 0.67812502 0.46562499
vt 0.94335938 0.40625000
vn 0.00000000 0.00000000 1.00000000
v 0.35624999 0.52187502 0.46562499
vt 0.94335938 0.41601562
vn 0.00000000 0.00000000 1.00000000
v 0.40625000 0.67812502 0.46562499
vt 0.94726562 0.40625000
vn 0.00000000 0.00000000 1.00000000
f 721/721/721 722/722/722 723/723/723
v 0.35624999 0.52187502 0.46562499
vt 0.94335938 0.41601562
vn 0.00000000 0.00000000 1.00000000
v 0.40625000 0.52187502 0.46562499
vt 0.94726562 0.41601562
vn 0.00000000 0.00000000 1.00000000
v 0.40625000 0.67812502 0.46562499
vt 0.94726562 0.40625000
vn 0.00000000 0.00000000 1.00000000
f 724/724/724 725/725/725 726/726/726
v 0.40625000 0.67812502 0.42812502
vt 0.93554688 0.40625000
vn 0.00000000 0.00000000 -1.00000000
v 0.40625000 0.52187502 0.42812502
vt 0.93554688 0.41601562
vn 0.00000000 0.00000000 -1.00000000
v 0.35624999 0.67812502 0.42812502
vt 0.93945312 0.40625000
vn 0.00000000 0.00000000 -1.00000000
f 727/727/727 728/728/728 729/729/729
v 0.40625000 0.52187502 0.42812502
vt 0.93554688 0.41601562
vn 0.00000000 0.00000000 -1.00000000
v 0.35624999 0.52187502 0.42812502
vt 0.93945312 0.41601562
vn 0.00000000 0.00000000 -1.00000000
v 0.35624999 0.67812502 0.42812502
vt 0.93945312 0.40625000
vn 0.00000000 0.00000000 -1.00000000
f 730/730/730 731/731/731 732/732/732
v 0.46562499 0.73749995 0.58750001
vt 0.20117188 0.45312500
vn 1.00000000 0.00000000 0.00000000
v 0.46562499 0.65625000 0.58750001
vt 0.20117188 0.45898438
vn 1.00000000 0.00000000 0.00000000
v 0.46562499 0.73749995 0.44999999
vt 0.20898438 0.45312500
vn 1.00000000 0.00000000 0.00000000
f 733/733/733 734/734/734 735/735/735
v 0.46562499 0.65625000 0.58750001
vt 0.20117188 0.45898438
vn 1.00000000 0.00000000 0.00000000
v 0.46562499 0.65625000 0.44999999
vt 0.20898438 0.45898438
vn 1.00000000 0.00000000 0.00000000
v 0.46562499 0.73749995 0.44999999
vt 0.20898438 0.45312500
vn 1.00000000 0.00000000 0.00000000
f 736/736/736 737/737/737 738/738/738
v 0.38125002 0.73749995 0.44999999
vt 0.21289062 0.45312500
vn -1.00000000 0.00000000 0.00000000
v 0.38125002 0.65625000 0.44999999
vt 0.21289062 0.45898438
vn -1.00000000 0.00000000 0.00000000
v 0.38125002 0.73749995 0.58750001
vt 0.22070312 0.45312500
vn -1.00000000 0.00000000 0.00000000
f 739/739/739 740/740/740 741/741/741
v 0.38125002 0.65625000 0.44999999
vt 0.21289062 0.45898438
vn -1.00000000 0.00000000 0.00000000
v 0.38125002 0.65625000 0.58750001
vt 0.22070312 0.45898438
vn -1.00000000 0.00000000 0.00000000
v 0.38125002 0.73749995 0.58750001
vt 0.22070312 0.45312500
vn -1.00000000 0.00000000 0.00000000
f 742/742/742 743/743/743 744/744/744
v 0.38125002 0.73749995 0.44999999
vt 0.40429688 0.43164062
vn 0.00000000 1.00000000 0.00000000
v 0.38125002 0.73749995 0.58750001
vt 0.40429688 0.43945312
vn 0.00000000 1.00000000 0.00000000
v 0.46562499 0.73749995 0.44999999
vt 0.41015625 0.43164062
vn 0.00000000 1.00000000 0.00000000
f 745/745/745 746/746/746 747/747/747
v 0.38125002 0.73749995 0.58750001
vt 0.40429688 0.43945312
vn 0.00000000 1.00000000 0.00000000
v 0.46562499 0.73749995 0.58750001
vt 0.41015625 0.43945312
vn 0.00000000 1.00000000 0.00000000
v 0.46562499 0.73749995 0.44999999
vt 0.41015625 0.43164062
vn 0.00000000 1.00000000 0.00000000
f 748/748/748 749/749/749 750/750/750
v 0.38125002 0.65625000 0.58750001
vt 0.41406250 0.43164062
vn 0.00000000 -1.00000000 0.00000000
v 0.38125002 0.65625000 0.44999999
vt 0.41406250 0.43945312
vn 0.00000000 -1.00000000 0.00000000
v 0.46562499 0.65625000 0.58750001
vt 0.41992188 0.43164062
vn 0.00000000 -1.00000000 0.00000000
f 751/751/751 752/752/752 753/753/753
v 0.38125002 0.65625000 0.44999999
vt 0.41406250 0.43945312
vn 0.00000000 -1.00000000 0.00000000
v 0.46562499 0.65625000 0.44999999
vt 0.41992188 0.43945312
vn 0.00000000 -1.00000000 0.00000000
v 0.46562499 0.65625000 0.58750001
vt 0.41992188 0.43164062
vn 0.00000000 -1.00000000 0.00000000
f 754/754/754 755/755/755 756/756/756
v 0.38125002 0.73749995 0.58750001
vt 0.33593750 0.45312500
vn 0.00000000 0.00000000 1.00000000
v 0.38125002 0.65625000 0.58750001
vt 0.33593750 0.45898438
vn 0.00000000 0.00000000 1.00000000
v 0.46562499 0.73749995 0.58750001
vt 0.34179688 0.45312500
vn 0.00000000 0.00000000 1.00000000
f 757/757/757 758/758/758 759/759/759
v 0.38125002 0.65625000 0.58750001
vt 0.33593750 0.45898438
vn 0.00000000 0.00000000 1.00000000
v 0.46562499 0.65625000 0.58750001
vt 0.34179688 0.45898438
vn 0.00000000 0.00000000 1.00000000
v 0.46562499 0.73749995 0.58750001
vt 0.34179688 0.45312500
vn 0.00000000 0.00000000 1.00000000
f 760/760/760 761/761/761 762/762/762
v 0.46562499 0.73749995 0.44999999
vt 0.32617188 0.45312500
vn 0.00000000 0.00000000 -1.00000000
v 0.46562499 0.65625000 0.44999999
vt 0.32617188 0.45898438
vn 0.00000000 0.00000000 -1.00000000
v 0.38125002 0.73749995 0.44999999
vt 0.33203125 0.45312500
vn 0.00000000 0.00000000 -1.00000000
f 763/763/763 764/764/764 765/765/765
v 0.46562499 0.65625000 0.44999999
vt 0.32617188 0.45898438
vn 0.00000000 0.00000000 -1.00000000
v 0.38125002 0.65625000 0.44999999
vt 0.33203125 0.45898438
vn 0.00000000 0.00000000 -1.00000000
v 0.38125002 0.73749995 0.44999999
vt 0.33203125 0.45312500
vn 0.00000000 0.00000000 -1.00000000
f 766/766/766 767/767/767 768/768/768
v 0.38749999 1.00000000 0.59375000
vt 0.02539062 0.05103739
vn 1.00000000 0.00000000 0.00000000
v 0.38749999 -0.00000000 0.59375000
vt 0.02539062 0.11336663
vn 1.00000000 0.00000000 0.00000000
v 0.38749999 0.00000000 0.56984290
vt 0.02709828 0.11336663
vn 1.00000000 0.00000000 0.00000000
f 769/769/769 770/770/770 771/771/771
v 0.38749999 1.00000000 0.59375000
vt 0.02539062 0.05103739
vn 1.00000000 0.00000000 0.00000000
v 0.38749999 0.00000000 0.56984290
vt 0.02709828 0.11336663
vn 1.00000000 0.00000000 0.00000000
v 0.38749999 1.00000000 0.52202869
vt 0.03051358 0.05103739
vn 1.00000000 0.00000000 0.00000000
f 772/772/772 773/773/773 774/774/774
v 0.38749999 0.00000000 0.48437500
vt 0.03320312 0.11336663
vn 1.00000000 0.00000000 0.00000000
v 0.38749999 1.00000000 0.48437500
vt 0.03320312 0.05103739
vn 1.00000000 0.00000000 0.00000000
v 0.38749999 1.00000000 0.52202869
vt 0.03051358 0.05103739
vn 1.00000000 0.00000000 0.00000000
f 775/775/775 776/776/776 777/777/777
v 0.38749999 0.00000000 0.48437500
vt 0.03320312 0.11336663
vn 1.00000000 0.00000000 0.00000000
v 0.38749999 1.00000000 0.52202869
vt 0.03051358 0.05103739
vn 1.00000000 0.00000000 0.00000000
v 0.38749999 -0.00000000 0.56984290
vt 0.02709828 0.11336663
vn 1.00000000 0.00000000 0.00000000
f 778/778/778 779/779/779 780/780/780
v 0.27812499 1.00000000 0.48437500
vt 0.03710938 0.05103739
vn -1.00000000 0.00000000 0.00000000
v 0.27812499 -0.00000000 0.48437500
vt 0.03710938 0.11336663
vn -1.00000000 0.00000000 0.00000000
v 0.27812499 0.00000000 0.50828210
vt 0.03881703 0.11336663
vn -1.00000000 0.00000000 0.00000000
f 781/781/781 782/782/782 783/783/783
v 0.27812499 1.00000000 0.48437500
vt 0.03710938 0.05103739
vn -1.00000000 0.00000000 0.00000000
v 0.27812499 0.00000000 0.50828210
vt 0.03881703 0.11336663
vn -1.00000000 0.00000000 0.00000000
v 0.27812499 1.00000000 0.55609631
vt 0.04223233 0.05103739
vn -1.00000000 0.00000000 0.00000000
f 784/784/784 785/785/785 786/786/786
v 0.27812499 0.00000000 0.59375000
vt 0.04492188 0.11336663
vn -1.00000000 0.00000000 0.00000000
v 0.27812499 1.00000000 0.59375000
vt 0.04492188 0.05103739
vn -1.00000000 0.00000000 0.00000000
v 0.27812499 1.00000000 0.55609631
vt 0.04223233 0.05103739
vn -1.00000000 0.00000000 0.00000000
f 787/787/787 788/788/788 789/789/789
v 0.27812499 0.00000000 0.59375000
vt 0.04492188 0.11336663
vn -1.00000000 0.00000000 0.00000000
v 0.27812499 1.00000000 0.55609631
vt 0.04223233 0.05103739
vn -1.00000000 0.00000000 0.00000000
v 0.27812499 -0.00000000 0.50828210
vt 0.03881703 0.11336663
vn -1.00000000 0.00000000 0.00000000
f 790/790/790 791/791/791 792/792/792
v 0.27812499 1.00000000 0.59375000
vt 0.01367188 0.05103739
vn 0.00000000 0.00000000 1.00000000
v 0.27812499 -0.00000000 0.59375000
vt 0.01367188 0.11336663
vn 0.00000000 0.00000000 1.00000000
v 0.30203209 0.00000000 0.59375000
vt 0.01537953 0.11336663
vn 0.00000000 0.00000000 1.00000000
f 793/793/793 794/794/794 795/795/795
v 0.27812499 1.00000000 0.59375000
vt 0.01367188 0.05103739
vn 0.00000000 0.00000000 1.00000000
v 0.30203209 0.00000000 0.59375000
vt 0.01537953 0.11336663
vn 0.00000000 0.00000000 1.00000000
v 0.34984630 1.00000000 0.59375000
vt 0.01879483 0.05103739
vn 0.00000000 0.00000000 1.00000000
f 796/796/796 797/797/797 798/798/798
v 0.38749999 0.00000000 0.59375000
vt 0.02148438 0.11336663
vn 0.00000000 0.00000000 1.00000000
v 0.38749999 1.00000000 0.59375000
vt 0.02148438 0.05103739
vn 0.00000000 0.00000000 1.00000000
v 0.34984630 1.00000000 0.59375000
vt 0.01879483 0.05103739
vn 0.00000000 0.00000000 1.00000000
f 799/799/799 800/800/800 801/801/801
v 0.38749999 0.00000000 0.59375000
vt 0.02148438 0.11336663
vn 0.00000000 0.00000000 1.00000000
v 0.34984630 1.00000000 0.59375000
vt 0.01879483 0.05103739
vn 0.00000000 0.00000000 1.00000000
v 0.30203209 -0.00000000 0.59375000
vt 0.01537953 0.11336663
vn 0.00000000 0.00000000 1.00000000
f 802/802/802 803/803/803 804/804/804
v 0.38749999 1.00000000 0.48437500
vt 0.00195312 0.05103739
vn 0.00000000 0.00000000 -1.00000000
v 0.38749999 -0.00000000 0.48437500
vt 0.00195312 0.11336663
vn 0.00000000 0.00000000 -1.00000000
v 0.36359288 0.00000000 0.48437500
vt 0.00366078 0.11336663
vn 0.00000000 0.00000000 -1.00000000
f 805/805/805 806/806/806 807/807/807
v 0.38749999 1.00000000 0.48437500
vt 0.00195312 0.05103739
vn 0.00000000 0.00000000 -1.00000000
v 0.36359288 0.00000000 0.48437500
vt 0.00366078 0.11336663
vn 0.00000000 0.00000000 -1.00000000
v 0.31577867 1.00000000 0.48437500
vt 0.00707608 0.05103739
vn 0.00000000 0.00000000 -1.00000000
f 808/808/808 809/809/809 810/810/810
v 0.27812499 0.00000000 0.48437500
vt 0.00976562 0.11336663
vn 0.00000000 0.00000000 -1.00000000
v 0.27812499 1.00000000 0.48437500
vt 0.00976562 0.05103739
vn 0.00000000 0.00000000 -1.00000000
v 0.31577867 1.00000000 0.48437500
vt 0.00707608 0.05103739
vn 0.00000000 0.00000000 -1.00000000
f 811/811/811 812/812/812 813/813/813
v 0.27812499 0.00000000 0.48437500
vt 0.00976562 0.11336663
vn 0.00000000 0.00000000 -1.00000000
v 0.31577867 1.00000000 0.48437500
vt 0.00707608 0.05103739
vn 0.00000000 0.00000000 -1.00000000
v 0.36359288 -0.00000000 0.48437500
vt 0.00366078 0.11336663
vn 0.00000000 0.00000000 -1.00000000
f 814/814/814 815/815/815 816/816/816
