# Generated from the approved Charon statue B; positions are in blocks.
mtllib kingdoms:models/block/charon_statue/charon_statue.mtl
s off
usemtl stone
v 1.00000000 0.03906250 1.00000000
vt 0.66601562 0.45507812
vn 1.00000000 0.00000000 0.00000000
v 1.00000000 0.07812500 0.00000000
vt 0.72851562 0.45312500
vn 1.00000000 0.00000000 0.00000000
v 1.00000000 0.07812500 1.00000000
vt 0.66601562 0.45312500
vn 1.00000000 0.00000000 0.00000000
f 1/1/1 2/2/2 3/3/3
v 1.00000000 0.00000000 1.00000000
vt 0.66601562 0.45703125
vn 1.00000000 0.00000000 0.00000000
v 1.00000000 0.00000000 0.00000000
vt 0.72851562 0.45703125
vn 1.00000000 0.00000000 0.00000000
v 1.00000000 0.07812500 0.00000000
vt 0.72851562 0.45312500
vn 1.00000000 0.00000000 0.00000000
f 4/4/4 5/5/5 6/6/6
v 1.00000000 0.00000000 1.00000000
vt 0.66601562 0.45703125
vn 1.00000000 0.00000000 0.00000000
v 1.00000000 0.07812500 0.00000000
vt 0.72851562 0.45312500
vn 1.00000000 0.00000000 0.00000000
v 1.00000000 0.03906250 1.00000000
vt 0.66601562 0.45507812
vn 1.00000000 0.00000000 0.00000000
f 7/7/7 8/8/8 9/9/9
v 0.00000000 0.07812500 1.00000000
vt 0.11132812 0.06445312
vn 0.00000000 1.00000000 0.00000000
v 1.00000000 0.07812500 0.00000000
vt 0.17382812 0.00195312
vn 0.00000000 1.00000000 0.00000000
v 0.00000000 0.07812500 0.00000000
vt 0.11132812 0.00195312
vn 0.00000000 1.00000000 0.00000000
f 10/10/10 11/11/11 12/12/12
v 1.00000000 0.07812500 1.00000000
vt 0.17382812 0.06445312
vn 0.00000000 1.00000000 0.00000000
v 1.00000000 0.07812500 0.00000000
vt 0.17382812 0.00195312
vn 0.00000000 1.00000000 0.00000000
v 0.00000000 0.07812500 1.00000000
vt 0.11132812 0.06445312
vn 0.00000000 1.00000000 0.00000000
f 13/13/13 14/14/14 15/15/15
v 0.00000000 0.00000000 0.00000000
vt 0.24023438 0.12695312
vn 0.00000000 -1.00000000 0.00000000
v 1.00000000 0.00000000 0.00000000
vt 0.30273438 0.12695312
vn 0.00000000 -1.00000000 0.00000000
v 1.00000000 0.00000000 1.00000000
vt 0.30273438 0.06445312
vn 0.00000000 -1.00000000 0.00000000
f 16/16/16 17/17/17 18/18/18
v 0.00000000 0.00000000 0.00000000
vt 0.24023438 0.12695312
vn 0.00000000 -1.00000000 0.00000000
v 1.00000000 0.00000000 1.00000000
vt 0.30273438 0.06445312
vn 0.00000000 -1.00000000 0.00000000
v 0.00000000 0.00000000 1.00000000
vt 0.24023438 0.06445312
vn 0.00000000 -1.00000000 0.00000000
f 19/19/19 20/20/20 21/21/21
v 1.00000000 0.07812500 0.00000000
vt 0.34570312 0.45312500
vn 0.00000000 0.00000000 -1.00000000
v 1.00000000 0.00000000 0.00000000
vt 0.34570312 0.45703125
vn 0.00000000 0.00000000 -1.00000000
v 0.00000000 0.03906250 0.00000000
vt 0.40820312 0.45507812
vn 0.00000000 0.00000000 -1.00000000
f 22/22/22 23/23/23 24/24/24
v 1.00000000 0.07812500 0.00000000
vt 0.34570312 0.45312500
vn 0.00000000 0.00000000 -1.00000000
v 0.00000000 0.03906250 0.00000000
vt 0.40820312 0.45507812
vn 0.00000000 0.00000000 -1.00000000
v 0.00000000 0.07812500 0.00000000
vt 0.40820312 0.45312500
vn 0.00000000 0.00000000 -1.00000000
f 25/25/25 26/26/26 27/27/27
v 1.00000000 0.00000000 0.00000000
vt 0.34570312 0.45703125
vn 0.00000000 0.00000000 -1.00000000
v 0.00000000 0.00000000 0.00000000
vt 0.40820312 0.45703125
vn 0.00000000 0.00000000 -1.00000000
v 0.00000000 0.03906250 0.00000000
vt 0.40820312 0.45507812
vn 0.00000000 0.00000000 -1.00000000
f 28/28/28 29/29/29 30/30/30
v 0.97812498 0.15625000 1.00000000
vt 0.06347656 0.41113281
vn 1.00000000 0.00000000 0.00000000
v 0.97812498 0.23437500 0.02187502
vt 0.12500000 0.40625000
vn 1.00000000 0.00000000 0.00000000
v 0.97812498 0.23437500 1.00000000
vt 0.06347656 0.40625000
vn 1.00000000 0.00000000 0.00000000
f 31/31/31 32/32/32 33/33/33
v 0.97812498 0.07812500 1.00000000
vt 0.06347656 0.41601562
vn 1.00000000 0.00000000 0.00000000
v 0.97812498 0.07812500 0.02187502
vt 0.12500000 0.41601562
vn 1.00000000 0.00000000 0.00000000
v 0.97812498 0.23437500 0.02187502
vt 0.12500000 0.40625000
vn 1.00000000 0.00000000 0.00000000
f 34/34/34 35/35/35 36/36/36
v 0.97812498 0.07812500 1.00000000
vt 0.06347656 0.41601562
vn 1.00000000 0.00000000 0.00000000
v 0.97812498 0.23437500 0.02187502
vt 0.12500000 0.40625000
vn 1.00000000 0.00000000 0.00000000
v 0.97812498 0.15625000 1.00000000
vt 0.06347656 0.41113281
vn 1.00000000 0.00000000 0.00000000
f 37/37/37 38/38/38 39/39/39
v 0.00000000 0.23437500 1.00000000
vt 0.36816406 0.06347656
vn 0.00000000 1.00000000 0.00000000
v 0.97812498 0.23437500 0.02187502
vt 0.42968750 0.00195312
vn 0.00000000 1.00000000 0.00000000
v 0.00000000 0.23437500 0.02187502
vt 0.36816406 0.00195312
vn 0.00000000 1.00000000 0.00000000
f 40/40/40 41/41/41 42/42/42
v 0.97812498 0.23437500 1.00000000
vt 0.42968750 0.06347656
vn 0.00000000 1.00000000 0.00000000
v 0.97812498 0.23437500 0.02187502
vt 0.42968750 0.00195312
vn 0.00000000 1.00000000 0.00000000
v 0.00000000 0.23437500 1.00000000
vt 0.36816406 0.06347656
vn 0.00000000 1.00000000 0.00000000
f 43/43/43 44/44/44 45/45/45
v 0.00000000 0.07812500 0.02187502
vt 0.49511719 0.12500000
vn 0.00000000 -1.00000000 0.00000000
v 0.97812498 0.07812500 0.02187502
vt 0.55664062 0.12500000
vn 0.00000000 -1.00000000 0.00000000
v 0.97812498 0.07812500 1.00000000
vt 0.55664062 0.06347656
vn 0.00000000 -1.00000000 0.00000000
f 46/46/46 47/47/47 48/48/48
v 0.00000000 0.07812500 0.02187502
vt 0.49511719 0.12500000
vn 0.00000000 -1.00000000 0.00000000
v 0.97812498 0.07812500 1.00000000
vt 0.55664062 0.06347656
vn 0.00000000 -1.00000000 0.00000000
v 0.00000000 0.07812500 1.00000000
vt 0.49511719 0.06347656
vn 0.00000000 -1.00000000 0.00000000
f 49/49/49 50/50/50 51/51/51
v 0.97812498 0.23437500 0.02187502
vt 0.69335938 0.38671875
vn 0.00000000 0.00000000 -1.00000000
v 0.97812498 0.07812500 0.02187502
vt 0.69335938 0.39648438
vn 0.00000000 0.00000000 -1.00000000
v 0.00000000 0.15625000 0.02187502
vt 0.75488281 0.39160156
vn 0.00000000 0.00000000 -1.00000000
f 52/52/52 53/53/53 54/54/54
v 0.97812498 0.23437500 0.02187502
vt 0.69335938 0.38671875
vn 0.00000000 0.00000000 -1.00000000
v 0.00000000 0.15625000 0.02187502
vt 0.75488281 0.39160156
vn 0.00000000 0.00000000 -1.00000000
v 0.00000000 0.23437500 0.02187502
vt 0.75488281 0.38671875
vn 0.00000000 0.00000000 -1.00000000
f 55/55/55 56/56/56 57/57/57
v 0.97812498 0.07812500 0.02187502
vt 0.69335938 0.39648438
vn 0.00000000 0.00000000 -1.00000000
v 0.00000000 0.07812500 0.02187502
vt 0.75488281 0.39648438
vn 0.00000000 0.00000000 -1.00000000
v 0.00000000 0.15625000 0.02187502
vt 0.75488281 0.39160156
vn 0.00000000 0.00000000 -1.00000000
f 58/58/58 59/59/59 60/60/60
v 1.00000000 0.32812500 0.99250000
vt 0.33398438 0.44335938
vn 1.00000000 0.00000000 0.00000000
v 1.00000000 0.23437500 0.99250000
vt 0.33398438 0.44921875
vn 1.00000000 0.00000000 0.00000000
v 1.00000000 0.32812500 0.00000000
vt 0.39648438 0.44335938
vn 1.00000000 0.00000000 0.00000000
f 61/61/61 62/62/62 63/63/63
v 1.00000000 0.23437500 0.99250000
vt 0.33398438 0.44921875
vn 1.00000000 0.00000000 0.00000000
v 1.00000000 0.23437500 0.00000000
vt 0.39648438 0.44921875
vn 1.00000000 0.00000000 0.00000000
v 1.00000000 0.32812500 0.00000000
vt 0.39648438 0.44335938
vn 1.00000000 0.00000000 0.00000000
f 64/64/64 65/65/65 66/66/66
v 0.00750000 0.32812500 0.00000000
vt 0.40039062 0.44335938
vn -1.00000000 0.00000000 0.00000000
v 0.00750000 0.23437500 0.00000000
vt 0.40039062 0.44921875
vn -1.00000000 0.00000000 0.00000000
v 0.00750000 0.32812500 0.99250000
vt 0.46289062 0.44335938
vn -1.00000000 0.00000000 0.00000000
f 67/67/67 68/68/68 69/69/69
v 0.00750000 0.23437500 0.00000000
vt 0.40039062 0.44921875
vn -1.00000000 0.00000000 0.00000000
v 0.00750000 0.23437500 0.99250000
vt 0.46289062 0.44921875
vn -1.00000000 0.00000000 0.00000000
v 0.00750000 0.32812500 0.99250000
vt 0.46289062 0.44335938
vn -1.00000000 0.00000000 0.00000000
f 70/70/70 71/71/71 72/72/72
v 0.00750000 0.32812500 0.00000000
vt 0.34570312 0.14843750
vn 0.00000000 1.00000000 0.00000000
v 0.00750000 0.32812500 0.99250000
vt 0.34570312 0.21093750
vn 0.00000000 1.00000000 0.00000000
v 1.00000000 0.32812500 0.00000000
vt 0.40820312 0.14843750
vn 0.00000000 1.00000000 0.00000000
f 73/73/73 74/74/74 75/75/75
v 0.00750000 0.32812500 0.99250000
vt 0.34570312 0.21093750
vn 0.00000000 1.00000000 0.00000000
v 1.00000000 0.32812500 0.99250000
vt 0.40820312 0.21093750
vn 0.00000000 1.00000000 0.00000000
v 1.00000000 0.32812500 0.00000000
vt 0.40820312 0.14843750
vn 0.00000000 1.00000000 0.00000000
f 76/76/76 77/77/77 78/78/78
v 0.00750000 0.23437500 0.99250000
vt 0.41210938 0.14843750
vn 0.00000000 -1.00000000 0.00000000
v 0.00750000 0.23437500 0.00000000
vt 0.41210938 0.21093750
vn 0.00000000 -1.00000000 0.00000000
v 1.00000000 0.23437500 0.99250000
vt 0.47460938 0.14843750
vn 0.00000000 -1.00000000 0.00000000
f 79/79/79 80/80/80 81/81/81
v 0.00750000 0.23437500 0.00000000
vt 0.41210938 0.21093750
vn 0.00000000 -1.00000000 0.00000000
v 1.00000000 0.23437500 0.00000000
vt 0.47460938 0.21093750
vn 0.00000000 -1.00000000 0.00000000
v 1.00000000 0.23437500 0.99250000
vt 0.47460938 0.14843750
vn 0.00000000 -1.00000000 0.00000000
f 82/82/82 83/83/83 84/84/84
v 0.00750000 0.32812500 0.99250000
vt 0.26757812 0.44335938
vn 0.00000000 0.00000000 1.00000000
v 0.00750000 0.23437500 0.99250000
vt 0.26757812 0.44921875
vn 0.00000000 0.00000000 1.00000000
v 1.00000000 0.32812500 0.99250000
vt 0.33007812 0.44335938
vn 0.00000000 0.00000000 1.00000000
f 85/85/85 86/86/86 87/87/87
v 0.00750000 0.23437500 0.99250000
vt 0.26757812 0.44921875
vn 0.00000000 0.00000000 1.00000000
v 1.00000000 0.23437500 0.99250000
vt 0.33007812 0.44921875
vn 0.00000000 0.00000000 1.00000000
v 1.00000000 0.32812500 0.99250000
vt 0.33007812 0.44335938
vn 0.00000000 0.00000000 1.00000000
f 88/88/88 89/89/89 90/90/90
v 1.00000000 0.32812500 0.00000000
vt 0.20117188 0.44335938
vn 0.00000000 0.00000000 -1.00000000
v 1.00000000 0.23437500 0.00000000
vt 0.20117188 0.44921875
vn 0.00000000 0.00000000 -1.00000000
v 0.00750000 0.32812500 0.00000000
vt 0.26367188 0.44335938
vn 0.00000000 0.00000000 -1.00000000
f 91/91/91 92/92/92 93/93/93
v 1.00000000 0.23437500 0.00000000
vt 0.20117188 0.44921875
vn 0.00000000 0.00000000 -1.00000000
v 0.00750000 0.23437500 0.00000000
vt 0.26367188 0.44921875
vn 0.00000000 0.00000000 -1.00000000
v 0.00750000 0.32812500 0.00000000
vt 0.26367188 0.44335938
vn 0.00000000 0.00000000 -1.00000000
f 94/94/94 95/95/95 96/96/96
v 0.49687499 0.22187500 0.03437501
vt 0.54492188 0.43164062
vn 1.00000000 0.00000000 0.00000000
v 0.49687499 0.09062500 0.03437501
vt 0.54492188 0.43945312
vn 1.00000000 0.00000000 0.00000000
v 0.49687499 0.22187500 0.01249999
vt 0.54687500 0.43164062
vn 1.00000000 0.00000000 0.00000000
f 97/97/97 98/98/98 99/99/99
v 0.49687499 0.09062500 0.03437501
vt 0.54492188 0.43945312
vn 1.00000000 0.00000000 0.00000000
v 0.49687499 0.09062500 0.01249999
vt 0.54687500 0.43945312
vn 1.00000000 0.00000000 0.00000000
v 0.49687499 0.22187500 0.01249999
vt 0.54687500 0.43164062
vn 1.00000000 0.00000000 0.00000000
f 100/100/100 101/101/101 102/102/102
v 0.03437500 0.22187500 0.01249999
vt 0.55078125 0.43164062
vn -1.00000000 0.00000000 0.00000000
v 0.03437500 0.09062500 0.01249999
vt 0.55078125 0.43945312
vn -1.00000000 0.00000000 0.00000000
v 0.03437500 0.22187500 0.03437501
vt 0.55273438 0.43164062
vn -1.00000000 0.00000000 0.00000000
f 103/103/103 104/104/104 105/105/105
v 0.03437500 0.09062500 0.01249999
vt 0.55078125 0.43945312
vn -1.00000000 0.00000000 0.00000000
v 0.03437500 0.09062500 0.03437501
vt 0.55273438 0.43945312
vn -1.00000000 0.00000000 0.00000000
v 0.03437500 0.22187500 0.03437501
vt 0.55273438 0.43164062
vn -1.00000000 0.00000000 0.00000000
f 106/106/106 107/107/107 108/108/108
v 0.03437500 0.22187500 0.01249999
vt 0.73632812 0.47070312
vn 0.00000000 1.00000000 0.00000000
v 0.03437500 0.22187500 0.03437501
vt 0.73632812 0.47265625
vn 0.00000000 1.00000000 0.00000000
v 0.49687499 0.22187500 0.01249999
vt 0.76562500 0.47070312
vn 0.00000000 1.00000000 0.00000000
f 109/109/109 110/110/110 111/111/111
v 0.03437500 0.22187500 0.03437501
vt 0.73632812 0.47265625
vn 0.00000000 1.00000000 0.00000000
v 0.49687499 0.22187500 0.03437501
vt 0.76562500 0.47265625
vn 0.00000000 1.00000000 0.00000000
v 0.49687499 0.22187500 0.01249999
vt 0.76562500 0.47070312
vn 0.00000000 1.00000000 0.00000000
f 112/112/112 113/113/113 114/114/114
v 0.03437500 0.09062500 0.03437501
vt 0.76953125 0.47070312
vn 0.00000000 -1.00000000 0.00000000
v 0.03437500 0.09062500 0.01249999
vt 0.76953125 0.47265625
vn 0.00000000 -1.00000000 0.00000000
v 0.49687499 0.09062500 0.03437501
vt 0.79882812 0.47070312
vn 0.00000000 -1.00000000 0.00000000
f 115/115/115 116/116/116 117/117/117
v 0.03437500 0.09062500 0.01249999
vt 0.76953125 0.47265625
vn 0.00000000 -1.00000000 0.00000000
v 0.49687499 0.09062500 0.01249999
vt 0.79882812 0.47265625
vn 0.00000000 -1.00000000 0.00000000
v 0.49687499 0.09062500 0.03437501
vt 0.79882812 0.47070312
vn 0.00000000 -1.00000000 0.00000000
f 118/118/118 119/119/119 120/120/120
v 0.03437500 0.22187500 0.03437501
vt 0.48828125 0.41992188
vn 0.00000000 0.00000000 1.00000000
v 0.03437500 0.09062500 0.03437501
vt 0.48828125 0.42773438
vn 0.00000000 0.00000000 1.00000000
v 0.49687499 0.22187500 0.03437501
vt 0.51757812 0.41992188
vn 0.00000000 0.00000000 1.00000000
f 121/121/121 122/122/122 123/123/123
v 0.03437500 0.09062500 0.03437501
vt 0.48828125 0.42773438
vn 0.00000000 0.00000000 1.00000000
v 0.49687499 0.09062500 0.03437501
vt 0.51757812 0.42773438
vn 0.00000000 0.00000000 1.00000000
v 0.49687499 0.22187500 0.03437501
vt 0.51757812 0.41992188
vn 0.00000000 0.00000000 1.00000000
f 124/124/124 125/125/125 126/126/126
v 0.49687499 0.22187500 0.01249999
vt 0.45507812 0.41992188
vn 0.00000000 0.00000000 -1.00000000
v 0.49687499 0.09062500 0.01249999
vt 0.45507812 0.42773438
vn 0.00000000 0.00000000 -1.00000000
v 0.03437500 0.22187500 0.01249999
vt 0.48437500 0.41992188
vn 0.00000000 0.00000000 -1.00000000
f 127/127/127 128/128/128 129/129/129
v 0.49687499 0.09062500 0.01249999
vt 0.45507812 0.42773438
vn 0.00000000 0.00000000 -1.00000000
v 0.03437500 0.09062500 0.01249999
vt 0.48437500 0.42773438
vn 0.00000000 0.00000000 -1.00000000
v 0.03437500 0.22187500 0.01249999
vt 0.48437500 0.41992188
vn 0.00000000 0.00000000 -1.00000000
f 130/130/130 131/131/131 132/132/132
v 0.99687499 0.22187500 0.03437501
vt 0.55664062 0.43164062
vn 1.00000000 0.00000000 0.00000000
v 0.99687499 0.09062500 0.03437501
vt 0.55664062 0.43945312
vn 1.00000000 0.00000000 0.00000000
v 0.99687499 0.22187500 0.01249999
vt 0.55859375 0.43164062
vn 1.00000000 0.00000000 0.00000000
f 133/133/133 134/134/134 135/135/135
v 0.99687499 0.09062500 0.03437501
vt 0.55664062 0.43945312
vn 1.00000000 0.00000000 0.00000000
v 0.99687499 0.09062500 0.01249999
vt 0.55859375 0.43945312
vn 1.00000000 0.00000000 0.00000000
v 0.99687499 0.22187500 0.01249999
vt 0.55859375 0.43164062
vn 1.00000000 0.00000000 0.00000000
f 136/136/136 137/137/137 138/138/138
v 0.53437501 0.22187500 0.01249999
vt 0.56250000 0.43164062
vn -1.00000000 0.00000000 0.00000000
v 0.53437501 0.09062500 0.01249999
vt 0.56250000 0.43945312
vn -1.00000000 0.00000000 0.00000000
v 0.53437501 0.22187500 0.03437501
vt 0.56445312 0.43164062
vn -1.00000000 0.00000000 0.00000000
f 139/139/139 140/140/140 141/141/141
v 0.53437501 0.09062500 0.01249999
vt 0.56250000 0.43945312
vn -1.00000000 0.00000000 0.00000000
v 0.53437501 0.09062500 0.03437501
vt 0.56445312 0.43945312
vn -1.00000000 0.00000000 0.00000000
v 0.53437501 0.22187500 0.03437501
vt 0.56445312 0.43164062
vn -1.00000000 0.00000000 0.00000000
f 142/142/142 143/143/143 144/144/144
v 0.53437501 0.22187500 0.01249999
vt 0.80273438 0.47070312
vn 0.00000000 1.00000000 0.00000000
v 0.53437501 0.22187500 0.03437501
vt 0.80273438 0.47265625
vn 0.00000000 1.00000000 0.00000000
v 0.99687499 0.22187500 0.01249999
vt 0.83203125 0.47070312
vn 0.00000000 1.00000000 0.00000000
f 145/145/145 146/146/146 147/147/147
v 0.53437501 0.22187500 0.03437501
vt 0.80273438 0.47265625
vn 0.00000000 1.00000000 0.00000000
v 0.99687499 0.22187500 0.03437501
vt 0.83203125 0.47265625
vn 0.00000000 1.00000000 0.00000000
v 0.99687499 0.22187500 0.01249999
vt 0.83203125 0.47070312
vn 0.00000000 1.00000000 0.00000000
f 148/148/148 149/149/149 150/150/150
v 0.53437501 0.09062500 0.03437501
vt 0.83593750 0.47070312
vn 0.00000000 -1.00000000 0.00000000
v 0.53437501 0.09062500 0.01249999
vt 0.83593750 0.47265625
vn 0.00000000 -1.00000000 0.00000000
v 0.99687499 0.09062500 0.03437501
vt 0.86523438 0.47070312
vn 0.00000000 -1.00000000 0.00000000
f 151/151/151 152/152/152 153/153/153
v 0.53437501 0.09062500 0.01249999
vt 0.83593750 0.47265625
vn 0.00000000 -1.00000000 0.00000000
v 0.99687499 0.09062500 0.01249999
vt 0.86523438 0.47265625
vn 0.00000000 -1.00000000 0.00000000
v 0.99687499 0.09062500 0.03437501
vt 0.86523438 0.47070312
vn 0.00000000 -1.00000000 0.00000000
f 154/154/154 155/155/155 156/156/156
v 0.53437501 0.22187500 0.03437501
vt 0.55468750 0.41992188
vn 0.00000000 0.00000000 1.00000000
v 0.53437501 0.09062500 0.03437501
vt 0.55468750 0.42773438
vn 0.00000000 0.00000000 1.00000000
v 0.99687499 0.22187500 0.03437501
vt 0.58398438 0.41992188
vn 0.00000000 0.00000000 1.00000000
f 157/157/157 158/158/158 159/159/159
v 0.53437501 0.09062500 0.03437501
vt 0.55468750 0.42773438
vn 0.00000000 0.00000000 1.00000000
v 0.99687499 0.09062500 0.03437501
vt 0.58398438 0.42773438
vn 0.00000000 0.00000000 1.00000000
v 0.99687499 0.22187500 0.03437501
vt 0.58398438 0.41992188
vn 0.00000000 0.00000000 1.00000000
f 160/160/160 161/161/161 162/162/162
v 0.99687499 0.22187500 0.01249999
vt 0.52148438 0.41992188
vn 0.00000000 0.00000000 -1.00000000
v 0.99687499 0.09062500 0.01249999
vt 0.52148438 0.42773438
vn 0.00000000 0.00000000 -1.00000000
v 0.53437501 0.22187500 0.01249999
vt 0.55078125 0.41992188
vn 0.00000000 0.00000000 -1.00000000
f 163/163/163 164/164/164 165/165/165
v 0.99687499 0.09062500 0.01249999
vt 0.52148438 0.42773438
vn 0.00000000 0.00000000 -1.00000000
v 0.53437501 0.09062500 0.01249999
vt 0.55078125 0.42773438
vn 0.00000000 0.00000000 -1.00000000
v 0.53437501 0.22187500 0.01249999
vt 0.55078125 0.41992188
vn 0.00000000 0.00000000 -1.00000000
f 166/166/166 167/167/167 168/168/168
v 0.57812500 0.53389831 1.00000000
vt 0.79455773 0.34517346
vn 1.00000000 0.00000000 0.00000000
v 0.57812500 0.65625000 0.65625000
vt 0.81640625 0.33789062
vn 1.00000000 0.00000000 0.00000000
v 0.57812500 0.65625000 1.00000000
vt 0.79455773 0.33789062
vn 1.00000000 0.00000000 0.00000000
f 169/169/169 170/170/170 171/171/171
v 0.57812500 0.32812500 1.00000000
vt 0.79455773 0.35742188
vn 1.00000000 0.00000000 0.00000000
v 0.57812500 0.32812500 0.65625000
vt 0.81640625 0.35742188
vn 1.00000000 0.00000000 0.00000000
v 0.57812500 0.65625000 0.65625000
vt 0.81640625 0.33789062
vn 1.00000000 0.00000000 0.00000000
f 172/172/172 173/173/173 174/174/174
v 0.57812500 0.32812500 1.00000000
vt 0.79455773 0.35742188
vn 1.00000000 0.00000000 0.00000000
v 0.57812500 0.65625000 0.65625000
vt 0.81640625 0.33789062
vn 1.00000000 0.00000000 0.00000000
v 0.57812500 0.53389831 1.00000000
vt 0.79455773 0.34517346
vn 1.00000000 0.00000000 0.00000000
f 175/175/175 176/176/176 177/177/177
v 0.13532839 0.65625000 1.00000000
vt 0.70474709 0.17028602
vn 0.00000000 1.00000000 0.00000000
v 0.57812500 0.65625000 0.65625000
vt 0.73242188 0.14843750
vn 0.00000000 1.00000000 0.00000000
v 0.00000000 0.65625000 0.65625000
vt 0.69628906 0.14843750
vn 0.00000000 1.00000000 0.00000000
f 178/178/178 179/179/179 180/180/180
v 0.13532839 0.65625000 1.00000000
vt 0.70474709 0.17028602
vn 0.00000000 1.00000000 0.00000000
v 0.00000000 0.65625000 0.65625000
vt 0.69628906 0.14843750
vn 0.00000000 1.00000000 0.00000000
v 0.00000000 0.65625000 1.00000000
vt 0.69628906 0.17028602
vn 0.00000000 1.00000000 0.00000000
f 181/181/181 182/182/182 183/183/183
v 0.57812500 0.65625000 1.00000000
vt 0.73242188 0.17028602
vn 0.00000000 1.00000000 0.00000000
v 0.57812500 0.65625000 0.65625000
vt 0.73242188 0.14843750
vn 0.00000000 1.00000000 0.00000000
v 0.13532839 0.65625000 1.00000000
vt 0.70474709 0.17028602
vn 0.00000000 1.00000000 0.00000000
f 184/184/184 185/185/185 186/186/186
v 0.00000000 0.32812500 0.65625000
vt 0.77441406 0.20703125
vn 0.00000000 -1.00000000 0.00000000
v 0.57812500 0.32812500 0.65625000
vt 0.81054688 0.20703125
vn 0.00000000 -1.00000000 0.00000000
v 0.57812500 0.32812500 1.00000000
vt 0.81054688 0.18518273
vn 0.00000000 -1.00000000 0.00000000
f 187/187/187 188/188/188 189/189/189
v 0.00000000 0.32812500 0.65625000
vt 0.77441406 0.20703125
vn 0.00000000 -1.00000000 0.00000000
v 0.57812500 0.32812500 1.00000000
vt 0.81054688 0.18518273
vn 0.00000000 -1.00000000 0.00000000
v 0.00000000 0.32812500 1.00000000
vt 0.77441406 0.18518273
vn 0.00000000 -1.00000000 0.00000000
f 190/190/190 191/191/191 192/192/192
v 0.57812500 0.65625000 0.65625000
vt 0.46093750 0.33789062
vn 0.00000000 0.00000000 -1.00000000
v 0.57812500 0.32812500 0.65625000
vt 0.46093750 0.35742188
vn 0.00000000 0.00000000 -1.00000000
v 0.00000000 0.48787007 0.65625000
vt 0.49707031 0.34791324
vn 0.00000000 0.00000000 -1.00000000
f 193/193/193 194/194/194 195/195/195
v 0.57812500 0.65625000 0.65625000
vt 0.46093750 0.33789062
vn 0.00000000 0.00000000 -1.00000000
v 0.00000000 0.48787007 0.65625000
vt 0.49707031 0.34791324
vn 0.00000000 0.00000000 -1.00000000
v 0.00000000 0.65625000 0.65625000
vt 0.49707031 0.33789062
vn 0.00000000 0.00000000 -1.00000000
f 196/196/196 197/197/197 198/198/198
v 0.57812500 0.32812500 0.65625000
vt 0.46093750 0.35742188
vn 0.00000000 0.00000000 -1.00000000
v 0.00000000 0.32812500 0.65625000
vt 0.49707031 0.35742188
vn 0.00000000 0.00000000 -1.00000000
v 0.00000000 0.48787007 0.65625000
vt 0.49707031 0.34791324
vn 0.00000000 0.00000000 -1.00000000
f 199/199/199 200/200/200 201/201/201
v 0.53125000 0.98022004 1.00000000
vt 0.10643434 0.28053312
vn 1.00000000 0.00000000 0.00000000
v 0.53125000 1.00000000 0.96699219
vt 0.10852051 0.27929688
vn 1.00000000 0.00000000 0.00000000
v 0.53125000 1.00000000 1.00000000
vt 0.10643434 0.27929688
vn 1.00000000 0.00000000 0.00000000
f 202/202/202 203/203/203 204/204/204
v 0.53125000 0.65625000 1.00000000
vt 0.10643434 0.30078125
vn 1.00000000 0.00000000 0.00000000
v 0.53125000 0.65625000 0.70625001
vt 0.12500000 0.30078125
vn 1.00000000 0.00000000 0.00000000
v 0.53125000 1.00000000 0.70625001
vt 0.12500000 0.27929688
vn 1.00000000 0.00000000 0.00000000
f 205/205/205 206/206/206 207/207/207
v 0.53125000 0.65625000 1.00000000
vt 0.10643434 0.30078125
vn 1.00000000 0.00000000 0.00000000
v 0.53125000 1.00000000 0.70625001
vt 0.12500000 0.27929688
vn 1.00000000 0.00000000 0.00000000
v 0.53125000 1.00000000 0.96699219
vt 0.10852051 0.27929688
vn 1.00000000 0.00000000 0.00000000
f 208/208/208 209/209/209 210/210/210
v 0.53125000 0.65625000 1.00000000
vt 0.10643434 0.30078125
vn 1.00000000 0.00000000 0.00000000
v 0.53125000 1.00000000 0.96699219
vt 0.10852051 0.27929688
vn 1.00000000 0.00000000 0.00000000
v 0.53125000 0.98022004 1.00000000
vt 0.10643434 0.28053312
vn 1.00000000 0.00000000 0.00000000
f 211/211/211 212/212/212 213/213/213
v 0.00000000 0.65625000 0.70625001
vt 0.96522983 0.20117188
vn 0.00000000 -1.00000000 0.00000000
v 0.53125000 0.65625000 0.70625001
vt 0.99804688 0.20117188
vn 0.00000000 -1.00000000 0.00000000
v 0.53125000 0.65625000 1.00000000
vt 0.99804688 0.18260621
vn 0.00000000 -1.00000000 0.00000000
f 214/214/214 215/215/215 216/216/216
v 0.00000000 0.65625000 0.70625001
vt 0.96522983 0.20117188
vn 0.00000000 -1.00000000 0.00000000
v 0.53125000 0.65625000 1.00000000
vt 0.99804688 0.18260621
vn 0.00000000 -1.00000000 0.00000000
v 0.00000000 0.65625000 1.00000000
vt 0.96522983 0.18260621
vn 0.00000000 -1.00000000 0.00000000
f 217/217/217 218/218/218 219/219/219
v 0.53125000 1.00000000 0.70625001
vt 0.91992188 0.22851562
vn 0.00000000 0.00000000 -1.00000000
v 0.53125000 0.65625000 0.70625001
vt 0.91992188 0.25000000
vn 0.00000000 0.00000000 -1.00000000
v 0.00000000 0.90334303 0.70625001
vt 0.95273892 0.23455669
vn 0.00000000 0.00000000 -1.00000000
f 220/220/220 221/221/221 222/222/222
v 0.53125000 1.00000000 0.70625001
vt 0.91992188 0.22851562
vn 0.00000000 0.00000000 -1.00000000
v 0.00000000 0.90334303 0.70625001
vt 0.95273892 0.23455669
vn 0.00000000 0.00000000 -1.00000000
v 0.00000000 1.00000000 0.70625001
vt 0.95273892 0.22851562
vn 0.00000000 0.00000000 -1.00000000
f 223/223/223 224/224/224 225/225/225
v 0.53125000 0.65625000 0.70625001
vt 0.91992188 0.25000000
vn 0.00000000 0.00000000 -1.00000000
v 0.00000000 0.65625000 0.70625001
vt 0.95273892 0.25000000
vn 0.00000000 0.00000000 -1.00000000
v 0.00000000 0.90334303 0.70625001
vt 0.95273892 0.23455669
vn 0.00000000 0.00000000 -1.00000000
f 226/226/226 227/227/227 228/228/228
v 0.04375000 0.65625000 0.70625001
vt 0.51757812 0.36328125
vn 1.00000000 0.00000000 0.00000000
v 0.04375000 0.33125001 0.70625001
vt 0.51757812 0.38281250
vn 1.00000000 0.00000000 0.00000000
v 0.04375000 0.65625000 0.54687500
vt 0.52734375 0.36328125
vn 1.00000000 0.00000000 0.00000000
f 229/229/229 230/230/230 231/231/231
v 0.04375000 0.33125001 0.70625001
vt 0.51757812 0.38281250
vn 1.00000000 0.00000000 0.00000000
v 0.04375000 0.33125001 0.54687500
vt 0.52734375 0.38281250
vn 1.00000000 0.00000000 0.00000000
v 0.04375000 0.65625000 0.54687500
vt 0.52734375 0.36328125
vn 1.00000000 0.00000000 0.00000000
f 232/232/232 233/233/233 234/234/234
v 0.00000000 0.65625000 0.59645834
vt 0.79249132 0.40928819
vn 0.00000000 1.00000000 0.00000000
v 0.04375000 0.65625000 0.54687500
vt 0.79492188 0.40625000
vn 0.00000000 1.00000000 0.00000000
v 0.00000000 0.65625000 0.54687500
vt 0.79249132 0.40625000
vn 0.00000000 1.00000000 0.00000000
f 235/235/235 236/236/236 237/237/237
v 0.00000000 0.65625000 0.70625001
vt 0.79249132 0.41601562
vn 0.00000000 1.00000000 0.00000000
v 0.04375000 0.65625000 0.70625001
vt 0.79492188 0.41601562
vn 0.00000000 1.00000000 0.00000000
v 0.04375000 0.65625000 0.54687500
vt 0.79492188 0.40625000
vn 0.00000000 1.00000000 0.00000000
f 238/238/238 239/239/239 240/240/240
v 0.00000000 0.65625000 0.70625001
vt 0.79249132 0.41601562
vn 0.00000000 1.00000000 0.00000000
v 0.04375000 0.65625000 0.54687500
vt 0.79492188 0.40625000
vn 0.00000000 1.00000000 0.00000000
v 0.00000000 0.65625000 0.59645834
vt 0.79249132 0.40928819
vn 0.00000000 1.00000000 0.00000000
f 241/241/241 242/242/242 243/243/243
v 0.00000000 0.33125001 0.65666667
vt 0.80421007 0.40928819
vn 0.00000000 -1.00000000 0.00000000
v 0.04375000 0.33125001 0.70625001
vt 0.80664062 0.40625000
vn 0.00000000 -1.00000000 0.00000000
v 0.00000000 0.33125001 0.70625001
vt 0.80421007 0.40625000
vn 0.00000000 -1.00000000 0.00000000
f 244/244/244 245/245/245 246/246/246
v 0.00000000 0.33125001 0.54687500
vt 0.80421007 0.41601562
vn 0.00000000 -1.00000000 0.00000000
v 0.04375000 0.33125001 0.54687500
vt 0.80664062 0.41601562
vn 0.00000000 -1.00000000 0.00000000
v 0.04375000 0.33125001 0.70625001
vt 0.80664062 0.40625000
vn 0.00000000 -1.00000000 0.00000000
f 247/247/247 248/248/248 249/249/249
v 0.00000000 0.33125001 0.54687500
vt 0.80421007 0.41601562
vn 0.00000000 -1.00000000 0.00000000
v 0.04375000 0.33125001 0.70625001
vt 0.80664062 0.40625000
vn 0.00000000 -1.00000000 0.00000000
v 0.00000000 0.33125001 0.65666667
vt 0.80421007 0.40928819
vn 0.00000000 -1.00000000 0.00000000
f 250/250/250 251/251/251 252/252/252
v 0.00000000 0.55513889 0.70625001
vt 0.66749132 0.36935764
vn 0.00000000 0.00000000 1.00000000
v 0.04375000 0.65625000 0.70625001
vt 0.66992188 0.36328125
vn 0.00000000 0.00000000 1.00000000
v 0.00000000 0.65625000 0.70625001
vt 0.66749132 0.36328125
vn 0.00000000 0.00000000 1.00000000
f 253/253/253 254/254/254 255/255/255
v 0.00000000 0.33125001 0.70625001
vt 0.66749132 0.38281250
vn 0.00000000 0.00000000 1.00000000
v 0.04375000 0.33125001 0.70625001
vt 0.66992188 0.38281250
vn 0.00000000 0.00000000 1.00000000
v 0.04375000 0.65625000 0.70625001
vt 0.66992188 0.36328125
vn 0.00000000 0.00000000 1.00000000
f 256/256/256 257/257/257 258/258/258
v 0.00000000 0.33125001 0.70625001
vt 0.66749132 0.38281250
vn 0.00000000 0.00000000 1.00000000
v 0.04375000 0.65625000 0.70625001
vt 0.66992188 0.36328125
vn 0.00000000 0.00000000 1.00000000
v 0.00000000 0.55513889 0.70625001
vt 0.66749132 0.36935764
vn 0.00000000 0.00000000 1.00000000
f 259/259/259 260/260/260 261/261/261
v 0.04375000 0.65625000 0.54687500
vt 0.65039062 0.36328125
vn 0.00000000 0.00000000 -1.00000000
v 0.04375000 0.33125001 0.54687500
vt 0.65039062 0.38281250
vn 0.00000000 0.00000000 -1.00000000
v 0.00000000 0.43236112 0.54687500
vt 0.65282118 0.37673611
vn 0.00000000 0.00000000 -1.00000000
f 262/262/262 263/263/263 264/264/264
v 0.04375000 0.65625000 0.54687500
vt 0.65039062 0.36328125
vn 0.00000000 0.00000000 -1.00000000
v 0.00000000 0.43236112 0.54687500
vt 0.65282118 0.37673611
vn 0.00000000 0.00000000 -1.00000000
v 0.00000000 0.65625000 0.54687500
vt 0.65282118 0.36328125
vn 0.00000000 0.00000000 -1.00000000
f 265/265/265 266/266/266 267/267/267
v 0.04375000 0.33125001 0.54687500
vt 0.65039062 0.38281250
vn 0.00000000 0.00000000 -1.00000000
v 0.00000000 0.33125001 0.54687500
vt 0.65282118 0.38281250
vn 0.00000000 0.00000000 -1.00000000
v 0.00000000 0.43236112 0.54687500
vt 0.65282118 0.37673611
vn 0.00000000 0.00000000 -1.00000000
f 268/268/268 269/269/269 270/270/270
v 0.03682237 1.00000000 0.69062500
vt 0.71289062 0.06509151
vn 0.99984770 0.01745241 0.00000000
v 0.04313088 0.63858548 0.69062500
vt 0.71289062 0.08789062
vn 0.99984770 0.01745241 0.00000000
v 0.03682237 1.00000000 0.65994983
vt 0.71496327 0.06509151
vn 0.99984770 0.01745241 0.00000000
f 271/271/271 272/272/272 273/273/273
v 0.04313088 0.63858548 0.69062500
vt 0.71289062 0.08789062
vn 0.99984770 0.01745241 0.00000000
v 0.04313088 0.63858548 0.57500000
vt 0.72070312 0.08789062
vn 0.99984770 0.01745241 0.00000000
v 0.03682237 1.00000000 0.57500000
vt 0.72070312 0.06509151
vn 0.99984770 0.01745241 0.00000000
f 274/274/274 275/275/275 276/276/276
v 0.04313088 0.63858548 0.69062500
vt 0.71289062 0.08789062
vn 0.99984770 0.01745241 0.00000000
v 0.03682237 1.00000000 0.57500000
vt 0.72070312 0.06509151
vn 0.99984770 0.01745241 0.00000000
v 0.03682237 1.00000000 0.65994983
vt 0.71496327 0.06509151
vn 0.99984770 0.01745241 0.00000000
f 277/277/277 278/278/278 279/279/279
v 0.00000000 0.63783263 0.64628928
vt 0.19036372 0.43463628
vn 0.01745241 -0.99984770 0.00000000
v 0.04313088 0.63858548 0.69062500
vt 0.19335938 0.43164062
vn 0.01745241 -0.99984770 0.00000000
v 0.00000000 0.63783263 0.69062500
vt 0.19036372 0.43164062
vn 0.01745241 -0.99984770 0.00000000
f 280/280/280 281/281/281 282/282/282
v 0.00000000 0.63783263 0.57500000
vt 0.19036372 0.43945312
vn 0.01745241 -0.99984770 0.00000000
v 0.04313088 0.63858548 0.57500000
vt 0.19335938 0.43945312
vn 0.01745241 -0.99984770 0.00000000
v 0.04313088 0.63858548 0.69062500
vt 0.19335938 0.43164062
vn 0.01745241 -0.99984770 0.00000000
f 283/283/283 284/284/284 285/285/285
v 0.00000000 0.63783263 0.57500000
vt 0.19036372 0.43945312
vn 0.01745241 -0.99984770 0.00000000
v 0.04313088 0.63858548 0.69062500
vt 0.19335938 0.43164062
vn 0.01745241 -0.99984770 0.00000000
v 0.00000000 0.63783263 0.64628928
vt 0.19036372 0.43463628
vn 0.01745241 -0.99984770 0.00000000
f 286/286/286 287/287/287 288/288/288
v 0.00000000 0.63783263 0.69062500
vt 0.70598872 0.08789062
vn 0.00000000 0.00000000 1.00000000
v 0.04313088 0.63858548 0.69062500
vt 0.70898438 0.08789062
vn 0.00000000 0.00000000 1.00000000
v 0.03682237 1.00000000 0.69062500
vt 0.70898438 0.06509151
vn 0.00000000 0.00000000 1.00000000
f 289/289/289 290/290/290 291/291/291
v 0.00000000 0.63783263 0.69062500
vt 0.70598872 0.08789062
vn 0.00000000 0.00000000 1.00000000
v 0.03682237 1.00000000 0.69062500
vt 0.70898438 0.06509151
vn 0.00000000 0.00000000 1.00000000
v 0.00000000 1.00000000 0.69062500
vt 0.70642766 0.06505098
vn 0.00000000 0.00000000 1.00000000
f 292/292/292 293/293/293 294/294/294
v 0.03682237 1.00000000 0.57500000
vt 0.68945312 0.06509151
vn 0.00000000 0.00000000 -1.00000000
v 0.04313088 0.63858548 0.57500000
vt 0.68945312 0.08789062
vn 0.00000000 0.00000000 -1.00000000
v 0.00692863 1.00000000 0.57500000
vt 0.69152876 0.06505860
vn 0.00000000 0.00000000 -1.00000000
f 295/295/295 296/296/296 297/297/297
v 0.04313088 0.63858548 0.57500000
vt 0.68945312 0.08789062
vn 0.00000000 0.00000000 -1.00000000
v 0.00000000 0.63783263 0.57500000
vt 0.69244878 0.08789062
vn 0.00000000 0.00000000 -1.00000000
v 0.00000000 1.00000000 0.57500000
vt 0.69200984 0.06505098
vn 0.00000000 0.00000000 -1.00000000
f 298/298/298 299/299/299 300/300/300
v 0.04313088 0.63858548 0.57500000
vt 0.68945312 0.08789062
vn 0.00000000 0.00000000 -1.00000000
v 0.00000000 1.00000000 0.57500000
vt 0.69200984 0.06505098
vn 0.00000000 0.00000000 -1.00000000
v 0.00692863 1.00000000 0.57500000
vt 0.69152876 0.06505860
vn 0.00000000 0.00000000 -1.00000000
f 301/301/301 302/302/302 303/303/303
v 0.01875000 0.38749999 0.62500000
vt 0.11523438 0.47070312
vn 1.00000000 0.00000000 0.00000000
v 0.01875000 0.32812500 0.62500000
vt 0.11523438 0.47460938
vn 1.00000000 0.00000000 0.00000000
v 0.01875000 0.38749999 0.52500001
vt 0.12109375 0.47070312
vn 1.00000000 0.00000000 0.00000000
f 304/304/304 305/305/305 306/306/306
v 0.01875000 0.32812500 0.62500000
vt 0.11523438 0.47460938
vn 1.00000000 0.00000000 0.00000000
v 0.01875000 0.32812500 0.52500001
vt 0.12109375 0.47460938
vn 1.00000000 0.00000000 0.00000000
v 0.01875000 0.38749999 0.52500001
vt 0.12109375 0.47070312
vn 1.00000000 0.00000000 0.00000000
f 307/307/307 308/308/308 309/309/309
v 0.00000000 0.38749999 0.54435484
vt 0.27230343 0.45425907
vn 0.00000000 1.00000000 0.00000000
v 0.01875000 0.38749999 0.52500001
vt 0.27343750 0.45312500
vn 0.00000000 1.00000000 0.00000000
v 0.00000000 0.38749999 0.52500001
vt 0.27230343 0.45312500
vn 0.00000000 1.00000000 0.00000000
f 310/310/310 311/311/311 312/312/312
v 0.00000000 0.38749999 0.62500000
vt 0.27230343 0.45898438
vn 0.00000000 1.00000000 0.00000000
v 0.01875000 0.38749999 0.62500000
vt 0.27343750 0.45898438
vn 0.00000000 1.00000000 0.00000000
v 0.01875000 0.38749999 0.52500001
vt 0.27343750 0.45312500
vn 0.00000000 1.00000000 0.00000000
f 313/313/313 314/314/314 315/315/315
v 0.00000000 0.38749999 0.62500000
vt 0.27230343 0.45898438
vn 0.00000000 1.00000000 0.00000000
v 0.01875000 0.38749999 0.52500001
vt 0.27343750 0.45312500
vn 0.00000000 1.00000000 0.00000000
v 0.00000000 0.38749999 0.54435484
vt 0.27230343 0.45425907
vn 0.00000000 1.00000000 0.00000000
f 316/316/316 317/317/317 318/318/318
v 0.00000000 0.32812500 0.60564516
vt 0.28206905 0.45425907
vn 0.00000000 -1.00000000 0.00000000
v 0.01875000 0.32812500 0.62500000
vt 0.28320312 0.45312500
vn 0.00000000 -1.00000000 0.00000000
v 0.00000000 0.32812500 0.62500000
vt 0.28206905 0.45312500
vn 0.00000000 -1.00000000 0.00000000
f 319/319/319 320/320/320 321/321/321
v 0.00000000 0.32812500 0.52500001
vt 0.28206905 0.45898438
vn 0.00000000 -1.00000000 0.00000000
v 0.01875000 0.32812500 0.52500001
vt 0.28320312 0.45898438
vn 0.00000000 -1.00000000 0.00000000
v 0.01875000 0.32812500 0.62500000
vt 0.28320312 0.45312500
vn 0.00000000 -1.00000000 0.00000000
f 322/322/322 323/323/323 324/324/324
v 0.00000000 0.32812500 0.52500001
vt 0.28206905 0.45898438
vn 0.00000000 -1.00000000 0.00000000
v 0.01875000 0.32812500 0.62500000
vt 0.28320312 0.45312500
vn 0.00000000 -1.00000000 0.00000000
v 0.00000000 0.32812500 0.60564516
vt 0.28206905 0.45425907
vn 0.00000000 -1.00000000 0.00000000
f 325/325/325 326/326/326 327/327/327
v 0.00000000 0.37600805 0.62500000
vt 0.11019405 0.47145917
vn 0.00000000 0.00000000 1.00000000
v 0.01875000 0.38749999 0.62500000
vt 0.11132812 0.47070312
vn 0.00000000 0.00000000 1.00000000
v 0.00000000 0.38749999 0.62500000
vt 0.11019405 0.47070312
vn 0.00000000 0.00000000 1.00000000
f 328/328/328 329/329/329 330/330/330
v 0.00000000 0.32812500 0.62500000
vt 0.11019405 0.47460938
vn 0.00000000 0.00000000 1.00000000
v 0.01875000 0.32812500 0.62500000
vt 0.11132812 0.47460938
vn 0.00000000 0.00000000 1.00000000
v 0.01875000 0.38749999 0.62500000
vt 0.11132812 0.47070312
vn 0.00000000 0.00000000 1.00000000
f 331/331/331 332/332/332 333/333/333
v 0.00000000 0.32812500 0.62500000
vt 0.11019405 0.47460938
vn 0.00000000 0.00000000 1.00000000
v 0.01875000 0.38749999 0.62500000
vt 0.11132812 0.47070312
vn 0.00000000 0.00000000 1.00000000
v 0.00000000 0.37600805 0.62500000
vt 0.11019405 0.47145917
vn 0.00000000 0.00000000 1.00000000
f 334/334/334 335/335/335 336/336/336
v 0.01875000 0.38749999 0.52500001
vt 0.09570312 0.47070312
vn 0.00000000 0.00000000 -1.00000000
v 0.01875000 0.32812500 0.52500001
vt 0.09570312 0.47460938
vn 0.00000000 0.00000000 -1.00000000
v 0.00000000 0.33961693 0.52500001
vt 0.09683720 0.47385333
vn 0.00000000 0.00000000 -1.00000000
f 337/337/337 338/338/338 339/339/339
v 0.01875000 0.38749999 0.52500001
vt 0.09570312 0.47070312
vn 0.00000000 0.00000000 -1.00000000
v 0.00000000 0.33961693 0.52500001
vt 0.09683720 0.47385333
vn 0.00000000 0.00000000 -1.00000000
v 0.00000000 0.38749999 0.52500001
vt 0.09683720 0.47070312
vn 0.00000000 0.00000000 -1.00000000
f 340/340/340 341/341/341 342/342/342
v 0.01875000 0.32812500 0.52500001
vt 0.09570312 0.47460938
vn 0.00000000 0.00000000 -1.00000000
v 0.00000000 0.32812500 0.52500001
vt 0.09683720 0.47460938
vn 0.00000000 0.00000000 -1.00000000
v 0.00000000 0.33961693 0.52500001
vt 0.09683720 0.47385333
vn 0.00000000 0.00000000 -1.00000000
f 343/343/343 344/344/344 345/345/345
v 0.27187499 0.65625000 0.73124999
vt 0.54492188 0.36328125
vn 1.00000000 0.00000000 0.00000000
v 0.27187499 0.33125001 0.73124999
vt 0.54492188 0.38281250
vn 1.00000000 0.00000000 0.00000000
v 0.27187499 0.65625000 0.57187501
vt 0.55468750 0.36328125
vn 1.00000000 0.00000000 0.00000000
f 346/346/346 347/347/347 348/348/348
v 0.27187499 0.33125001 0.73124999
vt 0.54492188 0.38281250
vn 1.00000000 0.00000000 0.00000000
v 0.27187499 0.33125001 0.57187501
vt 0.55468750 0.38281250
vn 1.00000000 0.00000000 0.00000000
v 0.27187499 0.65625000 0.57187501
vt 0.55468750 0.36328125
vn 1.00000000 0.00000000 0.00000000
f 349/349/349 350/350/350 351/351/351
v 0.14062500 0.65625000 0.57187501
vt 0.55859375 0.36328125
vn -1.00000000 0.00000000 0.00000000
v 0.14062500 0.33125001 0.57187501
vt 0.55859375 0.38281250
vn -1.00000000 0.00000000 0.00000000
v 0.14062500 0.65625000 0.73124999
vt 0.56835938 0.36328125
vn -1.00000000 0.00000000 0.00000000
f 352/352/352 353/353/353 354/354/354
v 0.14062500 0.33125001 0.57187501
vt 0.55859375 0.38281250
vn -1.00000000 0.00000000 0.00000000
v 0.14062500 0.33125001 0.73124999
vt 0.56835938 0.38281250
vn -1.00000000 0.00000000 0.00000000
v 0.14062500 0.65625000 0.73124999
vt 0.56835938 0.36328125
vn -1.00000000 0.00000000 0.00000000
f 355/355/355 356/356/356 357/357/357
v 0.14062500 0.65625000 0.57187501
vt 0.81054688 0.40625000
vn 0.00000000 1.00000000 0.00000000
v 0.14062500 0.65625000 0.73124999
vt 0.81054688 0.41601562
vn 0.00000000 1.00000000 0.00000000
v 0.27187499 0.65625000 0.57187501
vt 0.81835938 0.40625000
vn 0.00000000 1.00000000 0.00000000
f 358/358/358 359/359/359 360/360/360
v 0.14062500 0.65625000 0.73124999
vt 0.81054688 0.41601562
vn 0.00000000 1.00000000 0.00000000
v 0.27187499 0.65625000 0.73124999
vt 0.81835938 0.41601562
vn 0.00000000 1.00000000 0.00000000
v 0.27187499 0.65625000 0.57187501
vt 0.81835938 0.40625000
vn 0.00000000 1.00000000 0.00000000
f 361/361/361 362/362/362 363/363/363
v 0.14062500 0.33125001 0.73124999
vt 0.82226562 0.40625000
vn 0.00000000 -1.00000000 0.00000000
v 0.14062500 0.33125001 0.57187501
vt 0.82226562 0.41601562
vn 0.00000000 -1.00000000 0.00000000
v 0.27187499 0.33125001 0.73124999
vt 0.83007812 0.40625000
vn 0.00000000 -1.00000000 0.00000000
f 364/364/364 365/365/365 366/366/366
v 0.14062500 0.33125001 0.57187501
vt 0.82226562 0.41601562
vn 0.00000000 -1.00000000 0.00000000
v 0.27187499 0.33125001 0.57187501
vt 0.83007812 0.41601562
vn 0.00000000 -1.00000000 0.00000000
v 0.27187499 0.33125001 0.73124999
vt 0.83007812 0.40625000
vn 0.00000000 -1.00000000 0.00000000
f 367/367/367 368/368/368 369/369/369
v 0.14062500 0.65625000 0.73124999
vt 0.68554688 0.36328125
vn 0.00000000 0.00000000 1.00000000
v 0.14062500 0.33125001 0.73124999
vt 0.68554688 0.38281250
vn 0.00000000 0.00000000 1.00000000
v 0.27187499 0.65625000 0.73124999
vt 0.69335938 0.36328125
vn 0.00000000 0.00000000 1.00000000
f 370/370/370 371/371/371 372/372/372
v 0.14062500 0.33125001 0.73124999
vt 0.68554688 0.38281250
vn 0.00000000 0.00000000 1.00000000
v 0.27187499 0.33125001 0.73124999
vt 0.69335938 0.38281250
vn 0.00000000 0.00000000 1.00000000
v 0.27187499 0.65625000 0.73124999
vt 0.69335938 0.36328125
vn 0.00000000 0.00000000 1.00000000
f 373/373/373 374/374/374 375/375/375
v 0.27187499 0.65625000 0.57187501
vt 0.67382812 0.36328125
vn 0.00000000 0.00000000 -1.00000000
v 0.27187499 0.33125001 0.57187501
vt 0.67382812 0.38281250
vn 0.00000000 0.00000000 -1.00000000
v 0.14062500 0.65625000 0.57187501
vt 0.68164062 0.36328125
vn 0.00000000 0.00000000 -1.00000000
f 376/376/376 377/377/377 378/378/378
v 0.27187499 0.33125001 0.57187501
vt 0.67382812 0.38281250
vn 0.00000000 0.00000000 -1.00000000
v 0.14062500 0.33125001 0.57187501
vt 0.68164062 0.38281250
vn 0.00000000 0.00000000 -1.00000000
v 0.14062500 0.65625000 0.57187501
vt 0.68164062 0.36328125
vn 0.00000000 0.00000000 -1.00000000
f 379/379/379 380/380/380 381/381/381
v 0.27123751 1.00000000 0.71562500
vt 0.86523438 0.05346479
vn 0.99862953 0.05233596 0.00000000
v 0.29005171 0.64100374 0.71562500
vt 0.86523438 0.07617188
vn 0.99862953 0.05233596 0.00000000
v 0.27123751 1.00000000 0.68024976
vt 0.86762459 0.05346479
vn 0.99862953 0.05233596 0.00000000
f 382/382/382 383/383/383 384/384/384
v 0.29005171 0.64100374 0.71562500
vt 0.86523438 0.07617188
vn 0.99862953 0.05233596 0.00000000
v 0.29005171 0.64100374 0.60000000
vt 0.87304688 0.07617188
vn 0.99862953 0.05233596 0.00000000
v 0.27123751 1.00000000 0.60000000
vt 0.87304688 0.05346479
vn 0.99862953 0.05233596 0.00000000
f 385/385/385 386/386/386 387/387/387
v 0.29005171 0.64100374 0.71562500
vt 0.86523438 0.07617188
vn 0.99862953 0.05233596 0.00000000
v 0.27123751 1.00000000 0.60000000
vt 0.87304688 0.05346479
vn 0.99862953 0.05233596 0.00000000
v 0.27123751 1.00000000 0.68024976
vt 0.86762459 0.05346479
vn 0.99862953 0.05233596 0.00000000
f 388/388/388 389/389/389 390/390/390
v 0.16797099 1.00000000 0.60000000
vt 0.87695312 0.05312342
vn -0.99862953 -0.05233596 0.00000000
v 0.18706804 0.63560660 0.60000000
vt 0.87695312 0.07617188
vn -0.99862953 -0.05233596 0.00000000
v 0.16797099 1.00000000 0.63590707
vt 0.87937928 0.05312342
vn -0.99862953 -0.05233596 0.00000000
f 391/391/391 392/392/392 393/393/393
v 0.18706804 0.63560660 0.60000000
vt 0.87695312 0.07617188
vn -0.99862953 -0.05233596 0.00000000
v 0.18706804 0.63560660 0.71562500
vt 0.88476562 0.07617188
vn -0.99862953 -0.05233596 0.00000000
v 0.16797099 1.00000000 0.71562500
vt 0.88476562 0.05312342
vn -0.99862953 -0.05233596 0.00000000
f 394/394/394 395/395/395 396/396/396
v 0.18706804 0.63560660 0.60000000
vt 0.87695312 0.07617188
vn -0.99862953 -0.05233596 0.00000000
v 0.16797099 1.00000000 0.71562500
vt 0.88476562 0.05312342
vn -0.99862953 -0.05233596 0.00000000
v 0.16797099 1.00000000 0.63590707
vt 0.87937928 0.05312342
vn -0.99862953 -0.05233596 0.00000000
f 397/397/397 398/398/398 399/399/399
v 0.18706804 0.63560660 0.71562500
vt 0.29687500 0.43164062
vn 0.05233596 -0.99862953 0.00000000
v 0.18706804 0.63560660 0.60000000
vt 0.29687500 0.43945312
vn 0.05233596 -0.99862953 0.00000000
v 0.29005171 0.64100374 0.71562500
vt 0.30273438 0.43164062
vn 0.05233596 -0.99862953 0.00000000
f 400/400/400 401/401/401 402/402/402
v 0.18706804 0.63560660 0.60000000
vt 0.29687500 0.43945312
vn 0.05233596 -0.99862953 0.00000000
v 0.29005171 0.64100374 0.60000000
vt 0.30273438 0.43945312
vn 0.05233596 -0.99862953 0.00000000
v 0.29005171 0.64100374 0.71562500
vt 0.30273438 0.43164062
vn 0.05233596 -0.99862953 0.00000000
f 403/403/403 404/404/404 405/405/405
v 0.16797099 1.00000000 0.71562500
vt 0.89843750 0.05312342
vn 0.00000000 0.00000000 1.00000000
v 0.18706804 0.63560660 0.71562500
vt 0.89843750 0.07617188
vn 0.00000000 0.00000000 1.00000000
v 0.19989333 1.00000000 0.71562500
vt 0.90024878 0.05322895
vn 0.00000000 0.00000000 1.00000000
f 406/406/406 407/407/407 408/408/408
v 0.18706804 0.63560660 0.71562500
vt 0.89843750 0.07617188
vn 0.00000000 0.00000000 1.00000000
v 0.29005171 0.64100374 0.71562500
vt 0.90429688 0.07617188
vn 0.00000000 0.00000000 1.00000000
v 0.27123751 1.00000000 0.71562500
vt 0.90429688 0.05346479
vn 0.00000000 0.00000000 1.00000000
f 409/409/409 410/410/410 411/411/411
v 0.18706804 0.63560660 0.71562500
vt 0.89843750 0.07617188
vn 0.00000000 0.00000000 1.00000000
v 0.27123751 1.00000000 0.71562500
vt 0.90429688 0.05346479
vn 0.00000000 0.00000000 1.00000000
v 0.19989333 1.00000000 0.71562500
vt 0.90024878 0.05322895
vn 0.00000000 0.00000000 1.00000000
f 412/412/412 413/413/413 414/414/414
v 0.27123751 1.00000000 0.60000000
vt 0.88867188 0.05346479
vn 0.00000000 0.00000000 -1.00000000
v 0.29005171 0.64100374 0.60000000
vt 0.88867188 0.07617188
vn 0.00000000 0.00000000 -1.00000000
v 0.23949733 1.00000000 0.60000000
vt 0.89047282 0.05335987
vn 0.00000000 0.00000000 -1.00000000
f 415/415/415 416/416/416 417/417/417
v 0.29005171 0.64100374 0.60000000
vt 0.88867188 0.07617188
vn 0.00000000 0.00000000 -1.00000000
v 0.18706804 0.63560660 0.60000000
vt 0.89453125 0.07617188
vn 0.00000000 0.00000000 -1.00000000
v 0.16797099 1.00000000 0.60000000
vt 0.89453125 0.05312342
vn 0.00000000 0.00000000 -1.00000000
f 418/418/418 419/419/419 420/420/420
v 0.29005171 0.64100374 0.60000000
vt 0.88867188 0.07617188
vn 0.00000000 0.00000000 -1.00000000
v 0.16797099 1.00000000 0.60000000
vt 0.89453125 0.05312342
vn 0.00000000 0.00000000 -1.00000000
v 0.23949733 1.00000000 0.60000000
vt 0.89047282 0.05335987
vn 0.00000000 0.00000000 -1.00000000
f 421/421/421 422/422/422 423/423/423
v 0.24687500 0.38749999 0.65000001
vt 0.15429688 0.47070312
vn 1.00000000 0.00000000 0.00000000
v 0.24687500 0.32812500 0.65000001
vt 0.15429688 0.47460938
vn 1.00000000 0.00000000 0.00000000
v 0.24687500 0.38749999 0.55000001
vt 0.16015625 0.47070312
vn 1.00000000 0.00000000 0.00000000
f 424/424/424 425/425/425 426/426/426
v 0.24687500 0.32812500 0.65000001
vt 0.15429688 0.47460938
vn 1.00000000 0.00000000 0.00000000
v 0.24687500 0.32812500 0.55000001
vt 0.16015625 0.47460938
vn 1.00000000 0.00000000 0.00000000
v 0.24687500 0.38749999 0.55000001
vt 0.16015625 0.47070312
vn 1.00000000 0.00000000 0.00000000
f 427/427/427 428/428/428 429/429/429
v 0.15937500 0.38749999 0.55000001
vt 0.16406250 0.47070312
vn -1.00000000 0.00000000 0.00000000
v 0.15937500 0.32812500 0.55000001
vt 0.16406250 0.47460938
vn -1.00000000 0.00000000 0.00000000
v 0.15937500 0.38749999 0.65000001
vt 0.16992188 0.47070312
vn -1.00000000 0.00000000 0.00000000
f 430/430/430 431/431/431 432/432/432
v 0.15937500 0.32812500 0.55000001
vt 0.16406250 0.47460938
vn -1.00000000 0.00000000 0.00000000
v 0.15937500 0.32812500 0.65000001
vt 0.16992188 0.47460938
vn -1.00000000 0.00000000 0.00000000
v 0.15937500 0.38749999 0.65000001
vt 0.16992188 0.47070312
vn -1.00000000 0.00000000 0.00000000
f 433/433/433 434/434/434 435/435/435
v 0.15937500 0.38749999 0.55000001
vt 0.28710938 0.45312500
vn 0.00000000 1.00000000 0.00000000
v 0.15937500 0.38749999 0.65000001
vt 0.28710938 0.45898438
vn 0.00000000 1.00000000 0.00000000
v 0.24687500 0.38749999 0.55000001
vt 0.29296875 0.45312500
vn 0.00000000 1.00000000 0.00000000
f 436/436/436 437/437/437 438/438/438
v 0.15937500 0.38749999 0.65000001
vt 0.28710938 0.45898438
vn 0.00000000 1.00000000 0.00000000
v 0.24687500 0.38749999 0.65000001
vt 0.29296875 0.45898438
vn 0.00000000 1.00000000 0.00000000
v 0.24687500 0.38749999 0.55000001
vt 0.29296875 0.45312500
vn 0.00000000 1.00000000 0.00000000
f 439/439/439 440/440/440 441/441/441
v 0.15937500 0.32812500 0.65000001
vt 0.29687500 0.45312500
vn 0.00000000 -1.00000000 0.00000000
v 0.15937500 0.32812500 0.55000001
vt 0.29687500 0.45898438
vn 0.00000000 -1.00000000 0.00000000
v 0.24687500 0.32812500 0.65000001
vt 0.30273438 0.45312500
vn 0.00000000 -1.00000000 0.00000000
f 442/442/442 443/443/443 444/444/444
v 0.15937500 0.32812500 0.55000001
vt 0.29687500 0.45898438
vn 0.00000000 -1.00000000 0.00000000
v 0.24687500 0.32812500 0.55000001
vt 0.30273438 0.45898438
vn 0.00000000 -1.00000000 0.00000000
v 0.24687500 0.32812500 0.65000001
vt 0.30273438 0.45312500
vn 0.00000000 -1.00000000 0.00000000
f 445/445/445 446/446/446 447/447/447
v 0.15937500 0.38749999 0.65000001
vt 0.14453125 0.47070312
vn 0.00000000 0.00000000 1.00000000
v 0.15937500 0.32812500 0.65000001
vt 0.14453125 0.47460938
vn 0.00000000 0.00000000 1.00000000
v 0.24687500 0.38749999 0.65000001
vt 0.15039062 0.47070312
vn 0.00000000 0.00000000 1.00000000
f 448/448/448 449/449/449 450/450/450
v 0.15937500 0.32812500 0.65000001
vt 0.14453125 0.47460938
vn 0.00000000 0.00000000 1.00000000
v 0.24687500 0.32812500 0.65000001
vt 0.15039062 0.47460938
vn 0.00000000 0.00000000 1.00000000
v 0.24687500 0.38749999 0.65000001
vt 0.15039062 0.47070312
vn 0.00000000 0.00000000 1.00000000
f 451/451/451 452/452/452 453/453/453
v 0.24687500 0.38749999 0.55000001
vt 0.13476562 0.47070312
vn 0.00000000 0.00000000 -1.00000000
v 0.24687500 0.32812500 0.55000001
vt 0.13476562 0.47460938
vn 0.00000000 0.00000000 -1.00000000
v 0.15937500 0.38749999 0.55000001
vt 0.14062500 0.47070312
vn 0.00000000 0.00000000 -1.00000000
f 454/454/454 455/455/455 456/456/456
v 0.24687500 0.32812500 0.55000001
vt 0.13476562 0.47460938
vn 0.00000000 0.00000000 -1.00000000
v 0.15937500 0.32812500 0.55000001
vt 0.14062500 0.47460938
vn 0.00000000 0.00000000 -1.00000000
v 0.15937500 0.38749999 0.55000001
vt 0.14062500 0.47070312
vn 0.00000000 0.00000000 -1.00000000
f 457/457/457 458/458/458 459/459/459
v 0.50937498 0.65625000 0.75937501
vt 0.59960938 0.36328125
vn 1.00000000 0.00000000 0.00000000
v 0.50937498 0.33125001 0.75937501
vt 0.59960938 0.38281250
vn 1.00000000 0.00000000 0.00000000
v 0.50937498 0.65625000 0.59999999
vt 0.60937500 0.36328125
vn 1.00000000 0.00000000 0.00000000
f 460/460/460 461/461/461 462/462/462
v 0.50937498 0.33125001 0.75937501
vt 0.59960938 0.38281250
vn 1.00000000 0.00000000 0.00000000
v 0.50937498 0.33125001 0.59999999
vt 0.60937500 0.38281250
vn 1.00000000 0.00000000 0.00000000
v 0.50937498 0.65625000 0.59999999
vt 0.60937500 0.36328125
vn 1.00000000 0.00000000 0.00000000
f 463/463/463 464/464/464 465/465/465
v 0.36250001 0.65625000 0.59999999
vt 0.61328125 0.36328125
vn -1.00000000 0.00000000 0.00000000
v 0.36250001 0.33125001 0.59999999
vt 0.61328125 0.38281250
vn -1.00000000 0.00000000 0.00000000
v 0.36250001 0.65625000 0.75937501
vt 0.62304688 0.36328125
vn -1.00000000 0.00000000 0.00000000
f 466/466/466 467/467/467 468/468/468
v 0.36250001 0.33125001 0.59999999
vt 0.61328125 0.38281250
vn -1.00000000 0.00000000 0.00000000
v 0.36250001 0.33125001 0.75937501
vt 0.62304688 0.38281250
vn -1.00000000 0.00000000 0.00000000
v 0.36250001 0.65625000 0.75937501
vt 0.62304688 0.36328125
vn -1.00000000 0.00000000 0.00000000
f 469/469/469 470/470/470 471/471/471
v 0.36250001 0.65625000 0.59999999
vt 0.70898438 0.40625000
vn 0.00000000 1.00000000 0.00000000
v 0.36250001 0.65625000 0.75937501
vt 0.70898438 0.41601562
vn 0.00000000 1.00000000 0.00000000
v 0.50937498 0.65625000 0.59999999
vt 0.71875000 0.40625000
vn 0.00000000 1.00000000 0.00000000
f 472/472/472 473/473/473 474/474/474
v 0.36250001 0.65625000 0.75937501
vt 0.70898438 0.41601562
vn 0.00000000 1.00000000 0.00000000
v 0.50937498 0.65625000 0.75937501
vt 0.71875000 0.41601562
vn 0.00000000 1.00000000 0.00000000
v 0.50937498 0.65625000 0.59999999
vt 0.71875000 0.40625000
vn 0.00000000 1.00000000 0.00000000
f 475/475/475 476/476/476 477/477/477
v 0.36250001 0.33125001 0.75937501
vt 0.72265625 0.40625000
vn 0.00000000 -1.00000000 0.00000000
v 0.36250001 0.33125001 0.59999999
vt 0.72265625 0.41601562
vn 0.00000000 -1.00000000 0.00000000
v 0.50937498 0.33125001 0.75937501
vt 0.73242188 0.40625000
vn 0.00000000 -1.00000000 0.00000000
f 478/478/478 479/479/479 480/480/480
v 0.36250001 0.33125001 0.59999999
vt 0.72265625 0.41601562
vn 0.00000000 -1.00000000 0.00000000
v 0.50937498 0.33125001 0.59999999
vt 0.73242188 0.41601562
vn 0.00000000 -1.00000000 0.00000000
v 0.50937498 0.33125001 0.75937501
vt 0.73242188 0.40625000
vn 0.00000000 -1.00000000 0.00000000
f 481/481/481 482/482/482 483/483/483
v 0.36250001 0.65625000 0.75937501
vt 0.58593750 0.36328125
vn 0.00000000 0.00000000 1.00000000
v 0.36250001 0.33125001 0.75937501
vt 0.58593750 0.38281250
vn 0.00000000 0.00000000 1.00000000
v 0.50937498 0.65625000 0.75937501
vt 0.59570312 0.36328125
vn 0.00000000 0.00000000 1.00000000
f 484/484/484 485/485/485 486/486/486
v 0.36250001 0.33125001 0.75937501
vt 0.58593750 0.38281250
vn 0.00000000 0.00000000 1.00000000
v 0.50937498 0.33125001 0.75937501
vt 0.59570312 0.38281250
vn 0.00000000 0.00000000 1.00000000
v 0.50937498 0.65625000 0.75937501
vt 0.59570312 0.36328125
vn 0.00000000 0.00000000 1.00000000
f 487/487/487 488/488/488 489/489/489
v 0.50937498 0.65625000 0.59999999
vt 0.57226562 0.36328125
vn 0.00000000 0.00000000 -1.00000000
v 0.50937498 0.33125001 0.59999999
vt 0.57226562 0.38281250
vn 0.00000000 0.00000000 -1.00000000
v 0.36250001 0.65625000 0.59999999
vt 0.58203125 0.36328125
vn 0.00000000 0.00000000 -1.00000000
f 490/490/490 491/491/491 492/492/492
v 0.50937498 0.33125001 0.59999999
vt 0.57226562 0.38281250
vn 0.00000000 0.00000000 -1.00000000
v 0.36250001 0.33125001 0.59999999
vt 0.58203125 0.38281250
vn 0.00000000 0.00000000 -1.00000000
v 0.36250001 0.65625000 0.59999999
vt 0.58203125 0.36328125
vn 0.00000000 0.00000000 -1.00000000
f 493/493/493 494/494/494 495/495/495
v 0.51343637 1.00000000 0.74375000
vt 0.63476562 0.18851826
vn 0.99254615 0.12186934 0.00000000
v 0.55660542 0.64841632 0.74375000
vt 0.63476562 0.21093750
vn 0.99254615 0.12186934 0.00000000
v 0.51343637 1.00000000 0.70227440
vt 0.63756803 0.18851826
vn 0.99254615 0.12186934 0.00000000
f 496/496/496 497/497/497 498/498/498
v 0.55660542 0.64841632 0.74375000
vt 0.63476562 0.21093750
vn 0.99254615 0.12186934 0.00000000
v 0.55660542 0.64841632 0.62812500
vt 0.64257812 0.21093750
vn 0.99254615 0.12186934 0.00000000
v 0.51343637 1.00000000 0.62812500
vt 0.64257812 0.18851826
vn 0.99254615 0.12186934 0.00000000
f 499/499/499 500/500/500 501/501/501
v 0.55660542 0.64841632 0.74375000
vt 0.63476562 0.21093750
vn 0.99254615 0.12186934 0.00000000
v 0.51343637 1.00000000 0.62812500
vt 0.64257812 0.18851826
vn 0.99254615 0.12186934 0.00000000
v 0.51343637 1.00000000 0.70227440
vt 0.63756803 0.18851826
vn 0.99254615 0.12186934 0.00000000
f 502/502/502 503/503/503 504/504/504
v 0.39379458 1.00000000 0.62812500
vt 0.64648438 0.18759543
vn -0.99254615 -0.12186934 0.00000000
v 0.43874056 0.63394434 0.62812500
vt 0.64648438 0.21093750
vn -0.99254615 -0.12186934 0.00000000
v 0.39379458 1.00000000 0.67130783
vt 0.64940213 0.18759543
vn -0.99254615 -0.12186934 0.00000000
f 505/505/505 506/506/506 507/507/507
v 0.43874056 0.63394434 0.62812500
vt 0.64648438 0.21093750
vn -0.99254615 -0.12186934 0.00000000
v 0.43874056 0.63394434 0.74375000
vt 0.65429688 0.21093750
vn -0.99254615 -0.12186934 0.00000000
v 0.39379458 1.00000000 0.74375000
vt 0.65429688 0.18759543
vn -0.99254615 -0.12186934 0.00000000
f 508/508/508 509/509/509 510/510/510
v 0.43874056 0.63394434 0.62812500
vt 0.64648438 0.21093750
vn -0.99254615 -0.12186934 0.00000000
v 0.39379458 1.00000000 0.74375000
vt 0.65429688 0.18759543
vn -0.99254615 -0.12186934 0.00000000
v 0.39379458 1.00000000 0.67130783
vt 0.64940213 0.18759543
vn -0.99254615 -0.12186934 0.00000000
f 511/511/511 512/512/512 513/513/513
v 0.43874056 0.63394434 0.74375000
vt 0.20898438 0.43164062
vn 0.12186934 -0.99254615 0.00000000
v 0.43874056 0.63394434 0.62812500
vt 0.20898438 0.43945312
vn 0.12186934 -0.99254615 0.00000000
v 0.55660542 0.64841632 0.74375000
vt 0.21679688 0.43164062
vn 0.12186934 -0.99254615 0.00000000
f 514/514/514 515/515/515 516/516/516
v 0.43874056 0.63394434 0.62812500
vt 0.20898438 0.43945312
vn 0.12186934 -0.99254615 0.00000000
v 0.55660542 0.64841632 0.62812500
vt 0.21679688 0.43945312
vn 0.12186934 -0.99254615 0.00000000
v 0.55660542 0.64841632 0.74375000
vt 0.21679688 0.43164062
vn 0.12186934 -0.99254615 0.00000000
f 517/517/517 518/518/518 519/519/519
v 0.39379458 1.00000000 0.74375000
vt 0.62304688 0.18759543
vn 0.00000000 0.00000000 1.00000000
v 0.43874056 0.63394434 0.74375000
vt 0.62304688 0.21093750
vn 0.00000000 0.00000000 1.00000000
v 0.43782741 1.00000000 0.74375000
vt 0.62592218 0.18793507
vn 0.00000000 0.00000000 1.00000000
f 520/520/520 521/521/521 522/522/522
v 0.43874056 0.63394434 0.74375000
vt 0.62304688 0.21093750
vn 0.00000000 0.00000000 1.00000000
v 0.55660542 0.64841632 0.74375000
vt 0.63085938 0.21093750
vn 0.00000000 0.00000000 1.00000000
v 0.51343637 1.00000000 0.74375000
vt 0.63085938 0.18851826
vn 0.00000000 0.00000000 1.00000000
f 523/523/523 524/524/524 525/525/525
v 0.43874056 0.63394434 0.74375000
vt 0.62304688 0.21093750
vn 0.00000000 0.00000000 1.00000000
v 0.51343637 1.00000000 0.74375000
vt 0.63085938 0.18851826
vn 0.00000000 0.00000000 1.00000000
v 0.43782741 1.00000000 0.74375000
vt 0.62592218 0.18793507
vn 0.00000000 0.00000000 1.00000000
f 526/526/526 527/527/527 528/528/528
v 0.51343637 1.00000000 0.62812500
vt 0.61132812 0.18851826
vn 0.00000000 0.00000000 -1.00000000
v 0.55660542 0.64841632 0.62812500
vt 0.61132812 0.21093750
vn 0.00000000 0.00000000 -1.00000000
v 0.46987675 1.00000000 0.62812500
vt 0.61417253 0.18818227
vn 0.00000000 0.00000000 -1.00000000
f 529/529/529 530/530/530 531/531/531
v 0.55660542 0.64841632 0.62812500
vt 0.61132812 0.21093750
vn 0.00000000 0.00000000 -1.00000000
v 0.43874056 0.63394434 0.62812500
vt 0.61914062 0.21093750
vn 0.00000000 0.00000000 -1.00000000
v 0.39379458 1.00000000 0.62812500
vt 0.61914062 0.18759543
vn 0.00000000 0.00000000 -1.00000000
f 532/532/532 533/533/533 534/534/534
v 0.55660542 0.64841632 0.62812500
vt 0.61132812 0.21093750
vn 0.00000000 0.00000000 -1.00000000
v 0.39379458 1.00000000 0.62812500
vt 0.61914062 0.18759543
vn 0.00000000 0.00000000 -1.00000000
v 0.46987675 1.00000000 0.62812500
vt 0.61417253 0.18818227
vn 0.00000000 0.00000000 -1.00000000
f 535/535/535 536/536/536 537/537/537
v 0.48437500 0.38749999 0.67812499
vt 0.19335938 0.47070312
vn 1.00000000 0.00000000 0.00000000
v 0.48437500 0.32812500 0.67812499
vt 0.19335938 0.47460938
vn 1.00000000 0.00000000 0.00000000
v 0.48437500 0.38749999 0.57812500
vt 0.19921875 0.47070312
vn 1.00000000 0.00000000 0.00000000
f 538/538/538 539/539/539 540/540/540
v 0.48437500 0.32812500 0.67812499
vt 0.19335938 0.47460938
vn 1.00000000 0.00000000 0.00000000
v 0.48437500 0.32812500 0.57812500
vt 0.19921875 0.47460938
vn 1.00000000 0.00000000 0.00000000
v 0.48437500 0.38749999 0.57812500
vt 0.19921875 0.47070312
vn 1.00000000 0.00000000 0.00000000
f 541/541/541 542/542/542 543/543/543
v 0.38124999 0.38749999 0.57812500
vt 0.20312500 0.47070312
vn -1.00000000 0.00000000 0.00000000
v 0.38124999 0.32812500 0.57812500
vt 0.20312500 0.47460938
vn -1.00000000 0.00000000 0.00000000
v 0.38124999 0.38749999 0.67812499
vt 0.20898438 0.47070312
vn -1.00000000 0.00000000 0.00000000
f 544/544/544 545/545/545 546/546/546
v 0.38124999 0.32812500 0.57812500
vt 0.20312500 0.47460938
vn -1.00000000 0.00000000 0.00000000
v 0.38124999 0.32812500 0.67812499
vt 0.20898438 0.47460938
vn -1.00000000 0.00000000 0.00000000
v 0.38124999 0.38749999 0.67812499
vt 0.20898438 0.47070312
vn -1.00000000 0.00000000 0.00000000
f 547/547/547 548/548/548 549/549/549
v 0.38124999 0.38749999 0.57812500
vt 0.30664062 0.45312500
vn 0.00000000 1.00000000 0.00000000
v 0.38124999 0.38749999 0.67812499
vt 0.30664062 0.45898438
vn 0.00000000 1.00000000 0.00000000
v 0.48437500 0.38749999 0.57812500
vt 0.31250000 0.45312500
vn 0.00000000 1.00000000 0.00000000
f 550/550/550 551/551/551 552/552/552
v 0.38124999 0.38749999 0.67812499
vt 0.30664062 0.45898438
vn 0.00000000 1.00000000 0.00000000
v 0.48437500 0.38749999 0.67812499
vt 0.31250000 0.45898438
vn 0.00000000 1.00000000 0.00000000
v 0.48437500 0.38749999 0.57812500
vt 0.31250000 0.45312500
vn 0.00000000 1.00000000 0.00000000
f 553/553/553 554/554/554 555/555/555
v 0.38124999 0.32812500 0.67812499
vt 0.31640625 0.45312500
vn 0.00000000 -1.00000000 0.00000000
v 0.38124999 0.32812500 0.57812500
vt 0.31640625 0.45898438
vn 0.00000000 -1.00000000 0.00000000
v 0.48437500 0.32812500 0.67812499
vt 0.32226562 0.45312500
vn 0.00000000 -1.00000000 0.00000000
f 556/556/556 557/557/557 558/558/558
v 0.38124999 0.32812500 0.57812500
vt 0.31640625 0.45898438
vn 0.00000000 -1.00000000 0.00000000
v 0.48437500 0.32812500 0.57812500
vt 0.32226562 0.45898438
vn 0.00000000 -1.00000000 0.00000000
v 0.48437500 0.32812500 0.67812499
vt 0.32226562 0.45312500
vn 0.00000000 -1.00000000 0.00000000
f 559/559/559 560/560/560 561/561/561
v 0.38124999 0.38749999 0.67812499
vt 0.18359375 0.47070312
vn 0.00000000 0.00000000 1.00000000
v 0.38124999 0.32812500 0.67812499
vt 0.18359375 0.47460938
vn 0.00000000 0.00000000 1.00000000
v 0.48437500 0.38749999 0.67812499
vt 0.18945312 0.47070312
vn 0.00000000 0.00000000 1.00000000
f 562/562/562 563/563/563 564/564/564
v 0.38124999 0.32812500 0.67812499
vt 0.18359375 0.47460938
vn 0.00000000 0.00000000 1.00000000
v 0.48437500 0.32812500 0.67812499
vt 0.18945312 0.47460938
vn 0.00000000 0.00000000 1.00000000
v 0.48437500 0.38749999 0.67812499
vt 0.18945312 0.47070312
vn 0.00000000 0.00000000 1.00000000
f 565/565/565 566/566/566 567/567/567
v 0.48437500 0.38749999 0.57812500
vt 0.17382812 0.47070312
vn 0.00000000 0.00000000 -1.00000000
v 0.48437500 0.32812500 0.57812500
vt 0.17382812 0.47460938
vn 0.00000000 0.00000000 -1.00000000
v 0.38124999 0.38749999 0.57812500
vt 0.17968750 0.47070312
vn 0.00000000 0.00000000 -1.00000000
f 568/568/568 569/569/569 570/570/570
v 0.48437500 0.32812500 0.57812500
vt 0.17382812 0.47460938
vn 0.00000000 0.00000000 -1.00000000
v 0.38124999 0.32812500 0.57812500
vt 0.17968750 0.47460938
vn 0.00000000 0.00000000 -1.00000000
v 0.38124999 0.38749999 0.57812500
vt 0.17968750 0.47070312
vn 0.00000000 0.00000000 -1.00000000
f 571/571/571 572/572/572 573/573/573
v 0.48124999 0.34687501 0.95000000
vt 0.45507812 0.47851562
vn 1.00000000 0.00000000 0.00000000
v 0.48124999 0.32812500 0.95000000
vt 0.45507812 0.48046875
vn 1.00000000 0.00000000 0.00000000
v 0.48124999 0.34687501 0.78125000
vt 0.46484375 0.47851562
vn 1.00000000 0.00000000 0.00000000
f 574/574/574 575/575/575 576/576/576
v 0.48124999 0.32812500 0.95000000
vt 0.45507812 0.48046875
vn 1.00000000 0.00000000 0.00000000
v 0.48124999 0.32812500 0.78125000
vt 0.46484375 0.48046875
vn 1.00000000 0.00000000 0.00000000
v 0.48124999 0.34687501 0.78125000
vt 0.46484375 0.47851562
vn 1.00000000 0.00000000 0.00000000
f 577/577/577 578/578/578 579/579/579
v 0.33125001 0.34687501 0.78125000
vt 0.46875000 0.47851562
vn -1.00000000 0.00000000 0.00000000
v 0.33125001 0.32812500 0.78125000
vt 0.46875000 0.48046875
vn -1.00000000 0.00000000 0.00000000
v 0.33125001 0.34687501 0.95000000
vt 0.47851562 0.47851562
vn -1.00000000 0.00000000 0.00000000
f 580/580/580 581/581/581 582/582/582
v 0.33125001 0.32812500 0.78125000
vt 0.46875000 0.48046875
vn -1.00000000 0.00000000 0.00000000
v 0.33125001 0.32812500 0.95000000
vt 0.47851562 0.48046875
vn -1.00000000 0.00000000 0.00000000
v 0.33125001 0.34687501 0.95000000
vt 0.47851562 0.47851562
vn -1.00000000 0.00000000 0.00000000
f 583/583/583 584/584/584 585/585/585
v 0.33125001 0.34687501 0.78125000
vt 0.73632812 0.40625000
vn 0.00000000 1.00000000 0.00000000
v 0.33125001 0.34687501 0.95000000
vt 0.73632812 0.41601562
vn 0.00000000 1.00000000 0.00000000
v 0.48124999 0.34687501 0.78125000
vt 0.74609375 0.40625000
vn 0.00000000 1.00000000 0.00000000
f 586/586/586 587/587/587 588/588/588
v 0.33125001 0.34687501 0.95000000
vt 0.73632812 0.41601562
vn 0.00000000 1.00000000 0.00000000
v 0.48124999 0.34687501 0.95000000
vt 0.74609375 0.41601562
vn 0.00000000 1.00000000 0.00000000
v 0.48124999 0.34687501 0.78125000
vt 0.74609375 0.40625000
vn 0.00000000 1.00000000 0.00000000
f 589/589/589 590/590/590 591/591/591
v 0.33125001 0.32812500 0.95000000
vt 0.75000000 0.40625000
vn 0.00000000 -1.00000000 0.00000000
v 0.33125001 0.32812500 0.78125000
vt 0.75000000 0.41601562
vn 0.00000000 -1.00000000 0.00000000
v 0.48124999 0.32812500 0.95000000
vt 0.75976562 0.40625000
vn 0.00000000 -1.00000000 0.00000000
f 592/592/592 593/593/593 594/594/594
v 0.33125001 0.32812500 0.78125000
vt 0.75000000 0.41601562
vn 0.00000000 -1.00000000 0.00000000
v 0.48124999 0.32812500 0.78125000
vt 0.75976562 0.41601562
vn 0.00000000 -1.00000000 0.00000000
v 0.48124999 0.32812500 0.95000000
vt 0.75976562 0.40625000
vn 0.00000000 -1.00000000 0.00000000
f 595/595/595 596/596/596 597/597/597
v 0.33125001 0.34687501 0.95000000
vt 0.44140625 0.47851562
vn 0.00000000 0.00000000 1.00000000
v 0.33125001 0.32812500 0.95000000
vt 0.44140625 0.48046875
vn 0.00000000 0.00000000 1.00000000
v 0.48124999 0.34687501 0.95000000
vt 0.45117188 0.47851562
vn 0.00000000 0.00000000 1.00000000
f 598/598/598 599/599/599 600/600/600
v 0.33125001 0.32812500 0.95000000
vt 0.44140625 0.48046875
vn 0.00000000 0.00000000 1.00000000
v 0.48124999 0.32812500 0.95000000
vt 0.45117188 0.48046875
vn 0.00000000 0.00000000 1.00000000
v 0.48124999 0.34687501 0.95000000
vt 0.45117188 0.47851562
vn 0.00000000 0.00000000 1.00000000
f 601/601/601 602/602/602 603/603/603
v 0.48124999 0.34687501 0.78125000
vt 0.42773438 0.47851562
vn 0.00000000 0.00000000 -1.00000000
v 0.48124999 0.32812500 0.78125000
vt 0.42773438 0.48046875
vn 0.00000000 0.00000000 -1.00000000
v 0.33125001 0.34687501 0.78125000
vt 0.43750000 0.47851562
vn 0.00000000 0.00000000 -1.00000000
f 604/604/604 605/605/605 606/606/606
v 0.48124999 0.32812500 0.78125000
vt 0.42773438 0.48046875
vn 0.00000000 0.00000000 -1.00000000
v 0.33125001 0.32812500 0.78125000
vt 0.43750000 0.48046875
vn 0.00000000 0.00000000 -1.00000000
v 0.33125001 0.34687501 0.78125000
vt 0.43750000 0.47851562
vn 0.00000000 0.00000000 -1.00000000
f 607/607/607 608/608/608 609/609/609
