# Generated from the approved Charon statue B; positions are in blocks.
mtllib kingdoms:models/block/charon_statue/charon_statue.mtl
s off
usemtl stone
v 0.53125000 0.00000000 1.00000000
vt 0.10643434 0.27929688
vn 1.00000000 0.00000000 0.00000000
v 0.53125000 0.00000000 0.96699219
vt 0.10852051 0.27929688
vn 1.00000000 0.00000000 0.00000000
v 0.53125000 0.15625000 0.70625001
vt 0.12500000 0.26953125
vn 1.00000000 0.00000000 0.00000000
f 1/1/1 2/2/2 3/3/3
v 0.53125000 0.00000000 1.00000000
vt 0.10643434 0.27929688
vn 1.00000000 0.00000000 0.00000000
v 0.53125000 0.15625000 0.70625001
vt 0.12500000 0.26953125
vn 1.00000000 0.00000000 0.00000000
v 0.53125000 0.15625000 1.00000000
vt 0.10643434 0.26953125
vn 1.00000000 0.00000000 0.00000000
f 4/4/4 5/5/5 6/6/6
v 0.53125000 0.00000000 0.70625001
vt 0.12500000 0.27929688
vn 1.00000000 0.00000000 0.00000000
v 0.53125000 0.15625000 0.70625001
vt 0.12500000 0.26953125
vn 1.00000000 0.00000000 0.00000000
v 0.53125000 0.00000000 0.96699219
vt 0.10852051 0.27929688
vn 1.00000000 0.00000000 0.00000000
f 7/7/7 8/8/8 9/9/9
v 0.15278558 0.15625000 1.00000000
vt 0.90435540 0.16700316
vn 0.00000000 1.00000000 0.00000000
v 0.53125000 0.15625000 0.70625001
vt 0.92773438 0.14843750
vn 0.00000000 1.00000000 0.00000000
v 0.00000000 0.15625000 0.70625001
vt 0.89491733 0.14843750
vn 0.00000000 1.00000000 0.00000000
f 10/10/10 11/11/11 12/12/12
v 0.15278558 0.15625000 1.00000000
vt 0.90435540 0.16700316
vn 0.00000000 1.00000000 0.00000000
v 0.00000000 0.15625000 0.70625001
vt 0.89491733 0.14843750
vn 0.00000000 1.00000000 0.00000000
v 0.00000000 0.15625000 1.00000000
vt 0.89491733 0.16700316
vn 0.00000000 1.00000000 0.00000000
f 13/13/13 14/14/14 15/15/15
v 0.53125000 0.15625000 1.00000000
vt 0.92773438 0.16700316
vn 0.00000000 1.00000000 0.00000000
v 0.53125000 0.15625000 0.70625001
vt 0.92773438 0.14843750
vn 0.00000000 1.00000000 0.00000000
v 0.15278558 0.15625000 1.00000000
vt 0.90435540 0.16700316
vn 0.00000000 1.00000000 0.00000000
f 16/16/16 17/17/17 18/18/18
v 0.53125000 0.15625000 0.70625001
vt 0.91992188 0.21875000
vn 0.00000000 0.00000000 -1.00000000
v 0.53125000 0.00000000 0.70625001
vt 0.91992188 0.22851562
vn 0.00000000 0.00000000 -1.00000000
v 0.00000000 0.00000000 0.70625001
vt 0.95273892 0.22851562
vn 0.00000000 0.00000000 -1.00000000
f 19/19/19 20/20/20 21/21/21
v 0.53125000 0.15625000 0.70625001
vt 0.91992188 0.21875000
vn 0.00000000 0.00000000 -1.00000000
v 0.00000000 0.00000000 0.70625001
vt 0.95273892 0.22851562
vn 0.00000000 0.00000000 -1.00000000
v 0.00000000 0.15625000 0.70625001
vt 0.95273892 0.21875000
vn 0.00000000 0.00000000 -1.00000000
f 22/22/22 23/23/23 24/24/24
v 0.46250001 0.46405580 1.00000000
vt 0.76582618 0.27959026
vn 1.00000000 0.00000000 0.00000000
v 0.46250001 0.62500000 0.75000000
vt 0.78125000 0.26953125
vn 1.00000000 0.00000000 0.00000000
v 0.46250001 0.62500000 1.00000000
vt 0.76582618 0.26953125
vn 1.00000000 0.00000000 0.00000000
f 25/25/25 26/26/26 27/27/27
v 0.46250001 0.15625000 1.00000000
vt 0.76582618 0.29882812
vn 1.00000000 0.00000000 0.00000000
v 0.46250001 0.15625000 0.75000000
vt 0.78125000 0.29882812
vn 1.00000000 0.00000000 0.00000000
v 0.46250001 0.62500000 0.75000000
vt 0.78125000 0.26953125
vn 1.00000000 0.00000000 0.00000000
f 28/28/28 29/29/29 30/30/30
v 0.46250001 0.15625000 1.00000000
vt 0.76582618 0.29882812
vn 1.00000000 0.00000000 0.00000000
v 0.46250001 0.62500000 0.75000000
vt 0.78125000 0.26953125
vn 1.00000000 0.00000000 0.00000000
v 0.46250001 0.46405580 1.00000000
vt 0.76582618 0.27959026
vn 1.00000000 0.00000000 0.00000000
f 31/31/31 32/32/32 33/33/33
v 0.13739271 0.62500000 1.00000000
vt 0.16933510 0.23417382
vn 0.00000000 1.00000000 0.00000000
v 0.46250001 0.62500000 0.75000000
vt 0.18945312 0.21875000
vn 0.00000000 1.00000000 0.00000000
v 0.00000000 0.62500000 0.75000000
vt 0.16083308 0.21875000
vn 0.00000000 1.00000000 0.00000000
f 34/34/34 35/35/35 36/36/36
v 0.13739271 0.62500000 1.00000000
vt 0.16933510 0.23417382
vn 0.00000000 1.00000000 0.00000000
v 0.00000000 0.62500000 0.75000000
vt 0.16083308 0.21875000
vn 0.00000000 1.00000000 0.00000000
v 0.00000000 0.62500000 1.00000000
vt 0.16083308 0.23417382
vn 0.00000000 1.00000000 0.00000000
f 37/37/37 38/38/38 39/39/39
v 0.46250001 0.62500000 1.00000000
vt 0.18945312 0.23417382
vn 0.00000000 1.00000000 0.00000000
v 0.46250001 0.62500000 0.75000000
vt 0.18945312 0.21875000
vn 0.00000000 1.00000000 0.00000000
v 0.13739271 0.62500000 1.00000000
vt 0.16933510 0.23417382
vn 0.00000000 1.00000000 0.00000000
f 40/40/40 41/41/41 42/42/42
v 0.00000000 0.15625000 0.75000000
vt 0.22333308 0.26367188
vn 0.00000000 -1.00000000 0.00000000
v 0.46250001 0.15625000 0.75000000
vt 0.25195312 0.26367188
vn 0.00000000 -1.00000000 0.00000000
v 0.46250001 0.15625000 1.00000000
vt 0.25195312 0.24824806
vn 0.00000000 -1.00000000 0.00000000
f 43/43/43 44/44/44 45/45/45
v 0.00000000 0.15625000 0.75000000
vt 0.22333308 0.26367188
vn 0.00000000 -1.00000000 0.00000000
v 0.46250001 0.15625000 1.00000000
vt 0.25195312 0.24824806
vn 0.00000000 -1.00000000 0.00000000
v 0.00000000 0.15625000 1.00000000
vt 0.22333308 0.24824806
vn 0.00000000 -1.00000000 0.00000000
f 46/46/46 47/47/47 48/48/48
v 0.46250001 0.62500000 0.75000000
vt 0.61132812 0.26953125
vn 0.00000000 0.00000000 -1.00000000
v 0.46250001 0.15625000 0.75000000
vt 0.61132812 0.29882812
vn 0.00000000 0.00000000 -1.00000000
v 0.00000000 0.38521040 0.75000000
vt 0.63994817 0.28451810
vn 0.00000000 0.00000000 -1.00000000
f 49/49/49 50/50/50 51/51/51
v 0.46250001 0.62500000 0.75000000
vt 0.61132812 0.26953125
vn 0.00000000 0.00000000 -1.00000000
v 0.00000000 0.38521040 0.75000000
vt 0.63994817 0.28451810
vn 0.00000000 0.00000000 -1.00000000
v 0.00000000 0.62500000 0.75000000
vt 0.63994817 0.26953125
vn 0.00000000 0.00000000 -1.00000000
f 52/52/52 53/53/53 54/54/54
v 0.46250001 0.15625000 0.75000000
vt 0.61132812 0.29882812
vn 0.00000000 0.00000000 -1.00000000
v 0.00000000 0.15625000 0.75000000
vt 0.63994817 0.29882812
vn 0.00000000 0.00000000 -1.00000000
v 0.00000000 0.38521040 0.75000000
vt 0.63994817 0.28451810
vn 0.00000000 0.00000000 -1.00000000
f 55/55/55 56/56/56 57/57/57
v 0.50000000 0.93455189 1.00000000
vt 0.86107017 0.27948113
vn 1.00000000 0.00000000 0.00000000
v 0.50000000 1.00000000 0.90750000
vt 0.86679688 0.27539062
vn 1.00000000 0.00000000 0.00000000
v 0.50000000 1.00000000 1.00000000
vt 0.86107017 0.27539062
vn 1.00000000 0.00000000 0.00000000
f 58/58/58 59/59/59 60/60/60
v 0.50000000 0.62500000 1.00000000
vt 0.86107017 0.29882812
vn 1.00000000 0.00000000 0.00000000
v 0.50000000 0.62500000 0.77500001
vt 0.87500000 0.29882812
vn 1.00000000 0.00000000 0.00000000
v 0.50000000 1.00000000 0.77500001
vt 0.87500000 0.27539062
vn 1.00000000 0.00000000 0.00000000
f 61/61/61 62/62/62 63/63/63
v 0.50000000 0.62500000 1.00000000
vt 0.86107017 0.29882812
vn 1.00000000 0.00000000 0.00000000
v 0.50000000 1.00000000 0.77500001
vt 0.87500000 0.27539062
vn 1.00000000 0.00000000 0.00000000
v 0.50000000 1.00000000 0.90750000
vt 0.86679688 0.27539062
vn 1.00000000 0.00000000 0.00000000
f 64/64/64 65/65/65 66/66/66
v 0.50000000 0.62500000 1.00000000
vt 0.86107017 0.29882812
vn 1.00000000 0.00000000 0.00000000
v 0.50000000 1.00000000 0.90750000
vt 0.86679688 0.27539062
vn 1.00000000 0.00000000 0.00000000
v 0.50000000 0.93455189 1.00000000
vt 0.86107017 0.27948113
vn 1.00000000 0.00000000 0.00000000
f 67/67/67 68/68/68 69/69/69
v 0.00000000 0.62500000 0.77500001
vt 0.35370973 0.25976562
vn 0.00000000 -1.00000000 0.00000000
v 0.50000000 0.62500000 0.77500001
vt 0.38476562 0.25976562
vn 0.00000000 -1.00000000 0.00000000
v 0.50000000 0.62500000 1.00000000
vt 0.38476562 0.24583579
vn 0.00000000 -1.00000000 0.00000000
f 70/70/70 71/71/71 72/72/72
v 0.00000000 0.62500000 0.77500001
vt 0.35370973 0.25976562
vn 0.00000000 -1.00000000 0.00000000
v 0.50000000 0.62500000 1.00000000
vt 0.38476562 0.24583579
vn 0.00000000 -1.00000000 0.00000000
v 0.00000000 0.62500000 1.00000000
vt 0.35370973 0.24583579
vn 0.00000000 -1.00000000 0.00000000
f 73/73/73 74/74/74 75/75/75
v 0.50000000 1.00000000 0.77500001
vt 0.47851562 0.27539062
vn 0.00000000 0.00000000 -1.00000000
v 0.50000000 0.62500000 0.77500001
vt 0.47851562 0.29882812
vn 0.00000000 0.00000000 -1.00000000
v 0.00000000 0.85791925 0.77500001
vt 0.50957152 0.28427067
vn 0.00000000 0.00000000 -1.00000000
f 76/76/76 77/77/77 78/78/78
v 0.50000000 1.00000000 0.77500001
vt 0.47851562 0.27539062
vn 0.00000000 0.00000000 -1.00000000
v 0.00000000 0.85791925 0.77500001
vt 0.50957152 0.28427067
vn 0.00000000 0.00000000 -1.00000000
v 0.00000000 1.00000000 0.77500001
vt 0.50957152 0.27539062
vn 0.00000000 0.00000000 -1.00000000
f 79/79/79 80/80/80 81/81/81
v 0.50000000 0.62500000 0.77500001
vt 0.47851562 0.29882812
vn 0.00000000 0.00000000 -1.00000000
v 0.00000000 0.62500000 0.77500001
vt 0.50957152 0.29882812
vn 0.00000000 0.00000000 -1.00000000
v 0.00000000 0.85791925 0.77500001
vt 0.50957152 0.28427067
vn 0.00000000 0.00000000 -1.00000000
f 82/82/82 83/83/83 84/84/84
v 0.01936730 1.00000000 0.69062500
vt 0.71289062 0.00200851
vn 0.99984770 0.01745241 0.00000000
v 0.03682237 0.00000000 0.69062500
vt 0.71289062 0.06509151
vn 0.99984770 0.01745241 0.00000000
v 0.03682237 0.00000000 0.65994983
vt 0.71496327 0.06509151
vn 0.99984770 0.01745241 0.00000000
f 85/85/85 86/86/86 87/87/87
v 0.01936730 1.00000000 0.69062500
vt 0.71289062 0.00200851
vn 0.99984770 0.01745241 0.00000000
v 0.03682237 0.00000000 0.65994983
vt 0.71496327 0.06509151
vn 0.99984770 0.01745241 0.00000000
v 0.01936730 1.00000000 0.57507451
vt 0.72069809 0.00200851
vn 0.99984770 0.01745241 0.00000000
f 88/88/88 89/89/89 90/90/90
v 0.03682237 0.00000000 0.57500000
vt 0.72070312 0.06509151
vn 0.99984770 0.01745241 0.00000000
v 0.01936730 1.00000000 0.57500000
vt 0.72070312 0.00200851
vn 0.99984770 0.01745241 0.00000000
v 0.01936730 1.00000000 0.57507451
vt 0.72069809 0.00200851
vn 0.99984770 0.01745241 0.00000000
f 91/91/91 92/92/92 93/93/93
v 0.03682237 0.00000000 0.57500000
vt 0.72070312 0.06509151
vn 0.99984770 0.01745241 0.00000000
v 0.01936730 1.00000000 0.57507451
vt 0.72069809 0.00200851
vn 0.99984770 0.01745241 0.00000000
v 0.03682237 0.00000000 0.65994983
vt 0.71496327 0.06509151
vn 0.99984770 0.01745241 0.00000000
f 94/94/94 95/95/95 96/96/96
v 0.00000000 0.70324688 0.69062500
vt 0.70727997 0.02070156
vn 0.00000000 0.00000000 1.00000000
v 0.01929490 1.00000000 0.69062500
vt 0.70897935 0.00200843
vn 0.00000000 0.00000000 1.00000000
v 0.00000000 1.00000000 0.69062500
vt 0.70763963 0.00198719
vn 0.00000000 0.00000000 1.00000000
f 97/97/97 98/98/98 99/99/99
v 0.03682237 0.00000000 0.69062500
vt 0.70898438 0.06509151
vn 0.00000000 0.00000000 1.00000000
v 0.01936730 1.00000000 0.69062500
vt 0.70898438 0.00200851
vn 0.00000000 0.00000000 1.00000000
v 0.01929490 1.00000000 0.69062500
vt 0.70897935 0.00200843
vn 0.00000000 0.00000000 1.00000000
f 100/100/100 101/101/101 102/102/102
v 0.03682237 0.00000000 0.69062500
vt 0.70898438 0.06509151
vn 0.00000000 0.00000000 1.00000000
v 0.01929490 1.00000000 0.69062500
vt 0.70897935 0.00200843
vn 0.00000000 0.00000000 1.00000000
v 0.00000000 0.70324688 0.69062500
vt 0.70727997 0.02070156
vn 0.00000000 0.00000000 1.00000000
f 103/103/103 104/104/104 105/105/105
v 0.03682237 0.00000000 0.69062500
vt 0.70898438 0.06509151
vn 0.00000000 0.00000000 1.00000000
v 0.00000000 0.70324688 0.69062500
vt 0.70727997 0.02070156
vn 0.00000000 0.00000000 1.00000000
v 0.00000000 0.00000000 0.69062500
vt 0.70642766 0.06505098
vn 0.00000000 0.00000000 1.00000000
f 106/106/106 107/107/107 108/108/108
v 0.01936730 1.00000000 0.57500000
vt 0.68945312 0.00200851
vn 0.00000000 0.00000000 -1.00000000
v 0.03682237 0.00000000 0.57500000
vt 0.68945312 0.06509151
vn 0.00000000 0.00000000 -1.00000000
v 0.00692863 0.00000000 0.57500000
vt 0.69152876 0.06505860
vn 0.00000000 0.00000000 -1.00000000
f 109/109/109 110/110/110 111/111/111
v 0.01936730 1.00000000 0.57500000
vt 0.68945312 0.00200851
vn 0.00000000 0.00000000 -1.00000000
v 0.00692863 0.00000000 0.57500000
vt 0.69152876 0.06505860
vn 0.00000000 0.00000000 -1.00000000
v 0.00000000 0.06916989 0.57500000
vt 0.69192601 0.06068886
vn 0.00000000 0.00000000 -1.00000000
f 112/112/112 113/113/113 114/114/114
v 0.01936730 1.00000000 0.57500000
vt 0.68945312 0.00200851
vn 0.00000000 0.00000000 -1.00000000
v 0.00000000 0.06916989 0.57500000
vt 0.69192601 0.06068886
vn 0.00000000 0.00000000 -1.00000000
v 0.00000000 1.00000000 0.57500000
vt 0.69079787 0.00198719
vn 0.00000000 0.00000000 -1.00000000
f 115/115/115 116/116/116 117/117/117
v 0.00000000 0.00000000 0.57500000
vt 0.69200984 0.06505098
vn 0.00000000 0.00000000 -1.00000000
v 0.00000000 0.06916989 0.57500000
vt 0.69192601 0.06068886
vn 0.00000000 0.00000000 -1.00000000
v 0.00692863 0.00000000 0.57500000
vt 0.69152876 0.06505860
vn 0.00000000 0.00000000 -1.00000000
f 118/118/118 119/119/119 120/120/120
v 0.22855696 0.81439340 0.71562500
vt 0.86523438 0.00195312
vn 0.99862953 0.05233596 0.00000000
v 0.27123751 0.00000000 0.71562500
vt 0.86523438 0.05346479
vn 0.99862953 0.05233596 0.00000000
v 0.27123751 0.00000000 0.68024976
vt 0.86762459 0.05346479
vn 0.99862953 0.05233596 0.00000000
f 121/121/121 122/122/122 123/123/123
v 0.22855696 0.81439340 0.71562500
vt 0.86523438 0.00195312
vn 0.99862953 0.05233596 0.00000000
v 0.27123751 0.00000000 0.68024976
vt 0.86762459 0.05346479
vn 0.99862953 0.05233596 0.00000000
v 0.22855696 0.81439340 0.60000000
vt 0.87304688 0.00195312
vn 0.99862953 0.05233596 0.00000000
f 124/124/124 125/125/125 126/126/126
v 0.27123751 0.00000000 0.60000000
vt 0.87304688 0.05346479
vn 0.99862953 0.05233596 0.00000000
v 0.22855696 0.81439340 0.60000000
vt 0.87304688 0.00195312
vn 0.99862953 0.05233596 0.00000000
v 0.27123751 0.00000000 0.68024976
vt 0.86762459 0.05346479
vn 0.99862953 0.05233596 0.00000000
f 127/127/127 128/128/128 129/129/129
v 0.12557329 0.80899626 0.60000000
vt 0.87695312 0.00195312
vn -0.99862953 -0.05233596 0.00000000
v 0.16797099 0.00000000 0.60000000
vt 0.87695312 0.05312342
vn -0.99862953 -0.05233596 0.00000000
v 0.16797099 0.00000000 0.63590707
vt 0.87937928 0.05312342
vn -0.99862953 -0.05233596 0.00000000
f 130/130/130 131/131/131 132/132/132
v 0.12557329 0.80899626 0.60000000
vt 0.87695312 0.00195312
vn -0.99862953 -0.05233596 0.00000000
v 0.16797099 0.00000000 0.63590707
vt 0.87937928 0.05312342
vn -0.99862953 -0.05233596 0.00000000
v 0.12557329 0.80899626 0.71562500
vt 0.88476562 0.00195312
vn -0.99862953 -0.05233596 0.00000000
f 133/133/133 134/134/134 135/135/135
v 0.16797099 0.00000000 0.71562500
vt 0.88476562 0.05312342
vn -0.99862953 -0.05233596 0.00000000
v 0.12557329 0.80899626 0.71562500
vt 0.88476562 0.00195312
vn -0.99862953 -0.05233596 0.00000000
v 0.16797099 0.00000000 0.63590707
vt 0.87937928 0.05312342
vn -0.99862953 -0.05233596 0.00000000
f 136/136/136 137/137/137 138/138/138
v 0.12557329 0.80899626 0.60000000
vt 0.28710938 0.43164062
vn -0.05233596 0.99862953 0.00000000
v 0.12557329 0.80899626 0.71562500
vt 0.28710938 0.43945312
vn -0.05233596 0.99862953 0.00000000
v 0.22855696 0.81439340 0.60000000
vt 0.29296875 0.43164062
vn -0.05233596 0.99862953 0.00000000
f 139/139/139 140/140/140 141/141/141
v 0.12557329 0.80899626 0.71562500
vt 0.28710938 0.43945312
vn -0.05233596 0.99862953 0.00000000
v 0.22855696 0.81439340 0.71562500
vt 0.29296875 0.43945312
vn -0.05233596 0.99862953 0.00000000
v 0.22855696 0.81439340 0.60000000
vt 0.29296875 0.43164062
vn -0.05233596 0.99862953 0.00000000
f 142/142/142 143/143/143 144/144/144
v 0.12557329 0.80899626 0.71562500
vt 0.89843750 0.00195312
vn 0.00000000 0.00000000 1.00000000
v 0.16797099 0.00000000 0.71562500
vt 0.89843750 0.05312342
vn 0.00000000 0.00000000 1.00000000
v 0.19989333 0.00000000 0.71562500
vt 0.90024878 0.05322895
vn 0.00000000 0.00000000 1.00000000
f 145/145/145 146/146/146 147/147/147
v 0.12557329 0.80899626 0.71562500
vt 0.89843750 0.00195312
vn 0.00000000 0.00000000 1.00000000
v 0.19989333 0.00000000 0.71562500
vt 0.90024878 0.05322895
vn 0.00000000 0.00000000 1.00000000
v 0.22855696 0.81439340 0.71562500
vt 0.90429688 0.00195312
vn 0.00000000 0.00000000 1.00000000
f 148/148/148 149/149/149 150/150/150
v 0.27123751 0.00000000 0.71562500
vt 0.90429688 0.05346479
vn 0.00000000 0.00000000 1.00000000
v 0.22855696 0.81439340 0.71562500
vt 0.90429688 0.00195312
vn 0.00000000 0.00000000 1.00000000
v 0.19989333 0.00000000 0.71562500
vt 0.90024878 0.05322895
vn 0.00000000 0.00000000 1.00000000
f 151/151/151 152/152/152 153/153/153
v 0.22855696 0.81439340 0.60000000
vt 0.88867188 0.00195312
vn 0.00000000 0.00000000 -1.00000000
v 0.27123751 0.00000000 0.60000000
vt 0.88867188 0.05346479
vn 0.00000000 0.00000000 -1.00000000
v 0.23949733 0.00000000 0.60000000
vt 0.89047282 0.05335987
vn 0.00000000 0.00000000 -1.00000000
f 154/154/154 155/155/155 156/156/156
v 0.22855696 0.81439340 0.60000000
vt 0.88867188 0.00195312
vn 0.00000000 0.00000000 -1.00000000
v 0.23949733 0.00000000 0.60000000
vt 0.89047282 0.05335987
vn 0.00000000 0.00000000 -1.00000000
v 0.12557329 0.80899626 0.60000000
vt 0.89453125 0.00195312
vn 0.00000000 0.00000000 -1.00000000
f 157/157/157 158/158/158 159/159/159
v 0.16797099 0.00000000 0.60000000
vt 0.89453125 0.05312342
vn 0.00000000 0.00000000 -1.00000000
v 0.12557329 0.80899626 0.60000000
vt 0.89453125 0.00195312
vn 0.00000000 0.00000000 -1.00000000
v 0.23949733 0.00000000 0.60000000
vt 0.89047282 0.05335987
vn 0.00000000 0.00000000 -1.00000000
f 160/160/160 161/161/161 162/162/162
v 0.43625944 0.62855566 0.74375000
vt 0.63476562 0.14843750
vn 0.99254615 0.12186934 0.00000000
v 0.51343637 0.00000000 0.74375000
vt 0.63476562 0.18851826
vn 0.99254615 0.12186934 0.00000000
v 0.51343637 0.00000000 0.70227440
vt 0.63756803 0.18851826
vn 0.99254615 0.12186934 0.00000000
f 163/163/163 164/164/164 165/165/165
v 0.43625944 0.62855566 0.74375000
vt 0.63476562 0.14843750
vn 0.99254615 0.12186934 0.00000000
v 0.51343637 0.00000000 0.70227440
vt 0.63756803 0.18851826
vn 0.99254615 0.12186934 0.00000000
v 0.43625944 0.62855566 0.62812500
vt 0.64257812 0.14843750
vn 0.99254615 0.12186934 0.00000000
f 166/166/166 167/167/167 168/168/168
v 0.51343637 0.00000000 0.62812500
vt 0.64257812 0.18851826
vn 0.99254615 0.12186934 0.00000000
v 0.43625944 0.62855566 0.62812500
vt 0.64257812 0.14843750
vn 0.99254615 0.12186934 0.00000000
v 0.51343637 0.00000000 0.70227440
vt 0.63756803 0.18851826
vn 0.99254615 0.12186934 0.00000000
f 169/169/169 170/170/170 171/171/171
v 0.31839458 0.61408368 0.62812500
vt 0.64648438 0.14843750
vn -0.99254615 -0.12186934 0.00000000
v 0.39379458 0.00000000 0.62812500
vt 0.64648438 0.18759543
vn -0.99254615 -0.12186934 0.00000000
v 0.39379458 0.00000000 0.67130783
vt 0.64940213 0.18759543
vn -0.99254615 -0.12186934 0.00000000
f 172/172/172 173/173/173 174/174/174
v 0.31839458 0.61408368 0.62812500
vt 0.64648438 0.14843750
vn -0.99254615 -0.12186934 0.00000000
v 0.39379458 0.00000000 0.67130783
vt 0.64940213 0.18759543
vn -0.99254615 -0.12186934 0.00000000
v 0.31839458 0.61408368 0.74375000
vt 0.65429688 0.14843750
vn -0.99254615 -0.12186934 0.00000000
f 175/175/175 176/176/176 177/177/177
v 0.39379458 0.00000000 0.74375000
vt 0.65429688 0.18759543
vn -0.99254615 -0.12186934 0.00000000
v 0.31839458 0.61408368 0.74375000
vt 0.65429688 0.14843750
vn -0.99254615 -0.12186934 0.00000000
v 0.39379458 0.00000000 0.67130783
vt 0.64940213 0.18759543
vn -0.99254615 -0.12186934 0.00000000
f 178/178/178 179/179/179 180/180/180
v 0.31839458 0.61408368 0.62812500
vt 0.19726562 0.43164062
vn -0.12186934 0.99254615 0.00000000
v 0.31839458 0.61408368 0.74375000
vt 0.19726562 0.43945312
vn -0.12186934 0.99254615 0.00000000
v 0.43625944 0.62855566 0.62812500
vt 0.20507812 0.43164062
vn -0.12186934 0.99254615 0.00000000
f 181/181/181 182/182/182 183/183/183
v 0.31839458 0.61408368 0.74375000
vt 0.19726562 0.43945312
vn -0.12186934 0.99254615 0.00000000
v 0.43625944 0.62855566 0.74375000
vt 0.20507812 0.43945312
vn -0.12186934 0.99254615 0.00000000
v 0.43625944 0.62855566 0.62812500
vt 0.20507812 0.43164062
vn -0.12186934 0.99254615 0.00000000
f 184/184/184 185/185/185 186/186/186
v 0.31839458 0.61408368 0.74375000
vt 0.62304688 0.14843750
vn 0.00000000 0.00000000 1.00000000
v 0.39379458 0.00000000 0.74375000
vt 0.62304688 0.18759543
vn 0.00000000 0.00000000 1.00000000
v 0.43782741 0.00000000 0.74375000
vt 0.62592218 0.18793507
vn 0.00000000 0.00000000 1.00000000
f 187/187/187 188/188/188 189/189/189
v 0.31839458 0.61408368 0.74375000
vt 0.62304688 0.14843750
vn 0.00000000 0.00000000 1.00000000
v 0.43782741 0.00000000 0.74375000
vt 0.62592218 0.18793507
vn 0.00000000 0.00000000 1.00000000
v 0.43625944 0.62855566 0.74375000
vt 0.63085938 0.14843750
vn 0.00000000 0.00000000 1.00000000
f 190/190/190 191/191/191 192/192/192
v 0.51343637 0.00000000 0.74375000
vt 0.63085938 0.18851826
vn 0.00000000 0.00000000 1.00000000
v 0.43625944 0.62855566 0.74375000
vt 0.63085938 0.14843750
vn 0.00000000 0.00000000 1.00000000
v 0.43782741 0.00000000 0.74375000
vt 0.62592218 0.18793507
vn 0.00000000 0.00000000 1.00000000
f 193/193/193 194/194/194 195/195/195
v 0.43625944 0.62855566 0.62812500
vt 0.61132812 0.14843750
vn 0.00000000 0.00000000 -1.00000000
v 0.51343637 0.00000000 0.62812500
vt 0.61132812 0.18851826
vn 0.00000000 0.00000000 -1.00000000
v 0.46987675 0.00000000 0.62812500
vt 0.61417253 0.18818227
vn 0.00000000 0.00000000 -1.00000000
f 196/196/196 197/197/197 198/198/198
v 0.43625944 0.62855566 0.62812500
vt 0.61132812 0.14843750
vn 0.00000000 0.00000000 -1.00000000
v 0.46987675 0.00000000 0.62812500
vt 0.61417253 0.18818227
vn 0.00000000 0.00000000 -1.00000000
v 0.31839458 0.61408368 0.62812500
vt 0.61914062 0.14843750
vn 0.00000000 0.00000000 -1.00000000
f 199/199/199 200/200/200 201/201/201
v 0.39379458 0.00000000 0.62812500
vt 0.61914062 0.18759543
vn 0.00000000 0.00000000 -1.00000000
v 0.31839458 0.61408368 0.62812500
vt 0.61914062 0.14843750
vn 0.00000000 0.00000000 -1.00000000
v 0.46987675 0.00000000 0.62812500
vt 0.61417253 0.18818227
vn 0.00000000 0.00000000 -1.00000000
f 202/202/202 203/203/203 204/204/204
v 0.48124999 0.53896605 1.00000000
vt 0.16095197 0.42271894
vn 1.00000000 0.00000000 0.00000000
v 0.48124999 0.57812500 0.72812501
vt 0.17773438 0.41992188
vn 1.00000000 0.00000000 0.00000000
v 0.48124999 0.57812500 1.00000000
vt 0.16095197 0.41992188
vn 1.00000000 0.00000000 0.00000000
f 205/205/205 206/206/206 207/207/207
v 0.48124999 0.46875000 1.00000000
vt 0.16095197 0.42773438
vn 1.00000000 0.00000000 0.00000000
v 0.48124999 0.46875000 0.72812501
vt 0.17773438 0.42773438
vn 1.00000000 0.00000000 0.00000000
v 0.48124999 0.57812500 0.72812501
vt 0.17773438 0.41992188
vn 1.00000000 0.00000000 0.00000000
f 208/208/208 209/209/209 210/210/210
v 0.48124999 0.46875000 1.00000000
vt 0.16095197 0.42773438
vn 1.00000000 0.00000000 0.00000000
v 0.48124999 0.57812500 0.72812501
vt 0.17773438 0.41992188
vn 1.00000000 0.00000000 0.00000000
v 0.48124999 0.53896605 1.00000000
vt 0.16095197 0.42271894
vn 1.00000000 0.00000000 0.00000000
f 211/211/211 212/212/212 213/213/213
v 0.13217593 0.57812500 1.00000000
vt 0.04082272 0.23553241
vn 0.00000000 1.00000000 0.00000000
v 0.48124999 0.57812500 0.72812501
vt 0.06250000 0.21875000
vn 0.00000000 1.00000000 0.00000000
v 0.00000000 0.57812500 0.72812501
vt 0.03261468 0.21875000
vn 0.00000000 1.00000000 0.00000000
f 214/214/214 215/215/215 216/216/216
v 0.13217593 0.57812500 1.00000000
vt 0.04082272 0.23553241
vn 0.00000000 1.00000000 0.00000000
v 0.00000000 0.57812500 0.72812501
vt 0.03261468 0.21875000
vn 0.00000000 1.00000000 0.00000000
v 0.00000000 0.57812500 1.00000000
vt 0.03261468 0.23553241
vn 0.00000000 1.00000000 0.00000000
f 217/217/217 218/218/218 219/219/219
v 0.48124999 0.57812500 1.00000000
vt 0.06250000 0.23553241
vn 0.00000000 1.00000000 0.00000000
v 0.48124999 0.57812500 0.72812501
vt 0.06250000 0.21875000
vn 0.00000000 1.00000000 0.00000000
v 0.13217593 0.57812500 1.00000000
vt 0.04082272 0.23553241
vn 0.00000000 1.00000000 0.00000000
f 220/220/220 221/221/221 222/222/222
v 0.00000000 0.46875000 0.72812501
vt 0.09706781 0.26562500
vn 0.00000000 -1.00000000 0.00000000
v 0.48124999 0.46875000 0.72812501
vt 0.12695312 0.26562500
vn 0.00000000 -1.00000000 0.00000000
v 0.48124999 0.46875000 1.00000000
vt 0.12695312 0.24884259
vn 0.00000000 -1.00000000 0.00000000
f 223/223/223 224/224/224 225/225/225
v 0.00000000 0.46875000 0.72812501
vt 0.09706781 0.26562500
vn 0.00000000 -1.00000000 0.00000000
v 0.48124999 0.46875000 1.00000000
vt 0.12695312 0.24884259
vn 0.00000000 -1.00000000 0.00000000
v 0.00000000 0.46875000 1.00000000
vt 0.09706781 0.24884259
vn 0.00000000 -1.00000000 0.00000000
f 226/226/226 227/227/227 228/228/228
v 0.48124999 0.57812500 0.72812501
vt 0.00195312 0.41992188
vn 0.00000000 0.00000000 -1.00000000
v 0.48124999 0.46875000 0.72812501
vt 0.00195312 0.42773438
vn 0.00000000 0.00000000 -1.00000000
v 0.00000000 0.52273638 0.72812501
vt 0.03183844 0.42387821
vn 0.00000000 0.00000000 -1.00000000
f 229/229/229 230/230/230 231/231/231
v 0.48124999 0.57812500 0.72812501
vt 0.00195312 0.41992188
vn 0.00000000 0.00000000 -1.00000000
v 0.00000000 0.52273638 0.72812501
vt 0.03183844 0.42387821
vn 0.00000000 0.00000000 -1.00000000
v 0.00000000 0.57812500 0.72812501
vt 0.03183844 0.41992188
vn 0.00000000 0.00000000 -1.00000000
f 232/232/232 233/233/233 234/234/234
v 0.48124999 0.46875000 0.72812501
vt 0.00195312 0.42773438
vn 0.00000000 0.00000000 -1.00000000
v 0.00000000 0.46875000 0.72812501
vt 0.03183844 0.42773438
vn 0.00000000 0.00000000 -1.00000000
v 0.00000000 0.52273638 0.72812501
vt 0.03183844 0.42387821
vn 0.00000000 0.00000000 -1.00000000
f 235/235/235 236/236/236 237/237/237
v 0.36875001 0.57500005 0.73124999
vt 0.49414062 0.47070312
vn 1.00000000 0.00000000 0.00000000
v 0.36875001 0.50000000 0.73124999
vt 0.49414062 0.47460938
vn 1.00000000 0.00000000 0.00000000
v 0.36875001 0.57500005 0.69687501
vt 0.49609375 0.47070312
vn 1.00000000 0.00000000 0.00000000
f 238/238/238 239/239/239 240/240/240
v 0.36875001 0.50000000 0.73124999
vt 0.49414062 0.47460938
vn 1.00000000 0.00000000 0.00000000
v 0.36875001 0.50000000 0.69687501
vt 0.49609375 0.47460938
vn 1.00000000 0.00000000 0.00000000
v 0.36875001 0.57500005 0.69687501
vt 0.49609375 0.47070312
vn 1.00000000 0.00000000 0.00000000
f 241/241/241 242/242/242 243/243/243
v 0.00000000 0.57500005 0.71428380
vt 0.52803112 0.47169226
vn 0.00000000 1.00000000 0.00000000
v 0.36875001 0.57500005 0.69687501
vt 0.55078125 0.47070312
vn 0.00000000 1.00000000 0.00000000
v 0.00000000 0.57500005 0.69687501
vt 0.52803112 0.47070312
vn 0.00000000 1.00000000 0.00000000
f 244/244/244 245/245/245 246/246/246
v 0.00000000 0.57500005 0.73124999
vt 0.52803112 0.47265625
vn 0.00000000 1.00000000 0.00000000
v 0.36875001 0.57500005 0.73124999
vt 0.55078125 0.47265625
vn 0.00000000 1.00000000 0.00000000
v 0.36875001 0.57500005 0.69687501
vt 0.55078125 0.47070312
vn 0.00000000 1.00000000 0.00000000
f 247/247/247 248/248/248 249/249/249
v 0.00000000 0.57500005 0.73124999
vt 0.52803112 0.47265625
vn 0.00000000 1.00000000 0.00000000
v 0.36875001 0.57500005 0.69687501
vt 0.55078125 0.47070312
vn 0.00000000 1.00000000 0.00000000
v 0.00000000 0.57500005 0.71428380
vt 0.52803112 0.47169226
vn 0.00000000 1.00000000 0.00000000
f 250/250/250 251/251/251 252/252/252
v 0.00000000 0.50000000 0.71384120
vt 0.57685924 0.47169226
vn 0.00000000 -1.00000000 0.00000000
v 0.36875001 0.50000000 0.73124999
vt 0.59960938 0.47070312
vn 0.00000000 -1.00000000 0.00000000
v 0.00000000 0.50000000 0.73124999
vt 0.57685924 0.47070312
vn 0.00000000 -1.00000000 0.00000000
f 253/253/253 254/254/254 255/255/255
v 0.00000000 0.50000000 0.69687501
vt 0.57685924 0.47265625
vn 0.00000000 -1.00000000 0.00000000
v 0.36875001 0.50000000 0.69687501
vt 0.59960938 0.47265625
vn 0.00000000 -1.00000000 0.00000000
v 0.36875001 0.50000000 0.73124999
vt 0.59960938 0.47070312
vn 0.00000000 -1.00000000 0.00000000
f 256/256/256 257/257/257 258/258/258
v 0.00000000 0.50000000 0.69687501
vt 0.57685924 0.47265625
vn 0.00000000 -1.00000000 0.00000000
v 0.36875001 0.50000000 0.73124999
vt 0.59960938 0.47070312
vn 0.00000000 -1.00000000 0.00000000
v 0.00000000 0.50000000 0.71384120
vt 0.57685924 0.47169226
vn 0.00000000 -1.00000000 0.00000000
f 259/259/259 260/260/260 261/261/261
v 0.00000000 0.53701719 0.73124999
vt 0.93232799 0.45510327
vn 0.00000000 0.00000000 1.00000000
v 0.36875001 0.57500005 0.73124999
vt 0.95507812 0.45312500
vn 0.00000000 0.00000000 1.00000000
v 0.00000000 0.57500005 0.73124999
vt 0.93232799 0.45312500
vn 0.00000000 0.00000000 1.00000000
f 262/262/262 263/263/263 264/264/264
v 0.00000000 0.50000000 0.73124999
vt 0.93232799 0.45703125
vn 0.00000000 0.00000000 1.00000000
v 0.36875001 0.50000000 0.73124999
vt 0.95507812 0.45703125
vn 0.00000000 0.00000000 1.00000000
v 0.36875001 0.57500005 0.73124999
vt 0.95507812 0.45312500
vn 0.00000000 0.00000000 1.00000000
f 265/265/265 266/266/266 267/267/267
v 0.00000000 0.50000000 0.73124999
vt 0.93232799 0.45703125
vn 0.00000000 0.00000000 1.00000000
v 0.36875001 0.57500005 0.73124999
vt 0.95507812 0.45312500
vn 0.00000000 0.00000000 1.00000000
v 0.00000000 0.53701719 0.73124999
vt 0.93232799 0.45510327
vn 0.00000000 0.00000000 1.00000000
f 268/268/268 269/269/269 270/270/270
v 0.36875001 0.57500005 0.69687501
vt 0.86132812 0.45312500
vn 0.00000000 0.00000000 -1.00000000
v 0.36875001 0.50000000 0.69687501
vt 0.86132812 0.45703125
vn 0.00000000 0.00000000 -1.00000000
v 0.00000000 0.53798286 0.69687501
vt 0.88407826 0.45505298
vn 0.00000000 0.00000000 -1.00000000
f 271/271/271 272/272/272 273/273/273
v 0.36875001 0.57500005 0.69687501
vt 0.86132812 0.45312500
vn 0.00000000 0.00000000 -1.00000000
v 0.00000000 0.53798286 0.69687501
vt 0.88407826 0.45505298
vn 0.00000000 0.00000000 -1.00000000
v 0.00000000 0.57500005 0.69687501
vt 0.88407826 0.45312500
vn 0.00000000 0.00000000 -1.00000000
f 274/274/274 275/275/275 276/276/276
v 0.36875001 0.50000000 0.69687501
vt 0.86132812 0.45703125
vn 0.00000000 0.00000000 -1.00000000
v 0.00000000 0.50000000 0.69687501
vt 0.88407826 0.45703125
vn 0.00000000 0.00000000 -1.00000000
v 0.00000000 0.53798286 0.69687501
vt 0.88407826 0.45505298
vn 0.00000000 0.00000000 -1.00000000
f 277/277/277 278/278/278 279/279/279
v 0.51249999 0.93750000 1.00000000
vt 0.22658396 0.38281250
vn 1.00000000 0.00000000 0.00000000
v 0.51249999 0.93750000 0.96875000
vt 0.22851562 0.38281250
vn 1.00000000 0.00000000 0.00000000
v 0.51249999 1.00000000 0.96875000
vt 0.22851562 0.37890625
vn 1.00000000 0.00000000 0.00000000
f 280/280/280 281/281/281 282/282/282
v 0.51249999 0.93750000 1.00000000
vt 0.22658396 0.38281250
vn 1.00000000 0.00000000 0.00000000
v 0.51249999 1.00000000 0.96875000
vt 0.22851562 0.37890625
vn 1.00000000 0.00000000 0.00000000
v 0.51249999 1.00000000 1.00000000
vt 0.22658396 0.37890625
vn 1.00000000 0.00000000 0.00000000
f 283/283/283 284/284/284 285/285/285
v 0.00000000 0.93750000 0.96875000
vt 0.78260919 0.25390625
vn 0.00000000 -1.00000000 0.00000000
v 0.51249999 0.93750000 0.96875000
vt 0.81445312 0.25390625
vn 0.00000000 -1.00000000 0.00000000
v 0.51249999 0.93750000 1.00000000
vt 0.81445312 0.25197459
vn 0.00000000 -1.00000000 0.00000000
f 286/286/286 287/287/287 288/288/288
v 0.00000000 0.93750000 0.96875000
vt 0.78260919 0.25390625
vn 0.00000000 -1.00000000 0.00000000
v 0.51249999 0.93750000 1.00000000
vt 0.81445312 0.25197459
vn 0.00000000 -1.00000000 0.00000000
v 0.00000000 0.93750000 1.00000000
vt 0.78260919 0.25197459
vn 0.00000000 -1.00000000 0.00000000
f 289/289/289 290/290/290 291/291/291
v 0.51249999 1.00000000 0.96875000
vt 0.61718750 0.35351562
vn 0.00000000 0.00000000 -1.00000000
v 0.51249999 0.93750000 0.96875000
vt 0.61718750 0.35742188
vn 0.00000000 0.00000000 -1.00000000
v 0.29875000 1.00000000 0.96875000
vt 0.63046875 0.35351562
vn 0.00000000 0.00000000 -1.00000000
f 292/292/292 293/293/293 294/294/294
v 0.51249999 0.93750000 0.96875000
vt 0.61718750 0.35742188
vn 0.00000000 0.00000000 -1.00000000
v 0.00000000 0.93750000 0.96875000
vt 0.64903143 0.35742188
vn 0.00000000 0.00000000 -1.00000000
v 0.00000000 1.00000000 0.96875000
vt 0.64903143 0.35351562
vn 0.00000000 0.00000000 -1.00000000
f 295/295/295 296/296/296 297/297/297
v 0.51249999 0.93750000 0.96875000
vt 0.61718750 0.35742188
vn 0.00000000 0.00000000 -1.00000000
v 0.00000000 1.00000000 0.96875000
vt 0.64903143 0.35351562
vn 0.00000000 0.00000000 -1.00000000
v 0.29875000 1.00000000 0.96875000
vt 0.63046875 0.35351562
vn 0.00000000 0.00000000 -1.00000000
f 298/298/298 299/299/299 300/300/300
v 0.71026714 0.90156984 1.00000000
vt 0.12993915 0.38281250
vn 0.97437006 0.22495105 0.00000000
v 0.71026714 0.90156984 0.76875001
vt 0.14453125 0.38281250
vn 0.97437006 0.22495105 0.00000000
v 0.68754275 1.00000000 0.76875001
vt 0.14453125 0.37623572
vn 0.97437006 0.22495105 0.00000000
f 301/301/301 302/302/302 303/303/303
v 0.71026714 0.90156984 1.00000000
vt 0.12993915 0.38281250
vn 0.97437006 0.22495105 0.00000000
v 0.68754275 1.00000000 0.76875001
vt 0.14453125 0.37623572
vn 0.97437006 0.22495105 0.00000000
v 0.68754275 1.00000000 1.00000000
vt 0.12993915 0.37623572
vn 0.97437006 0.22495105 0.00000000
f 304/304/304 305/305/305 306/306/306
v 0.30909310 1.00000000 0.76875001
vt 0.14843750 0.37069323
vn -0.97437006 -0.22495105 0.00000000
v 0.35096818 0.81861913 0.76875001
vt 0.14843750 0.38281250
vn -0.97437006 -0.22495105 0.00000000
v 0.32695898 0.92261440 1.00000000
vt 0.16302960 0.37586388
vn -0.97437006 -0.22495105 0.00000000
f 307/307/307 308/308/308 309/309/309
v 0.30909310 1.00000000 0.76875001
vt 0.14843750 0.37069323
vn -0.97437006 -0.22495105 0.00000000
v 0.32695898 0.92261440 1.00000000
vt 0.16302960 0.37586388
vn -0.97437006 -0.22495105 0.00000000
v 0.30909310 1.00000000 1.00000000
vt 0.16302960 0.37069323
vn -0.97437006 -0.22495105 0.00000000
f 310/310/310 311/311/311 312/312/312
v 0.35096818 0.81861913 0.76875001
vt 0.14843750 0.38281250
vn -0.97437006 -0.22495105 0.00000000
v 0.35096818 0.81861913 1.00000000
vt 0.16302960 0.38281250
vn -0.97437006 -0.22495105 0.00000000
v 0.32695898 0.92261440 1.00000000
vt 0.16302960 0.37586388
vn -0.97437006 -0.22495105 0.00000000
f 313/313/313 314/314/314 315/315/315
v 0.35096818 0.81861913 1.00000000
vt 0.53320312 0.24517353
vn 0.22495105 -0.97437006 0.00000000
v 0.35096818 0.81861913 0.76875001
vt 0.53320312 0.25976562
vn 0.22495105 -0.97437006 0.00000000
v 0.47879569 0.84813044 1.00000000
vt 0.54154147 0.24517353
vn 0.22495105 -0.97437006 0.00000000
f 316/316/316 317/317/317 318/318/318
v 0.35096818 0.81861913 0.76875001
vt 0.53320312 0.25976562
vn 0.22495105 -0.97437006 0.00000000
v 0.71026714 0.90156984 0.76875001
vt 0.55664062 0.25976562
vn 0.22495105 -0.97437006 0.00000000
v 0.71026714 0.90156984 1.00000000
vt 0.55664062 0.24517353
vn 0.22495105 -0.97437006 0.00000000
f 319/319/319 320/320/320 321/321/321
v 0.35096818 0.81861913 0.76875001
vt 0.53320312 0.25976562
vn 0.22495105 -0.97437006 0.00000000
v 0.71026714 0.90156984 1.00000000
vt 0.55664062 0.24517353
vn 0.22495105 -0.97437006 0.00000000
v 0.47879569 0.84813044 1.00000000
vt 0.54154147 0.24517353
vn 0.22495105 -0.97437006 0.00000000
f 322/322/322 323/323/323 324/324/324
v 0.68754275 1.00000000 0.76875001
vt 0.33398438 0.37623572
vn 0.00000000 0.00000000 -1.00000000
v 0.71026714 0.90156984 0.76875001
vt 0.33398438 0.38281250
vn 0.00000000 0.00000000 -1.00000000
v 0.50961572 1.00000000 0.76875001
vt 0.34500345 0.37362994
vn 0.00000000 0.00000000 -1.00000000
f 325/325/325 326/326/326 327/327/327
v 0.71026714 0.90156984 0.76875001
vt 0.33398438 0.38281250
vn 0.00000000 0.00000000 -1.00000000
v 0.35096818 0.81861913 0.76875001
vt 0.35742188 0.38281250
vn 0.00000000 0.00000000 -1.00000000
v 0.30909310 1.00000000 0.76875001
vt 0.35742188 0.37069323
vn 0.00000000 0.00000000 -1.00000000
f 328/328/328 329/329/329 330/330/330
v 0.71026714 0.90156984 0.76875001
vt 0.33398438 0.38281250
vn 0.00000000 0.00000000 -1.00000000
v 0.30909310 1.00000000 0.76875001
vt 0.35742188 0.37069323
vn 0.00000000 0.00000000 -1.00000000
v 0.50961572 1.00000000 0.76875001
vt 0.34500345 0.37362994
vn 0.00000000 0.00000000 -1.00000000
f 331/331/331 332/332/332 333/333/333
v 0.35708759 1.00000000 0.79687500
vt 0.58984375 0.31756903
vn 0.88294759 -0.46947156 0.00000000
v 0.26167940 0.82056330 0.79687500
vt 0.58984375 0.33007812
vn 0.88294759 -0.46947156 0.00000000
v 0.35708759 1.00000000 0.70450017
vt 0.59561718 0.31756903
vn 0.88294759 -0.46947156 0.00000000
f 334/334/334 335/335/335 336/336/336
v 0.26167940 0.82056330 0.79687500
vt 0.58984375 0.33007812
vn 0.88294759 -0.46947156 0.00000000
v 0.26167940 0.82056330 0.60937500
vt 0.60156250 0.33007812
vn 0.88294759 -0.46947156 0.00000000
v 0.35708759 1.00000000 0.60937500
vt 0.60156250 0.31756903
vn 0.88294759 -0.46947156 0.00000000
f 337/337/337 338/338/338 339/339/339
v 0.26167940 0.82056330 0.79687500
vt 0.58984375 0.33007812
vn 0.88294759 -0.46947156 0.00000000
v 0.35708759 1.00000000 0.60937500
vt 0.60156250 0.31756903
vn 0.88294759 -0.46947156 0.00000000
v 0.35708759 1.00000000 0.70450017
vt 0.59561718 0.31756903
vn 0.88294759 -0.46947156 0.00000000
f 340/340/340 341/341/341 342/342/342
v 0.15888783 1.00000000 0.60937500
vt 0.60546875 0.32329649
vn -0.88294759 0.46947156 0.00000000
v 0.10716358 0.90272082 0.60937500
vt 0.60546875 0.33007812
vn -0.88294759 0.46947156 0.00000000
v 0.15888783 1.00000000 0.65945477
vt 0.60859874 0.32329649
vn -0.88294759 0.46947156 0.00000000
f 343/343/343 344/344/344 345/345/345
v 0.10716358 0.90272082 0.60937500
vt 0.60546875 0.33007812
vn -0.88294759 0.46947156 0.00000000
v 0.10716358 0.90272082 0.79687500
vt 0.61718750 0.33007812
vn -0.88294759 0.46947156 0.00000000
v 0.15888783 1.00000000 0.79687500
vt 0.61718750 0.32329649
vn -0.88294759 0.46947156 0.00000000
f 346/346/346 347/347/347 348/348/348
v 0.10716358 0.90272082 0.60937500
vt 0.60546875 0.33007812
vn -0.88294759 0.46947156 0.00000000
v 0.15888783 1.00000000 0.79687500
vt 0.61718750 0.32329649
vn -0.88294759 0.46947156 0.00000000
v 0.15888783 1.00000000 0.65945477
vt 0.60859874 0.32329649
vn -0.88294759 0.46947156 0.00000000
f 349/349/349 350/350/350 351/351/351
v 0.10716358 0.90272082 0.79687500
vt 0.54101562 0.38671875
vn -0.46947156 -0.88294759 0.00000000
v 0.10716358 0.90272082 0.60937500
vt 0.54101562 0.39843750
vn -0.46947156 -0.88294759 0.00000000
v 0.26167940 0.82056330 0.79687500
vt 0.55273438 0.38671875
vn -0.46947156 -0.88294759 0.00000000
f 352/352/352 353/353/353 354/354/354
v 0.10716358 0.90272082 0.60937500
vt 0.54101562 0.39843750
vn -0.46947156 -0.88294759 0.00000000
v 0.26167940 0.82056330 0.60937500
vt 0.55273438 0.39843750
vn -0.46947156 -0.88294759 0.00000000
v 0.26167940 0.82056330 0.79687500
vt 0.55273438 0.38671875
vn -0.46947156 -0.88294759 0.00000000
f 355/355/355 356/356/356 357/357/357
v 0.15888783 1.00000000 0.79687500
vt 0.57421875 0.32329649
vn 0.00000000 0.00000000 1.00000000
v 0.10716358 0.90272082 0.79687500
vt 0.57421875 0.33007812
vn 0.00000000 0.00000000 1.00000000
v 0.22724500 1.00000000 0.79687500
vt 0.57826043 0.32132115
vn 0.00000000 0.00000000 1.00000000
f 358/358/358 359/359/359 360/360/360
v 0.10716358 0.90272082 0.79687500
vt 0.57421875 0.33007812
vn 0.00000000 0.00000000 1.00000000
v 0.26167940 0.82056330 0.79687500
vt 0.58593750 0.33007812
vn 0.00000000 0.00000000 1.00000000
v 0.35708759 1.00000000 0.79687500
vt 0.58593750 0.31756903
vn 0.00000000 0.00000000 1.00000000
f 361/361/361 362/362/362 363/363/363
v 0.10716358 0.90272082 0.79687500
vt 0.57421875 0.33007812
vn 0.00000000 0.00000000 1.00000000
v 0.35708759 1.00000000 0.79687500
vt 0.58593750 0.31756903
vn 0.00000000 0.00000000 1.00000000
v 0.22724500 1.00000000 0.79687500
vt 0.57826043 0.32132115
vn 0.00000000 0.00000000 1.00000000
f 364/364/364 365/365/365 366/366/366
v 0.35708759 1.00000000 0.60937500
vt 0.55859375 0.31756903
vn 0.00000000 0.00000000 -1.00000000
v 0.26167940 0.82056330 0.60937500
vt 0.55859375 0.33007812
vn 0.00000000 0.00000000 -1.00000000
v 0.27741369 1.00000000 0.60937500
vt 0.56330455 0.31987140
vn 0.00000000 0.00000000 -1.00000000
f 367/367/367 368/368/368 369/369/369
v 0.26167940 0.82056330 0.60937500
vt 0.55859375 0.33007812
vn 0.00000000 0.00000000 -1.00000000
v 0.10716358 0.90272082 0.60937500
vt 0.57031250 0.33007812
vn 0.00000000 0.00000000 -1.00000000
v 0.15888783 1.00000000 0.60937500
vt 0.57031250 0.32329649
vn 0.00000000 0.00000000 -1.00000000
f 370/370/370 371/371/371 372/372/372
v 0.26167940 0.82056330 0.60937500
vt 0.55859375 0.33007812
vn 0.00000000 0.00000000 -1.00000000
v 0.15888783 1.00000000 0.60937500
vt 0.57031250 0.32329649
vn 0.00000000 0.00000000 -1.00000000
v 0.27741369 1.00000000 0.60937500
vt 0.56330455 0.31987140
vn 0.00000000 0.00000000 -1.00000000
f 373/373/373 374/374/374 375/375/375
v 0.13750000 0.92499995 0.76250000
vt 0.55664062 0.38671875
vn 1.00000000 0.00000000 0.00000000
v 0.13750000 0.75000000 0.76250000
vt 0.55664062 0.39843750
vn 1.00000000 0.00000000 0.00000000
v 0.13750000 0.92499995 0.56874999
vt 0.56835938 0.38671875
vn 1.00000000 0.00000000 0.00000000
f 376/376/376 377/377/377 378/378/378
v 0.13750000 0.75000000 0.76250000
vt 0.55664062 0.39843750
vn 1.00000000 0.00000000 0.00000000
v 0.13750000 0.75000000 0.56874999
vt 0.56835938 0.39843750
vn 1.00000000 0.00000000 0.00000000
v 0.13750000 0.92499995 0.56874999
vt 0.56835938 0.38671875
vn 1.00000000 0.00000000 0.00000000
f 379/379/379 380/380/380 381/381/381
v 0.00000000 0.92499995 0.65400000
vt 0.29023437 0.39187500
vn 0.00000000 1.00000000 0.00000000
v 0.13750000 0.92499995 0.56874999
vt 0.29882812 0.38671875
vn 0.00000000 1.00000000 0.00000000
v 0.00000000 0.92499995 0.56874999
vt 0.29023437 0.38671875
vn 0.00000000 1.00000000 0.00000000
f 382/382/382 383/383/383 384/384/384
v 0.00000000 0.92499995 0.76250000
vt 0.29023437 0.39843750
vn 0.00000000 1.00000000 0.00000000
v 0.13750000 0.92499995 0.76250000
vt 0.29882812 0.39843750
vn 0.00000000 1.00000000 0.00000000
v 0.13750000 0.92499995 0.56874999
vt 0.29882812 0.38671875
vn 0.00000000 1.00000000 0.00000000
f 385/385/385 386/386/386 387/387/387
v 0.00000000 0.92499995 0.76250000
vt 0.29023437 0.39843750
vn 0.00000000 1.00000000 0.00000000
v 0.13750000 0.92499995 0.56874999
vt 0.29882812 0.38671875
vn 0.00000000 1.00000000 0.00000000
v 0.00000000 0.92499995 0.65400000
vt 0.29023437 0.39187500
vn 0.00000000 1.00000000 0.00000000
f 388/388/388 389/389/389 390/390/390
v 0.00000000 0.75000000 0.67725000
vt 0.31367187 0.39187500
vn 0.00000000 -1.00000000 0.00000000
v 0.13750000 0.75000000 0.76250000
vt 0.32226562 0.38671875
vn 0.00000000 -1.00000000 0.00000000
v 0.00000000 0.75000000 0.76250000
vt 0.31367187 0.38671875
vn 0.00000000 -1.00000000 0.00000000
f 391/391/391 392/392/392 393/393/393
v 0.00000000 0.75000000 0.56874999
vt 0.31367187 0.39843750
vn 0.00000000 -1.00000000 0.00000000
v 0.13750000 0.75000000 0.56874999
vt 0.32226562 0.39843750
vn 0.00000000 -1.00000000 0.00000000
v 0.13750000 0.75000000 0.76250000
vt 0.32226562 0.38671875
vn 0.00000000 -1.00000000 0.00000000
f 394/394/394 395/395/395 396/396/396
v 0.00000000 0.75000000 0.56874999
vt 0.31367187 0.39843750
vn 0.00000000 -1.00000000 0.00000000
v 0.13750000 0.75000000 0.76250000
vt 0.32226562 0.38671875
vn 0.00000000 -1.00000000 0.00000000
v 0.00000000 0.75000000 0.67725000
vt 0.31367187 0.39187500
vn 0.00000000 -1.00000000 0.00000000
f 397/397/397 398/398/398 399/399/399
v 0.00000000 0.84799997 0.76250000
vt 0.26679687 0.39187500
vn 0.00000000 0.00000000 1.00000000
v 0.13750000 0.92499995 0.76250000
vt 0.27539062 0.38671875
vn 0.00000000 0.00000000 1.00000000
v 0.00000000 0.92499995 0.76250000
vt 0.26679687 0.38671875
vn 0.00000000 0.00000000 1.00000000
f 400/400/400 401/401/401 402/402/402
v 0.00000000 0.75000000 0.76250000
vt 0.26679687 0.39843750
vn 0.00000000 0.00000000 1.00000000
v 0.13750000 0.75000000 0.76250000
vt 0.27539062 0.39843750
vn 0.00000000 0.00000000 1.00000000
v 0.13750000 0.92499995 0.76250000
vt 0.27539062 0.38671875
vn 0.00000000 0.00000000 1.00000000
f 403/403/403 404/404/404 405/405/405
v 0.00000000 0.75000000 0.76250000
vt 0.26679687 0.39843750
vn 0.00000000 0.00000000 1.00000000
v 0.13750000 0.92499995 0.76250000
vt 0.27539062 0.38671875
vn 0.00000000 0.00000000 1.00000000
v 0.00000000 0.84799997 0.76250000
vt 0.26679687 0.39187500
vn 0.00000000 0.00000000 1.00000000
f 406/406/406 407/407/407 408/408/408
v 0.13750000 0.92499995 0.56874999
vt 0.23242188 0.38671875
vn 0.00000000 0.00000000 -1.00000000
v 0.13750000 0.75000000 0.56874999
vt 0.23242188 0.39843750
vn 0.00000000 0.00000000 -1.00000000
v 0.00000000 0.82699998 0.56874999
vt 0.24101563 0.39328125
vn 0.00000000 0.00000000 -1.00000000
f 409/409/409 410/410/410 411/411/411
v 0.13750000 0.92499995 0.56874999
vt 0.23242188 0.38671875
vn 0.00000000 0.00000000 -1.00000000
v 0.00000000 0.82699998 0.56874999
vt 0.24101563 0.39328125
vn 0.00000000 0.00000000 -1.00000000
v 0.00000000 0.92499995 0.56874999
vt 0.24101563 0.38671875
vn 0.00000000 0.00000000 -1.00000000
f 412/412/412 413/413/413 414/414/414
v 0.13750000 0.75000000 0.56874999
vt 0.23242188 0.39843750
vn 0.00000000 0.00000000 -1.00000000
v 0.00000000 0.75000000 0.56874999
vt 0.24101563 0.39843750
vn 0.00000000 0.00000000 -1.00000000
v 0.00000000 0.82699998 0.56874999
vt 0.24101563 0.39328125
vn 0.00000000 0.00000000 -1.00000000
f 415/415/415 416/416/416 417/417/417
v 0.23750000 1.00000000 0.92187500
vt 0.89648438 0.37350109
vn 1.00000000 0.00000000 0.00000000
v 0.23750000 0.88750005 0.92187500
vt 0.89648438 0.38085938
vn 1.00000000 0.00000000 0.00000000
v 0.23750000 1.00000000 0.85646804
vt 0.90057231 0.37350109
vn 1.00000000 0.00000000 0.00000000
f 418/418/418 419/419/419 420/420/420
v 0.23750000 0.88750005 0.92187500
vt 0.89648438 0.38085938
vn 1.00000000 0.00000000 0.00000000
v 0.23750000 0.88750005 0.76562500
vt 0.90625000 0.38085938
vn 1.00000000 0.00000000 0.00000000
v 0.23750000 1.00000000 0.76562500
vt 0.90625000 0.37350109
vn 1.00000000 0.00000000 0.00000000
f 421/421/421 422/422/422 423/423/423
v 0.23750000 0.88750005 0.92187500
vt 0.89648438 0.38085938
vn 1.00000000 0.00000000 0.00000000
v 0.23750000 1.00000000 0.76562500
vt 0.90625000 0.37350109
vn 1.00000000 0.00000000 0.00000000
v 0.23750000 1.00000000 0.85646804
vt 0.90057231 0.37350109
vn 1.00000000 0.00000000 0.00000000
f 424/424/424 425/425/425 426/426/426
v 0.00000000 0.88750005 0.84946646
vt 0.38200267 0.41077553
vn 0.00000000 -1.00000000 0.00000000
v 0.23750000 0.88750005 0.92187500
vt 0.39648438 0.40625000
vn 0.00000000 -1.00000000 0.00000000
v 0.00000000 0.88750005 0.92187500
vt 0.38200267 0.40625000
vn 0.00000000 -1.00000000 0.00000000
f 427/427/427 428/428/428 429/429/429
v 0.00000000 0.88750005 0.76562500
vt 0.38200267 0.41601562
vn 0.00000000 -1.00000000 0.00000000
v 0.23750000 0.88750005 0.76562500
vt 0.39648438 0.41601562
vn 0.00000000 -1.00000000 0.00000000
v 0.23750000 0.88750005 0.92187500
vt 0.39648438 0.40625000
vn 0.00000000 -1.00000000 0.00000000
f 430/430/430 431/431/431 432/432/432
v 0.00000000 0.88750005 0.76562500
vt 0.38200267 0.41601562
vn 0.00000000 -1.00000000 0.00000000
v 0.23750000 0.88750005 0.92187500
vt 0.39648438 0.40625000
vn 0.00000000 -1.00000000 0.00000000
v 0.00000000 0.88750005 0.84946646
vt 0.38200267 0.41077553
vn 0.00000000 -1.00000000 0.00000000
f 433/433/433 434/434/434 435/435/435
v 0.00000000 0.88750005 0.92187500
vt 0.83903392 0.38085938
vn 0.00000000 0.00000000 1.00000000
v 0.23750000 0.88750005 0.92187500
vt 0.85351562 0.38085938
vn 0.00000000 0.00000000 1.00000000
v 0.23750000 1.00000000 0.92187500
vt 0.85351562 0.37350109
vn 0.00000000 0.00000000 1.00000000
f 436/436/436 437/437/437 438/438/438
v 0.00000000 0.88750005 0.92187500
vt 0.83903392 0.38085938
vn 0.00000000 0.00000000 1.00000000
v 0.23750000 1.00000000 0.92187500
vt 0.85351562 0.37350109
vn 0.00000000 0.00000000 1.00000000
v 0.00000000 1.00000000 0.92187500
vt 0.83903392 0.37350109
vn 0.00000000 0.00000000 1.00000000
f 439/439/439 440/440/440 441/441/441
v 0.23750000 1.00000000 0.76562500
vt 0.78710938 0.37350109
vn 0.00000000 0.00000000 -1.00000000
v 0.23750000 0.88750005 0.76562500
vt 0.78710938 0.38085938
vn 0.00000000 0.00000000 -1.00000000
v 0.02296516 1.00000000 0.76562500
vt 0.80019077 0.37350109
vn 0.00000000 0.00000000 -1.00000000
f 442/442/442 443/443/443 444/444/444
v 0.23750000 0.88750005 0.76562500
vt 0.78710938 0.38085938
vn 0.00000000 0.00000000 -1.00000000
v 0.00000000 0.88750005 0.76562500
vt 0.80159108 0.38085938
vn 0.00000000 0.00000000 -1.00000000
v 0.00000000 1.00000000 0.76562500
vt 0.80159108 0.37350109
vn 0.00000000 0.00000000 -1.00000000
f 445/445/445 446/446/446 447/447/447
v 0.23750000 0.88750005 0.76562500
vt 0.78710938 0.38085938
vn 0.00000000 0.00000000 -1.00000000
v 0.00000000 1.00000000 0.76562500
vt 0.80159108 0.37350109
vn 0.00000000 0.00000000 -1.00000000
v 0.02296516 1.00000000 0.76562500
vt 0.80019077 0.37350109
vn 0.00000000 0.00000000 -1.00000000
f 448/448/448 449/449/449 450/450/450
v 0.71720000 0.85225798 1.00000000
vt 0.35414907 0.31429476
vn 0.97814760 0.20791169 0.00000000
v 0.68579646 1.00000000 0.83064913
vt 0.36487653 0.30499763
vn 0.97814760 0.20791169 0.00000000
v 0.68579646 1.00000000 1.00000000
vt 0.35414907 0.30499763
vn 0.97814760 0.20791169 0.00000000
f 451/451/451 452/452/452 453/453/453
v 0.77051249 0.60144244 1.00000000
vt 0.35414907 0.33007812
vn 0.97814760 0.20791169 0.00000000
v 0.77051249 0.60144244 0.82500000
vt 0.36523438 0.33007812
vn 0.97814760 0.20791169 0.00000000
v 0.68579646 1.00000000 0.82500000
vt 0.36523438 0.30499763
vn 0.97814760 0.20791169 0.00000000
f 454/454/454 455/455/455 456/456/456
v 0.77051249 0.60144244 1.00000000
vt 0.35414907 0.33007812
vn 0.97814760 0.20791169 0.00000000
v 0.68579646 1.00000000 0.82500000
vt 0.36523438 0.30499763
vn 0.97814760 0.20791169 0.00000000
v 0.68579646 1.00000000 0.83064913
vt 0.36487653 0.30499763
vn 0.97814760 0.20791169 0.00000000
f 457/457/457 458/458/458 459/459/459
v 0.77051249 0.60144244 1.00000000
vt 0.35414907 0.33007812
vn 0.97814760 0.20791169 0.00000000
v 0.68579646 1.00000000 0.83064913
vt 0.36487653 0.30499763
vn 0.97814760 0.20791169 0.00000000
v 0.71720000 0.85225798 1.00000000
vt 0.35414907 0.31429476
vn 0.97814760 0.20791169 0.00000000
f 460/460/460 461/461/461 462/462/462
v 0.36073751 0.93605756 0.82500000
vt 0.36914062 0.30468750
vn -0.97814760 -0.20791169 0.00000000
v 0.44650108 0.53257169 0.82500000
vt 0.36914062 0.33007812
vn -0.97814760 -0.20791169 0.00000000
v 0.41405000 0.68524202 1.00000000
vt 0.38022593 0.32047086
vn -0.97814760 -0.20791169 0.00000000
f 463/463/463 464/464/464 465/465/465
v 0.36073751 0.93605756 0.82500000
vt 0.36914062 0.30468750
vn -0.97814760 -0.20791169 0.00000000
v 0.41405000 0.68524202 1.00000000
vt 0.38022593 0.32047086
vn -0.97814760 -0.20791169 0.00000000
v 0.36073751 0.93605756 1.00000000
vt 0.38022593 0.30468750
vn -0.97814760 -0.20791169 0.00000000
f 466/466/466 467/467/467 468/468/468
v 0.44650108 0.53257169 0.82500000
vt 0.36914062 0.33007812
vn -0.97814760 -0.20791169 0.00000000
v 0.44650108 0.53257169 1.00000000
vt 0.38022593 0.33007812
vn -0.97814760 -0.20791169 0.00000000
v 0.41405000 0.68524202 1.00000000
vt 0.38022593 0.32047086
vn -0.97814760 -0.20791169 0.00000000
f 469/469/469 470/470/470 471/471/471
v 0.36073751 0.93605756 0.82500000
vt 0.13671875 0.30468750
vn -0.20791169 0.97814760 0.00000000
v 0.36073751 0.93605756 1.00000000
vt 0.13671875 0.31577280
vn -0.20791169 0.97814760 0.00000000
v 0.56215001 0.97886911 1.00000000
vt 0.15007390 0.31577280
vn -0.20791169 0.97814760 0.00000000
f 472/472/472 473/473/473 474/474/474
v 0.36073751 0.93605756 0.82500000
vt 0.13671875 0.30468750
vn -0.20791169 0.97814760 0.00000000
v 0.56215001 0.97886911 1.00000000
vt 0.15007390 0.31577280
vn -0.20791169 0.97814760 0.00000000
v 0.66156302 1.00000000 0.85809599
vt 0.15666573 0.30678395
vn -0.20791169 0.97814760 0.00000000
f 475/475/475 476/476/476 477/477/477
v 0.36073751 0.93605756 0.82500000
vt 0.13671875 0.30468750
vn -0.20791169 0.97814760 0.00000000
v 0.66156302 1.00000000 0.85809599
vt 0.15666573 0.30678395
vn -0.20791169 0.97814760 0.00000000
v 0.66156302 1.00000000 0.82500000
vt 0.15666573 0.30468750
vn -0.20791169 0.97814760 0.00000000
f 478/478/478 479/479/479 480/480/480
v 0.66156302 1.00000000 1.00000000
vt 0.15666573 0.31577280
vn -0.20791169 0.97814760 0.00000000
v 0.66156302 1.00000000 0.85809599
vt 0.15666573 0.30678395
vn -0.20791169 0.97814760 0.00000000
v 0.56215001 0.97886911 1.00000000
vt 0.15007390 0.31577280
vn -0.20791169 0.97814760 0.00000000
f 481/481/481 482/482/482 483/483/483
v 0.44650108 0.53257169 1.00000000
vt 0.16210938 0.32289907
vn 0.20791169 -0.97814760 0.00000000
v 0.44650108 0.53257169 0.82500000
vt 0.16210938 0.33398438
vn 0.20791169 -0.97814760 0.00000000
v 0.56909999 0.55863089 1.00000000
vt 0.17023860 0.32289907
vn 0.20791169 -0.97814760 0.00000000
f 484/484/484 485/485/485 486/486/486
v 0.44650108 0.53257169 0.82500000
vt 0.16210938 0.33398438
vn 0.20791169 -0.97814760 0.00000000
v 0.77051249 0.60144244 0.82500000
vt 0.18359375 0.33398438
vn 0.20791169 -0.97814760 0.00000000
v 0.77051249 0.60144244 1.00000000
vt 0.18359375 0.32289907
vn 0.20791169 -0.97814760 0.00000000
f 487/487/487 488/488/488 489/489/489
v 0.44650108 0.53257169 0.82500000
vt 0.16210938 0.33398438
vn 0.20791169 -0.97814760 0.00000000
v 0.77051249 0.60144244 1.00000000
vt 0.18359375 0.32289907
vn 0.20791169 -0.97814760 0.00000000
v 0.56909999 0.55863089 1.00000000
vt 0.17023860 0.32289907
vn 0.20791169 -0.97814760 0.00000000
f 490/490/490 491/491/491 492/492/492
v 0.68579646 1.00000000 0.82500000
vt 0.40234375 0.30499763
vn 0.00000000 0.00000000 -1.00000000
v 0.77051249 0.60144244 0.82500000
vt 0.40234375 0.33007812
vn 0.00000000 0.00000000 -1.00000000
v 0.36073751 0.93605756 0.82500000
vt 0.42382812 0.30468750
vn 0.00000000 0.00000000 -1.00000000
f 493/493/493 494/494/494 495/495/495
v 0.68579646 1.00000000 0.82500000
vt 0.40234375 0.30499763
vn 0.00000000 0.00000000 -1.00000000
v 0.36073751 0.93605756 0.82500000
vt 0.42382812 0.30468750
vn 0.00000000 0.00000000 -1.00000000
v 0.66156302 1.00000000 0.82500000
vt 0.40388115 0.30468750
vn 0.00000000 0.00000000 -1.00000000
f 496/496/496 497/497/497 498/498/498
v 0.77051249 0.60144244 0.82500000
vt 0.40234375 0.33007812
vn 0.00000000 0.00000000 -1.00000000
v 0.44650108 0.53257169 0.82500000
vt 0.42382812 0.33007812
vn 0.00000000 0.00000000 -1.00000000
v 0.36073751 0.93605756 0.82500000
vt 0.42382812 0.30468750
vn 0.00000000 0.00000000 -1.00000000
f 499/499/499 500/500/500 501/501/501
v 0.76249999 0.53888081 1.00000000
vt 0.06463481 0.39871003
vn 1.00000000 0.00000000 0.00000000
v 0.76249999 0.71875000 0.79375000
vt 0.07812500 0.38671875
vn 1.00000000 0.00000000 0.00000000
v 0.76249999 0.71875000 1.00000000
vt 0.06463481 0.38671875
vn 1.00000000 0.00000000 0.00000000
f 502/502/502 503/503/503 504/504/504
v 0.76249999 0.48437500 1.00000000
vt 0.06463481 0.40234375
vn 1.00000000 0.00000000 0.00000000
v 0.76249999 0.48437500 0.79375000
vt 0.07812500 0.40234375
vn 1.00000000 0.00000000 0.00000000
v 0.76249999 0.71875000 0.79375000
vt 0.07812500 0.38671875
vn 1.00000000 0.00000000 0.00000000
f 505/505/505 506/506/506 507/507/507
v 0.76249999 0.48437500 1.00000000
vt 0.06463481 0.40234375
vn 1.00000000 0.00000000 0.00000000
v 0.76249999 0.71875000 0.79375000
vt 0.07812500 0.38671875
vn 1.00000000 0.00000000 0.00000000
v 0.76249999 0.53888081 1.00000000
vt 0.06463481 0.39871003
vn 1.00000000 0.00000000 0.00000000
f 508/508/508 509/509/509 510/510/510
v 0.50000000 0.71875000 0.79375000
vt 0.08203125 0.38671875
vn -1.00000000 0.00000000 0.00000000
v 0.50000000 0.48437500 0.79375000
vt 0.08203125 0.40234375
vn -1.00000000 0.00000000 0.00000000
v 0.50000000 0.66424419 1.00000000
vt 0.09552144 0.39035247
vn -1.00000000 0.00000000 0.00000000
f 511/511/511 512/512/512 513/513/513
v 0.50000000 0.71875000 0.79375000
vt 0.08203125 0.38671875
vn -1.00000000 0.00000000 0.00000000
v 0.50000000 0.66424419 1.00000000
vt 0.09552144 0.39035247
vn -1.00000000 0.00000000 0.00000000
v 0.50000000 0.71875000 1.00000000
vt 0.09552144 0.38671875
vn -1.00000000 0.00000000 0.00000000
f 514/514/514 515/515/515 516/516/516
v 0.50000000 0.48437500 0.79375000
vt 0.08203125 0.40234375
vn -1.00000000 0.00000000 0.00000000
v 0.50000000 0.48437500 1.00000000
vt 0.09552144 0.40234375
vn -1.00000000 0.00000000 0.00000000
v 0.50000000 0.66424419 1.00000000
vt 0.09552144 0.39035247
vn -1.00000000 0.00000000 0.00000000
f 517/517/517 518/518/518 519/519/519
v 0.50000000 0.71875000 0.79375000
vt 0.85742188 0.36328125
vn 0.00000000 1.00000000 0.00000000
v 0.50000000 0.71875000 1.00000000
vt 0.85742188 0.37677144
vn 0.00000000 1.00000000 0.00000000
v 0.56104651 0.71875000 1.00000000
vt 0.86105560 0.37677144
vn 0.00000000 1.00000000 0.00000000
f 520/520/520 521/521/521 522/522/522
v 0.50000000 0.71875000 0.79375000
vt 0.85742188 0.36328125
vn 0.00000000 1.00000000 0.00000000
v 0.56104651 0.71875000 1.00000000
vt 0.86105560 0.37677144
vn 0.00000000 1.00000000 0.00000000
v 0.76249999 0.71875000 0.79375000
vt 0.87304688 0.36328125
vn 0.00000000 1.00000000 0.00000000
f 523/523/523 524/524/524 525/525/525
v 0.76249999 0.71875000 1.00000000
vt 0.87304688 0.37677144
vn 0.00000000 1.00000000 0.00000000
v 0.76249999 0.71875000 0.79375000
vt 0.87304688 0.36328125
vn 0.00000000 1.00000000 0.00000000
v 0.56104651 0.71875000 1.00000000
vt 0.86105560 0.37677144
vn 0.00000000 1.00000000 0.00000000
f 526/526/526 527/527/527 528/528/528
v 0.50000000 0.48437500 1.00000000
vt 0.87695312 0.36736919
vn 0.00000000 -1.00000000 0.00000000
v 0.50000000 0.48437500 0.79375000
vt 0.87695312 0.38085938
vn 0.00000000 -1.00000000 0.00000000
v 0.70145348 0.48437500 1.00000000
vt 0.88894440 0.36736919
vn 0.00000000 -1.00000000 0.00000000
f 529/529/529 530/530/530 531/531/531
v 0.50000000 0.48437500 0.79375000
vt 0.87695312 0.38085938
vn 0.00000000 -1.00000000 0.00000000
v 0.76249999 0.48437500 0.79375000
vt 0.89257812 0.38085938
vn 0.00000000 -1.00000000 0.00000000
v 0.76249999 0.48437500 1.00000000
vt 0.89257812 0.36736919
vn 0.00000000 -1.00000000 0.00000000
f 532/532/532 533/533/533 534/534/534
v 0.50000000 0.48437500 0.79375000
vt 0.87695312 0.38085938
vn 0.00000000 -1.00000000 0.00000000
v 0.76249999 0.48437500 1.00000000
vt 0.89257812 0.36736919
vn 0.00000000 -1.00000000 0.00000000
v 0.70145348 0.48437500 1.00000000
vt 0.88894440 0.36736919
vn 0.00000000 -1.00000000 0.00000000
f 535/535/535 536/536/536 537/537/537
v 0.76249999 0.71875000 0.79375000
vt 0.14648438 0.38671875
vn 0.00000000 0.00000000 -1.00000000
v 0.76249999 0.48437500 0.79375000
vt 0.14648438 0.40234375
vn 0.00000000 0.00000000 -1.00000000
v 0.50000000 0.71875000 0.79375000
vt 0.16210938 0.38671875
vn 0.00000000 0.00000000 -1.00000000
f 538/538/538 539/539/539 540/540/540
v 0.76249999 0.48437500 0.79375000
vt 0.14648438 0.40234375
vn 0.00000000 0.00000000 -1.00000000
v 0.50000000 0.48437500 0.79375000
vt 0.16210938 0.40234375
vn 0.00000000 0.00000000 -1.00000000
v 0.50000000 0.71875000 0.79375000
vt 0.16210938 0.38671875
vn 0.00000000 0.00000000 -1.00000000
f 541/541/541 542/542/542 543/543/543
v 0.76875001 0.75854842 0.92416461
vt 0.00195312 0.38671875
vn 1.00000000 0.00000000 0.00000000
v 0.76875001 0.52612253 0.86188628
vt 0.00195312 0.40234375
vn 1.00000000 0.00000000 0.00000000
v 0.76875001 0.86450247 0.52873872
vt 0.02734375 0.38671875
vn 1.00000000 0.00000000 0.00000000
f 544/544/544 545/545/545 546/546/546
v 0.76875001 0.52612253 0.86188628
vt 0.00195312 0.40234375
vn 1.00000000 0.00000000 0.00000000
v 0.76875001 0.63207658 0.46646039
vt 0.02734375 0.40234375
vn 1.00000000 0.00000000 0.00000000
v 0.76875001 0.86450247 0.52873872
vt 0.02734375 0.38671875
vn 1.00000000 0.00000000 0.00000000
f 547/547/547 548/548/548 549/549/549
v 0.49999999 0.86450247 0.52873872
vt 0.03125000 0.38671875
vn -1.00000000 0.00000000 0.00000000
v 0.49999999 0.63207658 0.46646039
vt 0.03125000 0.40234375
vn -1.00000000 0.00000000 0.00000000
v 0.49999999 0.75854842 0.92416461
vt 0.05664062 0.38671875
vn -1.00000000 0.00000000 0.00000000
f 550/550/550 551/551/551 552/552/552
v 0.49999999 0.63207658 0.46646039
vt 0.03125000 0.40234375
vn -1.00000000 0.00000000 0.00000000
v 0.49999999 0.52612253 0.86188628
vt 0.05664062 0.40234375
vn -1.00000000 0.00000000 0.00000000
v 0.49999999 0.75854842 0.92416461
vt 0.05664062 0.38671875
vn -1.00000000 0.00000000 0.00000000
f 553/553/553 554/554/554 555/555/555
v 0.49999999 0.86450247 0.52873872
vt 0.45312500 0.30468750
vn 0.00000000 0.96592583 0.25881905
v 0.49999999 0.75854842 0.92416461
vt 0.45312500 0.33007812
vn 0.00000000 0.96592583 0.25881905
v 0.76875001 0.86450247 0.52873872
vt 0.47070312 0.30468750
vn 0.00000000 0.96592583 0.25881905
f 556/556/556 557/557/557 558/558/558
v 0.49999999 0.75854842 0.92416461
vt 0.45312500 0.33007812
vn 0.00000000 0.96592583 0.25881905
v 0.76875001 0.75854842 0.92416461
vt 0.47070312 0.33007812
vn 0.00000000 0.96592583 0.25881905
v 0.76875001 0.86450247 0.52873872
vt 0.47070312 0.30468750
vn 0.00000000 0.96592583 0.25881905
f 559/559/559 560/560/560 561/561/561
v 0.49999999 0.52612253 0.86188628
vt 0.47460938 0.30468750
vn 0.00000000 -0.96592583 -0.25881905
v 0.49999999 0.63207658 0.46646039
vt 0.47460938 0.33007812
vn 0.00000000 -0.96592583 -0.25881905
v 0.76875001 0.52612253 0.86188628
vt 0.49218750 0.30468750
vn 0.00000000 -0.96592583 -0.25881905
f 562/562/562 563/563/563 564/564/564
v 0.49999999 0.63207658 0.46646039
vt 0.47460938 0.33007812
vn 0.00000000 -0.96592583 -0.25881905
v 0.76875001 0.63207658 0.46646039
vt 0.49218750 0.33007812
vn 0.00000000 -0.96592583 -0.25881905
v 0.76875001 0.52612253 0.86188628
vt 0.49218750 0.30468750
vn 0.00000000 -0.96592583 -0.25881905
f 565/565/565 566/566/566 567/567/567
v 0.49999999 0.75854842 0.92416461
vt 0.12500000 0.38671875
vn 0.00000000 -0.25881905 0.96592583
v 0.49999999 0.52612253 0.86188628
vt 0.12500000 0.40234375
vn 0.00000000 -0.25881905 0.96592583
v 0.76875001 0.75854842 0.92416461
vt 0.14257812 0.38671875
vn 0.00000000 -0.25881905 0.96592583
f 568/568/568 569/569/569 570/570/570
v 0.49999999 0.52612253 0.86188628
vt 0.12500000 0.40234375
vn 0.00000000 -0.25881905 0.96592583
v 0.76875001 0.52612253 0.86188628
vt 0.14257812 0.40234375
vn 0.00000000 -0.25881905 0.96592583
v 0.76875001 0.75854842 0.92416461
vt 0.14257812 0.38671875
vn 0.00000000 -0.25881905 0.96592583
f 571/571/571 572/572/572 573/573/573
v 0.76875001 0.86450247 0.52873872
vt 0.10351562 0.38671875
vn 0.00000000 0.25881905 -0.96592583
v 0.76875001 0.63207658 0.46646039
vt 0.10351562 0.40234375
vn 0.00000000 0.25881905 -0.96592583
v 0.49999999 0.86450247 0.52873872
vt 0.12109375 0.38671875
vn 0.00000000 0.25881905 -0.96592583
f 574/574/574 575/575/575 576/576/576
v 0.76875001 0.63207658 0.46646039
vt 0.10351562 0.40234375
vn 0.00000000 0.25881905 -0.96592583
v 0.49999999 0.63207658 0.46646039
vt 0.12109375 0.40234375
vn 0.00000000 0.25881905 -0.96592583
v 0.49999999 0.86450247 0.52873872
vt 0.12109375 0.38671875
vn 0.00000000 0.25881905 -0.96592583
f 577/577/577 578/578/578 579/579/579
v 0.79374999 0.86874998 0.61875001
vt 0.65039062 0.40625000
vn 1.00000000 0.00000000 0.00000000
v 0.79374999 0.71562505 0.61875001
vt 0.65039062 0.41601562
vn 1.00000000 0.00000000 0.00000000
v 0.79374999 0.86874998 0.44062501
vt 0.66210938 0.40625000
vn 1.00000000 0.00000000 0.00000000
f 580/580/580 581/581/581 582/582/582
v 0.79374999 0.71562505 0.61875001
vt 0.65039062 0.41601562
vn 1.00000000 0.00000000 0.00000000
v 0.79374999 0.71562505 0.44062501
vt 0.66210938 0.41601562
vn 1.00000000 0.00000000 0.00000000
v 0.79374999 0.86874998 0.44062501
vt 0.66210938 0.40625000
vn 1.00000000 0.00000000 0.00000000
f 583/583/583 584/584/584 585/585/585
v 0.47187501 0.86874998 0.44062501
vt 0.66601562 0.40625000
vn -1.00000000 0.00000000 0.00000000
v 0.47187501 0.71562505 0.44062501
vt 0.66601562 0.41601562
vn -1.00000000 0.00000000 0.00000000
v 0.47187501 0.86874998 0.61875001
vt 0.67773438 0.40625000
vn -1.00000000 0.00000000 0.00000000
f 586/586/586 587/587/587 588/588/588
v 0.47187501 0.71562505 0.44062501
vt 0.66601562 0.41601562
vn -1.00000000 0.00000000 0.00000000
v 0.47187501 0.71562505 0.61875001
vt 0.67773438 0.41601562
vn -1.00000000 0.00000000 0.00000000
v 0.47187501 0.86874998 0.61875001
vt 0.67773438 0.40625000
vn -1.00000000 0.00000000 0.00000000
f 589/589/589 590/590/590 591/591/591
v 0.47187501 0.86874998 0.44062501
vt 0.37304688 0.38671875
vn 0.00000000 1.00000000 0.00000000
v 0.47187501 0.86874998 0.61875001
vt 0.37304688 0.39843750
vn 0.00000000 1.00000000 0.00000000
v 0.79374999 0.86874998 0.44062501
vt 0.39257812 0.38671875
vn 0.00000000 1.00000000 0.00000000
f 592/592/592 593/593/593 594/594/594
v 0.47187501 0.86874998 0.61875001
vt 0.37304688 0.39843750
vn 0.00000000 1.00000000 0.00000000
v 0.79374999 0.86874998 0.61875001
vt 0.39257812 0.39843750
vn 0.00000000 1.00000000 0.00000000
v 0.79374999 0.86874998 0.44062501
vt 0.39257812 0.38671875
vn 0.00000000 1.00000000 0.00000000
f 595/595/595 596/596/596 597/597/597
v 0.47187501 0.71562505 0.61875001
vt 0.39648438 0.38671875
vn 0.00000000 -1.00000000 0.00000000
v 0.47187501 0.71562505 0.44062501
vt 0.39648438 0.39843750
vn 0.00000000 -1.00000000 0.00000000
v 0.79374999 0.71562505 0.61875001
vt 0.41601562 0.38671875
vn 0.00000000 -1.00000000 0.00000000
f 598/598/598 599/599/599 600/600/600
v 0.47187501 0.71562505 0.44062501
vt 0.39648438 0.39843750
vn 0.00000000 -1.00000000 0.00000000
v 0.79374999 0.71562505 0.44062501
vt 0.41601562 0.39843750
vn 0.00000000 -1.00000000 0.00000000
v 0.79374999 0.71562505 0.61875001
vt 0.41601562 0.38671875
vn 0.00000000 -1.00000000 0.00000000
f 601/601/601 602/602/602 603/603/603
v 0.47187501 0.86874998 0.61875001
vt 0.54101562 0.40625000
vn 0.00000000 0.00000000 1.00000000
v 0.47187501 0.71562505 0.61875001
vt 0.54101562 0.41601562
vn 0.00000000 0.00000000 1.00000000
v 0.79374999 0.86874998 0.61875001
vt 0.56054688 0.40625000
vn 0.00000000 0.00000000 1.00000000
f 604/604/604 605/605/605 606/606/606
v 0.47187501 0.71562505 0.61875001
vt 0.54101562 0.41601562
vn 0.00000000 0.00000000 1.00000000
v 0.79374999 0.71562505 0.61875001
vt 0.56054688 0.41601562
vn 0.00000000 0.00000000 1.00000000
v 0.79374999 0.86874998 0.61875001
vt 0.56054688 0.40625000
vn 0.00000000 0.00000000 1.00000000
f 607/607/607 608/608/608 609/609/609
v 0.79374999 0.86874998 0.44062501
vt 0.51757812 0.40625000
vn 0.00000000 0.00000000 -1.00000000
v 0.79374999 0.71562505 0.44062501
vt 0.51757812 0.41601562
vn 0.00000000 0.00000000 -1.00000000
v 0.47187501 0.86874998 0.44062501
vt 0.53710938 0.40625000
vn 0.00000000 0.00000000 -1.00000000
f 610/610/610 611/611/611 612/612/612
v 0.79374999 0.71562505 0.44062501
vt 0.51757812 0.41601562
vn 0.00000000 0.00000000 -1.00000000
v 0.47187501 0.71562505 0.44062501
vt 0.53710938 0.41601562
vn 0.00000000 0.00000000 -1.00000000
v 0.47187501 0.86874998 0.44062501
vt 0.53710938 0.40625000
vn 0.00000000 0.00000000 -1.00000000
f 613/613/613 614/614/614 615/615/615
v 0.89062500 0.88437498 0.59687501
vt 0.97460938 0.44335938
vn 1.00000000 0.00000000 0.00000000
v 0.89062500 0.79062498 0.59687501
vt 0.97460938 0.44921875
vn 1.00000000 0.00000000 0.00000000
v 0.89062500 0.88437498 0.27187502
vt 0.99414062 0.44335938
vn 1.00000000 0.00000000 0.00000000
f 616/616/616 617/617/617 618/618/618
v 0.89062500 0.79062498 0.59687501
vt 0.97460938 0.44921875
vn 1.00000000 0.00000000 0.00000000
v 0.89062500 0.79062498 0.27187502
vt 0.99414062 0.44921875
vn 1.00000000 0.00000000 0.00000000
v 0.89062500 0.88437498 0.27187502
vt 0.99414062 0.44335938
vn 1.00000000 0.00000000 0.00000000
f 619/619/619 620/620/620 621/621/621
v 0.43750000 0.88437498 0.27187502
vt 0.00195312 0.45312500
vn -1.00000000 0.00000000 0.00000000
v 0.43750000 0.79062498 0.27187502
vt 0.00195312 0.45898438
vn -1.00000000 0.00000000 0.00000000
v 0.43750000 0.88437498 0.59687501
vt 0.02148438 0.45312500
vn -1.00000000 0.00000000 0.00000000
f 622/622/622 623/623/623 624/624/624
v 0.43750000 0.79062498 0.27187502
vt 0.00195312 0.45898438
vn -1.00000000 0.00000000 0.00000000
v 0.43750000 0.79062498 0.59687501
vt 0.02148438 0.45898438
vn -1.00000000 0.00000000 0.00000000
v 0.43750000 0.88437498 0.59687501
vt 0.02148438 0.45312500
vn -1.00000000 0.00000000 0.00000000
f 625/625/625 626/626/626 627/627/627
v 0.43750000 0.88437498 0.27187502
vt 0.27148438 0.36328125
vn 0.00000000 1.00000000 0.00000000
v 0.43750000 0.88437498 0.59687501
vt 0.27148438 0.38281250
vn 0.00000000 1.00000000 0.00000000
v 0.89062500 0.88437498 0.27187502
vt 0.29882812 0.36328125
vn 0.00000000 1.00000000 0.00000000
f 628/628/628 629/629/629 630/630/630
v 0.43750000 0.88437498 0.59687501
vt 0.27148438 0.38281250
vn 0.00000000 1.00000000 0.00000000
v 0.89062500 0.88437498 0.59687501
vt 0.29882812 0.38281250
vn 0.00000000 1.00000000 0.00000000
v 0.89062500 0.88437498 0.27187502
vt 0.29882812 0.36328125
vn 0.00000000 1.00000000 0.00000000
f 631/631/631 632/632/632 633/633/633
v 0.43750000 0.79062498 0.59687501
vt 0.30273438 0.36328125
vn 0.00000000 -1.00000000 0.00000000
v 0.43750000 0.79062498 0.27187502
vt 0.30273438 0.38281250
vn 0.00000000 -1.00000000 0.00000000
v 0.89062500 0.79062498 0.59687501
vt 0.33007812 0.36328125
vn 0.00000000 -1.00000000 0.00000000
f 634/634/634 635/635/635 636/636/636
v 0.43750000 0.79062498 0.27187502
vt 0.30273438 0.38281250
vn 0.00000000 -1.00000000 0.00000000
v 0.89062500 0.79062498 0.27187502
vt 0.33007812 0.38281250
vn 0.00000000 -1.00000000 0.00000000
v 0.89062500 0.79062498 0.59687501
vt 0.33007812 0.36328125
vn 0.00000000 -1.00000000 0.00000000
f 637/637/637 638/638/638 639/639/639
v 0.43750000 0.88437498 0.59687501
vt 0.89648438 0.44335938
vn 0.00000000 0.00000000 1.00000000
v 0.43750000 0.79062498 0.59687501
vt 0.89648438 0.44921875
vn 0.00000000 0.00000000 1.00000000
v 0.89062500 0.88437498 0.59687501
vt 0.92382812 0.44335938
vn 0.00000000 0.00000000 1.00000000
f 640/640/640 641/641/641 642/642/642
v 0.43750000 0.79062498 0.59687501
vt 0.89648438 0.44921875
vn 0.00000000 0.00000000 1.00000000
v 0.89062500 0.79062498 0.59687501
vt 0.92382812 0.44921875
vn 0.00000000 0.00000000 1.00000000
v 0.89062500 0.88437498 0.59687501
vt 0.92382812 0.44335938
vn 0.00000000 0.00000000 1.00000000
f 643/643/643 644/644/644 645/645/645
v 0.89062500 0.88437498 0.27187502
vt 0.86523438 0.44335938
vn 0.00000000 0.00000000 -1.00000000
v 0.89062500 0.79062498 0.27187502
vt 0.86523438 0.44921875
vn 0.00000000 0.00000000 -1.00000000
v 0.43750000 0.88437498 0.27187502
vt 0.89257812 0.44335938
vn 0.00000000 0.00000000 -1.00000000
f 646/646/646 647/647/647 648/648/648
v 0.89062500 0.79062498 0.27187502
vt 0.86523438 0.44921875
vn 0.00000000 0.00000000 -1.00000000
v 0.43750000 0.79062498 0.27187502
vt 0.89257812 0.44921875
vn 0.00000000 0.00000000 -1.00000000
v 0.43750000 0.88437498 0.27187502
vt 0.89257812 0.44335938
vn 0.00000000 0.00000000 -1.00000000
f 649/649/649 650/650/650 651/651/651
v 0.54062498 0.90937495 0.36874998
vt 0.94335938 0.46289062
vn 1.00000000 0.00000000 0.00000000
v 0.54062498 0.83749998 0.36874998
vt 0.94335938 0.46679688
vn 1.00000000 0.00000000 0.00000000
v 0.54062498 0.90937495 0.24374998
vt 0.95117188 0.46289062
vn 1.00000000 0.00000000 0.00000000
f 652/652/652 653/653/653 654/654/654
v 0.54062498 0.83749998 0.36874998
vt 0.94335938 0.46679688
vn 1.00000000 0.00000000 0.00000000
v 0.54062498 0.83749998 0.24374998
vt 0.95117188 0.46679688
vn 1.00000000 0.00000000 0.00000000
v 0.54062498 0.90937495 0.24374998
vt 0.95117188 0.46289062
vn 1.00000000 0.00000000 0.00000000
f 655/655/655 656/656/656 657/657/657
v 0.45625001 0.90937495 0.24374998
vt 0.95507812 0.46289062
vn -1.00000000 0.00000000 0.00000000
v 0.45625001 0.83749998 0.24374998
vt 0.95507812 0.46679688
vn -1.00000000 0.00000000 0.00000000
v 0.45625001 0.90937495 0.36874998
vt 0.96289062 0.46289062
vn -1.00000000 0.00000000 0.00000000
f 658/658/658 659/659/659 660/660/660
v 0.45625001 0.83749998 0.24374998
vt 0.95507812 0.46679688
vn -1.00000000 0.00000000 0.00000000
v 0.45625001 0.83749998 0.36874998
vt 0.96289062 0.46679688
vn -1.00000000 0.00000000 0.00000000
v 0.45625001 0.90937495 0.36874998
vt 0.96289062 0.46289062
vn -1.00000000 0.00000000 0.00000000
f 661/661/661 662/662/662 663/663/663
v 0.45625001 0.90937495 0.24374998
vt 0.42382812 0.43164062
vn 0.00000000 1.00000000 0.00000000
v 0.45625001 0.90937495 0.36874998
vt 0.42382812 0.43945312
vn 0.00000000 1.00000000 0.00000000
v 0.54062498 0.90937495 0.24374998
vt 0.42968750 0.43164062
vn 0.00000000 1.00000000 0.00000000
f 664/664/664 665/665/665 666/666/666
v 0.45625001 0.90937495 0.36874998
vt 0.42382812 0.43945312
vn 0.00000000 1.00000000 0.00000000
v 0.54062498 0.90937495 0.36874998
vt 0.42968750 0.43945312
vn 0.00000000 1.00000000 0.00000000
v 0.54062498 0.90937495 0.24374998
vt 0.42968750 0.43164062
vn 0.00000000 1.00000000 0.00000000
f 667/667/667 668/668/668 669/669/669
v 0.45625001 0.83749998 0.36874998
vt 0.43359375 0.43164062
vn 0.00000000 -1.00000000 0.00000000
v 0.45625001 0.83749998 0.24374998
vt 0.43359375 0.43945312
vn 0.00000000 -1.00000000 0.00000000
v 0.54062498 0.83749998 0.36874998
vt 0.43945312 0.43164062
vn 0.00000000 -1.00000000 0.00000000
f 670/670/670 671/671/671 672/672/672
v 0.45625001 0.83749998 0.24374998
vt 0.43359375 0.43945312
vn 0.00000000 -1.00000000 0.00000000
v 0.54062498 0.83749998 0.24374998
vt 0.43945312 0.43945312
vn 0.00000000 -1.00000000 0.00000000
v 0.54062498 0.83749998 0.36874998
vt 0.43945312 0.43164062
vn 0.00000000 -1.00000000 0.00000000
f 673/673/673 674/674/674 675/675/675
v 0.45625001 0.90937495 0.36874998
vt 0.22265625 0.47070312
vn 0.00000000 0.00000000 1.00000000
v 0.45625001 0.83749998 0.36874998
vt 0.22265625 0.47460938
vn 0.00000000 0.00000000 1.00000000
v 0.54062498 0.90937495 0.36874998
vt 0.22851562 0.47070312
vn 0.00000000 0.00000000 1.00000000
f 676/676/676 677/677/677 678/678/678
v 0.45625001 0.83749998 0.36874998
vt 0.22265625 0.47460938
vn 0.00000000 0.00000000 1.00000000
v 0.54062498 0.83749998 0.36874998
vt 0.22851562 0.47460938
vn 0.00000000 0.00000000 1.00000000
v 0.54062498 0.90937495 0.36874998
vt 0.22851562 0.47070312
vn 0.00000000 0.00000000 1.00000000
f 679/679/679 680/680/680 681/681/681
v 0.54062498 0.90937495 0.24374998
vt 0.21289062 0.47070312
vn 0.00000000 0.00000000 -1.00000000
v 0.54062498 0.83749998 0.24374998
vt 0.21289062 0.47460938
vn 0.00000000 0.00000000 -1.00000000
v 0.45625001 0.90937495 0.24374998
vt 0.21875000 0.47070312
vn 0.00000000 0.00000000 -1.00000000
f 682/682/682 683/683/683 684/684/684
v 0.54062498 0.83749998 0.24374998
vt 0.21289062 0.47460938
vn 0.00000000 0.00000000 -1.00000000
v 0.45625001 0.83749998 0.24374998
vt 0.21875000 0.47460938
vn 0.00000000 0.00000000 -1.00000000
v 0.45625001 0.90937495 0.24374998
vt 0.21875000 0.47070312
vn 0.00000000 0.00000000 -1.00000000
f 685/685/685 686/686/686 687/687/687
v 0.64687502 0.90937495 0.36874998
vt 0.96679688 0.46289062
vn 1.00000000 0.00000000 0.00000000
v 0.64687502 0.83749998 0.36874998
vt 0.96679688 0.46679688
vn 1.00000000 0.00000000 0.00000000
v 0.64687502 0.90937495 0.24374998
vt 0.97460938 0.46289062
vn 1.00000000 0.00000000 0.00000000
f 688/688/688 689/689/689 690/690/690
v 0.64687502 0.83749998 0.36874998
vt 0.96679688 0.46679688
vn 1.00000000 0.00000000 0.00000000
v 0.64687502 0.83749998 0.24374998
vt 0.97460938 0.46679688
vn 1.00000000 0.00000000 0.00000000
v 0.64687502 0.90937495 0.24374998
vt 0.97460938 0.46289062
vn 1.00000000 0.00000000 0.00000000
f 691/691/691 692/692/692 693/693/693
v 0.56250000 0.90937495 0.24374998
vt 0.97851562 0.46289062
vn -1.00000000 0.00000000 0.00000000
v 0.56250000 0.83749998 0.24374998
vt 0.97851562 0.46679688
vn -1.00000000 0.00000000 0.00000000
v 0.56250000 0.90937495 0.36874998
vt 0.98632812 0.46289062
vn -1.00000000 0.00000000 0.00000000
f 694/694/694 695/695/695 696/696/696
v 0.56250000 0.83749998 0.24374998
vt 0.97851562 0.46679688
vn -1.00000000 0.00000000 0.00000000
v 0.56250000 0.83749998 0.36874998
vt 0.98632812 0.46679688
vn -1.00000000 0.00000000 0.00000000
v 0.56250000 0.90937495 0.36874998
vt 0.98632812 0.46289062
vn -1.00000000 0.00000000 0.00000000
f 697/697/697 698/698/698 699/699/699
v 0.56250000 0.90937495 0.24374998
vt 0.44335938 0.43164062
vn 0.00000000 1.00000000 0.00000000
v 0.56250000 0.90937495 0.36874998
vt 0.44335938 0.43945312
vn 0.00000000 1.00000000 0.00000000
v 0.64687502 0.90937495 0.24374998
vt 0.44921875 0.43164062
vn 0.00000000 1.00000000 0.00000000
f 700/700/700 701/701/701 702/702/702
v 0.56250000 0.90937495 0.36874998
vt 0.44335938 0.43945312
vn 0.00000000 1.00000000 0.00000000
v 0.64687502 0.90937495 0.36874998
vt 0.44921875 0.43945312
vn 0.00000000 1.00000000 0.00000000
v 0.64687502 0.90937495 0.24374998
vt 0.44921875 0.43164062
vn 0.00000000 1.00000000 0.00000000
f 703/703/703 704/704/704 705/705/705
v 0.56250000 0.83749998 0.36874998
vt 0.45312500 0.43164062
vn 0.00000000 -1.00000000 0.00000000
v 0.56250000 0.83749998 0.24374998
vt 0.45312500 0.43945312
vn 0.00000000 -1.00000000 0.00000000
v 0.64687502 0.83749998 0.36874998
vt 0.45898438 0.43164062
vn 0.00000000 -1.00000000 0.00000000
f 706/706/706 707/707/707 708/708/708
v 0.56250000 0.83749998 0.24374998
vt 0.45312500 0.43945312
vn 0.00000000 -1.00000000 0.00000000
v 0.64687502 0.83749998 0.24374998
vt 0.45898438 0.43945312
vn 0.00000000 -1.00000000 0.00000000
v 0.64687502 0.83749998 0.36874998
vt 0.45898438 0.43164062
vn 0.00000000 -1.00000000 0.00000000
f 709/709/709 710/710/710 711/711/711
v 0.56250000 0.90937495 0.36874998
vt 0.24218750 0.47070312
vn 0.00000000 0.00000000 1.00000000
v 0.56250000 0.83749998 0.36874998
vt 0.24218750 0.47460938
vn 0.00000000 0.00000000 1.00000000
v 0.64687502 0.90937495 0.36874998
vt 0.24804688 0.47070312
vn 0.00000000 0.00000000 1.00000000
f 712/712/712 713/713/713 714/714/714
v 0.56250000 0.83749998 0.36874998
vt 0.24218750 0.47460938
vn 0.00000000 0.00000000 1.00000000
v 0.64687502 0.83749998 0.36874998
vt 0.24804688 0.47460938
vn 0.00000000 0.00000000 1.00000000
v 0.64687502 0.90937495 0.36874998
vt 0.24804688 0.47070312
vn 0.00000000 0.00000000 1.00000000
f 715/715/715 716/716/716 717/717/717
v 0.64687502 0.90937495 0.24374998
vt 0.23242188 0.47070312
vn 0.00000000 0.00000000 -1.00000000
v 0.64687502 0.83749998 0.24374998
vt 0.23242188 0.47460938
vn 0.00000000 0.00000000 -1.00000000
v 0.56250000 0.90937495 0.24374998
vt 0.23828125 0.47070312
vn 0.00000000 0.00000000 -1.00000000
f 718/718/718 719/719/719 720/720/720
v 0.64687502 0.83749998 0.24374998
vt 0.23242188 0.47460938
vn 0.00000000 0.00000000 -1.00000000
v 0.56250000 0.83749998 0.24374998
vt 0.23828125 0.47460938
vn 0.00000000 0.00000000 -1.00000000
v 0.56250000 0.90937495 0.24374998
vt 0.23828125 0.47070312
vn 0.00000000 0.00000000 -1.00000000
f 721/721/721 722/722/722 723/723/723
v 0.75312501 0.90937495 0.36874998
vt 0.99023438 0.46289062
vn 1.00000000 0.00000000 0.00000000
v 0.75312501 0.83749998 0.36874998
vt 0.99023438 0.46679688
vn 1.00000000 0.00000000 0.00000000
v 0.75312501 0.90937495 0.24374998
vt 0.99804688 0.46289062
vn 1.00000000 0.00000000 0.00000000
f 724/724/724 725/725/725 726/726/726
v 0.75312501 0.83749998 0.36874998
vt 0.99023438 0.46679688
vn 1.00000000 0.00000000 0.00000000
v 0.75312501 0.83749998 0.24374998
vt 0.99804688 0.46679688
vn 1.00000000 0.00000000 0.00000000
v 0.75312501 0.90937495 0.24374998
vt 0.99804688 0.46289062
vn 1.00000000 0.00000000 0.00000000
f 727/727/727 728/728/728 729/729/729
v 0.66874999 0.90937495 0.24374998
vt 0.00195312 0.47070312
vn -1.00000000 0.00000000 0.00000000
v 0.66874999 0.83749998 0.24374998
vt 0.00195312 0.47460938
vn -1.00000000 0.00000000 0.00000000
v 0.66874999 0.90937495 0.36874998
vt 0.00976562 0.47070312
vn -1.00000000 0.00000000 0.00000000
f 730/730/730 731/731/731 732/732/732
v 0.66874999 0.83749998 0.24374998
vt 0.00195312 0.47460938
vn -1.00000000 0.00000000 0.00000000
v 0.66874999 0.83749998 0.36874998
vt 0.00976562 0.47460938
vn -1.00000000 0.00000000 0.00000000
v 0.66874999 0.90937495 0.36874998
vt 0.00976562 0.47070312
vn -1.00000000 0.00000000 0.00000000
f 733/733/733 734/734/734 735/735/735
v 0.66874999 0.90937495 0.24374998
vt 0.46289062 0.43164062
vn 0.00000000 1.00000000 0.00000000
v 0.66874999 0.90937495 0.36874998
vt 0.46289062 0.43945312
vn 0.00000000 1.00000000 0.00000000
v 0.75312501 0.90937495 0.24374998
vt 0.46875000 0.43164062
vn 0.00000000 1.00000000 0.00000000
f 736/736/736 737/737/737 738/738/738
v 0.66874999 0.90937495 0.36874998
vt 0.46289062 0.43945312
vn 0.00000000 1.00000000 0.00000000
v 0.75312501 0.90937495 0.36874998
vt 0.46875000 0.43945312
vn 0.00000000 1.00000000 0.00000000
v 0.75312501 0.90937495 0.24374998
vt 0.46875000 0.43164062
vn 0.00000000 1.00000000 0.00000000
f 739/739/739 740/740/740 741/741/741
v 0.66874999 0.83749998 0.36874998
vt 0.47265625 0.43164062
vn 0.00000000 -1.00000000 0.00000000
v 0.66874999 0.83749998 0.24374998
vt 0.47265625 0.43945312
vn 0.00000000 -1.00000000 0.00000000
v 0.75312501 0.83749998 0.36874998
vt 0.47851562 0.43164062
vn 0.00000000 -1.00000000 0.00000000
f 742/742/742 743/743/743 744/744/744
v 0.66874999 0.83749998 0.24374998
vt 0.47265625 0.43945312
vn 0.00000000 -1.00000000 0.00000000
v 0.75312501 0.83749998 0.24374998
vt 0.47851562 0.43945312
vn 0.00000000 -1.00000000 0.00000000
v 0.75312501 0.83749998 0.36874998
vt 0.47851562 0.43164062
vn 0.00000000 -1.00000000 0.00000000
f 745/745/745 746/746/746 747/747/747
v 0.66874999 0.90937495 0.36874998
vt 0.26171875 0.47070312
vn 0.00000000 0.00000000 1.00000000
v 0.66874999 0.83749998 0.36874998
vt 0.26171875 0.47460938
vn 0.00000000 0.00000000 1.00000000
v 0.75312501 0.90937495 0.36874998
vt 0.26757812 0.47070312
vn 0.00000000 0.00000000 1.00000000
f 748/748/748 749/749/749 750/750/750
v 0.66874999 0.83749998 0.36874998
vt 0.26171875 0.47460938
vn 0.00000000 0.00000000 1.00000000
v 0.75312501 0.83749998 0.36874998
vt 0.26757812 0.47460938
vn 0.00000000 0.00000000 1.00000000
v 0.75312501 0.90937495 0.36874998
vt 0.26757812 0.47070312
vn 0.00000000 0.00000000 1.00000000
f 751/751/751 752/752/752 753/753/753
v 0.75312501 0.90937495 0.24374998
vt 0.25195312 0.47070312
vn 0.00000000 0.00000000 -1.00000000
v 0.75312501 0.83749998 0.24374998
vt 0.25195312 0.47460938
vn 0.00000000 0.00000000 -1.00000000
v 0.66874999 0.90937495 0.24374998
vt 0.25781250 0.47070312
vn 0.00000000 0.00000000 -1.00000000
f 754/754/754 755/755/755 756/756/756
v 0.75312501 0.83749998 0.24374998
vt 0.25195312 0.47460938
vn 0.00000000 0.00000000 -1.00000000
v 0.66874999 0.83749998 0.24374998
vt 0.25781250 0.47460938
vn 0.00000000 0.00000000 -1.00000000
v 0.66874999 0.90937495 0.24374998
vt 0.25781250 0.47070312
vn 0.00000000 0.00000000 -1.00000000
f 757/757/757 758/758/758 759/759/759
v 0.85937500 0.90937495 0.36874998
vt 0.01367188 0.47070312
vn 1.00000000 0.00000000 0.00000000
v 0.85937500 0.83749998 0.36874998
vt 0.01367188 0.47460938
vn 1.00000000 0.00000000 0.00000000
v 0.85937500 0.90937495 0.24374998
vt 0.02148438 0.47070312
vn 1.00000000 0.00000000 0.00000000
f 760/760/760 761/761/761 762/762/762
v 0.85937500 0.83749998 0.36874998
vt 0.01367188 0.47460938
vn 1.00000000 0.00000000 0.00000000
v 0.85937500 0.83749998 0.24374998
vt 0.02148438 0.47460938
vn 1.00000000 0.00000000 0.00000000
v 0.85937500 0.90937495 0.24374998
vt 0.02148438 0.47070312
vn 1.00000000 0.00000000 0.00000000
f 763/763/763 764/764/764 765/765/765
v 0.77499998 0.90937495 0.24374998
vt 0.02539062 0.47070312
vn -1.00000000 0.00000000 0.00000000
v 0.77499998 0.83749998 0.24374998
vt 0.02539062 0.47460938
vn -1.00000000 0.00000000 0.00000000
v 0.77499998 0.90937495 0.36874998
vt 0.03320312 0.47070312
vn -1.00000000 0.00000000 0.00000000
f 766/766/766 767/767/767 768/768/768
v 0.77499998 0.83749998 0.24374998
vt 0.02539062 0.47460938
vn -1.00000000 0.00000000 0.00000000
v 0.77499998 0.83749998 0.36874998
vt 0.03320312 0.47460938
vn -1.00000000 0.00000000 0.00000000
v 0.77499998 0.90937495 0.36874998
vt 0.03320312 0.47070312
vn -1.00000000 0.00000000 0.00000000
f 769/769/769 770/770/770 771/771/771
v 0.77499998 0.90937495 0.24374998
vt 0.48242188 0.43164062
vn 0.00000000 1.00000000 0.00000000
v 0.77499998 0.90937495 0.36874998
vt 0.48242188 0.43945312
vn 0.00000000 1.00000000 0.00000000
v 0.85937500 0.90937495 0.24374998
vt 0.48828125 0.43164062
vn 0.00000000 1.00000000 0.00000000
f 772/772/772 773/773/773 774/774/774
v 0.77499998 0.90937495 0.36874998
vt 0.48242188 0.43945312
vn 0.00000000 1.00000000 0.00000000
v 0.85937500 0.90937495 0.36874998
vt 0.48828125 0.43945312
vn 0.00000000 1.00000000 0.00000000
v 0.85937500 0.90937495 0.24374998
vt 0.48828125 0.43164062
vn 0.00000000 1.00000000 0.00000000
f 775/775/775 776/776/776 777/777/777
v 0.77499998 0.83749998 0.36874998
vt 0.49218750 0.43164062
vn 0.00000000 -1.00000000 0.00000000
v 0.77499998 0.83749998 0.24374998
vt 0.49218750 0.43945312
vn 0.00000000 -1.00000000 0.00000000
v 0.85937500 0.83749998 0.36874998
vt 0.49804688 0.43164062
vn 0.00000000 -1.00000000 0.00000000
f 778/778/778 779/779/779 780/780/780
v 0.77499998 0.83749998 0.24374998
vt 0.49218750 0.43945312
vn 0.00000000 -1.00000000 0.00000000
v 0.85937500 0.83749998 0.24374998
vt 0.49804688 0.43945312
vn 0.00000000 -1.00000000 0.00000000
v 0.85937500 0.83749998 0.36874998
vt 0.49804688 0.43164062
vn 0.00000000 -1.00000000 0.00000000
f 781/781/781 782/782/782 783/783/783
v 0.77499998 0.90937495 0.36874998
vt 0.28125000 0.47070312
vn 0.00000000 0.00000000 1.00000000
v 0.77499998 0.83749998 0.36874998
vt 0.28125000 0.47460938
vn 0.00000000 0.00000000 1.00000000
v 0.85937500 0.90937495 0.36874998
vt 0.28710938 0.47070312
vn 0.00000000 0.00000000 1.00000000
f 784/784/784 785/785/785 786/786/786
v 0.77499998 0.83749998 0.36874998
vt 0.28125000 0.47460938
vn 0.00000000 0.00000000 1.00000000
v 0.85937500 0.83749998 0.36874998
vt 0.28710938 0.47460938
vn 0.00000000 0.00000000 1.00000000
v 0.85937500 0.90937495 0.36874998
vt 0.28710938 0.47070312
vn 0.00000000 0.00000000 1.00000000
f 787/787/787 788/788/788 789/789/789
v 0.85937500 0.90937495 0.24374998
vt 0.27148438 0.47070312
vn 0.00000000 0.00000000 -1.00000000
v 0.85937500 0.83749998 0.24374998
vt 0.27148438 0.47460938
vn 0.00000000 0.00000000 -1.00000000
v 0.77499998 0.90937495 0.24374998
vt 0.27734375 0.47070312
vn 0.00000000 0.00000000 -1.00000000
f 790/790/790 791/791/791 792/792/792
v 0.85937500 0.83749998 0.24374998
vt 0.27148438 0.47460938
vn 0.00000000 0.00000000 -1.00000000
v 0.77499998 0.83749998 0.24374998
vt 0.27734375 0.47460938
vn 0.00000000 0.00000000 -1.00000000
v 0.77499998 0.90937495 0.24374998
vt 0.27734375 0.47070312
vn 0.00000000 0.00000000 -1.00000000
f 793/793/793 794/794/794 795/795/795
v 0.50937498 0.94375002 0.58750001
vt 0.06835938 0.43164062
vn 1.00000000 0.00000000 0.00000000
v 0.50937498 0.83124995 0.58750001
vt 0.06835938 0.43945312
vn 1.00000000 0.00000000 0.00000000
v 0.50937498 0.94375002 0.44062501
vt 0.07812500 0.43164062
vn 1.00000000 0.00000000 0.00000000
f 796/796/796 797/797/797 798/798/798
v 0.50937498 0.83124995 0.58750001
vt 0.06835938 0.43945312
vn 1.00000000 0.00000000 0.00000000
v 0.50937498 0.83124995 0.44062501
vt 0.07812500 0.43945312
vn 1.00000000 0.00000000 0.00000000
v 0.50937498 0.94375002 0.44062501
vt 0.07812500 0.43164062
vn 1.00000000 0.00000000 0.00000000
f 799/799/799 800/800/800 801/801/801
v 0.41562501 0.94375002 0.44062501
vt 0.08203125 0.43164062
vn -1.00000000 0.00000000 0.00000000
v 0.41562501 0.83124995 0.44062501
vt 0.08203125 0.43945312
vn -1.00000000 0.00000000 0.00000000
v 0.41562501 0.94375002 0.58750001
vt 0.09179688 0.43164062
vn -1.00000000 0.00000000 0.00000000
f 802/802/802 803/803/803 804/804/804
v 0.41562501 0.83124995 0.44062501
vt 0.08203125 0.43945312
vn -1.00000000 0.00000000 0.00000000
v 0.41562501 0.83124995 0.58750001
vt 0.09179688 0.43945312
vn -1.00000000 0.00000000 0.00000000
v 0.41562501 0.94375002 0.58750001
vt 0.09179688 0.43164062
vn -1.00000000 0.00000000 0.00000000
f 805/805/805 806/806/806 807/807/807
v 0.41562501 0.94375002 0.44062501
vt 0.83398438 0.40625000
vn 0.00000000 1.00000000 0.00000000
v 0.41562501 0.94375002 0.58750001
vt 0.83398438 0.41601562
vn 0.00000000 1.00000000 0.00000000
v 0.50937498 0.94375002 0.44062501
vt 0.83984375 0.40625000
vn 0.00000000 1.00000000 0.00000000
f 808/808/808 809/809/809 810/810/810
v 0.41562501 0.94375002 0.58750001
vt 0.83398438 0.41601562
vn 0.00000000 1.00000000 0.00000000
v 0.50937498 0.94375002 0.58750001
vt 0.83984375 0.41601562
vn 0.00000000 1.00000000 0.00000000
v 0.50937498 0.94375002 0.44062501
vt 0.83984375 0.40625000
vn 0.00000000 1.00000000 0.00000000
f 811/811/811 812/812/812 813/813/813
v 0.41562501 0.83124995 0.58750001
vt 0.84375000 0.40625000
vn 0.00000000 -1.00000000 0.00000000
v 0.41562501 0.83124995 0.44062501
vt 0.84375000 0.41601562
vn 0.00000000 -1.00000000 0.00000000
v 0.50937498 0.83124995 0.58750001
vt 0.84960938 0.40625000
vn 0.00000000 -1.00000000 0.00000000
f 814/814/814 815/815/815 816/816/816
v 0.41562501 0.83124995 0.44062501
vt 0.84375000 0.41601562
vn 0.00000000 -1.00000000 0.00000000
v 0.50937498 0.83124995 0.44062501
vt 0.84960938 0.41601562
vn 0.00000000 -1.00000000 0.00000000
v 0.50937498 0.83124995 0.58750001
vt 0.84960938 0.40625000
vn 0.00000000 -1.00000000 0.00000000
f 817/817/817 818/818/818 819/819/819
v 0.41562501 0.94375002 0.58750001
vt 0.51171875 0.43164062
vn 0.00000000 0.00000000 1.00000000
v 0.41562501 0.83124995 0.58750001
vt 0.51171875 0.43945312
vn 0.00000000 0.00000000 1.00000000
v 0.50937498 0.94375002 0.58750001
vt 0.51757812 0.43164062
vn 0.00000000 0.00000000 1.00000000
f 820/820/820 821/821/821 822/822/822
v 0.41562501 0.83124995 0.58750001
vt 0.51171875 0.43945312
vn 0.00000000 0.00000000 1.00000000
v 0.50937498 0.83124995 0.58750001
vt 0.51757812 0.43945312
vn 0.00000000 0.00000000 1.00000000
v 0.50937498 0.94375002 0.58750001
vt 0.51757812 0.43164062
vn 0.00000000 0.00000000 1.00000000
f 823/823/823 824/824/824 825/825/825
v 0.50937498 0.94375002 0.44062501
vt 0.50195312 0.43164062
vn 0.00000000 0.00000000 -1.00000000
v 0.50937498 0.83124995 0.44062501
vt 0.50195312 0.43945312
vn 0.00000000 0.00000000 -1.00000000
v 0.41562501 0.94375002 0.44062501
vt 0.50781250 0.43164062
vn 0.00000000 0.00000000 -1.00000000
f 826/826/826 827/827/827 828/828/828
v 0.50937498 0.83124995 0.44062501
vt 0.50195312 0.43945312
vn 0.00000000 0.00000000 -1.00000000
v 0.41562501 0.83124995 0.44062501
vt 0.50781250 0.43945312
vn 0.00000000 0.00000000 -1.00000000
v 0.41562501 0.94375002 0.44062501
vt 0.50781250 0.43164062
vn 0.00000000 0.00000000 -1.00000000
f 829/829/829 830/830/830 831/831/831
v 0.83593750 1.00000000 0.40312499
vt 0.72851562 0.47864583
vn 1.00000000 0.00000000 0.00000000
v 0.83593750 0.95624995 0.40312499
vt 0.72851562 0.48046875
vn 1.00000000 0.00000000 0.00000000
v 0.83593750 1.00000000 0.33604160
vt 0.73216146 0.47864583
vn 1.00000000 0.00000000 0.00000000
f 832/832/832 833/833/833 834/834/834
v 0.83593750 0.95624995 0.40312499
vt 0.72851562 0.48046875
vn 1.00000000 0.00000000 0.00000000
v 0.83593750 0.95624995 0.33125001
vt 0.73242188 0.48046875
vn 1.00000000 0.00000000 0.00000000
v 0.83593750 1.00000000 0.33125001
vt 0.73242188 0.47864583
vn 1.00000000 0.00000000 0.00000000
f 835/835/835 836/836/836 837/837/837
v 0.83593750 0.95624995 0.40312499
vt 0.72851562 0.48046875
vn 1.00000000 0.00000000 0.00000000
v 0.83593750 1.00000000 0.33125001
vt 0.73242188 0.47864583
vn 1.00000000 0.00000000 0.00000000
v 0.83593750 1.00000000 0.33604160
vt 0.73216146 0.47864583
vn 1.00000000 0.00000000 0.00000000
f 838/838/838 839/839/839 840/840/840
v 0.41406250 1.00000000 0.33125001
vt 0.73632812 0.47864583
vn -1.00000000 0.00000000 0.00000000
v 0.41406250 0.95624995 0.33125001
vt 0.73632812 0.48046875
vn -1.00000000 0.00000000 0.00000000
v 0.41406250 1.00000000 0.39833340
vt 0.73997396 0.47864583
vn -1.00000000 0.00000000 0.00000000
f 841/841/841 842/842/842 843/843/843
v 0.41406250 0.95624995 0.33125001
vt 0.73632812 0.48046875
vn -1.00000000 0.00000000 0.00000000
v 0.41406250 0.95624995 0.40312499
vt 0.74023438 0.48046875
vn -1.00000000 0.00000000 0.00000000
v 0.41406250 1.00000000 0.40312499
vt 0.74023438 0.47864583
vn -1.00000000 0.00000000 0.00000000
f 844/844/844 845/845/845 846/846/846
v 0.41406250 0.95624995 0.33125001
vt 0.73632812 0.48046875
vn -1.00000000 0.00000000 0.00000000
v 0.41406250 1.00000000 0.40312499
vt 0.74023438 0.47864583
vn -1.00000000 0.00000000 0.00000000
v 0.41406250 1.00000000 0.39833340
vt 0.73997396 0.47864583
vn -1.00000000 0.00000000 0.00000000
f 847/847/847 848/848/848 849/849/849
v 0.41406250 0.95624995 0.40312499
vt 0.76367188 0.46289062
vn 0.00000000 -1.00000000 0.00000000
v 0.41406250 0.95624995 0.33125001
vt 0.76367188 0.46679688
vn 0.00000000 -1.00000000 0.00000000
v 0.83593750 0.95624995 0.40312499
vt 0.79101562 0.46289062
vn 0.00000000 -1.00000000 0.00000000
f 850/850/850 851/851/851 852/852/852
v 0.41406250 0.95624995 0.33125001
vt 0.76367188 0.46679688
vn 0.00000000 -1.00000000 0.00000000
v 0.83593750 0.95624995 0.33125001
vt 0.79101562 0.46679688
vn 0.00000000 -1.00000000 0.00000000
v 0.83593750 0.95624995 0.40312499
vt 0.79101562 0.46289062
vn 0.00000000 -1.00000000 0.00000000
f 853/853/853 854/854/854 855/855/855
usemtl token
v 0.41406250 1.00000000 0.40312499
vt 0.81250000 0.81666660
vn 0.00000000 0.00000000 1.00000000
v 0.41406250 0.95624995 0.40312499
vt 0.81250000 0.87500000
vn 0.00000000 0.00000000 1.00000000
v 0.80781293 1.00000000 0.40312499
vt 0.28749943 0.81666660
vn 0.00000000 0.00000000 1.00000000
f 856/856/856 857/857/857 858/858/858
v 0.41406250 0.95624995 0.40312499
vt 0.81250000 0.87500000
vn 0.00000000 0.00000000 1.00000000
v 0.83593750 0.95624995 0.40312499
vt 0.25000000 0.87500000
vn 0.00000000 0.00000000 1.00000000
v 0.83593750 1.00000000 0.40312499
vt 0.25000000 0.81666660
vn 0.00000000 0.00000000 1.00000000
f 859/859/859 860/860/860 861/861/861
v 0.41406250 0.95624995 0.40312499
vt 0.81250000 0.87500000
vn 0.00000000 0.00000000 1.00000000
v 0.83593750 1.00000000 0.40312499
vt 0.25000000 0.81666660
vn 0.00000000 0.00000000 1.00000000
v 0.80781293 1.00000000 0.40312499
vt 0.28749943 0.81666660
vn 0.00000000 0.00000000 1.00000000
f 862/862/862 863/863/863 864/864/864
v 0.83593750 1.00000000 0.33125001
vt 0.25000000 0.81666660
vn 0.00000000 0.00000000 -1.00000000
v 0.83593750 0.95624995 0.33125001
vt 0.25000000 0.87500000
vn 0.00000000 0.00000000 -1.00000000
v 0.44218707 1.00000000 0.33125001
vt 0.77500057 0.81666660
vn 0.00000000 0.00000000 -1.00000000
f 865/865/865 866/866/866 867/867/867
v 0.83593750 0.95624995 0.33125001
vt 0.25000000 0.87500000
vn 0.00000000 0.00000000 -1.00000000
v 0.41406250 0.95624995 0.33125001
vt 0.81250000 0.87500000
vn 0.00000000 0.00000000 -1.00000000
v 0.41406250 1.00000000 0.33125001
vt 0.81250000 0.81666660
vn 0.00000000 0.00000000 -1.00000000
f 868/868/868 869/869/869 870/870/870
v 0.83593750 0.95624995 0.33125001
vt 0.25000000 0.87500000
vn 0.00000000 0.00000000 -1.00000000
v 0.41406250 1.00000000 0.33125001
vt 0.81250000 0.81666660
vn 0.00000000 0.00000000 -1.00000000
v 0.44218707 1.00000000 0.33125001
vt 0.77500057 0.81666660
vn 0.00000000 0.00000000 -1.00000000
f 871/871/871 872/872/872 873/873/873
usemtl stone
v 0.74218750 0.95624995 0.40312499
vt 0.47851562 0.47070312
vn 1.00000000 0.00000000 0.00000000
v 0.74218750 0.90937495 0.40312499
vt 0.47851562 0.47460938
vn 1.00000000 0.00000000 0.00000000
v 0.74218750 0.95624995 0.33125001
vt 0.48242188 0.47070312
vn 1.00000000 0.00000000 0.00000000
f 874/874/874 875/875/875 876/876/876
v 0.74218750 0.90937495 0.40312499
vt 0.47851562 0.47460938
vn 1.00000000 0.00000000 0.00000000
v 0.74218750 0.90937495 0.33125001
vt 0.48242188 0.47460938
vn 1.00000000 0.00000000 0.00000000
v 0.74218750 0.95624995 0.33125001
vt 0.48242188 0.47070312
vn 1.00000000 0.00000000 0.00000000
f 877/877/877 878/878/878 879/879/879
v 0.50781250 0.95624995 0.33125001
vt 0.48632812 0.47070312
vn -1.00000000 0.00000000 0.00000000
v 0.50781250 0.90937495 0.33125001
vt 0.48632812 0.47460938
vn -1.00000000 0.00000000 0.00000000
v 0.50781250 0.95624995 0.40312499
vt 0.49023438 0.47070312
vn -1.00000000 0.00000000 0.00000000
f 880/880/880 881/881/881 882/882/882
v 0.50781250 0.90937495 0.33125001
vt 0.48632812 0.47460938
vn -1.00000000 0.00000000 0.00000000
v 0.50781250 0.90937495 0.40312499
vt 0.49023438 0.47460938
vn -1.00000000 0.00000000 0.00000000
v 0.50781250 0.95624995 0.40312499
vt 0.49023438 0.47070312
vn -1.00000000 0.00000000 0.00000000
f 883/883/883 884/884/884 885/885/885
v 0.50781250 0.95624995 0.33125001
vt 0.83398438 0.46289062
vn 0.00000000 1.00000000 0.00000000
v 0.50781250 0.95624995 0.40312499
vt 0.83398438 0.46679688
vn 0.00000000 1.00000000 0.00000000
v 0.74218750 0.95624995 0.33125001
vt 0.84960938 0.46289062
vn 0.00000000 1.00000000 0.00000000
f 886/886/886 887/887/887 888/888/888
v 0.50781250 0.95624995 0.40312499
vt 0.83398438 0.46679688
vn 0.00000000 1.00000000 0.00000000
v 0.74218750 0.95624995 0.40312499
vt 0.84960938 0.46679688
vn 0.00000000 1.00000000 0.00000000
v 0.74218750 0.95624995 0.33125001
vt 0.84960938 0.46289062
vn 0.00000000 1.00000000 0.00000000
f 889/889/889 890/890/890 891/891/891
v 0.50781250 0.90937495 0.40312499
vt 0.85351562 0.46289062
vn 0.00000000 -1.00000000 0.00000000
v 0.50781250 0.90937495 0.33125001
vt 0.85351562 0.46679688
vn 0.00000000 -1.00000000 0.00000000
v 0.74218750 0.90937495 0.40312499
vt 0.86914062 0.46289062
vn 0.00000000 -1.00000000 0.00000000
f 892/892/892 893/893/893 894/894/894
v 0.50781250 0.90937495 0.33125001
vt 0.85351562 0.46679688
vn 0.00000000 -1.00000000 0.00000000
v 0.74218750 0.90937495 0.33125001
vt 0.86914062 0.46679688
vn 0.00000000 -1.00000000 0.00000000
v 0.74218750 0.90937495 0.40312499
vt 0.86914062 0.46289062
vn 0.00000000 -1.00000000 0.00000000
f 895/895/895 896/896/896 897/897/897
usemtl token
v 0.50781250 0.95624995 0.40312499
vt 0.68750000 0.87500000
vn 0.00000000 0.00000000 1.00000000
v 0.50781250 0.90937495 0.40312499
vt 0.68750000 0.93750000
vn 0.00000000 0.00000000 1.00000000
v 0.74218750 0.95624995 0.40312499
vt 0.37500000 0.87500000
vn 0.00000000 0.00000000 1.00000000
f 898/898/898 899/899/899 900/900/900
v 0.50781250 0.90937495 0.40312499
vt 0.68750000 0.93750000
vn 0.00000000 0.00000000 1.00000000
v 0.74218750 0.90937495 0.40312499
vt 0.37500000 0.93750000
vn 0.00000000 0.00000000 1.00000000
v 0.74218750 0.95624995 0.40312499
vt 0.37500000 0.87500000
vn 0.00000000 0.00000000 1.00000000
f 901/901/901 902/902/902 903/903/903
v 0.74218750 0.95624995 0.33125001
vt 0.37500000 0.87500000
vn 0.00000000 0.00000000 -1.00000000
v 0.74218750 0.90937495 0.33125001
vt 0.37500000 0.93750000
vn 0.00000000 0.00000000 -1.00000000
v 0.50781250 0.95624995 0.33125001
vt 0.68750000 0.87500000
vn 0.00000000 0.00000000 -1.00000000
f 904/904/904 905/905/905 906/906/906
v 0.74218750 0.90937495 0.33125001
vt 0.37500000 0.93750000
vn 0.00000000 0.00000000 -1.00000000
v 0.50781250 0.90937495 0.33125001
vt 0.68750000 0.93750000
vn 0.00000000 0.00000000 -1.00000000
v 0.50781250 0.95624995 0.33125001
vt 0.68750000 0.87500000
vn 0.00000000 0.00000000 -1.00000000
f 907/907/907 908/908/908 909/909/909
