# Generated from the approved Charon statue B; positions are in blocks.
mtllib kingdoms:models/block/charon_statue/charon_statue.mtl
s off
usemtl stone
v 0.45625001 0.00000000 0.00000000
vt 0.14747191 0.27929688
vn -1.00000000 0.00000000 0.00000000
v 0.45625001 0.00000000 0.27988280
vt 0.16516113 0.27929688
vn -1.00000000 0.00000000 0.00000000
v 0.45625001 0.15625000 0.54062498
vt 0.18164062 0.26953125
vn -1.00000000 0.00000000 0.00000000
f 1/1/1 2/2/2 3/3/3
v 0.45625001 0.00000000 0.00000000
vt 0.14747191 0.27929688
vn -1.00000000 0.00000000 0.00000000
v 0.45625001 0.15625000 0.54062498
vt 0.18164062 0.26953125
vn -1.00000000 0.00000000 0.00000000
v 0.45625001 0.15625000 0.00000000
vt 0.14747191 0.26953125
vn -1.00000000 0.00000000 0.00000000
f 4/4/4 5/5/5 6/6/6
v 0.45625001 0.00000000 0.54062498
vt 0.18164062 0.27929688
vn -1.00000000 0.00000000 0.00000000
v 0.45625001 0.15625000 0.54062498
vt 0.18164062 0.26953125
vn -1.00000000 0.00000000 0.00000000
v 0.45625001 0.00000000 0.27988280
vt 0.16516113 0.27929688
vn -1.00000000 0.00000000 0.00000000
f 7/7/7 8/8/8 9/9/9
v 0.45625001 0.15625000 0.00000000
vt 0.86132812 0.16700316
vn 0.00000000 1.00000000 0.00000000
v 0.45625001 0.15625000 0.54062498
vt 0.86132812 0.20117188
vn 0.00000000 1.00000000 0.00000000
v 1.00000000 0.15625000 0.11858648
vt 0.89491733 0.17449809
vn 0.00000000 1.00000000 0.00000000
f 10/10/10 11/11/11 12/12/12
v 0.45625001 0.15625000 0.00000000
vt 0.86132812 0.16700316
vn 0.00000000 1.00000000 0.00000000
v 1.00000000 0.15625000 0.11858648
vt 0.89491733 0.17449809
vn 0.00000000 1.00000000 0.00000000
v 1.00000000 0.15625000 0.00000000
vt 0.89491733 0.16700316
vn 0.00000000 1.00000000 0.00000000
f 13/13/13 14/14/14 15/15/15
v 0.45625001 0.15625000 0.54062498
vt 0.86132812 0.20117188
vn 0.00000000 1.00000000 0.00000000
v 1.00000000 0.15625000 0.54062498
vt 0.89491733 0.20117188
vn 0.00000000 1.00000000 0.00000000
v 1.00000000 0.15625000 0.11858648
vt 0.89491733 0.17449809
vn 0.00000000 1.00000000 0.00000000
f 16/16/16 17/17/17 18/18/18
v 0.45625001 0.15625000 0.54062498
vt 0.00195312 0.26953125
vn 0.00000000 0.00000000 1.00000000
v 0.45625001 0.00000000 0.54062498
vt 0.00195312 0.27929688
vn 0.00000000 0.00000000 1.00000000
v 1.00000000 0.00000000 0.54062498
vt 0.03554233 0.27929688
vn 0.00000000 0.00000000 1.00000000
f 19/19/19 20/20/20 21/21/21
v 0.45625001 0.15625000 0.54062498
vt 0.00195312 0.26953125
vn 0.00000000 0.00000000 1.00000000
v 1.00000000 0.00000000 0.54062498
vt 0.03554233 0.27929688
vn 0.00000000 0.00000000 1.00000000
v 1.00000000 0.15625000 0.54062498
vt 0.03554233 0.26953125
vn 0.00000000 0.00000000 1.00000000
f 22/22/22 23/23/23 24/24/24
v 0.51562500 0.31719420 0.00000000
vt 0.80058007 0.28876911
vn -1.00000000 0.00000000 0.00000000
v 0.51562500 0.62500000 0.47812501
vt 0.83007812 0.26953125
vn -1.00000000 0.00000000 0.00000000
v 0.51562500 0.62500000 0.00000000
vt 0.80058007 0.26953125
vn -1.00000000 0.00000000 0.00000000
f 25/25/25 26/26/26 27/27/27
v 0.51562500 0.15625000 0.00000000
vt 0.80058007 0.29882812
vn -1.00000000 0.00000000 0.00000000
v 0.51562500 0.15625000 0.47812501
vt 0.83007812 0.29882812
vn -1.00000000 0.00000000 0.00000000
v 0.51562500 0.62500000 0.47812501
vt 0.83007812 0.26953125
vn -1.00000000 0.00000000 0.00000000
f 28/28/28 29/29/29 30/30/30
v 0.51562500 0.15625000 0.00000000
vt 0.80058007 0.29882812
vn -1.00000000 0.00000000 0.00000000
v 0.51562500 0.62500000 0.47812501
vt 0.83007812 0.26953125
vn -1.00000000 0.00000000 0.00000000
v 0.51562500 0.31719420 0.00000000
vt 0.80058007 0.28876911
vn -1.00000000 0.00000000 0.00000000
f 31/31/31 32/32/32 33/33/33
v 0.51562500 0.62500000 0.00000000
vt 0.13085938 0.23417382
vn 0.00000000 1.00000000 0.00000000
v 0.51562500 0.62500000 0.47812501
vt 0.13085938 0.26367188
vn 0.00000000 1.00000000 0.00000000
v 1.00000000 0.62500000 0.10565182
vt 0.16083308 0.24069204
vn 0.00000000 1.00000000 0.00000000
f 34/34/34 35/35/35 36/36/36
v 0.51562500 0.62500000 0.00000000
vt 0.13085938 0.23417382
vn 0.00000000 1.00000000 0.00000000
v 1.00000000 0.62500000 0.10565182
vt 0.16083308 0.24069204
vn 0.00000000 1.00000000 0.00000000
v 1.00000000 0.62500000 0.00000000
vt 0.16083308 0.23417382
vn 0.00000000 1.00000000 0.00000000
f 37/37/37 38/38/38 39/39/39
v 0.51562500 0.62500000 0.47812501
vt 0.13085938 0.26367188
vn 0.00000000 1.00000000 0.00000000
v 1.00000000 0.62500000 0.47812501
vt 0.16083308 0.26367188
vn 0.00000000 1.00000000 0.00000000
v 1.00000000 0.62500000 0.10565182
vt 0.16083308 0.24069204
vn 0.00000000 1.00000000 0.00000000
f 40/40/40 41/41/41 42/42/42
v 0.51562500 0.15625000 0.47812501
vt 0.19335938 0.21875000
vn 0.00000000 -1.00000000 0.00000000
v 0.51562500 0.15625000 0.00000000
vt 0.19335938 0.24824806
vn 0.00000000 -1.00000000 0.00000000
v 0.84073230 0.15625000 0.00000000
vt 0.21347740 0.24824806
vn 0.00000000 -1.00000000 0.00000000
f 43/43/43 44/44/44 45/45/45
v 0.51562500 0.15625000 0.47812501
vt 0.19335938 0.21875000
vn 0.00000000 -1.00000000 0.00000000
v 0.84073230 0.15625000 0.00000000
vt 0.21347740 0.24824806
vn 0.00000000 -1.00000000 0.00000000
v 1.00000000 0.15625000 0.12247319
vt 0.22333308 0.24069204
vn 0.00000000 -1.00000000 0.00000000
f 46/46/46 47/47/47 48/48/48
v 0.51562500 0.15625000 0.47812501
vt 0.19335938 0.21875000
vn 0.00000000 -1.00000000 0.00000000
v 1.00000000 0.15625000 0.12247319
vt 0.22333308 0.24069204
vn 0.00000000 -1.00000000 0.00000000
v 1.00000000 0.15625000 0.47812501
vt 0.22333308 0.21875000
vn 0.00000000 -1.00000000 0.00000000
f 49/49/49 50/50/50 51/51/51
v 1.00000000 0.15625000 0.00000000
vt 0.22333308 0.24824806
vn 0.00000000 -1.00000000 0.00000000
v 1.00000000 0.15625000 0.12247319
vt 0.22333308 0.24069204
vn 0.00000000 -1.00000000 0.00000000
v 0.84073230 0.15625000 0.00000000
vt 0.21347740 0.24824806
vn 0.00000000 -1.00000000 0.00000000
f 52/52/52 53/53/53 54/54/54
v 0.51562500 0.62500000 0.47812501
vt 0.67382812 0.26953125
vn 0.00000000 0.00000000 1.00000000
v 0.51562500 0.15625000 0.47812501
vt 0.67382812 0.29882812
vn 0.00000000 0.00000000 1.00000000
v 1.00000000 0.39603960 0.47812501
vt 0.70380183 0.28384127
vn 0.00000000 0.00000000 1.00000000
f 55/55/55 56/56/56 57/57/57
v 0.51562500 0.62500000 0.47812501
vt 0.67382812 0.26953125
vn 0.00000000 0.00000000 1.00000000
v 1.00000000 0.39603960 0.47812501
vt 0.70380183 0.28384127
vn 0.00000000 0.00000000 1.00000000
v 1.00000000 0.62500000 0.47812501
vt 0.70380183 0.26953125
vn 0.00000000 0.00000000 1.00000000
f 58/58/58 59/59/59 60/60/60
v 0.51562500 0.15625000 0.47812501
vt 0.67382812 0.29882812
vn 0.00000000 0.00000000 1.00000000
v 1.00000000 0.15625000 0.47812501
vt 0.70380183 0.29882812
vn 0.00000000 0.00000000 1.00000000
v 1.00000000 0.39603960 0.47812501
vt 0.70380183 0.28384127
vn 0.00000000 0.00000000 1.00000000
f 61/61/61 62/62/62 63/63/63
v 0.49374998 0.78419811 0.00000000
vt 0.89283608 0.28887824
vn -1.00000000 0.00000000 0.00000000
v 0.49374998 1.00000000 0.30500000
vt 0.91171875 0.27539062
vn -1.00000000 0.00000000 0.00000000
v 0.49374998 1.00000000 0.00000000
vt 0.89283608 0.27539062
vn -1.00000000 0.00000000 0.00000000
f 64/64/64 65/65/65 66/66/66
v 0.49374998 0.62500000 0.00000000
vt 0.89283608 0.29882812
vn -1.00000000 0.00000000 0.00000000
v 0.49374998 0.62500000 0.43750000
vt 0.91992188 0.29882812
vn -1.00000000 0.00000000 0.00000000
v 0.49374998 1.00000000 0.43750000
vt 0.91992188 0.27539062
vn -1.00000000 0.00000000 0.00000000
f 67/67/67 68/68/68 69/69/69
v 0.49374998 0.62500000 0.00000000
vt 0.89283608 0.29882812
vn -1.00000000 0.00000000 0.00000000
v 0.49374998 1.00000000 0.43750000
vt 0.91992188 0.27539062
vn -1.00000000 0.00000000 0.00000000
v 0.49374998 1.00000000 0.30500000
vt 0.91171875 0.27539062
vn -1.00000000 0.00000000 0.00000000
f 70/70/70 71/71/71 72/72/72
v 0.49374998 0.62500000 0.00000000
vt 0.89283608 0.29882812
vn -1.00000000 0.00000000 0.00000000
v 0.49374998 1.00000000 0.30500000
vt 0.91171875 0.27539062
vn -1.00000000 0.00000000 0.00000000
v 0.49374998 0.78419811 0.00000000
vt 0.89283608 0.28887824
vn -1.00000000 0.00000000 0.00000000
f 73/73/73 74/74/74 75/75/75
v 0.49374998 0.62500000 0.43750000
vt 0.32226562 0.21875000
vn 0.00000000 -1.00000000 0.00000000
v 0.49374998 0.62500000 0.00000000
vt 0.32226562 0.24583579
vn 0.00000000 -1.00000000 0.00000000
v 0.83549526 0.62500000 0.00000000
vt 0.34349204 0.24583579
vn 0.00000000 -1.00000000 0.00000000
f 76/76/76 77/77/77 78/78/78
v 0.49374998 0.62500000 0.43750000
vt 0.32226562 0.21875000
vn 0.00000000 -1.00000000 0.00000000
v 0.83549526 0.62500000 0.00000000
vt 0.34349204 0.24583579
vn 0.00000000 -1.00000000 0.00000000
v 1.00000000 0.62500000 0.10830746
vt 0.35370973 0.23913043
vn 0.00000000 -1.00000000 0.00000000
f 79/79/79 80/80/80 81/81/81
v 0.49374998 0.62500000 0.43750000
vt 0.32226562 0.21875000
vn 0.00000000 -1.00000000 0.00000000
v 1.00000000 0.62500000 0.10830746
vt 0.35370973 0.23913043
vn 0.00000000 -1.00000000 0.00000000
v 1.00000000 0.62500000 0.43750000
vt 0.35370973 0.21875000
vn 0.00000000 -1.00000000 0.00000000
f 82/82/82 83/83/83 84/84/84
v 1.00000000 0.62500000 0.00000000
vt 0.35370973 0.24583579
vn 0.00000000 -1.00000000 0.00000000
v 1.00000000 0.62500000 0.10830746
vt 0.35370973 0.23913043
vn 0.00000000 -1.00000000 0.00000000
v 0.83549526 0.62500000 0.00000000
vt 0.34349204 0.24583579
vn 0.00000000 -1.00000000 0.00000000
f 85/85/85 86/86/86 87/87/87
v 0.49374998 1.00000000 0.43750000
vt 0.54492188 0.27539062
vn 0.00000000 0.00000000 1.00000000
v 0.49374998 0.62500000 0.43750000
vt 0.54492188 0.29882812
vn 0.00000000 0.00000000 1.00000000
v 1.00000000 0.86083075 0.43750000
vt 0.57636598 0.28408870
vn 0.00000000 0.00000000 1.00000000
f 88/88/88 89/89/89 90/90/90
v 0.49374998 1.00000000 0.43750000
vt 0.54492188 0.27539062
vn 0.00000000 0.00000000 1.00000000
v 1.00000000 0.86083075 0.43750000
vt 0.57636598 0.28408870
vn 0.00000000 0.00000000 1.00000000
v 1.00000000 1.00000000 0.43750000
vt 0.57636598 0.27539062
vn 0.00000000 0.00000000 1.00000000
f 91/91/91 92/92/92 93/93/93
v 0.49374998 0.62500000 0.43750000
vt 0.54492188 0.29882812
vn 0.00000000 0.00000000 1.00000000
v 1.00000000 0.62500000 0.43750000
vt 0.57636598 0.29882812
vn 0.00000000 0.00000000 1.00000000
v 1.00000000 0.86083075 0.43750000
vt 0.57636598 0.28408870
vn 0.00000000 0.00000000 1.00000000
f 94/94/94 95/95/95 96/96/96
v 0.63437501 0.81250000 0.57187498
vt 0.56054688 0.00195312
vn 1.00000000 0.00000000 0.00000000
v 0.63437501 0.00000000 0.57187498
vt 0.56054688 0.05273437
vn 1.00000000 0.00000000 0.00000000
v 0.63437501 0.00000000 0.51345107
vt 0.56394361 0.05273438
vn 1.00000000 0.00000000 0.00000000
f 97/97/97 98/98/98 99/99/99
v 0.63437501 0.81250000 0.57187498
vt 0.56054688 0.00195312
vn 1.00000000 0.00000000 0.00000000
v 0.63437501 0.00000000 0.51345107
vt 0.56394361 0.05273438
vn 1.00000000 0.00000000 0.00000000
v 0.63437501 0.81250000 0.43750000
vt 0.56835938 0.00195312
vn 1.00000000 0.00000000 0.00000000
f 100/100/100 101/101/101 102/102/102
v 0.63437501 0.00000000 0.43750000
vt 0.56835938 0.05273438
vn 1.00000000 0.00000000 0.00000000
v 0.63437501 0.81250000 0.43750000
vt 0.56835938 0.00195312
vn 1.00000000 0.00000000 0.00000000
v 0.63437501 0.00000000 0.51345107
vt 0.56394361 0.05273437
vn 1.00000000 0.00000000 0.00000000
f 103/103/103 104/104/104 105/105/105
v 0.53125000 0.81250000 0.43750000
vt 0.57226562 0.00195312
vn -1.00000000 0.00000000 0.00000000
v 0.53125000 0.00000000 0.43750000
vt 0.57226562 0.05273437
vn -1.00000000 0.00000000 0.00000000
v 0.53125000 0.00000000 0.49592390
vt 0.57566236 0.05273438
vn -1.00000000 0.00000000 0.00000000
f 106/106/106 107/107/107 108/108/108
v 0.53125000 0.81250000 0.43750000
vt 0.57226562 0.00195312
vn -1.00000000 0.00000000 0.00000000
v 0.53125000 0.00000000 0.49592390
vt 0.57566236 0.05273438
vn -1.00000000 0.00000000 0.00000000
v 0.53125000 0.81250000 0.57187498
vt 0.58007812 0.00195312
vn -1.00000000 0.00000000 0.00000000
f 109/109/109 110/110/110 111/111/111
v 0.53125000 0.00000000 0.57187498
vt 0.58007812 0.05273438
vn -1.00000000 0.00000000 0.00000000
v 0.53125000 0.81250000 0.57187498
vt 0.58007812 0.00195312
vn -1.00000000 0.00000000 0.00000000
v 0.53125000 0.00000000 0.49592390
vt 0.57566236 0.05273437
vn -1.00000000 0.00000000 0.00000000
f 112/112/112 113/113/113 114/114/114
v 0.53125000 0.81250000 0.43750000
vt 0.30664062 0.43164062
vn 0.00000000 1.00000000 0.00000000
v 0.53125000 0.81250000 0.57187498
vt 0.30664062 0.43945312
vn 0.00000000 1.00000000 0.00000000
v 0.63437501 0.81250000 0.43750000
vt 0.31250000 0.43164062
vn 0.00000000 1.00000000 0.00000000
f 115/115/115 116/116/116 117/117/117
v 0.53125000 0.81250000 0.57187498
vt 0.30664062 0.43945312
vn 0.00000000 1.00000000 0.00000000
v 0.63437501 0.81250000 0.57187498
vt 0.31250000 0.43945312
vn 0.00000000 1.00000000 0.00000000
v 0.63437501 0.81250000 0.43750000
vt 0.31250000 0.43164062
vn 0.00000000 1.00000000 0.00000000
f 118/118/118 119/119/119 120/120/120
v 0.53125000 0.81250000 0.57187498
vt 0.64062500 0.00195312
vn 0.00000000 0.00000000 1.00000000
v 0.53125000 0.00000000 0.57187498
vt 0.64062500 0.05273437
vn 0.00000000 0.00000000 1.00000000
v 0.57608696 0.00000000 0.57187498
vt 0.64317255 0.05273438
vn 0.00000000 0.00000000 1.00000000
f 121/121/121 122/122/122 123/123/123
v 0.53125000 0.81250000 0.57187498
vt 0.64062500 0.00195312
vn 0.00000000 0.00000000 1.00000000
v 0.57608696 0.00000000 0.57187498
vt 0.64317255 0.05273438
vn 0.00000000 0.00000000 1.00000000
v 0.63437501 0.81250000 0.57187498
vt 0.64648438 0.00195312
vn 0.00000000 0.00000000 1.00000000
f 124/124/124 125/125/125 126/126/126
v 0.63437501 0.00000000 0.57187498
vt 0.64648438 0.05273438
vn 0.00000000 0.00000000 1.00000000
v 0.63437501 0.81250000 0.57187498
vt 0.64648438 0.00195312
vn 0.00000000 0.00000000 1.00000000
v 0.57608696 0.00000000 0.57187498
vt 0.64317255 0.05273437
vn 0.00000000 0.00000000 1.00000000
f 127/127/127 128/128/128 129/129/129
v 0.63437501 0.81250000 0.43750000
vt 0.63085938 0.00195312
vn 0.00000000 0.00000000 -1.00000000
v 0.63437501 0.00000000 0.43750000
vt 0.63085938 0.05273437
vn 0.00000000 0.00000000 -1.00000000
v 0.58953805 0.00000000 0.43750000
vt 0.63340693 0.05273438
vn 0.00000000 0.00000000 -1.00000000
f 130/130/130 131/131/131 132/132/132
v 0.63437501 0.81250000 0.43750000
vt 0.63085938 0.00195312
vn 0.00000000 0.00000000 -1.00000000
v 0.58953805 0.00000000 0.43750000
vt 0.63340693 0.05273438
vn 0.00000000 0.00000000 -1.00000000
v 0.53125000 0.81250000 0.43750000
vt 0.63671875 0.00195312
vn 0.00000000 0.00000000 -1.00000000
f 133/133/133 134/134/134 135/135/135
v 0.53125000 0.00000000 0.43750000
vt 0.63671875 0.05273438
vn 0.00000000 0.00000000 -1.00000000
v 0.53125000 0.81250000 0.43750000
vt 0.63671875 0.00195312
vn 0.00000000 0.00000000 -1.00000000
v 0.58953805 0.00000000 0.43750000
vt 0.63340693 0.05273437
vn 0.00000000 0.00000000 -1.00000000
f 136/136/136 137/137/137 138/138/138
v 0.86562499 0.62500000 0.57187498
vt 0.75976562 0.00195312
vn 1.00000000 0.00000000 0.00000000
v 0.86562499 0.00000000 0.57187498
vt 0.75976562 0.04101562
vn 1.00000000 0.00000000 0.00000000
v 0.86562499 0.00000000 0.50468749
vt 0.76367188 0.04101562
vn 1.00000000 0.00000000 0.00000000
f 139/139/139 140/140/140 141/141/141
v 0.86562499 0.62500000 0.57187498
vt 0.75976562 0.00195312
vn 1.00000000 0.00000000 0.00000000
v 0.86562499 0.00000000 0.50468749
vt 0.76367188 0.04101562
vn 1.00000000 0.00000000 0.00000000
v 0.86562499 0.62500000 0.43750000
vt 0.76757812 0.00195312
vn 1.00000000 0.00000000 0.00000000
f 142/142/142 143/143/143 144/144/144
v 0.86562499 0.00000000 0.43750000
vt 0.76757812 0.04101562
vn 1.00000000 0.00000000 0.00000000
v 0.86562499 0.62500000 0.43750000
vt 0.76757812 0.00195312
vn 1.00000000 0.00000000 0.00000000
v 0.86562499 0.00000000 0.50468749
vt 0.76367188 0.04101562
vn 1.00000000 0.00000000 0.00000000
f 145/145/145 146/146/146 147/147/147
v 0.76250000 0.62500000 0.43750000
vt 0.77148438 0.00195312
vn -1.00000000 0.00000000 0.00000000
v 0.76250000 0.00000000 0.43750000
vt 0.77148438 0.04101562
vn -1.00000000 0.00000000 0.00000000
v 0.76250000 0.00000000 0.50468749
vt 0.77539062 0.04101562
vn -1.00000000 0.00000000 0.00000000
f 148/148/148 149/149/149 150/150/150
v 0.76250000 0.62500000 0.43750000
vt 0.77148438 0.00195312
vn -1.00000000 0.00000000 0.00000000
v 0.76250000 0.00000000 0.50468749
vt 0.77539062 0.04101562
vn -1.00000000 0.00000000 0.00000000
v 0.76250000 0.62500000 0.57187498
vt 0.77929688 0.00195312
vn -1.00000000 0.00000000 0.00000000
f 151/151/151 152/152/152 153/153/153
v 0.76250000 0.00000000 0.57187498
vt 0.77929688 0.04101562
vn -1.00000000 0.00000000 0.00000000
v 0.76250000 0.62500000 0.57187498
vt 0.77929688 0.00195312
vn -1.00000000 0.00000000 0.00000000
v 0.76250000 0.00000000 0.50468749
vt 0.77539062 0.04101562
vn -1.00000000 0.00000000 0.00000000
f 154/154/154 155/155/155 156/156/156
v 0.76250000 0.62500000 0.43750000
vt 0.32617188 0.43164062
vn 0.00000000 1.00000000 0.00000000
v 0.76250000 0.62500000 0.57187498
vt 0.32617188 0.43945312
vn 0.00000000 1.00000000 0.00000000
v 0.86562499 0.62500000 0.43750000
vt 0.33203125 0.43164062
vn 0.00000000 1.00000000 0.00000000
f 157/157/157 158/158/158 159/159/159
v 0.76250000 0.62500000 0.57187498
vt 0.32617188 0.43945312
vn 0.00000000 1.00000000 0.00000000
v 0.86562499 0.62500000 0.57187498
vt 0.33203125 0.43945312
vn 0.00000000 1.00000000 0.00000000
v 0.86562499 0.62500000 0.43750000
vt 0.33203125 0.43164062
vn 0.00000000 1.00000000 0.00000000
f 160/160/160 161/161/161 162/162/162
v 0.76250000 0.62500000 0.57187498
vt 0.83593750 0.00195312
vn 0.00000000 0.00000000 1.00000000
v 0.76250000 0.00000000 0.57187498
vt 0.83593750 0.04101562
vn 0.00000000 0.00000000 1.00000000
v 0.81406250 0.00000000 0.57187498
vt 0.83886719 0.04101562
vn 0.00000000 0.00000000 1.00000000
f 163/163/163 164/164/164 165/165/165
v 0.76250000 0.62500000 0.57187498
vt 0.83593750 0.00195312
vn 0.00000000 0.00000000 1.00000000
v 0.81406250 0.00000000 0.57187498
vt 0.83886719 0.04101562
vn 0.00000000 0.00000000 1.00000000
v 0.86562499 0.62500000 0.57187498
vt 0.84179688 0.00195312
vn 0.00000000 0.00000000 1.00000000
f 166/166/166 167/167/167 168/168/168
v 0.86562499 0.00000000 0.57187498
vt 0.84179688 0.04101562
vn 0.00000000 0.00000000 1.00000000
v 0.86562499 0.62500000 0.57187498
vt 0.84179688 0.00195312
vn 0.00000000 0.00000000 1.00000000
v 0.81406250 0.00000000 0.57187498
vt 0.83886719 0.04101562
vn 0.00000000 0.00000000 1.00000000
f 169/169/169 170/170/170 171/171/171
v 0.86562499 0.62500000 0.43750000
vt 0.82617188 0.00195312
vn 0.00000000 0.00000000 -1.00000000
v 0.86562499 0.00000000 0.43750000
vt 0.82617188 0.04101562
vn 0.00000000 0.00000000 -1.00000000
v 0.81406250 0.00000000 0.43750000
vt 0.82910156 0.04101562
vn 0.00000000 0.00000000 -1.00000000
f 172/172/172 173/173/173 174/174/174
v 0.86562499 0.62500000 0.43750000
vt 0.82617188 0.00195312
vn 0.00000000 0.00000000 -1.00000000
v 0.81406250 0.00000000 0.43750000
vt 0.82910156 0.04101562
vn 0.00000000 0.00000000 -1.00000000
v 0.76250000 0.62500000 0.43750000
vt 0.83203125 0.00195312
vn 0.00000000 0.00000000 -1.00000000
f 175/175/175 176/176/176 177/177/177
v 0.76250000 0.00000000 0.43750000
vt 0.83203125 0.04101562
vn 0.00000000 0.00000000 -1.00000000
v 0.76250000 0.62500000 0.43750000
vt 0.83203125 0.00195312
vn 0.00000000 0.00000000 -1.00000000
v 0.81406250 0.00000000 0.43750000
vt 0.82910156 0.04101562
vn 0.00000000 0.00000000 -1.00000000
f 178/178/178 179/179/179 180/180/180
v 0.56190588 0.43184612 0.43125000
vt 0.90820312 0.00195312
vn 0.99756405 -0.06975647 0.00000000
v 0.53170826 0.00000000 0.43125000
vt 0.90820312 0.02900942
vn 0.99756405 -0.06975647 0.00000000
v 0.53170826 0.00000000 0.17570673
vt 0.92440605 0.02900942
vn 0.99756405 -0.06975647 0.00000000
f 181/181/181 182/182/182 183/183/183
v 0.56190588 0.43184612 0.43125000
vt 0.90820312 0.00195312
vn 0.99756405 -0.06975647 0.00000000
v 0.53170826 0.00000000 0.17570673
vt 0.92440605 0.02900942
vn 0.99756405 -0.06975647 0.00000000
v 0.56190588 0.43184612 -0.00000000
vt 0.93554688 0.00195312
vn 0.99756405 -0.06975647 0.00000000
f 184/184/184 185/185/185 186/186/186
v 0.53170826 0.00000000 -0.00000000
vt 0.93554688 0.02900942
vn 0.99756405 -0.06975647 0.00000000
v 0.56190588 0.43184612 -0.00000000
vt 0.93554688 0.00195312
vn 0.99756405 -0.06975647 0.00000000
v 0.53170826 0.00000000 0.17570673
vt 0.92440605 0.02900942
vn 0.99756405 -0.06975647 0.00000000
f 187/187/187 188/188/188 189/189/189
v 0.43721037 0.44056568 -0.00000000
vt 0.93945312 0.00195312
vn -0.99756405 0.06975647 0.00000000
v 0.40640302 0.00000000 -0.00000000
vt 0.93945312 0.02955572
vn -0.99756405 0.06975647 0.00000000
v 0.40640302 0.00000000 0.25199551
vt 0.95543110 0.02955572
vn -0.99756405 0.06975647 0.00000000
f 190/190/190 191/191/191 192/192/192
v 0.43721037 0.44056568 -0.00000000
vt 0.93945312 0.00195312
vn -0.99756405 0.06975647 0.00000000
v 0.40640302 0.00000000 0.25199551
vt 0.95543110 0.02955572
vn -0.99756405 0.06975647 0.00000000
v 0.43721037 0.44056568 0.43125000
vt 0.96679688 0.00195312
vn -0.99756405 0.06975647 0.00000000
f 193/193/193 194/194/194 195/195/195
v 0.40640302 0.00000000 0.43125000
vt 0.96679688 0.02955572
vn -0.99756405 0.06975647 0.00000000
v 0.43721037 0.44056568 0.43125000
vt 0.96679688 0.00195312
vn -0.99756405 0.06975647 0.00000000
v 0.40640302 0.00000000 0.25199551
vt 0.95543110 0.02955572
vn -0.99756405 0.06975647 0.00000000
f 196/196/196 197/197/197 198/198/198
v 0.43721037 0.44056568 -0.00000000
vt 0.28906250 0.30468750
vn 0.06975647 0.99756405 0.00000000
v 0.43721037 0.44056568 0.43125000
vt 0.28906250 0.33203125
vn 0.06975647 0.99756405 0.00000000
v 0.56190588 0.43184612 -0.00000000
vt 0.29687500 0.30468750
vn 0.06975647 0.99756405 0.00000000
f 199/199/199 200/200/200 201/201/201
v 0.43721037 0.44056568 0.43125000
vt 0.28906250 0.33203125
vn 0.06975647 0.99756405 0.00000000
v 0.56190588 0.43184612 0.43125000
vt 0.29687500 0.33203125
vn 0.06975647 0.99756405 0.00000000
v 0.56190588 0.43184612 -0.00000000
vt 0.29687500 0.30468750
vn 0.06975647 0.99756405 0.00000000
f 202/202/202 203/203/203 204/204/204
v 0.43721037 0.44056568 0.43125000
vt 0.04492188 0.14843750
vn 0.00000000 0.00000000 1.00000000
v 0.40640302 0.00000000 0.43125000
vt 0.04492188 0.17604009
vn 0.00000000 0.00000000 1.00000000
v 0.48023092 0.00000000 0.43125000
vt 0.04952488 0.17571822
vn 0.00000000 0.00000000 1.00000000
f 205/205/205 206/206/206 207/207/207
v 0.43721037 0.44056568 0.43125000
vt 0.04492188 0.14843750
vn 0.00000000 0.00000000 1.00000000
v 0.48023092 0.00000000 0.43125000
vt 0.04952488 0.17571822
vn 0.00000000 0.00000000 1.00000000
v 0.56190588 0.43184612 0.43125000
vt 0.05273438 0.14843750
vn 0.00000000 0.00000000 1.00000000
f 208/208/208 209/209/209 210/210/210
v 0.53170826 0.00000000 0.43125000
vt 0.05273438 0.17549379
vn 0.00000000 0.00000000 1.00000000
v 0.56190588 0.43184612 0.43125000
vt 0.05273438 0.14843750
vn 0.00000000 0.00000000 1.00000000
v 0.48023092 0.00000000 0.43125000
vt 0.04952488 0.17571822
vn 0.00000000 0.00000000 1.00000000
f 211/211/211 212/212/212 213/213/213
v 0.56190588 0.43184612 -0.00000000
vt 0.03320312 0.14843750
vn 0.00000000 0.00000000 -1.00000000
v 0.53170826 0.00000000 -0.00000000
vt 0.03320312 0.17549379
vn 0.00000000 0.00000000 -1.00000000
v 0.45806273 0.00000000 -0.00000000
vt 0.03779476 0.17581487
vn 0.00000000 0.00000000 -1.00000000
f 214/214/214 215/215/215 216/216/216
v 0.56190588 0.43184612 -0.00000000
vt 0.03320312 0.14843750
vn 0.00000000 0.00000000 -1.00000000
v 0.45806273 0.00000000 -0.00000000
vt 0.03779476 0.17581487
vn 0.00000000 0.00000000 -1.00000000
v 0.43721037 0.44056568 -0.00000000
vt 0.04101562 0.14843750
vn 0.00000000 0.00000000 -1.00000000
f 217/217/217 218/218/218 219/219/219
v 0.40640302 0.00000000 -0.00000000
vt 0.04101562 0.17604009
vn 0.00000000 0.00000000 -1.00000000
v 0.43721037 0.44056568 -0.00000000
vt 0.04101562 0.14843750
vn 0.00000000 0.00000000 -1.00000000
v 0.45806273 0.00000000 -0.00000000
vt 0.03779476 0.17581487
vn 0.00000000 0.00000000 -1.00000000
f 220/220/220 221/221/221 222/222/222
v 0.50624999 0.50790895 0.00000000
vt 0.19842303 0.42493731
vn -1.00000000 0.00000000 0.00000000
v 0.50624999 0.57812500 0.48750001
vt 0.22851562 0.41992188
vn -1.00000000 0.00000000 0.00000000
v 0.50624999 0.57812500 0.00000000
vt 0.19842303 0.41992188
vn -1.00000000 0.00000000 0.00000000
f 223/223/223 224/224/224 225/225/225
v 0.50624999 0.46875000 0.00000000
vt 0.19842303 0.42773438
vn -1.00000000 0.00000000 0.00000000
v 0.50624999 0.46875000 0.48750001
vt 0.22851562 0.42773438
vn -1.00000000 0.00000000 0.00000000
v 0.50624999 0.57812500 0.48750001
vt 0.22851562 0.41992188
vn -1.00000000 0.00000000 0.00000000
f 226/226/226 227/227/227 228/228/228
v 0.50624999 0.46875000 0.00000000
vt 0.19842303 0.42773438
vn -1.00000000 0.00000000 0.00000000
v 0.50624999 0.57812500 0.48750001
vt 0.22851562 0.41992188
vn -1.00000000 0.00000000 0.00000000
v 0.50624999 0.50790895 0.00000000
vt 0.19842303 0.42493731
vn -1.00000000 0.00000000 0.00000000
f 229/229/229 230/230/230 231/231/231
v 0.50624999 0.57812500 0.00000000
vt 0.00195312 0.23553241
vn 0.00000000 1.00000000 0.00000000
v 0.50624999 0.57812500 0.48750001
vt 0.00195312 0.26562500
vn 0.00000000 1.00000000 0.00000000
v 1.00000000 0.57812500 0.10294471
vt 0.03261468 0.24188702
vn 0.00000000 1.00000000 0.00000000
f 232/232/232 233/233/233 234/234/234
v 0.50624999 0.57812500 0.00000000
vt 0.00195312 0.23553241
vn 0.00000000 1.00000000 0.00000000
v 1.00000000 0.57812500 0.10294471
vt 0.03261468 0.24188702
vn 0.00000000 1.00000000 0.00000000
v 1.00000000 0.57812500 0.00000000
vt 0.03261468 0.23553241
vn 0.00000000 1.00000000 0.00000000
f 235/235/235 236/236/236 237/237/237
v 0.50624999 0.57812500 0.48750001
vt 0.00195312 0.26562500
vn 0.00000000 1.00000000 0.00000000
v 1.00000000 0.57812500 0.48750001
vt 0.03261468 0.26562500
vn 0.00000000 1.00000000 0.00000000
v 1.00000000 0.57812500 0.10294471
vt 0.03261468 0.24188702
vn 0.00000000 1.00000000 0.00000000
f 238/238/238 239/239/239 240/240/240
v 0.50624999 0.46875000 0.48750001
vt 0.06640625 0.21875000
vn 0.00000000 -1.00000000 0.00000000
v 0.50624999 0.46875000 0.00000000
vt 0.06640625 0.24884259
vn 0.00000000 -1.00000000 0.00000000
v 0.85532406 0.46875000 0.00000000
vt 0.08808353 0.24884259
vn 0.00000000 -1.00000000 0.00000000
f 241/241/241 242/242/242 243/243/243
v 0.50624999 0.46875000 0.48750001
vt 0.06640625 0.21875000
vn 0.00000000 -1.00000000 0.00000000
v 0.85532406 0.46875000 0.00000000
vt 0.08808353 0.24884259
vn 0.00000000 -1.00000000 0.00000000
v 1.00000000 0.46875000 0.11268030
vt 0.09706781 0.24188702
vn 0.00000000 -1.00000000 0.00000000
f 244/244/244 245/245/245 246/246/246
v 0.50624999 0.46875000 0.48750001
vt 0.06640625 0.21875000
vn 0.00000000 -1.00000000 0.00000000
v 1.00000000 0.46875000 0.11268030
vt 0.09706781 0.24188702
vn 0.00000000 -1.00000000 0.00000000
v 1.00000000 0.46875000 0.48750001
vt 0.09706781 0.21875000
vn 0.00000000 -1.00000000 0.00000000
f 247/247/247 248/248/248 249/249/249
v 1.00000000 0.46875000 0.00000000
vt 0.09706781 0.24884259
vn 0.00000000 -1.00000000 0.00000000
v 1.00000000 0.46875000 0.11268030
vt 0.09706781 0.24188702
vn 0.00000000 -1.00000000 0.00000000
v 0.85532406 0.46875000 0.00000000
vt 0.08808353 0.24884259
vn 0.00000000 -1.00000000 0.00000000
f 250/250/250 251/251/251 252/252/252
v 0.50624999 0.57812500 0.48750001
vt 0.06640625 0.41992188
vn 0.00000000 0.00000000 1.00000000
v 0.50624999 0.46875000 0.48750001
vt 0.06640625 0.42773438
vn 0.00000000 0.00000000 1.00000000
v 1.00000000 0.52413862 0.48750001
vt 0.09706781 0.42377804
vn 0.00000000 0.00000000 1.00000000
f 253/253/253 254/254/254 255/255/255
v 0.50624999 0.57812500 0.48750001
vt 0.06640625 0.41992188
vn 0.00000000 0.00000000 1.00000000
v 1.00000000 0.52413862 0.48750001
vt 0.09706781 0.42377804
vn 0.00000000 0.00000000 1.00000000
v 1.00000000 0.57812500 0.48750001
vt 0.09706781 0.41992188
vn 0.00000000 0.00000000 1.00000000
f 256/256/256 257/257/257 258/258/258
v 0.50624999 0.46875000 0.48750001
vt 0.06640625 0.42773438
vn 0.00000000 0.00000000 1.00000000
v 1.00000000 0.46875000 0.48750001
vt 0.09706781 0.42773438
vn 0.00000000 0.00000000 1.00000000
v 1.00000000 0.52413862 0.48750001
vt 0.09706781 0.42377804
vn 0.00000000 0.00000000 1.00000000
f 259/259/259 260/260/260 261/261/261
v 0.44375002 0.95467033 0.00000000
vt 0.23435354 0.38173935
vn -1.00000000 0.00000000 0.00000000
v 0.44375002 1.00000000 0.08250000
vt 0.23945312 0.37890625
vn -1.00000000 0.00000000 0.00000000
v 0.44375002 1.00000000 0.00000000
vt 0.23435354 0.37890625
vn -1.00000000 0.00000000 0.00000000
f 262/262/262 263/263/263 264/264/264
v 0.44375002 0.93750000 0.00000000
vt 0.23435354 0.38281250
vn -1.00000000 0.00000000 0.00000000
v 0.44375002 0.93750000 0.53750002
vt 0.26757812 0.38281250
vn -1.00000000 0.00000000 0.00000000
v 0.44375002 1.00000000 0.53750002
vt 0.26757812 0.37890625
vn -1.00000000 0.00000000 0.00000000
f 265/265/265 266/266/266 267/267/267
v 0.44375002 0.93750000 0.00000000
vt 0.23435354 0.38281250
vn -1.00000000 0.00000000 0.00000000
v 0.44375002 1.00000000 0.53750002
vt 0.26757812 0.37890625
vn -1.00000000 0.00000000 0.00000000
v 0.44375002 1.00000000 0.08250000
vt 0.23945312 0.37890625
vn -1.00000000 0.00000000 0.00000000
f 268/268/268 269/269/269 270/270/270
v 0.44375002 0.93750000 0.00000000
vt 0.23435354 0.38281250
vn -1.00000000 0.00000000 0.00000000
v 0.44375002 1.00000000 0.08250000
vt 0.23945312 0.37890625
vn -1.00000000 0.00000000 0.00000000
v 0.44375002 0.95467033 0.00000000
vt 0.23435354 0.38173935
vn -1.00000000 0.00000000 0.00000000
f 271/271/271 272/272/272 273/273/273
v 0.44375002 0.93750000 0.53750002
vt 0.74804688 0.21875000
vn 0.00000000 -1.00000000 0.00000000
v 0.44375002 0.93750000 0.00000000
vt 0.74804688 0.25197459
vn 0.00000000 -1.00000000 0.00000000
v 0.50247255 0.93750000 0.00000000
vt 0.75169557 0.25197459
vn 0.00000000 -1.00000000 0.00000000
f 274/274/274 275/275/275 276/276/276
v 0.44375002 0.93750000 0.53750002
vt 0.74804688 0.21875000
vn 0.00000000 -1.00000000 0.00000000
v 0.50247255 0.93750000 0.00000000
vt 0.75169557 0.25197459
vn 0.00000000 -1.00000000 0.00000000
v 1.00000000 0.93750000 0.26476609
vt 0.78260919 0.23560855
vn 0.00000000 -1.00000000 0.00000000
f 277/277/277 278/278/278 279/279/279
v 0.44375002 0.93750000 0.53750002
vt 0.74804688 0.21875000
vn 0.00000000 -1.00000000 0.00000000
v 1.00000000 0.93750000 0.26476609
vt 0.78260919 0.23560855
vn 0.00000000 -1.00000000 0.00000000
v 1.00000000 0.93750000 0.53750002
vt 0.78260919 0.21875000
vn 0.00000000 -1.00000000 0.00000000
f 280/280/280 281/281/281 282/282/282
v 1.00000000 0.93750000 0.00000000
vt 0.78260919 0.25197459
vn 0.00000000 -1.00000000 0.00000000
v 1.00000000 0.93750000 0.26476609
vt 0.78260919 0.23560855
vn 0.00000000 -1.00000000 0.00000000
v 0.50247255 0.93750000 0.00000000
vt 0.75169557 0.25197459
vn 0.00000000 -1.00000000 0.00000000
f 283/283/283 284/284/284 285/285/285
v 0.44375002 1.00000000 0.53750002
vt 0.68750000 0.35351562
vn 0.00000000 0.00000000 1.00000000
v 0.44375002 0.93750000 0.53750002
vt 0.68750000 0.35742188
vn 0.00000000 0.00000000 1.00000000
v 0.65750002 1.00000000 0.53750002
vt 0.70078125 0.35351562
vn 0.00000000 0.00000000 1.00000000
f 286/286/286 287/287/287 288/288/288
v 0.44375002 0.93750000 0.53750002
vt 0.68750000 0.35742188
vn 0.00000000 0.00000000 1.00000000
v 1.00000000 0.93750000 0.53750002
vt 0.72206232 0.35742188
vn 0.00000000 0.00000000 1.00000000
v 1.00000000 1.00000000 0.53750002
vt 0.72206232 0.35351562
vn 0.00000000 0.00000000 1.00000000
f 289/289/289 290/290/290 291/291/291
v 0.44375002 0.93750000 0.53750002
vt 0.68750000 0.35742188
vn 0.00000000 0.00000000 1.00000000
v 1.00000000 1.00000000 0.53750002
vt 0.72206232 0.35351562
vn 0.00000000 0.00000000 1.00000000
v 0.65750002 1.00000000 0.53750002
vt 0.70078125 0.35351562
vn 0.00000000 0.00000000 1.00000000
f 292/292/292 293/293/293 294/294/294
v 0.66640119 1.00000000 0.42187501
vt 0.92187500 0.31486297
vn 0.97814760 -0.20791169 0.00000000
v 0.62946515 0.82622956 0.42187501
vt 0.92187500 0.32617188
vn 0.97814760 -0.20791169 0.00000000
v 0.66640119 1.00000000 0.07479451
vt 0.94346472 0.31486297
vn 0.97814760 -0.20791169 0.00000000
f 295/295/295 296/296/296 297/297/297
v 0.62946515 0.82622956 0.42187501
vt 0.92187500 0.32617188
vn 0.97814760 -0.20791169 0.00000000
v 0.62946515 0.82622956 0.00000000
vt 0.94811722 0.32617188
vn 0.97814760 -0.20791169 0.00000000
v 0.66640119 1.00000000 0.00000000
vt 0.94811722 0.31486297
vn 0.97814760 -0.20791169 0.00000000
f 298/298/298 299/299/299 300/300/300
v 0.62946515 0.82622956 0.42187501
vt 0.92187500 0.32617188
vn 0.97814760 -0.20791169 0.00000000
v 0.66640119 1.00000000 0.00000000
vt 0.94811722 0.31486297
vn 0.97814760 -0.20791169 0.00000000
v 0.66640119 1.00000000 0.07479451
vt 0.94346472 0.31486297
vn 0.97814760 -0.20791169 0.00000000
f 301/301/301 302/302/302 303/303/303
v 0.25348966 0.90614562 0.00000000
vt 0.01672653 0.35937500
vn -0.97814760 0.20791169 0.00000000
v 0.25348966 0.90614562 0.42187501
vt 0.04296875 0.35937500
vn -0.97814760 0.20791169 0.00000000
v 0.27343902 1.00000000 0.42187501
vt 0.04296875 0.35326700
vn -0.97814760 0.20791169 0.00000000
f 304/304/304 305/305/305 306/306/306
v 0.25348966 0.90614562 0.00000000
vt 0.01672653 0.35937500
vn -0.97814760 0.20791169 0.00000000
v 0.27343902 1.00000000 0.42187501
vt 0.04296875 0.35326700
vn -0.97814760 0.20791169 0.00000000
v 0.27343902 1.00000000 0.00000000
vt 0.01672653 0.35326700
vn -0.97814760 0.20791169 0.00000000
f 307/307/307 308/308/308 309/309/309
v 0.25348966 0.90614562 0.42187501
vt 0.47851562 0.21875000
vn -0.20791169 -0.97814760 0.00000000
v 0.25348966 0.90614562 0.00000000
vt 0.47851562 0.24499222
vn -0.20791169 -0.97814760 0.00000000
v 0.38891211 0.87736069 0.00000000
vt 0.48695757 0.24499222
vn -0.20791169 -0.97814760 0.00000000
f 310/310/310 311/311/311 312/312/312
v 0.25348966 0.90614562 0.42187501
vt 0.47851562 0.21875000
vn -0.20791169 -0.97814760 0.00000000
v 0.38891211 0.87736069 0.00000000
vt 0.48695757 0.24499222
vn -0.20791169 -0.97814760 0.00000000
v 0.62946515 0.82622956 0.42187501
vt 0.50195312 0.21875000
vn -0.20791169 -0.97814760 0.00000000
f 313/313/313 314/314/314 315/315/315
v 0.62946515 0.82622956 0.00000000
vt 0.50195312 0.24499222
vn -0.20791169 -0.97814760 0.00000000
v 0.62946515 0.82622956 0.42187501
vt 0.50195312 0.21875000
vn -0.20791169 -0.97814760 0.00000000
v 0.38891211 0.87736069 0.00000000
vt 0.48695757 0.24499222
vn -0.20791169 -0.97814760 0.00000000
f 316/316/316 317/317/317 318/318/318
v 0.27343902 1.00000000 0.42187501
vt 0.32421875 0.35326700
vn 0.00000000 0.00000000 1.00000000
v 0.25348966 0.90614562 0.42187501
vt 0.32421875 0.35937500
vn 0.00000000 0.00000000 1.00000000
v 0.42084082 1.00000000 0.42187501
vt 0.33301026 0.35131612
vn 0.00000000 0.00000000 1.00000000
f 319/319/319 320/320/320 321/321/321
v 0.25348966 0.90614562 0.42187501
vt 0.32421875 0.35937500
vn 0.00000000 0.00000000 1.00000000
v 0.62946515 0.82622956 0.42187501
vt 0.34765625 0.35937500
vn 0.00000000 0.00000000 1.00000000
v 0.66640119 1.00000000 0.42187501
vt 0.34765625 0.34806610
vn 0.00000000 0.00000000 1.00000000
f 322/322/322 323/323/323 324/324/324
v 0.25348966 0.90614562 0.42187501
vt 0.32421875 0.35937500
vn 0.00000000 0.00000000 1.00000000
v 0.66640119 1.00000000 0.42187501
vt 0.34765625 0.34806610
vn 0.00000000 0.00000000 1.00000000
v 0.42084082 1.00000000 0.42187501
vt 0.33301026 0.35131612
vn 0.00000000 0.00000000 1.00000000
f 325/325/325 326/326/326 327/327/327
v 0.61922459 0.95805355 0.23749999
vt 0.62109375 0.30468750
vn 0.99026807 -0.13917310 0.00000000
v 0.56529501 0.57432469 0.23749999
vt 0.62109375 0.32812500
vn 0.99026807 -0.13917310 0.00000000
v 0.59190961 0.76369737 0.00000000
vt 0.63555195 0.31655844
vn 0.99026807 -0.13917310 0.00000000
f 328/328/328 329/329/329 330/330/330
v 0.61922459 0.95805355 0.23749999
vt 0.62109375 0.30468750
vn 0.99026807 -0.13917310 0.00000000
v 0.59190961 0.76369737 0.00000000
vt 0.63555195 0.31655844
vn 0.99026807 -0.13917310 0.00000000
v 0.61922459 0.95805355 0.00000000
vt 0.63555195 0.30468750
vn 0.99026807 -0.13917310 0.00000000
f 331/331/331 332/332/332 333/333/333
v 0.56529501 0.57432469 0.23749999
vt 0.62109375 0.32812500
vn 0.99026807 -0.13917310 0.00000000
v 0.56529501 0.57432469 0.00000000
vt 0.63555195 0.32812500
vn 0.99026807 -0.13917310 0.00000000
v 0.59190961 0.76369737 0.00000000
vt 0.63555195 0.31655844
vn 0.99026807 -0.13917310 0.00000000
f 334/334/334 335/335/335 336/336/336
v 0.28934039 0.81130263 0.00000000
vt 0.66913555 0.31625406
vn -0.99026807 0.13917310 0.00000000
v 0.31586008 1.00000000 0.23665306
vt 0.68354219 0.30472875
vn -0.99026807 0.13917310 0.00000000
v 0.31586008 1.00000000 0.00000000
vt 0.66913555 0.30472875
vn -0.99026807 0.13917310 0.00000000
f 337/337/337 338/338/338 339/339/339
v 0.26202541 0.61694645 0.00000000
vt 0.66913555 0.32812500
vn -0.99026807 0.13917310 0.00000000
v 0.26202541 0.61694645 0.23749999
vt 0.68359375 0.32812500
vn -0.99026807 0.13917310 0.00000000
v 0.31586008 1.00000000 0.23749999
vt 0.68359375 0.30472875
vn -0.99026807 0.13917310 0.00000000
f 340/340/340 341/341/341 342/342/342
v 0.26202541 0.61694645 0.00000000
vt 0.66913555 0.32812500
vn -0.99026807 0.13917310 0.00000000
v 0.31586008 1.00000000 0.23749999
vt 0.68359375 0.30472875
vn -0.99026807 0.13917310 0.00000000
v 0.31586008 1.00000000 0.23665306
vt 0.68354219 0.30472875
vn -0.99026807 0.13917310 0.00000000
f 343/343/343 344/344/344 345/345/345
v 0.26202541 0.61694645 0.00000000
vt 0.66913555 0.32812500
vn -0.99026807 0.13917310 0.00000000
v 0.31586008 1.00000000 0.23665306
vt 0.68354219 0.30472875
vn -0.99026807 0.13917310 0.00000000
v 0.28934039 0.81130263 0.00000000
vt 0.66913555 0.31625406
vn -0.99026807 0.13917310 0.00000000
f 346/346/346 347/347/347 348/348/348
v 0.32076009 1.00000000 0.22987490
vt 0.18780946 0.33352019
vn 0.13917310 0.99026807 0.00000000
v 0.46562050 0.97964120 0.00000000
vt 0.19713880 0.31952618
vn 0.13917310 0.99026807 0.00000000
v 0.32076009 1.00000000 0.00000000
vt 0.18780946 0.31952618
vn 0.13917310 0.99026807 0.00000000
f 349/349/349 350/350/350 351/351/351
v 0.32076009 1.00000000 0.23749999
vt 0.18780946 0.33398438
vn 0.13917310 0.99026807 0.00000000
v 0.61922459 0.95805355 0.23749999
vt 0.20703125 0.33398438
vn 0.13917310 0.99026807 0.00000000
v 0.61922459 0.95805355 0.00000000
vt 0.20703125 0.31952618
vn 0.13917310 0.99026807 0.00000000
f 352/352/352 353/353/353 354/354/354
v 0.32076009 1.00000000 0.23749999
vt 0.18780946 0.33398438
vn 0.13917310 0.99026807 0.00000000
v 0.61922459 0.95805355 0.00000000
vt 0.20703125 0.31952618
vn 0.13917310 0.99026807 0.00000000
v 0.46562050 0.97964120 0.00000000
vt 0.19713880 0.31952618
vn 0.13917310 0.99026807 0.00000000
f 355/355/355 356/356/356 357/357/357
v 0.32076009 1.00000000 0.23749999
vt 0.18780946 0.33398438
vn 0.13917310 0.99026807 0.00000000
v 0.46562050 0.97964120 0.00000000
vt 0.19713880 0.31952618
vn 0.13917310 0.99026807 0.00000000
v 0.32076009 1.00000000 0.22987490
vt 0.18780946 0.33352019
vn 0.13917310 0.99026807 0.00000000
f 358/358/358 359/359/359 360/360/360
v 0.26202541 0.61694645 0.23749999
vt 0.21093750 0.30468750
vn -0.13917310 -0.99026807 0.00000000
v 0.26202541 0.61694645 0.00000000
vt 0.21093750 0.31914570
vn -0.13917310 -0.99026807 0.00000000
v 0.41562950 0.59535880 0.00000000
vt 0.22082995 0.31914570
vn -0.13917310 -0.99026807 0.00000000
f 361/361/361 362/362/362 363/363/363
v 0.26202541 0.61694645 0.23749999
vt 0.21093750 0.30468750
vn -0.13917310 -0.99026807 0.00000000
v 0.41562950 0.59535880 0.00000000
vt 0.22082995 0.31914570
vn -0.13917310 -0.99026807 0.00000000
v 0.56529501 0.57432469 0.23749999
vt 0.23046875 0.30468750
vn -0.13917310 -0.99026807 0.00000000
f 364/364/364 365/365/365 366/366/366
v 0.56529501 0.57432469 0.00000000
vt 0.23046875 0.31914570
vn -0.13917310 -0.99026807 0.00000000
v 0.56529501 0.57432469 0.23749999
vt 0.23046875 0.30468750
vn -0.13917310 -0.99026807 0.00000000
v 0.41562950 0.59535880 0.00000000
vt 0.22082995 0.31914570
vn -0.13917310 -0.99026807 0.00000000
f 367/367/367 368/368/368 369/369/369
v 0.31586008 1.00000000 0.23749999
vt 0.75781250 0.30472875
vn 0.00000000 0.00000000 1.00000000
v 0.26202541 0.61694645 0.23749999
vt 0.75781250 0.32812500
vn 0.00000000 0.00000000 1.00000000
v 0.61922459 0.95805355 0.23749999
vt 0.77734375 0.30468750
vn 0.00000000 0.00000000 1.00000000
f 370/370/370 371/371/371 372/372/372
v 0.31586008 1.00000000 0.23749999
vt 0.75781250 0.30472875
vn 0.00000000 0.00000000 1.00000000
v 0.61922459 0.95805355 0.23749999
vt 0.77734375 0.30468750
vn 0.00000000 0.00000000 1.00000000
v 0.32076009 1.00000000 0.23749999
vt 0.75812196 0.30468750
vn 0.00000000 0.00000000 1.00000000
f 373/373/373 374/374/374 375/375/375
v 0.26202541 0.61694645 0.23749999
vt 0.75781250 0.32812500
vn 0.00000000 0.00000000 1.00000000
v 0.56529501 0.57432469 0.23749999
vt 0.77734375 0.32812500
vn 0.00000000 0.00000000 1.00000000
v 0.61922459 0.95805355 0.23749999
vt 0.77734375 0.30468750
vn 0.00000000 0.00000000 1.00000000
f 376/376/376 377/377/377 378/378/378
v 0.55000001 0.72500002 0.06875000
vt 0.22656250 0.33789062
vn 1.00000000 0.00000000 0.00000000
v 0.55000001 0.37500000 0.06875000
vt 0.22656250 0.35937500
vn 1.00000000 0.00000000 0.00000000
v 0.55000001 0.42435898 0.00000000
vt 0.23096955 0.35634515
vn 1.00000000 0.00000000 0.00000000
f 379/379/379 380/380/380 381/381/381
v 0.55000001 0.72500002 0.06875000
vt 0.22656250 0.33789062
vn 1.00000000 0.00000000 0.00000000
v 0.55000001 0.42435898 0.00000000
vt 0.23096955 0.35634515
vn 1.00000000 0.00000000 0.00000000
v 0.55000001 0.72500002 0.00000000
vt 0.23096955 0.33789062
vn 1.00000000 0.00000000 0.00000000
f 382/382/382 383/383/383 384/384/384
v 0.55000001 0.37500000 0.06875000
vt 0.22656250 0.35937500
vn 1.00000000 0.00000000 0.00000000
v 0.55000001 0.37500000 0.00000000
vt 0.23096955 0.35937500
vn 1.00000000 0.00000000 0.00000000
v 0.55000001 0.42435898 0.00000000
vt 0.23096955 0.35634515
vn 1.00000000 0.00000000 0.00000000
f 385/385/385 386/386/386 387/387/387
v 0.24374998 0.67564104 0.00000000
vt 0.28856170 0.34092047
vn -1.00000000 0.00000000 0.00000000
v 0.24374998 0.72500002 0.06875000
vt 0.29296875 0.33789062
vn -1.00000000 0.00000000 0.00000000
v 0.24374998 0.72500002 0.00000000
vt 0.28856170 0.33789062
vn -1.00000000 0.00000000 0.00000000
f 388/388/388 389/389/389 390/390/390
v 0.24374998 0.37500000 0.00000000
vt 0.28856170 0.35937500
vn -1.00000000 0.00000000 0.00000000
v 0.24374998 0.37500000 0.06875000
vt 0.29296875 0.35937500
vn -1.00000000 0.00000000 0.00000000
v 0.24374998 0.72500002 0.06875000
vt 0.29296875 0.33789062
vn -1.00000000 0.00000000 0.00000000
f 391/391/391 392/392/392 393/393/393
v 0.24374998 0.37500000 0.00000000
vt 0.28856170 0.35937500
vn -1.00000000 0.00000000 0.00000000
v 0.24374998 0.72500002 0.06875000
vt 0.29296875 0.33789062
vn -1.00000000 0.00000000 0.00000000
v 0.24374998 0.67564104 0.00000000
vt 0.28856170 0.34092047
vn -1.00000000 0.00000000 0.00000000
f 394/394/394 395/395/395 396/396/396
v 0.24374998 0.72500002 0.00000000
vt 0.33007812 0.29637420
vn 0.00000000 1.00000000 0.00000000
v 0.24374998 0.72500002 0.06875000
vt 0.33007812 0.30078125
vn 0.00000000 1.00000000 0.00000000
v 0.28693909 0.72500002 0.00000000
vt 0.33283253 0.29637420
vn 0.00000000 1.00000000 0.00000000
f 397/397/397 398/398/398 399/399/399
v 0.24374998 0.72500002 0.06875000
vt 0.33007812 0.30078125
vn 0.00000000 1.00000000 0.00000000
v 0.55000001 0.72500002 0.06875000
vt 0.34960938 0.30078125
vn 0.00000000 1.00000000 0.00000000
v 0.55000001 0.72500002 0.00000000
vt 0.34960938 0.29637420
vn 0.00000000 1.00000000 0.00000000
f 400/400/400 401/401/401 402/402/402
v 0.24374998 0.72500002 0.06875000
vt 0.33007812 0.30078125
vn 0.00000000 1.00000000 0.00000000
v 0.55000001 0.72500002 0.00000000
vt 0.34960938 0.29637420
vn 0.00000000 1.00000000 0.00000000
v 0.28693909 0.72500002 0.00000000
vt 0.33283253 0.29637420
vn 0.00000000 1.00000000 0.00000000
f 403/403/403 404/404/404 405/405/405
v 0.24374998 0.37500000 0.06875000
vt 0.35351562 0.26953125
vn 0.00000000 -1.00000000 0.00000000
v 0.24374998 0.37500000 0.00000000
vt 0.35351562 0.27393830
vn 0.00000000 -1.00000000 0.00000000
v 0.50681090 0.37500000 0.00000000
vt 0.37029247 0.27393830
vn 0.00000000 -1.00000000 0.00000000
f 406/406/406 407/407/407 408/408/408
v 0.24374998 0.37500000 0.06875000
vt 0.35351562 0.26953125
vn 0.00000000 -1.00000000 0.00000000
v 0.50681090 0.37500000 0.00000000
vt 0.37029247 0.27393830
vn 0.00000000 -1.00000000 0.00000000
v 0.55000001 0.37500000 0.06875000
vt 0.37304688 0.26953125
vn 0.00000000 -1.00000000 0.00000000
f 409/409/409 410/410/410 411/411/411
v 0.55000001 0.37500000 0.00000000
vt 0.37304688 0.27393830
vn 0.00000000 -1.00000000 0.00000000
v 0.55000001 0.37500000 0.06875000
vt 0.37304688 0.26953125
vn 0.00000000 -1.00000000 0.00000000
v 0.50681090 0.37500000 0.00000000
vt 0.37029247 0.27393830
vn 0.00000000 -1.00000000 0.00000000
f 412/412/412 413/413/413 414/414/414
v 0.24374998 0.72500002 0.06875000
vt 0.37500000 0.33789062
vn 0.00000000 0.00000000 1.00000000
v 0.24374998 0.37500000 0.06875000
vt 0.37500000 0.35937500
vn 0.00000000 0.00000000 1.00000000
v 0.55000001 0.72500002 0.06875000
vt 0.39453125 0.33789062
vn 0.00000000 0.00000000 1.00000000
f 415/415/415 416/416/416 417/417/417
v 0.24374998 0.37500000 0.06875000
vt 0.37500000 0.35937500
vn 0.00000000 0.00000000 1.00000000
v 0.55000001 0.37500000 0.06875000
vt 0.39453125 0.35937500
vn 0.00000000 0.00000000 1.00000000
v 0.55000001 0.72500002 0.06875000
vt 0.39453125 0.33789062
vn 0.00000000 0.00000000 1.00000000
f 418/418/418 419/419/419 420/420/420
