# Generated from the approved Charon statue B; positions are in blocks.
mtllib kingdoms:models/block/charon_statue/charon_statue.mtl
s off
usemtl stone
v 0.49374998 0.09375000 0.77500001
vt 0.87890625 0.26953125
vn -1.00000000 0.00000000 0.00000000
v 0.49374998 0.00000000 0.77500001
vt 0.87890625 0.27539062
vn -1.00000000 0.00000000 0.00000000
v 0.49374998 0.00000000 1.00000000
vt 0.89283608 0.27539062
vn -1.00000000 0.00000000 0.00000000
f 1/1/1 2/2/2 3/3/3
v 0.49374998 0.09375000 0.77500001
vt 0.87890625 0.26953125
vn -1.00000000 0.00000000 0.00000000
v 0.49374998 0.00000000 1.00000000
vt 0.89283608 0.27539062
vn -1.00000000 0.00000000 0.00000000
v 0.49374998 0.09375000 1.00000000
vt 0.89283608 0.26953125
vn -1.00000000 0.00000000 0.00000000
f 4/4/4 5/5/5 6/6/6
v 0.49374998 0.09375000 0.77500001
vt 0.25585938 0.21875000
vn 0.00000000 1.00000000 0.00000000
v 0.49374998 0.09375000 1.00000000
vt 0.25585938 0.23267983
vn 0.00000000 1.00000000 0.00000000
v 1.00000000 0.09375000 1.00000000
vt 0.28730348 0.23267983
vn 0.00000000 1.00000000 0.00000000
f 7/7/7 8/8/8 9/9/9
v 0.49374998 0.09375000 0.77500001
vt 0.25585938 0.21875000
vn 0.00000000 1.00000000 0.00000000
v 1.00000000 0.09375000 1.00000000
vt 0.28730348 0.23267983
vn 0.00000000 1.00000000 0.00000000
v 1.00000000 0.09375000 0.77500001
vt 0.28730348 0.21875000
vn 0.00000000 1.00000000 0.00000000
f 10/10/10 11/11/11 12/12/12
v 0.69499998 0.00000000 0.77500001
vt 0.52851563 0.27539062
vn 0.00000000 0.00000000 -1.00000000
v 0.49374998 0.09375000 0.77500001
vt 0.54101562 0.26953125
vn 0.00000000 0.00000000 -1.00000000
v 1.00000000 0.09375000 0.77500001
vt 0.50957152 0.26953125
vn 0.00000000 0.00000000 -1.00000000
f 13/13/13 14/14/14 15/15/15
v 0.69499998 0.00000000 0.77500001
vt 0.52851563 0.27539062
vn 0.00000000 0.00000000 -1.00000000
v 1.00000000 0.09375000 0.77500001
vt 0.50957152 0.26953125
vn 0.00000000 0.00000000 -1.00000000
v 1.00000000 0.00000000 0.77500001
vt 0.50957152 0.27539062
vn 0.00000000 0.00000000 -1.00000000
f 16/16/16 17/17/17 18/18/18
v 0.49374998 0.00000000 0.77500001
vt 0.54101562 0.27539062
vn 0.00000000 0.00000000 -1.00000000
v 0.49374998 0.09375000 0.77500001
vt 0.54101562 0.26953125
vn 0.00000000 0.00000000 -1.00000000
v 0.69499998 0.00000000 0.77500001
vt 0.52851563 0.27539062
vn 0.00000000 0.00000000 -1.00000000
f 19/19/19 20/20/20 21/21/21
v 0.96905619 0.00000000 0.62670077
vt 0.17814733 0.43513392
vn -0.01745241 0.99984770 0.00000000
v 1.00000000 0.00054013 0.59489256
vt 0.18029653 0.43298472
vn -0.01745241 0.99984770 0.00000000
v 1.00000000 0.00054013 0.57500000
vt 0.18029653 0.43164062
vn -0.01745241 0.99984770 0.00000000
f 22/22/22 23/23/23 24/24/24
v 0.96905619 0.00000000 0.62670077
vt 0.17814733 0.43513392
vn -0.01745241 0.99984770 0.00000000
v 1.00000000 0.00054013 0.57500000
vt 0.18029653 0.43164062
vn -0.01745241 0.99984770 0.00000000
v 0.96905619 0.00000000 0.57500000
vt 0.17814733 0.43164062
vn -0.01745241 0.99984770 0.00000000
f 25/25/25 26/26/26 27/27/27
v 0.96905619 0.00000000 0.69062500
vt 0.17814733 0.43945312
vn -0.01745241 0.99984770 0.00000000
v 1.00000000 0.00054013 0.69062500
vt 0.18029653 0.43945312
vn -0.01745241 0.99984770 0.00000000
v 1.00000000 0.00054013 0.59489256
vt 0.18029653 0.43298472
vn -0.01745241 0.99984770 0.00000000
f 28/28/28 29/29/29 30/30/30
v 0.96905619 0.00000000 0.69062500
vt 0.17814733 0.43945312
vn -0.01745241 0.99984770 0.00000000
v 1.00000000 0.00054013 0.59489256
vt 0.18029653 0.43298472
vn -0.01745241 0.99984770 0.00000000
v 0.96905619 0.00000000 0.62670077
vt 0.17814733 0.43513392
vn -0.01745241 0.99984770 0.00000000
f 31/31/31 32/32/32 33/33/33
v 1.00000000 0.00000000 0.69062500
vt 0.70763963 0.00198719
vn 0.00000000 0.00000000 1.00000000
v 1.00000000 0.00054013 0.69062500
vt 0.70764028 0.00195312
vn 0.00000000 0.00000000 1.00000000
v 0.96905619 0.00000000 0.69062500
vt 0.70549108 0.00195312
vn 0.00000000 0.00000000 1.00000000
f 34/34/34 35/35/35 36/36/36
v 0.96905619 0.00000000 0.57500000
vt 0.69294642 0.00195312
vn 0.00000000 0.00000000 -1.00000000
v 1.00000000 0.00054013 0.57500000
vt 0.69079722 0.00195312
vn 0.00000000 0.00000000 -1.00000000
v 1.00000000 0.00000000 0.57500000
vt 0.69079787 0.00198719
vn 0.00000000 0.00000000 -1.00000000
f 37/37/37 38/38/38 39/39/39
v 0.44375002 0.25000000 0.96875000
vt 0.23242188 0.36328125
vn -1.00000000 0.00000000 0.00000000
v 0.44375002 0.00000000 0.96875000
vt 0.23242188 0.37890625
vn -1.00000000 0.00000000 0.00000000
v 0.44375002 0.00000000 1.00000000
vt 0.23435354 0.37890625
vn -1.00000000 0.00000000 0.00000000
f 40/40/40 41/41/41 42/42/42
v 0.44375002 0.25000000 0.96875000
vt 0.23242188 0.36328125
vn -1.00000000 0.00000000 0.00000000
v 0.44375002 0.00000000 1.00000000
vt 0.23435354 0.37890625
vn -1.00000000 0.00000000 0.00000000
v 0.44375002 0.25000000 1.00000000
vt 0.23435354 0.36328125
vn -1.00000000 0.00000000 0.00000000
f 43/43/43 44/44/44 45/45/45
v 0.44375002 0.25000000 0.96875000
vt 0.67773438 0.21875000
vn 0.00000000 1.00000000 0.00000000
v 0.44375002 0.25000000 1.00000000
vt 0.67773438 0.22068166
vn 0.00000000 1.00000000 0.00000000
v 1.00000000 0.25000000 1.00000000
vt 0.71229669 0.22068166
vn 0.00000000 1.00000000 0.00000000
f 46/46/46 47/47/47 48/48/48
v 0.44375002 0.25000000 0.96875000
vt 0.67773438 0.21875000
vn 0.00000000 1.00000000 0.00000000
v 1.00000000 0.25000000 1.00000000
vt 0.71229669 0.22068166
vn 0.00000000 1.00000000 0.00000000
v 1.00000000 0.25000000 0.96875000
vt 0.71229669 0.21875000
vn 0.00000000 1.00000000 0.00000000
f 49/49/49 50/50/50 51/51/51
v 1.00000000 0.08735380 0.96875000
vt 0.64903143 0.34805601
vn 0.00000000 0.00000000 -1.00000000
v 0.44375002 0.25000000 0.96875000
vt 0.68359375 0.33789062
vn 0.00000000 0.00000000 -1.00000000
v 1.00000000 0.25000000 0.96875000
vt 0.64903143 0.33789062
vn 0.00000000 0.00000000 -1.00000000
f 52/52/52 53/53/53 54/54/54
v 0.44375002 0.00000000 0.96875000
vt 0.68359375 0.35351562
vn 0.00000000 0.00000000 -1.00000000
v 0.44375002 0.25000000 0.96875000
vt 0.68359375 0.33789062
vn 0.00000000 0.00000000 -1.00000000
v 1.00000000 0.08735380 0.96875000
vt 0.64903143 0.34805601
vn 0.00000000 0.00000000 -1.00000000
f 55/55/55 56/56/56 57/57/57
v 0.44375002 0.00000000 0.96875000
vt 0.68359375 0.35351562
vn 0.00000000 0.00000000 -1.00000000
v 1.00000000 0.08735380 0.96875000
vt 0.64903143 0.34805601
vn 0.00000000 0.00000000 -1.00000000
v 1.00000000 0.00000000 0.96875000
vt 0.64903143 0.35351562
vn 0.00000000 0.00000000 -1.00000000
f 58/58/58 59/59/59 60/60/60
v 0.67436077 0.03744686 1.00000000
vt 0.94811722 0.31242595
vn 0.97814760 -0.20791169 0.00000000
v 0.69963534 0.15635438 0.76249999
vt 0.96289062 0.30468750
vn 0.97814760 -0.20791169 0.00000000
v 0.69963534 0.15635438 1.00000000
vt 0.94811722 0.30468750
vn 0.97814760 -0.20791169 0.00000000
f 61/61/61 62/62/62 63/63/63
v 0.66640119 0.00000000 0.76249999
vt 0.96289062 0.31486297
vn 0.97814760 -0.20791169 0.00000000
v 0.69963534 0.15635438 0.76249999
vt 0.96289062 0.30468750
vn 0.97814760 -0.20791169 0.00000000
v 0.67436077 0.03744686 1.00000000
vt 0.94811722 0.31242595
vn 0.97814760 -0.20791169 0.00000000
f 64/64/64 65/65/65 66/66/66
v 0.66640119 0.00000000 0.76249999
vt 0.96289062 0.31486297
vn 0.97814760 -0.20791169 0.00000000
v 0.67436077 0.03744686 1.00000000
vt 0.94811722 0.31242595
vn 0.97814760 -0.20791169 0.00000000
v 0.66640119 0.00000000 1.00000000
vt 0.94811722 0.31486297
vn 0.97814760 -0.20791169 0.00000000
f 67/67/67 68/68/68 69/69/69
v 0.32365985 0.23627044 0.76249999
vt 0.00195312 0.33789062
vn -0.97814760 0.20791169 0.00000000
v 0.27343902 0.00000000 0.76249999
vt 0.00195312 0.35326700
vn -0.97814760 0.20791169 0.00000000
v 0.27343902 0.00000000 0.94996010
vt 0.01361385 0.35326700
vn -0.97814760 0.20791169 0.00000000
f 70/70/70 71/71/71 72/72/72
v 0.32365985 0.23627044 0.76249999
vt 0.00195312 0.33789062
vn -0.97814760 0.20791169 0.00000000
v 0.27343902 0.00000000 0.94996010
vt 0.01361385 0.35326700
vn -0.97814760 0.20791169 0.00000000
v 0.27876423 0.02505314 1.00000000
vt 0.01672653 0.35163655
vn -0.97814760 0.20791169 0.00000000
f 73/73/73 74/74/74 75/75/75
v 0.32365985 0.23627044 0.76249999
vt 0.00195312 0.33789062
vn -0.97814760 0.20791169 0.00000000
v 0.27876423 0.02505314 1.00000000
vt 0.01672653 0.35163655
vn -0.97814760 0.20791169 0.00000000
v 0.32365985 0.23627044 1.00000000
vt 0.01672653 0.33789062
vn -0.97814760 0.20791169 0.00000000
f 76/76/76 77/77/77 78/78/78
v 0.27876423 0.02505314 1.00000000
vt 0.01672653 0.35163655
vn -0.97814760 0.20791169 0.00000000
v 0.27343902 0.00000000 0.94996010
vt 0.01361385 0.35326700
vn -0.97814760 0.20791169 0.00000000
v 0.27343902 0.00000000 1.00000000
vt 0.01672653 0.35326700
vn -0.97814760 0.20791169 0.00000000
f 79/79/79 80/80/80 81/81/81
v 0.32365985 0.23627044 0.76249999
vt 0.45117188 0.21875000
vn 0.20791169 0.97814760 0.00000000
v 0.32365985 0.23627044 1.00000000
vt 0.45117188 0.23352340
vn 0.20791169 0.97814760 0.00000000
v 0.56421289 0.18513931 1.00000000
vt 0.46616743 0.23352340
vn 0.20791169 0.97814760 0.00000000
f 82/82/82 83/83/83 84/84/84
v 0.32365985 0.23627044 0.76249999
vt 0.45117188 0.21875000
vn 0.20791169 0.97814760 0.00000000
v 0.56421289 0.18513931 1.00000000
vt 0.46616743 0.23352340
vn 0.20791169 0.97814760 0.00000000
v 0.69963534 0.15635438 0.76249999
vt 0.47460938 0.21875000
vn 0.20791169 0.97814760 0.00000000
f 85/85/85 86/86/86 87/87/87
v 0.69963534 0.15635438 1.00000000
vt 0.47460938 0.23352340
vn 0.20791169 0.97814760 0.00000000
v 0.69963534 0.15635438 0.76249999
vt 0.47460938 0.21875000
vn 0.20791169 0.97814760 0.00000000
v 0.56421289 0.18513931 1.00000000
vt 0.46616743 0.23352340
vn 0.20791169 0.97814760 0.00000000
f 88/88/88 89/89/89 90/90/90
v 0.69963534 0.15635438 0.76249999
vt 0.29687500 0.33789062
vn 0.00000000 0.00000000 -1.00000000
v 0.66640119 0.00000000 0.76249999
vt 0.29687500 0.34806610
vn 0.00000000 0.00000000 -1.00000000
v 0.49986851 0.00000000 0.76249999
vt 0.30680753 0.35027018
vn 0.00000000 0.00000000 -1.00000000
f 91/91/91 92/92/92 93/93/93
v 0.69963534 0.15635438 0.76249999
vt 0.29687500 0.33789062
vn 0.00000000 0.00000000 -1.00000000
v 0.49986851 0.00000000 0.76249999
vt 0.30680753 0.35027018
vn 0.00000000 0.00000000 -1.00000000
v 0.32365985 0.23627044 0.76249999
vt 0.32031250 0.33789062
vn 0.00000000 0.00000000 -1.00000000
f 94/94/94 95/95/95 96/96/96
v 0.27343902 0.00000000 0.76249999
vt 0.32031250 0.35326700
vn 0.00000000 0.00000000 -1.00000000
v 0.32365985 0.23627044 0.76249999
vt 0.32031250 0.33789062
vn 0.00000000 0.00000000 -1.00000000
v 0.49986851 0.00000000 0.76249999
vt 0.30680753 0.35027018
vn 0.00000000 0.00000000 -1.00000000
f 97/97/97 98/98/98 99/99/99
v 0.65542940 0.26693670 0.79687500
vt 0.52734375 0.30468750
vn 0.88294759 0.46947156 0.00000000
v 0.79736217 0.00000000 0.79687500
vt 0.52734375 0.32329649
vn 0.88294759 0.46947156 0.00000000
v 0.79736217 0.00000000 0.74679523
vt 0.53047374 0.32329649
vn 0.88294759 0.46947156 0.00000000
f 100/100/100 101/101/101 102/102/102
v 0.65542940 0.26693670 0.79687500
vt 0.52734375 0.30468750
vn 0.88294759 0.46947156 0.00000000
v 0.79736217 0.00000000 0.74679523
vt 0.53047374 0.32329649
vn 0.88294759 0.46947156 0.00000000
v 0.65542940 0.26693670 0.60937500
vt 0.53906250 0.30468750
vn 0.88294759 0.46947156 0.00000000
f 103/103/103 104/104/104 105/105/105
v 0.79736217 0.00000000 0.60937500
vt 0.53906250 0.32329649
vn 0.88294759 0.46947156 0.00000000
v 0.65542940 0.26693670 0.60937500
vt 0.53906250 0.30468750
vn 0.88294759 0.46947156 0.00000000
v 0.79736217 0.00000000 0.74679523
vt 0.53047374 0.32329649
vn 0.88294759 0.46947156 0.00000000
f 106/106/106 107/107/107 108/108/108
v 0.50091358 0.18477918 0.60937500
vt 0.54296875 0.30468750
vn -0.88294759 -0.46947156 0.00000000
v 0.59916241 0.00000000 0.60937500
vt 0.54296875 0.31756903
vn -0.88294759 -0.46947156 0.00000000
v 0.59916241 0.00000000 0.70174983
vt 0.54874218 0.31756903
vn -0.88294759 -0.46947156 0.00000000
f 109/109/109 110/110/110 111/111/111
v 0.50091358 0.18477918 0.60937500
vt 0.54296875 0.30468750
vn -0.88294759 -0.46947156 0.00000000
v 0.59916241 0.00000000 0.70174983
vt 0.54874218 0.31756903
vn -0.88294759 -0.46947156 0.00000000
v 0.50091358 0.18477918 0.79687500
vt 0.55468750 0.30468750
vn -0.88294759 -0.46947156 0.00000000
f 112/112/112 113/113/113 114/114/114
v 0.59916241 0.00000000 0.79687500
vt 0.55468750 0.31756903
vn -0.88294759 -0.46947156 0.00000000
v 0.50091358 0.18477918 0.79687500
vt 0.55468750 0.30468750
vn -0.88294759 -0.46947156 0.00000000
v 0.59916241 0.00000000 0.70174983
vt 0.54874218 0.31756903
vn -0.88294759 -0.46947156 0.00000000
f 115/115/115 116/116/116 117/117/117
v 0.50091358 0.18477918 0.60937500
vt 0.49414062 0.38671875
vn -0.46947156 0.88294759 0.00000000
v 0.50091358 0.18477918 0.79687500
vt 0.49414062 0.39843750
vn -0.46947156 0.88294759 0.00000000
v 0.65542940 0.26693670 0.60937500
vt 0.50585938 0.38671875
vn -0.46947156 0.88294759 0.00000000
f 118/118/118 119/119/119 120/120/120
v 0.50091358 0.18477918 0.79687500
vt 0.49414062 0.39843750
vn -0.46947156 0.88294759 0.00000000
v 0.65542940 0.26693670 0.79687500
vt 0.50585938 0.39843750
vn -0.46947156 0.88294759 0.00000000
v 0.65542940 0.26693670 0.60937500
vt 0.50585938 0.38671875
vn -0.46947156 0.88294759 0.00000000
f 121/121/121 122/122/122 123/123/123
v 0.50091358 0.18477918 0.79687500
vt 0.51171875 0.30468750
vn 0.00000000 0.00000000 1.00000000
v 0.59916241 0.00000000 0.79687500
vt 0.51171875 0.31756903
vn 0.00000000 0.00000000 1.00000000
v 0.67883631 0.00000000 0.79687500
vt 0.51642955 0.31987140
vn 0.00000000 0.00000000 1.00000000
f 124/124/124 125/125/125 126/126/126
v 0.50091358 0.18477918 0.79687500
vt 0.51171875 0.30468750
vn 0.00000000 0.00000000 1.00000000
v 0.67883631 0.00000000 0.79687500
vt 0.51642955 0.31987140
vn 0.00000000 0.00000000 1.00000000
v 0.65542940 0.26693670 0.79687500
vt 0.52343750 0.30468750
vn 0.00000000 0.00000000 1.00000000
f 127/127/127 128/128/128 129/129/129
v 0.79736217 0.00000000 0.79687500
vt 0.52343750 0.32329649
vn 0.00000000 0.00000000 1.00000000
v 0.65542940 0.26693670 0.79687500
vt 0.52343750 0.30468750
vn 0.00000000 0.00000000 1.00000000
v 0.67883631 0.00000000 0.79687500
vt 0.51642955 0.31987140
vn 0.00000000 0.00000000 1.00000000
f 130/130/130 131/131/131 132/132/132
v 0.65542940 0.26693670 0.60937500
vt 0.49609375 0.30468750
vn 0.00000000 0.00000000 -1.00000000
v 0.79736217 0.00000000 0.60937500
vt 0.49609375 0.32329649
vn 0.00000000 0.00000000 -1.00000000
v 0.72900500 0.00000000 0.60937500
vt 0.50013543 0.32132115
vn 0.00000000 0.00000000 -1.00000000
f 133/133/133 134/134/134 135/135/135
v 0.65542940 0.26693670 0.60937500
vt 0.49609375 0.30468750
vn 0.00000000 0.00000000 -1.00000000
v 0.72900500 0.00000000 0.60937500
vt 0.50013543 0.32132115
vn 0.00000000 0.00000000 -1.00000000
v 0.50091358 0.18477918 0.60937500
vt 0.50781250 0.30468750
vn 0.00000000 0.00000000 -1.00000000
f 136/136/136 137/137/137 138/138/138
v 0.59916241 0.00000000 0.60937500
vt 0.50781250 0.31756903
vn 0.00000000 0.00000000 -1.00000000
v 0.50091358 0.18477918 0.60937500
vt 0.50781250 0.30468750
vn 0.00000000 0.00000000 -1.00000000
v 0.72900500 0.00000000 0.60937500
vt 0.50013543 0.32132115
vn 0.00000000 0.00000000 -1.00000000
f 139/139/139 140/140/140 141/141/141
v 0.72499999 0.15625000 0.76562500
vt 0.91015625 0.36328125
vn -1.00000000 0.00000000 0.00000000
v 0.72499999 0.00000000 0.76562500
vt 0.91015625 0.37350109
vn -1.00000000 0.00000000 0.00000000
v 0.72499999 0.00000000 0.83103196
vt 0.91424419 0.37350109
vn -1.00000000 0.00000000 0.00000000
f 142/142/142 143/143/143 144/144/144
v 0.72499999 0.15625000 0.76562500
vt 0.91015625 0.36328125
vn -1.00000000 0.00000000 0.00000000
v 0.72499999 0.00000000 0.83103196
vt 0.91424419 0.37350109
vn -1.00000000 0.00000000 0.00000000
v 0.72499999 0.15625000 0.92187500
vt 0.91992188 0.36328125
vn -1.00000000 0.00000000 0.00000000
f 145/145/145 146/146/146 147/147/147
v 0.72499999 0.00000000 0.92187500
vt 0.91992188 0.37350109
vn -1.00000000 0.00000000 0.00000000
v 0.72499999 0.15625000 0.92187500
vt 0.91992188 0.36328125
vn -1.00000000 0.00000000 0.00000000
v 0.72499999 0.00000000 0.83103196
vt 0.91424419 0.37350109
vn -1.00000000 0.00000000 0.00000000
f 148/148/148 149/149/149 150/150/150
v 0.72499999 0.15625000 0.76562500
vt 0.33007812 0.40625000
vn 0.00000000 1.00000000 0.00000000
v 0.72499999 0.15625000 0.92187500
vt 0.33007812 0.41601562
vn 0.00000000 1.00000000 0.00000000
v 1.00000000 0.15625000 0.83803354
vt 0.34684642 0.41077553
vn 0.00000000 1.00000000 0.00000000
f 151/151/151 152/152/152 153/153/153
v 0.72499999 0.15625000 0.76562500
vt 0.33007812 0.40625000
vn 0.00000000 1.00000000 0.00000000
v 1.00000000 0.15625000 0.83803354
vt 0.34684642 0.41077553
vn 0.00000000 1.00000000 0.00000000
v 1.00000000 0.15625000 0.76562500
vt 0.34684642 0.40625000
vn 0.00000000 1.00000000 0.00000000
f 154/154/154 155/155/155 156/156/156
v 0.72499999 0.15625000 0.92187500
vt 0.33007812 0.41601562
vn 0.00000000 1.00000000 0.00000000
v 1.00000000 0.15625000 0.92187500
vt 0.34684642 0.41601562
vn 0.00000000 1.00000000 0.00000000
v 1.00000000 0.15625000 0.83803354
vt 0.34684642 0.41077553
vn 0.00000000 1.00000000 0.00000000
f 157/157/157 158/158/158 159/159/159
v 0.72499999 0.15625000 0.92187500
vt 0.82226562 0.36328125
vn 0.00000000 0.00000000 1.00000000
v 0.72499999 0.00000000 0.92187500
vt 0.82226562 0.37350109
vn 0.00000000 0.00000000 1.00000000
v 0.93953483 0.00000000 0.92187500
vt 0.83534702 0.37350109
vn 0.00000000 0.00000000 1.00000000
f 160/160/160 161/161/161 162/162/162
v 0.72499999 0.15625000 0.92187500
vt 0.82226562 0.36328125
vn 0.00000000 0.00000000 1.00000000
v 0.93953483 0.00000000 0.92187500
vt 0.83534702 0.37350109
vn 0.00000000 0.00000000 1.00000000
v 1.00000000 0.03170734 0.92187500
vt 0.83903392 0.37142721
vn 0.00000000 0.00000000 1.00000000
f 163/163/163 164/164/164 165/165/165
v 0.72499999 0.15625000 0.92187500
vt 0.82226562 0.36328125
vn 0.00000000 0.00000000 1.00000000
v 1.00000000 0.03170734 0.92187500
vt 0.83903392 0.37142721
vn 0.00000000 0.00000000 1.00000000
v 1.00000000 0.15625000 0.92187500
vt 0.83903392 0.36328125
vn 0.00000000 0.00000000 1.00000000
f 166/166/166 167/167/167 168/168/168
v 1.00000000 0.00000000 0.92187500
vt 0.83903392 0.37350109
vn 0.00000000 0.00000000 1.00000000
v 1.00000000 0.03170734 0.92187500
vt 0.83903392 0.37142721
vn 0.00000000 0.00000000 1.00000000
v 0.93953483 0.00000000 0.92187500
vt 0.83534702 0.37350109
vn 0.00000000 0.00000000 1.00000000
f 169/169/169 170/170/170 171/171/171
v 1.00000000 0.01204271 0.76562500
vt 0.80159108 0.37271341
vn 0.00000000 0.00000000 -1.00000000
v 0.72499999 0.15625000 0.76562500
vt 0.81835938 0.36328125
vn 0.00000000 0.00000000 -1.00000000
v 1.00000000 0.15625000 0.76562500
vt 0.80159108 0.36328125
vn 0.00000000 0.00000000 -1.00000000
f 172/172/172 173/173/173 174/174/174
v 0.72499999 0.00000000 0.76562500
vt 0.81835938 0.37350109
vn 0.00000000 0.00000000 -1.00000000
v 0.72499999 0.15625000 0.76562500
vt 0.81835938 0.36328125
vn 0.00000000 0.00000000 -1.00000000
v 1.00000000 0.01204271 0.76562500
vt 0.80159108 0.37271341
vn 0.00000000 0.00000000 -1.00000000
f 175/175/175 176/176/176 177/177/177
v 0.72499999 0.00000000 0.76562500
vt 0.81835938 0.37350109
vn 0.00000000 0.00000000 -1.00000000
v 1.00000000 0.01204271 0.76562500
vt 0.80159108 0.37271341
vn 0.00000000 0.00000000 -1.00000000
v 1.00000000 0.00000000 0.76562500
vt 0.80159108 0.37350109
vn 0.00000000 0.00000000 -1.00000000
f 178/178/178 179/179/179 180/180/180
v 0.71250001 0.40917060 1.00000000
vt 0.94126935 0.28637011
vn 1.00000000 0.00000000 0.00000000
v 0.71250001 0.67499995 0.61562499
vt 0.96484375 0.26953125
vn 1.00000000 0.00000000 0.00000000
v 0.71250001 0.67499995 1.00000000
vt 0.94126935 0.26953125
vn 1.00000000 0.00000000 0.00000000
f 181/181/181 182/182/182 183/183/183
v 0.71250001 0.21250010 1.00000000
vt 0.94126935 0.29882812
vn 1.00000000 0.00000000 0.00000000
v 0.71250001 0.21250010 0.61562499
vt 0.96484375 0.29882812
vn 1.00000000 0.00000000 0.00000000
v 0.71250001 0.67499995 0.61562499
vt 0.96484375 0.26953125
vn 1.00000000 0.00000000 0.00000000
f 184/184/184 185/185/185 186/186/186
v 0.71250001 0.21250010 1.00000000
vt 0.94126935 0.29882812
vn 1.00000000 0.00000000 0.00000000
v 0.71250001 0.67499995 0.61562499
vt 0.96484375 0.26953125
vn 1.00000000 0.00000000 0.00000000
v 0.71250001 0.40917060 1.00000000
vt 0.94126935 0.28637011
vn 1.00000000 0.00000000 0.00000000
f 187/187/187 188/188/188 189/189/189
v 0.55625001 0.67499995 0.61562499
vt 0.00195312 0.30468750
vn -1.00000000 0.00000000 0.00000000
v 0.55625001 0.21250010 0.61562499
vt 0.00195312 0.33398438
vn -1.00000000 0.00000000 0.00000000
v 0.55625001 0.47832945 1.00000000
vt 0.02552753 0.31714552
vn -1.00000000 0.00000000 0.00000000
f 190/190/190 191/191/191 192/192/192
v 0.55625001 0.67499995 0.61562499
vt 0.00195312 0.30468750
vn -1.00000000 0.00000000 0.00000000
v 0.55625001 0.47832945 1.00000000
vt 0.02552753 0.31714552
vn -1.00000000 0.00000000 0.00000000
v 0.55625001 0.67499995 1.00000000
vt 0.02552753 0.30468750
vn -1.00000000 0.00000000 0.00000000
f 193/193/193 194/194/194 195/195/195
v 0.55625001 0.21250010 0.61562499
vt 0.00195312 0.33398438
vn -1.00000000 0.00000000 0.00000000
v 0.55625001 0.21250010 1.00000000
vt 0.02552753 0.33398438
vn -1.00000000 0.00000000 0.00000000
v 0.55625001 0.47832945 1.00000000
vt 0.02552753 0.31714552
vn -1.00000000 0.00000000 0.00000000
f 196/196/196 197/197/197 198/198/198
v 0.55625001 0.67499995 0.61562499
vt 0.62304688 0.21875000
vn 0.00000000 1.00000000 0.00000000
v 0.55625001 0.67499995 1.00000000
vt 0.62304688 0.24232440
vn 0.00000000 1.00000000 0.00000000
v 0.62269276 0.67499995 1.00000000
vt 0.62719955 0.24232440
vn 0.00000000 1.00000000 0.00000000
f 199/199/199 200/200/200 201/201/201
v 0.55625001 0.67499995 0.61562499
vt 0.62304688 0.21875000
vn 0.00000000 1.00000000 0.00000000
v 0.62269276 0.67499995 1.00000000
vt 0.62719955 0.24232440
vn 0.00000000 1.00000000 0.00000000
v 0.71250001 0.67499995 0.61562499
vt 0.63281250 0.21875000
vn 0.00000000 1.00000000 0.00000000
f 202/202/202 203/203/203 204/204/204
v 0.71250001 0.67499995 1.00000000
vt 0.63281250 0.24232440
vn 0.00000000 1.00000000 0.00000000
v 0.71250001 0.67499995 0.61562499
vt 0.63281250 0.21875000
vn 0.00000000 1.00000000 0.00000000
v 0.62269276 0.67499995 1.00000000
vt 0.62719955 0.24232440
vn 0.00000000 1.00000000 0.00000000
f 205/205/205 206/206/206 207/207/207
v 0.55625001 0.21250010 1.00000000
vt 0.63671875 0.23619122
vn 0.00000000 -1.00000000 0.00000000
v 0.55625001 0.21250010 0.61562499
vt 0.63671875 0.25976562
vn 0.00000000 -1.00000000 0.00000000
v 0.64605725 0.21250010 1.00000000
vt 0.64233170 0.23619122
vn 0.00000000 -1.00000000 0.00000000
f 208/208/208 209/209/209 210/210/210
v 0.55625001 0.21250010 0.61562499
vt 0.63671875 0.25976562
vn 0.00000000 -1.00000000 0.00000000
v 0.71250001 0.21250010 0.61562499
vt 0.64648438 0.25976562
vn 0.00000000 -1.00000000 0.00000000
v 0.71250001 0.21250010 1.00000000
vt 0.64648438 0.23619122
vn 0.00000000 -1.00000000 0.00000000
f 211/211/211 212/212/212 213/213/213
v 0.55625001 0.21250010 0.61562499
vt 0.63671875 0.25976562
vn 0.00000000 -1.00000000 0.00000000
v 0.71250001 0.21250010 1.00000000
vt 0.64648438 0.23619122
vn 0.00000000 -1.00000000 0.00000000
v 0.64605725 0.21250010 1.00000000
vt 0.64233170 0.23619122
vn 0.00000000 -1.00000000 0.00000000
f 214/214/214 215/215/215 216/216/216
v 0.71250001 0.67499995 0.61562499
vt 0.23437500 0.30468750
vn 0.00000000 0.00000000 -1.00000000
v 0.71250001 0.21250010 0.61562499
vt 0.23437500 0.33398438
vn 0.00000000 0.00000000 -1.00000000
v 0.55625001 0.67499995 0.61562499
vt 0.24414062 0.30468750
vn 0.00000000 0.00000000 -1.00000000
f 217/217/217 218/218/218 219/219/219
v 0.71250001 0.21250010 0.61562499
vt 0.23437500 0.33398438
vn 0.00000000 0.00000000 -1.00000000
v 0.55625001 0.21250010 0.61562499
vt 0.24414062 0.33398438
vn 0.00000000 0.00000000 -1.00000000
v 0.55625001 0.67499995 0.61562499
vt 0.24414062 0.30468750
vn 0.00000000 0.00000000 -1.00000000
f 220/220/220 221/221/221 222/222/222
v 0.74437077 0.67178940 1.00000000
vt 0.06379892 0.35051009
vn 0.88294759 -0.46947156 0.00000000
v 0.83571546 0.84358379 0.62187499
vt 0.08789062 0.33789062
vn 0.88294759 -0.46947156 0.00000000
v 0.83571546 0.84358379 1.00000000
vt 0.06379892 0.33789062
vn 0.88294759 -0.46947156 0.00000000
f 223/223/223 224/224/224 225/225/225
v 0.68020300 0.55110739 1.00000000
vt 0.06379892 0.35937500
vn 0.88294759 -0.46947156 0.00000000
v 0.68020300 0.55110739 0.62187499
vt 0.08789062 0.35937500
vn 0.88294759 -0.46947156 0.00000000
v 0.83571546 0.84358379 0.62187499
vt 0.08789062 0.33789062
vn 0.88294759 -0.46947156 0.00000000
f 226/226/226 227/227/227 228/228/228
v 0.68020300 0.55110739 1.00000000
vt 0.06379892 0.35937500
vn 0.88294759 -0.46947156 0.00000000
v 0.83571546 0.84358379 0.62187499
vt 0.08789062 0.33789062
vn 0.88294759 -0.46947156 0.00000000
v 0.74437077 0.67178940 1.00000000
vt 0.06379892 0.35051009
vn 0.88294759 -0.46947156 0.00000000
f 229/229/229 230/230/230 231/231/231
v 0.67292200 0.93014261 0.62187499
vt 0.09179688 0.33789062
vn -0.88294759 0.46947156 0.00000000
v 0.51740954 0.63766621 0.62187499
vt 0.09179688 0.35937500
vn -0.88294759 0.46947156 0.00000000
v 0.60875423 0.80946060 1.00000000
vt 0.11588858 0.34675554
vn -0.88294759 0.46947156 0.00000000
f 232/232/232 233/233/233 234/234/234
v 0.67292200 0.93014261 0.62187499
vt 0.09179688 0.33789062
vn -0.88294759 0.46947156 0.00000000
v 0.60875423 0.80946060 1.00000000
vt 0.11588858 0.34675554
vn -0.88294759 0.46947156 0.00000000
v 0.67292200 0.93014261 1.00000000
vt 0.11588858 0.33789062
vn -0.88294759 0.46947156 0.00000000
f 235/235/235 236/236/236 237/237/237
v 0.51740954 0.63766621 0.62187499
vt 0.09179688 0.35937500
vn -0.88294759 0.46947156 0.00000000
v 0.51740954 0.63766621 1.00000000
vt 0.11588858 0.35937500
vn -0.88294759 0.46947156 0.00000000
v 0.60875423 0.80946060 1.00000000
vt 0.11588858 0.34675554
vn -0.88294759 0.46947156 0.00000000
f 238/238/238 239/239/239 240/240/240
v 0.67292200 0.93014261 0.62187499
vt 0.56054688 0.21875000
vn 0.46947156 0.88294759 0.00000000
v 0.67292200 0.93014261 1.00000000
vt 0.56054688 0.24284170
vn 0.46947156 0.88294759 0.00000000
v 0.74009406 0.89442659 1.00000000
vt 0.56538228 0.24284170
vn 0.46947156 0.88294759 0.00000000
f 241/241/241 242/242/242 243/243/243
v 0.67292200 0.93014261 0.62187499
vt 0.56054688 0.21875000
vn 0.46947156 0.88294759 0.00000000
v 0.74009406 0.89442659 1.00000000
vt 0.56538228 0.24284170
vn 0.46947156 0.88294759 0.00000000
v 0.83571546 0.84358379 0.62187499
vt 0.57226562 0.21875000
vn 0.46947156 0.88294759 0.00000000
f 244/244/244 245/245/245 246/246/246
v 0.83571546 0.84358379 1.00000000
vt 0.57226562 0.24284170
vn 0.46947156 0.88294759 0.00000000
v 0.83571546 0.84358379 0.62187499
vt 0.57226562 0.21875000
vn 0.46947156 0.88294759 0.00000000
v 0.74009406 0.89442659 1.00000000
vt 0.56538228 0.24284170
vn 0.46947156 0.88294759 0.00000000
f 247/247/247 248/248/248 249/249/249
v 0.51740954 0.63766621 1.00000000
vt 0.57617188 0.23567392
vn -0.46947156 -0.88294759 0.00000000
v 0.51740954 0.63766621 0.62187499
vt 0.57617188 0.25976562
vn -0.46947156 -0.88294759 0.00000000
v 0.61303094 0.58682341 1.00000000
vt 0.58305522 0.23567392
vn -0.46947156 -0.88294759 0.00000000
f 250/250/250 251/251/251 252/252/252
v 0.51740954 0.63766621 0.62187499
vt 0.57617188 0.25976562
vn -0.46947156 -0.88294759 0.00000000
v 0.68020300 0.55110739 0.62187499
vt 0.58789062 0.25976562
vn -0.46947156 -0.88294759 0.00000000
v 0.68020300 0.55110739 1.00000000
vt 0.58789062 0.23567392
vn -0.46947156 -0.88294759 0.00000000
f 253/253/253 254/254/254 255/255/255
v 0.51740954 0.63766621 0.62187499
vt 0.57617188 0.25976562
vn -0.46947156 -0.88294759 0.00000000
v 0.68020300 0.55110739 1.00000000
vt 0.58789062 0.23567392
vn -0.46947156 -0.88294759 0.00000000
v 0.61303094 0.58682341 1.00000000
vt 0.58305522 0.23567392
vn -0.46947156 -0.88294759 0.00000000
f 256/256/256 257/257/257 258/258/258
v 0.83571546 0.84358379 0.62187499
vt 0.39843750 0.33789062
vn 0.00000000 0.00000000 -1.00000000
v 0.68020300 0.55110739 0.62187499
vt 0.39843750 0.35937500
vn 0.00000000 0.00000000 -1.00000000
v 0.67292200 0.93014261 0.62187499
vt 0.41015625 0.33789062
vn 0.00000000 0.00000000 -1.00000000
f 259/259/259 260/260/260 261/261/261
v 0.68020300 0.55110739 0.62187499
vt 0.39843750 0.35937500
vn 0.00000000 0.00000000 -1.00000000
v 0.51740954 0.63766621 0.62187499
vt 0.41015625 0.35937500
vn 0.00000000 0.00000000 -1.00000000
v 0.67292200 0.93014261 0.62187499
vt 0.41015625 0.33789062
vn 0.00000000 0.00000000 -1.00000000
f 262/262/262 263/263/263 264/264/264
v 0.75624999 0.95937490 0.63437501
vt 0.27734375 0.41992188
vn -1.00000000 0.00000000 0.00000000
v 0.75624999 0.82500005 0.63437501
vt 0.27734375 0.42773438
vn -1.00000000 0.00000000 0.00000000
v 0.75624999 0.89986604 1.00000000
vt 0.30019531 0.42338170
vn -1.00000000 0.00000000 0.00000000
f 265/265/265 266/266/266 267/267/267
v 0.75624999 0.95937490 0.63437501
vt 0.27734375 0.41992188
vn -1.00000000 0.00000000 0.00000000
v 0.75624999 0.89986604 1.00000000
vt 0.30019531 0.42338170
vn -1.00000000 0.00000000 0.00000000
v 0.75624999 0.95937490 1.00000000
vt 0.30019531 0.41992188
vn -1.00000000 0.00000000 0.00000000
f 268/268/268 269/269/269 270/270/270
v 0.75624999 0.82500005 0.63437501
vt 0.27734375 0.42773438
vn -1.00000000 0.00000000 0.00000000
v 0.75624999 0.82500005 1.00000000
vt 0.30019531 0.42773438
vn -1.00000000 0.00000000 0.00000000
v 0.75624999 0.89986604 1.00000000
vt 0.30019531 0.42338170
vn -1.00000000 0.00000000 0.00000000
f 271/271/271 272/272/272 273/273/273
v 0.75624999 0.95937490 0.63437501
vt 0.38867188 0.21875000
vn 0.00000000 1.00000000 0.00000000
v 0.75624999 0.95937490 1.00000000
vt 0.38867188 0.24160156
vn 0.00000000 1.00000000 0.00000000
v 0.95553571 0.95937490 1.00000000
vt 0.40078125 0.24160156
vn 0.00000000 1.00000000 0.00000000
f 274/274/274 275/275/275 276/276/276
v 0.75624999 0.95937490 0.63437501
vt 0.38867188 0.21875000
vn 0.00000000 1.00000000 0.00000000
v 0.95553571 0.95937490 1.00000000
vt 0.40078125 0.24160156
vn 0.00000000 1.00000000 0.00000000
v 1.00000000 0.95937490 0.93515625
vt 0.40348307 0.23754883
vn 0.00000000 1.00000000 0.00000000
f 277/277/277 278/278/278 279/279/279
v 0.75624999 0.95937490 0.63437501
vt 0.38867188 0.21875000
vn 0.00000000 1.00000000 0.00000000
v 1.00000000 0.95937490 0.93515625
vt 0.40348307 0.23754883
vn 0.00000000 1.00000000 0.00000000
v 1.00000000 0.95937490 0.63437501
vt 0.40348307 0.21875000
vn 0.00000000 1.00000000 0.00000000
f 280/280/280 281/281/281 282/282/282
v 1.00000000 0.95937490 1.00000000
vt 0.40348307 0.24160156
vn 0.00000000 1.00000000 0.00000000
v 1.00000000 0.95937490 0.93515625
vt 0.40348307 0.23754883
vn 0.00000000 1.00000000 0.00000000
v 0.95553571 0.95937490 1.00000000
vt 0.40078125 0.24160156
vn 0.00000000 1.00000000 0.00000000
f 283/283/283 284/284/284 285/285/285
v 0.75624999 0.82500005 1.00000000
vt 0.41992188 0.23691406
vn 0.00000000 -1.00000000 0.00000000
v 0.75624999 0.82500005 0.63437501
vt 0.41992188 0.25976562
vn 0.00000000 -1.00000000 0.00000000
v 1.00000000 0.82500005 0.98984376
vt 0.43473307 0.23754883
vn 0.00000000 -1.00000000 0.00000000
f 286/286/286 287/287/287 288/288/288
v 0.75624999 0.82500005 1.00000000
vt 0.41992188 0.23691406
vn 0.00000000 -1.00000000 0.00000000
v 1.00000000 0.82500005 0.98984376
vt 0.43473307 0.23754883
vn 0.00000000 -1.00000000 0.00000000
v 1.00000000 0.82500005 1.00000000
vt 0.43473307 0.23691406
vn 0.00000000 -1.00000000 0.00000000
f 289/289/289 290/290/290 291/291/291
v 0.75624999 0.82500005 0.63437501
vt 0.41992188 0.25976562
vn 0.00000000 -1.00000000 0.00000000
v 1.00000000 0.82500005 0.63437501
vt 0.43473307 0.25976562
vn 0.00000000 -1.00000000 0.00000000
v 1.00000000 0.82500005 0.98984376
vt 0.43473307 0.23754883
vn 0.00000000 -1.00000000 0.00000000
f 292/292/292 293/293/293 294/294/294
v 1.00000000 0.88658852 0.63437501
vt 0.86604818 0.42415365
vn 0.00000000 0.00000000 -1.00000000
v 0.75624999 0.95937490 0.63437501
vt 0.88085938 0.41992188
vn 0.00000000 0.00000000 -1.00000000
v 1.00000000 0.95937490 0.63437501
vt 0.86604818 0.41992188
vn 0.00000000 0.00000000 -1.00000000
f 295/295/295 296/296/296 297/297/297
v 1.00000000 0.82500005 0.63437501
vt 0.86604818 0.42773438
vn 0.00000000 0.00000000 -1.00000000
v 0.75624999 0.82500005 0.63437501
vt 0.88085938 0.42773438
vn 0.00000000 0.00000000 -1.00000000
v 0.75624999 0.95937490 0.63437501
vt 0.88085938 0.41992188
vn 0.00000000 0.00000000 -1.00000000
f 298/298/298 299/299/299 300/300/300
v 1.00000000 0.82500005 0.63437501
vt 0.86604818 0.42773438
vn 0.00000000 0.00000000 -1.00000000
v 0.75624999 0.95937490 0.63437501
vt 0.88085938 0.41992188
vn 0.00000000 0.00000000 -1.00000000
v 1.00000000 0.88658852 0.63437501
vt 0.86604818 0.42415365
vn 0.00000000 0.00000000 -1.00000000
f 301/301/301 302/302/302 303/303/303
v 0.82500000 1.00000000 0.79687500
vt 0.16210938 0.47851562
vn -1.00000000 0.00000000 0.00000000
v 0.82500000 0.95937490 0.79687500
vt 0.16210938 0.48046875
vn -1.00000000 0.00000000 0.00000000
v 0.82500000 0.98138016 1.00000000
vt 0.17480469 0.47941081
vn -1.00000000 0.00000000 0.00000000
f 304/304/304 305/305/305 306/306/306
v 0.82500000 1.00000000 0.79687500
vt 0.16210938 0.47851562
vn -1.00000000 0.00000000 0.00000000
v 0.82500000 0.98138016 1.00000000
vt 0.17480469 0.47941081
vn -1.00000000 0.00000000 0.00000000
v 0.82500000 1.00000000 1.00000000
vt 0.17480469 0.47851562
vn -1.00000000 0.00000000 0.00000000
f 307/307/307 308/308/308 309/309/309
v 0.82500000 0.95937490 0.79687500
vt 0.16210938 0.48046875
vn -1.00000000 0.00000000 0.00000000
v 0.82500000 0.95937490 1.00000000
vt 0.17480469 0.48046875
vn -1.00000000 0.00000000 0.00000000
v 0.82500000 0.98138016 1.00000000
vt 0.17480469 0.47941081
vn -1.00000000 0.00000000 0.00000000
f 310/310/310 311/311/311 312/312/312
v 0.82500000 1.00000000 0.79687500
vt 0.78125000 0.30468750
vn 0.00000000 1.00000000 0.00000000
v 0.82500000 1.00000000 1.00000000
vt 0.78125000 0.31738281
vn 0.00000000 1.00000000 0.00000000
v 0.94817708 1.00000000 1.00000000
vt 0.78930664 0.31738281
vn 0.00000000 1.00000000 0.00000000
f 313/313/313 314/314/314 315/315/315
v 0.82500000 1.00000000 0.79687500
vt 0.78125000 0.30468750
vn 0.00000000 1.00000000 0.00000000
v 0.94817708 1.00000000 1.00000000
vt 0.78930664 0.31738281
vn 0.00000000 1.00000000 0.00000000
v 1.00000000 1.00000000 0.92768895
vt 0.79269622 0.31286337
vn 0.00000000 1.00000000 0.00000000
f 316/316/316 317/317/317 318/318/318
v 0.82500000 1.00000000 0.79687500
vt 0.78125000 0.30468750
vn 0.00000000 1.00000000 0.00000000
v 1.00000000 1.00000000 0.92768895
vt 0.79269622 0.31286337
vn 0.00000000 1.00000000 0.00000000
v 1.00000000 1.00000000 0.79687500
vt 0.79269622 0.30468750
vn 0.00000000 1.00000000 0.00000000
f 319/319/319 320/320/320 321/321/321
v 1.00000000 1.00000000 1.00000000
vt 0.79269622 0.31738281
vn 0.00000000 1.00000000 0.00000000
v 1.00000000 1.00000000 0.92768895
vt 0.79269622 0.31286337
vn 0.00000000 1.00000000 0.00000000
v 0.94817708 1.00000000 1.00000000
vt 0.78930664 0.31738281
vn 0.00000000 1.00000000 0.00000000
f 322/322/322 323/323/323 324/324/324
v 0.82500000 0.95937490 1.00000000
vt 0.80273438 0.31542969
vn 0.00000000 -1.00000000 0.00000000
v 0.82500000 0.95937490 0.79687500
vt 0.80273438 0.32812500
vn 0.00000000 -1.00000000 0.00000000
v 0.97057292 0.95937490 1.00000000
vt 0.81225586 0.31542969
vn 0.00000000 -1.00000000 0.00000000
f 325/325/325 326/326/326 327/327/327
v 0.82500000 0.95937490 0.79687500
vt 0.80273438 0.32812500
vn 0.00000000 -1.00000000 0.00000000
v 1.00000000 0.95937490 0.79687500
vt 0.81418060 0.32812500
vn 0.00000000 -1.00000000 0.00000000
v 1.00000000 0.95937490 1.00000000
vt 0.81418060 0.31542969
vn 0.00000000 -1.00000000 0.00000000
f 328/328/328 329/329/329 330/330/330
v 0.82500000 0.95937490 0.79687500
vt 0.80273438 0.32812500
vn 0.00000000 -1.00000000 0.00000000
v 1.00000000 0.95937490 1.00000000
vt 0.81418060 0.31542969
vn 0.00000000 -1.00000000 0.00000000
v 0.97057292 0.95937490 1.00000000
vt 0.81225586 0.31542969
vn 0.00000000 -1.00000000 0.00000000
f 331/331/331 332/332/332 333/333/333
v 1.00000000 0.97354645 0.79687500
vt 0.24246003 0.47978743
vn 0.00000000 0.00000000 -1.00000000
v 0.82500000 1.00000000 0.79687500
vt 0.25390625 0.47851562
vn 0.00000000 0.00000000 -1.00000000
v 1.00000000 1.00000000 0.79687500
vt 0.24246003 0.47851562
vn 0.00000000 0.00000000 -1.00000000
f 334/334/334 335/335/335 336/336/336
v 1.00000000 0.95937490 0.79687500
vt 0.24246003 0.48046875
vn 0.00000000 0.00000000 -1.00000000
v 0.82500000 0.95937490 0.79687500
vt 0.25390625 0.48046875
vn 0.00000000 0.00000000 -1.00000000
v 0.82500000 1.00000000 0.79687500
vt 0.25390625 0.47851562
vn 0.00000000 0.00000000 -1.00000000
f 337/337/337 338/338/338 339/339/339
v 1.00000000 0.95937490 0.79687500
vt 0.24246003 0.48046875
vn 0.00000000 0.00000000 -1.00000000
v 0.82500000 1.00000000 0.79687500
vt 0.25390625 0.47851562
vn 0.00000000 0.00000000 -1.00000000
v 1.00000000 0.97354645 0.79687500
vt 0.24246003 0.47978743
vn 0.00000000 0.00000000 -1.00000000
f 340/340/340 341/341/341 342/342/342
v 0.75624999 0.89687490 0.52812499
vt 0.11328125 0.45312500
vn -1.00000000 0.00000000 0.00000000
v 0.75624999 0.79375005 0.52812499
vt 0.11328125 0.45898438
vn -1.00000000 0.00000000 0.00000000
v 0.75624999 0.89687490 0.68437499
vt 0.12304688 0.45312500
vn -1.00000000 0.00000000 0.00000000
f 343/343/343 344/344/344 345/345/345
v 0.75624999 0.79375005 0.52812499
vt 0.11328125 0.45898438
vn -1.00000000 0.00000000 0.00000000
v 0.75624999 0.79375005 0.68437499
vt 0.12304688 0.45898438
vn -1.00000000 0.00000000 0.00000000
v 0.75624999 0.89687490 0.68437499
vt 0.12304688 0.45312500
vn -1.00000000 0.00000000 0.00000000
f 346/346/346 347/347/347 348/348/348
v 0.75624999 0.89687490 0.52812499
vt 0.40039062 0.40625000
vn 0.00000000 1.00000000 0.00000000
v 0.75624999 0.89687490 0.68437499
vt 0.40039062 0.41601562
vn 0.00000000 1.00000000 0.00000000
v 1.00000000 0.89687490 0.59973957
vt 0.41520182 0.41072591
vn 0.00000000 1.00000000 0.00000000
f 349/349/349 350/350/350 351/351/351
v 0.75624999 0.89687490 0.52812499
vt 0.40039062 0.40625000
vn 0.00000000 1.00000000 0.00000000
v 1.00000000 0.89687490 0.59973957
vt 0.41520182 0.41072591
vn 0.00000000 1.00000000 0.00000000
v 1.00000000 0.89687490 0.52812499
vt 0.41520182 0.40625000
vn 0.00000000 1.00000000 0.00000000
f 352/352/352 353/353/353 354/354/354
v 0.75624999 0.89687490 0.68437499
vt 0.40039062 0.41601562
vn 0.00000000 1.00000000 0.00000000
v 1.00000000 0.89687490 0.68437499
vt 0.41520182 0.41601562
vn 0.00000000 1.00000000 0.00000000
v 1.00000000 0.89687490 0.59973957
vt 0.41520182 0.41072591
vn 0.00000000 1.00000000 0.00000000
f 355/355/355 356/356/356 357/357/357
v 0.75624999 0.79375005 0.68437499
vt 0.43164062 0.40625000
vn 0.00000000 -1.00000000 0.00000000
v 0.75624999 0.79375005 0.52812499
vt 0.43164062 0.41601562
vn 0.00000000 -1.00000000 0.00000000
v 1.00000000 0.79375005 0.61276041
vt 0.44645182 0.41072591
vn 0.00000000 -1.00000000 0.00000000
f 358/358/358 359/359/359 360/360/360
v 0.75624999 0.79375005 0.68437499
vt 0.43164062 0.40625000
vn 0.00000000 -1.00000000 0.00000000
v 1.00000000 0.79375005 0.61276041
vt 0.44645182 0.41072591
vn 0.00000000 -1.00000000 0.00000000
v 1.00000000 0.79375005 0.68437499
vt 0.44645182 0.40625000
vn 0.00000000 -1.00000000 0.00000000
f 361/361/361 362/362/362 363/363/363
v 0.75624999 0.79375005 0.52812499
vt 0.43164062 0.41601562
vn 0.00000000 -1.00000000 0.00000000
v 1.00000000 0.79375005 0.52812499
vt 0.44645182 0.41601562
vn 0.00000000 -1.00000000 0.00000000
v 1.00000000 0.79375005 0.61276041
vt 0.44645182 0.41072591
vn 0.00000000 -1.00000000 0.00000000
f 364/364/364 365/365/365 366/366/366
v 0.75624999 0.89687490 0.68437499
vt 0.83398438 0.44335938
vn 0.00000000 0.00000000 1.00000000
v 0.75624999 0.79375005 0.68437499
vt 0.83398438 0.44921875
vn 0.00000000 0.00000000 1.00000000
v 1.00000000 0.84960935 0.68437499
vt 0.84879557 0.44604492
vn 0.00000000 0.00000000 1.00000000
f 367/367/367 368/368/368 369/369/369
v 0.75624999 0.89687490 0.68437499
vt 0.83398438 0.44335938
vn 0.00000000 0.00000000 1.00000000
v 1.00000000 0.84960935 0.68437499
vt 0.84879557 0.44604492
vn 0.00000000 0.00000000 1.00000000
v 1.00000000 0.89687490 0.68437499
vt 0.84879557 0.44335938
vn 0.00000000 0.00000000 1.00000000
f 370/370/370 371/371/371 372/372/372
v 0.75624999 0.79375005 0.68437499
vt 0.83398438 0.44921875
vn 0.00000000 0.00000000 1.00000000
v 1.00000000 0.79375005 0.68437499
vt 0.84879557 0.44921875
vn 0.00000000 0.00000000 1.00000000
v 1.00000000 0.84960935 0.68437499
vt 0.84879557 0.44604492
vn 0.00000000 0.00000000 1.00000000
f 373/373/373 374/374/374 375/375/375
v 1.00000000 0.84101561 0.52812499
vt 0.81526693 0.44653320
vn 0.00000000 0.00000000 -1.00000000
v 0.75624999 0.89687490 0.52812499
vt 0.83007812 0.44335938
vn 0.00000000 0.00000000 -1.00000000
v 1.00000000 0.89687490 0.52812499
vt 0.81526693 0.44335938
vn 0.00000000 0.00000000 -1.00000000
f 376/376/376 377/377/377 378/378/378
v 1.00000000 0.79375005 0.52812499
vt 0.81526693 0.44921875
vn 0.00000000 0.00000000 -1.00000000
v 0.75624999 0.79375005 0.52812499
vt 0.83007812 0.44921875
vn 0.00000000 0.00000000 -1.00000000
v 0.75624999 0.89687490 0.52812499
vt 0.83007812 0.44335938
vn 0.00000000 0.00000000 -1.00000000
f 379/379/379 380/380/380 381/381/381
v 1.00000000 0.79375005 0.52812499
vt 0.81526693 0.44921875
vn 0.00000000 0.00000000 -1.00000000
v 0.75624999 0.89687490 0.52812499
vt 0.83007812 0.44335938
vn 0.00000000 0.00000000 -1.00000000
v 1.00000000 0.84101561 0.52812499
vt 0.81526693 0.44653320
vn 0.00000000 0.00000000 -1.00000000
f 382/382/382 383/383/383 384/384/384
v 0.68125001 0.60625005 0.63437501
vt 0.89062500 0.30468750
vn 1.00000000 0.00000000 0.00000000
v 0.68125001 0.23749995 0.63437501
vt 0.89062500 0.32812500
vn 1.00000000 0.00000000 0.00000000
v 0.68125001 0.60625005 0.55937499
vt 0.89453125 0.30468750
vn 1.00000000 0.00000000 0.00000000
f 385/385/385 386/386/386 387/387/387
v 0.68125001 0.23749995 0.63437501
vt 0.89062500 0.32812500
vn 1.00000000 0.00000000 0.00000000
v 0.68125001 0.23749995 0.55937499
vt 0.89453125 0.32812500
vn 1.00000000 0.00000000 0.00000000
v 0.68125001 0.60625005 0.55937499
vt 0.89453125 0.30468750
vn 1.00000000 0.00000000 0.00000000
f 388/388/388 389/389/389 390/390/390
v 0.57187501 0.60625005 0.55937499
vt 0.89843750 0.30468750
vn -1.00000000 0.00000000 0.00000000
v 0.57187501 0.23749995 0.55937499
vt 0.89843750 0.32812500
vn -1.00000000 0.00000000 0.00000000
v 0.57187501 0.60625005 0.63437501
vt 0.90234375 0.30468750
vn -1.00000000 0.00000000 0.00000000
f 391/391/391 392/392/392 393/393/393
v 0.57187501 0.23749995 0.55937499
vt 0.89843750 0.32812500
vn -1.00000000 0.00000000 0.00000000
v 0.57187501 0.23749995 0.63437501
vt 0.90234375 0.32812500
vn -1.00000000 0.00000000 0.00000000
v 0.57187501 0.60625005 0.63437501
vt 0.90234375 0.30468750
vn -1.00000000 0.00000000 0.00000000
f 394/394/394 395/395/395 396/396/396
v 0.57187501 0.60625005 0.55937499
vt 0.89648438 0.46289062
vn 0.00000000 1.00000000 0.00000000
v 0.57187501 0.60625005 0.63437501
vt 0.89648438 0.46679688
vn 0.00000000 1.00000000 0.00000000
v 0.68125001 0.60625005 0.55937499
vt 0.90429688 0.46289062
vn 0.00000000 1.00000000 0.00000000
f 397/397/397 398/398/398 399/399/399
v 0.57187501 0.60625005 0.63437501
vt 0.89648438 0.46679688
vn 0.00000000 1.00000000 0.00000000
v 0.68125001 0.60625005 0.63437501
vt 0.90429688 0.46679688
vn 0.00000000 1.00000000 0.00000000
v 0.68125001 0.60625005 0.55937499
vt 0.90429688 0.46289062
vn 0.00000000 1.00000000 0.00000000
f 400/400/400 401/401/401 402/402/402
v 0.57187501 0.23749995 0.63437501
vt 0.90820312 0.46289062
vn 0.00000000 -1.00000000 0.00000000
v 0.57187501 0.23749995 0.55937499
vt 0.90820312 0.46679688
vn 0.00000000 -1.00000000 0.00000000
v 0.68125001 0.23749995 0.63437501
vt 0.91601562 0.46289062
vn 0.00000000 -1.00000000 0.00000000
f 403/403/403 404/404/404 405/405/405
v 0.57187501 0.23749995 0.55937499
vt 0.90820312 0.46679688
vn 0.00000000 -1.00000000 0.00000000
v 0.68125001 0.23749995 0.55937499
vt 0.91601562 0.46679688
vn 0.00000000 -1.00000000 0.00000000
v 0.68125001 0.23749995 0.63437501
vt 0.91601562 0.46289062
vn 0.00000000 -1.00000000 0.00000000
f 406/406/406 407/407/407 408/408/408
v 0.57187501 0.60625005 0.63437501
vt 0.83593750 0.30468750
vn 0.00000000 0.00000000 1.00000000
v 0.57187501 0.23749995 0.63437501
vt 0.83593750 0.32812500
vn 0.00000000 0.00000000 1.00000000
v 0.68125001 0.60625005 0.63437501
vt 0.84375000 0.30468750
vn 0.00000000 0.00000000 1.00000000
f 409/409/409 410/410/410 411/411/411
v 0.57187501 0.23749995 0.63437501
vt 0.83593750 0.32812500
vn 0.00000000 0.00000000 1.00000000
v 0.68125001 0.23749995 0.63437501
vt 0.84375000 0.32812500
vn 0.00000000 0.00000000 1.00000000
v 0.68125001 0.60625005 0.63437501
vt 0.84375000 0.30468750
vn 0.00000000 0.00000000 1.00000000
f 412/412/412 413/413/413 414/414/414
v 0.68125001 0.60625005 0.55937499
vt 0.82421875 0.30468750
vn 0.00000000 0.00000000 -1.00000000
v 0.68125001 0.23749995 0.55937499
vt 0.82421875 0.32812500
vn 0.00000000 0.00000000 -1.00000000
v 0.57187501 0.60625005 0.55937499
vt 0.83203125 0.30468750
vn 0.00000000 0.00000000 -1.00000000
f 415/415/415 416/416/416 417/417/417
v 0.68125001 0.23749995 0.55937499
vt 0.82421875 0.32812500
vn 0.00000000 0.00000000 -1.00000000
v 0.57187501 0.23749995 0.55937499
vt 0.83203125 0.32812500
vn 0.00000000 0.00000000 -1.00000000
v 0.57187501 0.60625005 0.55937499
vt 0.83203125 0.30468750
vn 0.00000000 0.00000000 -1.00000000
f 418/418/418 419/419/419 420/420/420
v 0.70625001 0.75000000 0.98437500
vt 0.90625000 0.21875000
vn -1.00000000 0.00000000 0.00000000
v 0.70625001 0.19374990 0.98437500
vt 0.90625000 0.25390625
vn -1.00000000 0.00000000 0.00000000
v 0.70625001 0.24723549 1.00000000
vt 0.90718900 0.25052584
vn -1.00000000 0.00000000 0.00000000
f 421/421/421 422/422/422 423/423/423
v 0.70625001 0.75000000 0.98437500
vt 0.90625000 0.21875000
vn -1.00000000 0.00000000 0.00000000
v 0.70625001 0.24723549 1.00000000
vt 0.90718900 0.25052584
vn -1.00000000 0.00000000 0.00000000
v 0.70625001 0.75000000 1.00000000
vt 0.90718900 0.21875000
vn -1.00000000 0.00000000 0.00000000
f 424/424/424 425/425/425 426/426/426
v 0.70625001 0.19374990 0.98437500
vt 0.90625000 0.25390625
vn -1.00000000 0.00000000 0.00000000
v 0.70625001 0.19374990 1.00000000
vt 0.90718900 0.25390625
vn -1.00000000 0.00000000 0.00000000
v 0.70625001 0.24723549 1.00000000
vt 0.90718900 0.25052584
vn -1.00000000 0.00000000 0.00000000
f 427/427/427 428/428/428 429/429/429
v 0.70625001 0.75000000 0.98437500
vt 0.25585938 0.40625000
vn 0.00000000 1.00000000 0.00000000
v 0.70625001 0.75000000 1.00000000
vt 0.25585938 0.40718900
vn 0.00000000 1.00000000 0.00000000
v 1.00000000 0.75000000 1.00000000
vt 0.27379670 0.40718900
vn 0.00000000 1.00000000 0.00000000
f 430/430/430 431/431/431 432/432/432
v 0.70625001 0.75000000 0.98437500
vt 0.25585938 0.40625000
vn 0.00000000 1.00000000 0.00000000
v 1.00000000 0.75000000 1.00000000
vt 0.27379670 0.40718900
vn 0.00000000 1.00000000 0.00000000
v 1.00000000 0.75000000 0.98437500
vt 0.27379670 0.40625000
vn 0.00000000 1.00000000 0.00000000
f 433/433/433 434/434/434 435/435/435
v 0.70625001 0.19374990 1.00000000
vt 0.29296875 0.41507662
vn 0.00000000 -1.00000000 0.00000000
v 0.70625001 0.19374990 0.98437500
vt 0.29296875 0.41601562
vn 0.00000000 -1.00000000 0.00000000
v 0.75853367 0.19374990 1.00000000
vt 0.29616136 0.41507662
vn 0.00000000 -1.00000000 0.00000000
f 436/436/436 437/437/437 438/438/438
v 0.70625001 0.19374990 0.98437500
vt 0.29296875 0.41601562
vn 0.00000000 -1.00000000 0.00000000
v 1.00000000 0.19374990 0.98437500
vt 0.31090607 0.41601562
vn 0.00000000 -1.00000000 0.00000000
v 1.00000000 0.19374990 1.00000000
vt 0.31090607 0.41507662
vn 0.00000000 -1.00000000 0.00000000
f 439/439/439 440/440/440 441/441/441
v 0.70625001 0.19374990 0.98437500
vt 0.29296875 0.41601562
vn 0.00000000 -1.00000000 0.00000000
v 1.00000000 0.19374990 1.00000000
vt 0.31090607 0.41507662
vn 0.00000000 -1.00000000 0.00000000
v 0.75853367 0.19374990 1.00000000
vt 0.29616136 0.41507662
vn 0.00000000 -1.00000000 0.00000000
f 442/442/442 443/443/443 444/444/444
v 1.00000000 0.44949708 0.98437500
vt 0.83362518 0.23774246
vn 0.00000000 0.00000000 -1.00000000
v 0.70625001 0.75000000 0.98437500
vt 0.85156250 0.21875000
vn 0.00000000 0.00000000 -1.00000000
v 1.00000000 0.75000000 0.98437500
vt 0.83362518 0.21875000
vn 0.00000000 0.00000000 -1.00000000
f 445/445/445 446/446/446 447/447/447
v 1.00000000 0.19374990 0.98437500
vt 0.83362518 0.25390625
vn 0.00000000 0.00000000 -1.00000000
v 0.70625001 0.19374990 0.98437500
vt 0.85156250 0.25390625
vn 0.00000000 0.00000000 -1.00000000
v 0.70625001 0.75000000 0.98437500
vt 0.85156250 0.21875000
vn 0.00000000 0.00000000 -1.00000000
f 448/448/448 449/449/449 450/450/450
v 1.00000000 0.19374990 0.98437500
vt 0.83362518 0.25390625
vn 0.00000000 0.00000000 -1.00000000
v 0.70625001 0.75000000 0.98437500
vt 0.85156250 0.21875000
vn 0.00000000 0.00000000 -1.00000000
v 1.00000000 0.44949708 0.98437500
vt 0.83362518 0.23774246
vn 0.00000000 0.00000000 -1.00000000
f 451/451/451 452/452/452 453/453/453
v 0.82500000 0.64374995 0.88125000
vt 0.88085938 0.30468750
vn -1.00000000 0.00000000 0.00000000
v 0.82500000 0.28125000 0.88125000
vt 0.88085938 0.32812500
vn -1.00000000 0.00000000 0.00000000
v 0.82500000 0.64374995 0.98750000
vt 0.88671875 0.30468750
vn -1.00000000 0.00000000 0.00000000
f 454/454/454 455/455/455 456/456/456
v 0.82500000 0.28125000 0.88125000
vt 0.88085938 0.32812500
vn -1.00000000 0.00000000 0.00000000
v 0.82500000 0.28125000 0.98750000
vt 0.88671875 0.32812500
vn -1.00000000 0.00000000 0.00000000
v 0.82500000 0.64374995 0.98750000
vt 0.88671875 0.30468750
vn -1.00000000 0.00000000 0.00000000
f 457/457/457 458/458/458 459/459/459
v 0.82500000 0.64374995 0.88125000
vt 0.92773438 0.44335938
vn 0.00000000 1.00000000 0.00000000
v 0.82500000 0.64374995 0.98750000
vt 0.92773438 0.44921875
vn 0.00000000 1.00000000 0.00000000
v 1.00000000 0.64374995 0.92678571
vt 0.93889509 0.44587054
vn 0.00000000 1.00000000 0.00000000
f 460/460/460 461/461/461 462/462/462
v 0.82500000 0.64374995 0.88125000
vt 0.92773438 0.44335938
vn 0.00000000 1.00000000 0.00000000
v 1.00000000 0.64374995 0.92678571
vt 0.93889509 0.44587054
vn 0.00000000 1.00000000 0.00000000
v 1.00000000 0.64374995 0.88125000
vt 0.93889509 0.44335938
vn 0.00000000 1.00000000 0.00000000
f 463/463/463 464/464/464 465/465/465
v 0.82500000 0.64374995 0.98750000
vt 0.92773438 0.44921875
vn 0.00000000 1.00000000 0.00000000
v 1.00000000 0.64374995 0.98750000
vt 0.93889509 0.44921875
vn 0.00000000 1.00000000 0.00000000
v 1.00000000 0.64374995 0.92678571
vt 0.93889509 0.44587054
vn 0.00000000 1.00000000 0.00000000
f 466/466/466 467/467/467 468/468/468
v 0.82500000 0.28125000 0.98750000
vt 0.95117188 0.44335938
vn 0.00000000 -1.00000000 0.00000000
v 0.82500000 0.28125000 0.88125000
vt 0.95117188 0.44921875
vn 0.00000000 -1.00000000 0.00000000
v 1.00000000 0.28125000 0.94196429
vt 0.96233259 0.44587054
vn 0.00000000 -1.00000000 0.00000000
f 469/469/469 470/470/470 471/471/471
v 0.82500000 0.28125000 0.98750000
vt 0.95117188 0.44335938
vn 0.00000000 -1.00000000 0.00000000
v 1.00000000 0.28125000 0.94196429
vt 0.96233259 0.44587054
vn 0.00000000 -1.00000000 0.00000000
v 1.00000000 0.28125000 0.98750000
vt 0.96233259 0.44335938
vn 0.00000000 -1.00000000 0.00000000
f 472/472/472 473/473/473 474/474/474
v 0.82500000 0.28125000 0.88125000
vt 0.95117188 0.44921875
vn 0.00000000 -1.00000000 0.00000000
v 1.00000000 0.28125000 0.88125000
vt 0.96233259 0.44921875
vn 0.00000000 -1.00000000 0.00000000
v 1.00000000 0.28125000 0.94196429
vt 0.96233259 0.44587054
vn 0.00000000 -1.00000000 0.00000000
f 475/475/475 476/476/476 477/477/477
v 0.82500000 0.64374995 0.98750000
vt 0.71093750 0.30468750
vn 0.00000000 0.00000000 1.00000000
v 0.82500000 0.28125000 0.98750000
vt 0.71093750 0.32812500
vn 0.00000000 0.00000000 1.00000000
v 1.00000000 0.48839283 0.98750000
vt 0.72209821 0.31473214
vn 0.00000000 0.00000000 1.00000000
f 478/478/478 479/479/479 480/480/480
v 0.82500000 0.64374995 0.98750000
vt 0.71093750 0.30468750
vn 0.00000000 0.00000000 1.00000000
v 1.00000000 0.48839283 0.98750000
vt 0.72209821 0.31473214
vn 0.00000000 0.00000000 1.00000000
v 1.00000000 0.64374995 0.98750000
vt 0.72209821 0.30468750
vn 0.00000000 0.00000000 1.00000000
f 481/481/481 482/482/482 483/483/483
v 0.82500000 0.28125000 0.98750000
vt 0.71093750 0.32812500
vn 0.00000000 0.00000000 1.00000000
v 1.00000000 0.28125000 0.98750000
vt 0.72209821 0.32812500
vn 0.00000000 0.00000000 1.00000000
v 1.00000000 0.48839283 0.98750000
vt 0.72209821 0.31473214
vn 0.00000000 0.00000000 1.00000000
f 484/484/484 485/485/485 486/486/486
v 1.00000000 0.43660712 0.88125000
vt 0.69587054 0.31808036
vn 0.00000000 0.00000000 -1.00000000
v 0.82500000 0.64374995 0.88125000
vt 0.70703125 0.30468750
vn 0.00000000 0.00000000 -1.00000000
v 1.00000000 0.64374995 0.88125000
vt 0.69587054 0.30468750
vn 0.00000000 0.00000000 -1.00000000
f 487/487/487 488/488/488 489/489/489
v 1.00000000 0.28125000 0.88125000
vt 0.69587054 0.32812500
vn 0.00000000 0.00000000 -1.00000000
v 0.82500000 0.28125000 0.88125000
vt 0.70703125 0.32812500
vn 0.00000000 0.00000000 -1.00000000
v 0.82500000 0.64374995 0.88125000
vt 0.70703125 0.30468750
vn 0.00000000 0.00000000 -1.00000000
f 490/490/490 491/491/491 492/492/492
v 1.00000000 0.28125000 0.88125000
vt 0.69587054 0.32812500
vn 0.00000000 0.00000000 -1.00000000
v 0.82500000 0.64374995 0.88125000
vt 0.70703125 0.30468750
vn 0.00000000 0.00000000 -1.00000000
v 1.00000000 0.43660712 0.88125000
vt 0.69587054 0.31808036
vn 0.00000000 0.00000000 -1.00000000
f 493/493/493 494/494/494 495/495/495
v 0.95000000 0.50000000 0.81562500
vt 0.89648438 0.40625000
vn -1.00000000 0.00000000 0.00000000
v 0.95000000 0.34999990 0.81562500
vt 0.89648438 0.41601562
vn -1.00000000 0.00000000 0.00000000
v 0.95000000 0.50000000 0.88750000
vt 0.90039062 0.40625000
vn -1.00000000 0.00000000 0.00000000
f 496/496/496 497/497/497 498/498/498
v 0.95000000 0.34999990 0.81562500
vt 0.89648438 0.41601562
vn -1.00000000 0.00000000 0.00000000
v 0.95000000 0.34999990 0.88750000
vt 0.90039062 0.41601562
vn -1.00000000 0.00000000 0.00000000
v 0.95000000 0.50000000 0.88750000
vt 0.90039062 0.40625000
vn -1.00000000 0.00000000 0.00000000
f 499/499/499 500/500/500 501/501/501
v 0.95000000 0.50000000 0.81562500
vt 0.29101562 0.47070312
vn 0.00000000 1.00000000 0.00000000
v 0.95000000 0.50000000 0.88750000
vt 0.29101562 0.47460938
vn 0.00000000 1.00000000 0.00000000
v 1.00000000 0.50000000 0.82697368
vt 0.29430510 0.47131990
vn 0.00000000 1.00000000 0.00000000
f 502/502/502 503/503/503 504/504/504
v 0.95000000 0.50000000 0.81562500
vt 0.29101562 0.47070312
vn 0.00000000 1.00000000 0.00000000
v 1.00000000 0.50000000 0.82697368
vt 0.29430510 0.47131990
vn 0.00000000 1.00000000 0.00000000
v 1.00000000 0.50000000 0.81562500
vt 0.29430510 0.47070312
vn 0.00000000 1.00000000 0.00000000
f 505/505/505 506/506/506 507/507/507
v 0.95000000 0.50000000 0.88750000
vt 0.29101562 0.47460938
vn 0.00000000 1.00000000 0.00000000
v 1.00000000 0.50000000 0.88750000
vt 0.29430510 0.47460938
vn 0.00000000 1.00000000 0.00000000
v 1.00000000 0.50000000 0.82697368
vt 0.29430510 0.47131990
vn 0.00000000 1.00000000 0.00000000
f 508/508/508 509/509/509 510/510/510
v 0.95000000 0.34999990 0.88750000
vt 0.29882812 0.47070312
vn 0.00000000 -1.00000000 0.00000000
v 0.95000000 0.34999990 0.81562500
vt 0.29882812 0.47460938
vn 0.00000000 -1.00000000 0.00000000
v 1.00000000 0.34999990 0.87615132
vt 0.30211760 0.47131990
vn 0.00000000 -1.00000000 0.00000000
f 511/511/511 512/512/512 513/513/513
v 0.95000000 0.34999990 0.88750000
vt 0.29882812 0.47070312
vn 0.00000000 -1.00000000 0.00000000
v 1.00000000 0.34999990 0.87615132
vt 0.30211760 0.47131990
vn 0.00000000 -1.00000000 0.00000000
v 1.00000000 0.34999990 0.88750000
vt 0.30211760 0.47070312
vn 0.00000000 -1.00000000 0.00000000
f 514/514/514 515/515/515 516/516/516
v 0.95000000 0.34999990 0.81562500
vt 0.29882812 0.47460938
vn 0.00000000 -1.00000000 0.00000000
v 1.00000000 0.34999990 0.81562500
vt 0.30211760 0.47460938
vn 0.00000000 -1.00000000 0.00000000
v 1.00000000 0.34999990 0.87615132
vt 0.30211760 0.47131990
vn 0.00000000 -1.00000000 0.00000000
f 517/517/517 518/518/518 519/519/519
v 0.95000000 0.50000000 0.88750000
vt 0.88085938 0.40625000
vn 0.00000000 0.00000000 1.00000000
v 0.95000000 0.34999990 0.88750000
vt 0.88085938 0.41601562
vn 0.00000000 0.00000000 1.00000000
v 1.00000000 0.47631577 0.88750000
vt 0.88414885 0.40779194
vn 0.00000000 0.00000000 1.00000000
f 520/520/520 521/521/521 522/522/522
v 0.95000000 0.50000000 0.88750000
vt 0.88085938 0.40625000
vn 0.00000000 0.00000000 1.00000000
v 1.00000000 0.47631577 0.88750000
vt 0.88414885 0.40779194
vn 0.00000000 0.00000000 1.00000000
v 1.00000000 0.50000000 0.88750000
vt 0.88414885 0.40625000
vn 0.00000000 0.00000000 1.00000000
f 523/523/523 524/524/524 525/525/525
v 0.95000000 0.34999990 0.88750000
vt 0.88085938 0.41601562
vn 0.00000000 0.00000000 1.00000000
v 1.00000000 0.34999990 0.88750000
vt 0.88414885 0.41601562
vn 0.00000000 0.00000000 1.00000000
v 1.00000000 0.47631577 0.88750000
vt 0.88414885 0.40779194
vn 0.00000000 0.00000000 1.00000000
f 526/526/526 527/527/527 528/528/528
v 1.00000000 0.37368413 0.81562500
vt 0.87366365 0.41447368
vn 0.00000000 0.00000000 -1.00000000
v 0.95000000 0.50000000 0.81562500
vt 0.87695312 0.40625000
vn 0.00000000 0.00000000 -1.00000000
v 1.00000000 0.50000000 0.81562500
vt 0.87366365 0.40625000
vn 0.00000000 0.00000000 -1.00000000
f 529/529/529 530/530/530 531/531/531
v 1.00000000 0.34999990 0.81562500
vt 0.87366365 0.41601562
vn 0.00000000 0.00000000 -1.00000000
v 0.95000000 0.34999990 0.81562500
vt 0.87695312 0.41601562
vn 0.00000000 0.00000000 -1.00000000
v 0.95000000 0.50000000 0.81562500
vt 0.87695312 0.40625000
vn 0.00000000 0.00000000 -1.00000000
f 532/532/532 533/533/533 534/534/534
v 1.00000000 0.34999990 0.81562500
vt 0.87366365 0.41601562
vn 0.00000000 0.00000000 -1.00000000
v 0.95000000 0.50000000 0.81562500
vt 0.87695312 0.40625000
vn 0.00000000 0.00000000 -1.00000000
v 1.00000000 0.37368413 0.81562500
vt 0.87366365 0.41447368
vn 0.00000000 0.00000000 -1.00000000
f 535/535/535 536/536/536 537/537/537
v 0.88125000 0.32500005 0.89687500
vt 0.18945312 0.45312500
vn -1.00000000 0.00000000 0.00000000
v 0.88125000 0.22499990 0.89687500
vt 0.18945312 0.45898438
vn -1.00000000 0.00000000 0.00000000
v 0.88125000 0.31666670 1.00000000
vt 0.19661458 0.45361328
vn -1.00000000 0.00000000 0.00000000
f 538/538/538 539/539/539 540/540/540
v 0.88125000 0.32500005 0.89687500
vt 0.18945312 0.45312500
vn -1.00000000 0.00000000 0.00000000
v 0.88125000 0.31666670 1.00000000
vt 0.19661458 0.45361328
vn -1.00000000 0.00000000 0.00000000
v 0.88125000 0.32500005 1.00000000
vt 0.19661458 0.45312500
vn -1.00000000 0.00000000 0.00000000
f 541/541/541 542/542/542 543/543/543
v 0.88125000 0.22499990 0.89687500
vt 0.18945312 0.45898438
vn -1.00000000 0.00000000 0.00000000
v 0.88125000 0.22499990 1.00000000
vt 0.19661458 0.45898438
vn -1.00000000 0.00000000 0.00000000
v 0.88125000 0.31666670 1.00000000
vt 0.19661458 0.45361328
vn -1.00000000 0.00000000 0.00000000
f 544/544/544 545/545/545 546/546/546
v 0.88125000 0.32500005 0.89687500
vt 0.00195312 0.43164062
vn 0.00000000 1.00000000 0.00000000
v 0.88125000 0.32500005 1.00000000
vt 0.00195312 0.43880208
vn 0.00000000 1.00000000 0.00000000
v 0.89843750 0.32500005 1.00000000
vt 0.00309245 0.43880208
vn 0.00000000 1.00000000 0.00000000
f 547/547/547 548/548/548 549/549/549
v 0.88125000 0.32500005 0.89687500
vt 0.00195312 0.43164062
vn 0.00000000 1.00000000 0.00000000
v 0.89843750 0.32500005 1.00000000
vt 0.00309245 0.43880208
vn 0.00000000 1.00000000 0.00000000
v 1.00000000 0.32500005 0.94460227
vt 0.00982481 0.43495502
vn 0.00000000 1.00000000 0.00000000
f 550/550/550 551/551/551 552/552/552
v 0.88125000 0.32500005 0.89687500
vt 0.00195312 0.43164062
vn 0.00000000 1.00000000 0.00000000
v 1.00000000 0.32500005 0.94460227
vt 0.00982481 0.43495502
vn 0.00000000 1.00000000 0.00000000
v 1.00000000 0.32500005 0.89687500
vt 0.00982481 0.43164062
vn 0.00000000 1.00000000 0.00000000
f 553/553/553 554/554/554 555/555/555
v 1.00000000 0.32500005 1.00000000
vt 0.00982481 0.43880208
vn 0.00000000 1.00000000 0.00000000
v 1.00000000 0.32500005 0.94460227
vt 0.00982481 0.43495502
vn 0.00000000 1.00000000 0.00000000
v 0.89843750 0.32500005 1.00000000
vt 0.00309245 0.43880208
vn 0.00000000 1.00000000 0.00000000
f 556/556/556 557/557/557 558/558/558
v 0.88125000 0.22499990 1.00000000
vt 0.01953125 0.43229167
vn 0.00000000 -1.00000000 0.00000000
v 0.88125000 0.22499990 0.89687500
vt 0.01953125 0.43945312
vn 0.00000000 -1.00000000 0.00000000
v 1.00000000 0.22499990 0.96164773
vt 0.02740294 0.43495502
vn 0.00000000 -1.00000000 0.00000000
f 559/559/559 560/560/560 561/561/561
v 0.88125000 0.22499990 1.00000000
vt 0.01953125 0.43229167
vn 0.00000000 -1.00000000 0.00000000
v 1.00000000 0.22499990 0.96164773
vt 0.02740294 0.43495502
vn 0.00000000 -1.00000000 0.00000000
v 1.00000000 0.22499990 1.00000000
vt 0.02740294 0.43229167
vn 0.00000000 -1.00000000 0.00000000
f 562/562/562 563/563/563 564/564/564
v 0.88125000 0.22499990 0.89687500
vt 0.01953125 0.43945312
vn 0.00000000 -1.00000000 0.00000000
v 1.00000000 0.22499990 0.89687500
vt 0.02740294 0.43945312
vn 0.00000000 -1.00000000 0.00000000
v 1.00000000 0.22499990 0.96164773
vt 0.02740294 0.43495502
vn 0.00000000 -1.00000000 0.00000000
f 565/565/565 566/566/566 567/567/567
v 1.00000000 0.26742421 0.89687500
vt 0.07025331 0.45649858
vn 0.00000000 0.00000000 -1.00000000
v 0.88125000 0.32500005 0.89687500
vt 0.07812500 0.45312500
vn 0.00000000 0.00000000 -1.00000000
v 1.00000000 0.32500005 0.89687500
vt 0.07025331 0.45312500
vn 0.00000000 0.00000000 -1.00000000
f 568/568/568 569/569/569 570/570/570
v 1.00000000 0.22499990 0.89687500
vt 0.07025331 0.45898438
vn 0.00000000 0.00000000 -1.00000000
v 0.88125000 0.22499990 0.89687500
vt 0.07812500 0.45898438
vn 0.00000000 0.00000000 -1.00000000
v 0.88125000 0.32500005 0.89687500
vt 0.07812500 0.45312500
vn 0.00000000 0.00000000 -1.00000000
f 571/571/571 572/572/572 573/573/573
v 1.00000000 0.22499990 0.89687500
vt 0.07025331 0.45898438
vn 0.00000000 0.00000000 -1.00000000
v 0.88125000 0.32500005 0.89687500
vt 0.07812500 0.45312500
vn 0.00000000 0.00000000 -1.00000000
v 1.00000000 0.26742421 0.89687500
vt 0.07025331 0.45649858
vn 0.00000000 0.00000000 -1.00000000
f 574/574/574 575/575/575 576/576/576
v 0.31595499 0.00067531 0.75625001
vt 0.65429688 0.30468750
vn -0.99026807 0.13917310 0.00000000
v 0.31586008 0.00000000 0.75625001
vt 0.65429688 0.30472875
vn -0.99026807 0.13917310 0.00000000
v 0.31586008 0.00000000 1.00000000
vt 0.66913555 0.30472875
vn -0.99026807 0.13917310 0.00000000
f 577/577/577 578/578/578 579/579/579
v 0.31595499 0.00067531 0.75625001
vt 0.65429688 0.30468750
vn -0.99026807 0.13917310 0.00000000
v 0.31586008 0.00000000 1.00000000
vt 0.66913555 0.30472875
vn -0.99026807 0.13917310 0.00000000
v 0.31595499 0.00067531 1.00000000
vt 0.66913555 0.30468750
vn -0.99026807 0.13917310 0.00000000
f 580/580/580 581/581/581 582/582/582
v 0.31595499 0.00067531 0.75625001
vt 0.18750000 0.30468750
vn 0.13917310 0.99026807 0.00000000
v 0.31595499 0.00067531 1.00000000
vt 0.18750000 0.31952618
vn 0.13917310 0.99026807 0.00000000
v 0.32076009 0.00000000 1.00000000
vt 0.18780946 0.31952618
vn 0.13917310 0.99026807 0.00000000
f 583/583/583 584/584/584 585/585/585
v 0.31595499 0.00067531 0.75625001
vt 0.18750000 0.30468750
vn 0.13917310 0.99026807 0.00000000
v 0.32076009 0.00000000 1.00000000
vt 0.18780946 0.31952618
vn 0.13917310 0.99026807 0.00000000
v 0.32076009 0.00000000 0.75625001
vt 0.18780946 0.30468750
vn 0.13917310 0.99026807 0.00000000
f 586/586/586 587/587/587 588/588/588
v 0.31634993 0.00000000 0.75625001
vt 0.75387531 0.30472462
vn 0.00000000 0.00000000 -1.00000000
v 0.31595499 0.00067531 0.75625001
vt 0.75390625 0.30468750
vn 0.00000000 0.00000000 -1.00000000
v 0.32076009 0.00000000 0.75625001
vt 0.75359679 0.30468750
vn 0.00000000 0.00000000 -1.00000000
f 589/589/589 590/590/590 591/591/591
v 0.31586008 0.00000000 0.75625001
vt 0.75390625 0.30472875
vn 0.00000000 0.00000000 -1.00000000
v 0.31595499 0.00067531 0.75625001
vt 0.75390625 0.30468750
vn 0.00000000 0.00000000 -1.00000000
v 0.31634993 0.00000000 0.75625001
vt 0.75387531 0.30472462
vn 0.00000000 0.00000000 -1.00000000
f 592/592/592 593/593/593 594/594/594
v 0.38749999 0.78749990 0.59375000
vt 0.02539062 0.00195312
vn 1.00000000 0.00000000 0.00000000
v 0.38749999 0.00000000 0.59375000
vt 0.02539062 0.05103739
vn 1.00000000 0.00000000 0.00000000
v 0.38749999 0.00000000 0.52202869
vt 0.03051358 0.05103739
vn 1.00000000 0.00000000 0.00000000
f 595/595/595 596/596/596 597/597/597
v 0.38749999 0.78749990 0.59375000
vt 0.02539062 0.00195312
vn 1.00000000 0.00000000 0.00000000
v 0.38749999 0.00000000 0.52202869
vt 0.03051358 0.05103739
vn 1.00000000 0.00000000 0.00000000
v 0.38749999 0.78749990 0.48437500
vt 0.03320312 0.00195312
vn 1.00000000 0.00000000 0.00000000
f 598/598/598 599/599/599 600/600/600
v 0.38749999 0.00000000 0.48437500
vt 0.03320312 0.05103739
vn 1.00000000 0.00000000 0.00000000
v 0.38749999 0.78749990 0.48437500
vt 0.03320312 0.00195312
vn 1.00000000 0.00000000 0.00000000
v 0.38749999 0.00000000 0.52202869
vt 0.03051358 0.05103739
vn 1.00000000 0.00000000 0.00000000
f 601/601/601 602/602/602 603/603/603
v 0.27812499 0.78749990 0.48437500
vt 0.03710938 0.00195312
vn -1.00000000 0.00000000 0.00000000
v 0.27812499 0.00000000 0.48437500
vt 0.03710938 0.05103739
vn -1.00000000 0.00000000 0.00000000
v 0.27812499 0.00000000 0.55609631
vt 0.04223233 0.05103739
vn -1.00000000 0.00000000 0.00000000
f 604/604/604 605/605/605 606/606/606
v 0.27812499 0.78749990 0.48437500
vt 0.03710938 0.00195312
vn -1.00000000 0.00000000 0.00000000
v 0.27812499 0.00000000 0.55609631
vt 0.04223233 0.05103739
vn -1.00000000 0.00000000 0.00000000
v 0.27812499 0.78749990 0.59375000
vt 0.04492188 0.00195312
vn -1.00000000 0.00000000 0.00000000
f 607/607/607 608/608/608 609/609/609
v 0.27812499 0.00000000 0.59375000
vt 0.04492188 0.05103739
vn -1.00000000 0.00000000 0.00000000
v 0.27812499 0.78749990 0.59375000
vt 0.04492188 0.00195312
vn -1.00000000 0.00000000 0.00000000
v 0.27812499 0.00000000 0.55609631
vt 0.04223233 0.05103739
vn -1.00000000 0.00000000 0.00000000
f 610/610/610 611/611/611 612/612/612
v 0.27812499 0.78749990 0.48437500
vt 0.22070312 0.43164062
vn 0.00000000 1.00000000 0.00000000
v 0.27812499 0.78749990 0.59375000
vt 0.22070312 0.43945312
vn 0.00000000 1.00000000 0.00000000
v 0.38749999 0.78749990 0.48437500
vt 0.22851562 0.43164062
vn 0.00000000 1.00000000 0.00000000
f 613/613/613 614/614/614 615/615/615
v 0.27812499 0.78749990 0.59375000
vt 0.22070312 0.43945312
vn 0.00000000 1.00000000 0.00000000
v 0.38749999 0.78749990 0.59375000
vt 0.22851562 0.43945312
vn 0.00000000 1.00000000 0.00000000
v 0.38749999 0.78749990 0.48437500
vt 0.22851562 0.43164062
vn 0.00000000 1.00000000 0.00000000
f 616/616/616 617/617/617 618/618/618
v 0.27812499 0.78749990 0.59375000
vt 0.01367188 0.00195312
vn 0.00000000 0.00000000 1.00000000
v 0.27812499 0.00000000 0.59375000
vt 0.01367188 0.05103739
vn 0.00000000 0.00000000 1.00000000
v 0.34984630 0.00000000 0.59375000
vt 0.01879483 0.05103739
vn 0.00000000 0.00000000 1.00000000
f 619/619/619 620/620/620 621/621/621
v 0.27812499 0.78749990 0.59375000
vt 0.01367188 0.00195312
vn 0.00000000 0.00000000 1.00000000
v 0.34984630 0.00000000 0.59375000
vt 0.01879483 0.05103739
vn 0.00000000 0.00000000 1.00000000
v 0.38749999 0.78749990 0.59375000
vt 0.02148438 0.00195312
vn 0.00000000 0.00000000 1.00000000
f 622/622/622 623/623/623 624/624/624
v 0.38749999 0.00000000 0.59375000
vt 0.02148438 0.05103739
vn 0.00000000 0.00000000 1.00000000
v 0.38749999 0.78749990 0.59375000
vt 0.02148438 0.00195312
vn 0.00000000 0.00000000 1.00000000
v 0.34984630 0.00000000 0.59375000
vt 0.01879483 0.05103739
vn 0.00000000 0.00000000 1.00000000
f 625/625/625 626/626/626 627/627/627
v 0.38749999 0.78749990 0.48437500
vt 0.00195312 0.00195312
vn 0.00000000 0.00000000 -1.00000000
v 0.38749999 0.00000000 0.48437500
vt 0.00195312 0.05103739
vn 0.00000000 0.00000000 -1.00000000
v 0.31577867 0.00000000 0.48437500
vt 0.00707608 0.05103739
vn 0.00000000 0.00000000 -1.00000000
f 628/628/628 629/629/629 630/630/630
v 0.38749999 0.78749990 0.48437500
vt 0.00195312 0.00195312
vn 0.00000000 0.00000000 -1.00000000
v 0.31577867 0.00000000 0.48437500
vt 0.00707608 0.05103739
vn 0.00000000 0.00000000 -1.00000000
v 0.27812499 0.78749990 0.48437500
vt 0.00976562 0.00195312
vn 0.00000000 0.00000000 -1.00000000
f 631/631/631 632/632/632 633/633/633
v 0.27812499 0.00000000 0.48437500
vt 0.00976562 0.05103739
vn 0.00000000 0.00000000 -1.00000000
v 0.27812499 0.78749990 0.48437500
vt 0.00976562 0.00195312
vn 0.00000000 0.00000000 -1.00000000
v 0.31577867 0.00000000 0.48437500
vt 0.00707608 0.05103739
vn 0.00000000 0.00000000 -1.00000000
f 634/634/634 635/635/635 636/636/636
v 0.40625000 0.87500000 0.60937500
vt 0.66992188 0.38671875
vn 1.00000000 0.00000000 0.00000000
v 0.40625000 0.70000005 0.60937500
vt 0.66992188 0.39843750
vn 1.00000000 0.00000000 0.00000000
v 0.40625000 0.87500000 0.46875000
vt 0.67773438 0.38671875
vn 1.00000000 0.00000000 0.00000000
f 637/637/637 638/638/638 639/639/639
v 0.40625000 0.70000005 0.60937500
vt 0.66992188 0.39843750
vn 1.00000000 0.00000000 0.00000000
v 0.40625000 0.70000005 0.46875000
vt 0.67773438 0.39843750
vn 1.00000000 0.00000000 0.00000000
v 0.40625000 0.87500000 0.46875000
vt 0.67773438 0.38671875
vn 1.00000000 0.00000000 0.00000000
f 640/640/640 641/641/641 642/642/642
v 0.25937498 0.87500000 0.46875000
vt 0.68164062 0.38671875
vn -1.00000000 0.00000000 0.00000000
v 0.25937498 0.70000005 0.46875000
vt 0.68164062 0.39843750
vn -1.00000000 0.00000000 0.00000000
v 0.25937498 0.87500000 0.60937500
vt 0.68945312 0.38671875
vn -1.00000000 0.00000000 0.00000000
f 643/643/643 644/644/644 645/645/645
v 0.25937498 0.70000005 0.46875000
vt 0.68164062 0.39843750
vn -1.00000000 0.00000000 0.00000000
v 0.25937498 0.70000005 0.60937500
vt 0.68945312 0.39843750
vn -1.00000000 0.00000000 0.00000000
v 0.25937498 0.87500000 0.60937500
vt 0.68945312 0.38671875
vn -1.00000000 0.00000000 0.00000000
f 646/646/646 647/647/647 648/648/648
v 0.25937498 0.87500000 0.46875000
vt 0.09570312 0.43164062
vn 0.00000000 1.00000000 0.00000000
v 0.25937498 0.87500000 0.60937500
vt 0.09570312 0.43945312
vn 0.00000000 1.00000000 0.00000000
v 0.40625000 0.87500000 0.46875000
vt 0.10546875 0.43164062
vn 0.00000000 1.00000000 0.00000000
f 649/649/649 650/650/650 651/651/651
v 0.25937498 0.87500000 0.60937500
vt 0.09570312 0.43945312
vn 0.00000000 1.00000000 0.00000000
v 0.40625000 0.87500000 0.60937500
vt 0.10546875 0.43945312
vn 0.00000000 1.00000000 0.00000000
v 0.40625000 0.87500000 0.46875000
vt 0.10546875 0.43164062
vn 0.00000000 1.00000000 0.00000000
f 652/652/652 653/653/653 654/654/654
v 0.25937498 0.70000005 0.60937500
vt 0.10937500 0.43164062
vn 0.00000000 -1.00000000 0.00000000
v 0.25937498 0.70000005 0.46875000
vt 0.10937500 0.43945312
vn 0.00000000 -1.00000000 0.00000000
v 0.40625000 0.70000005 0.60937500
vt 0.11914062 0.43164062
vn 0.00000000 -1.00000000 0.00000000
f 655/655/655 656/656/656 657/657/657
v 0.25937498 0.70000005 0.46875000
vt 0.10937500 0.43945312
vn 0.00000000 -1.00000000 0.00000000
v 0.40625000 0.70000005 0.46875000
vt 0.11914062 0.43945312
vn 0.00000000 -1.00000000 0.00000000
v 0.40625000 0.70000005 0.60937500
vt 0.11914062 0.43164062
vn 0.00000000 -1.00000000 0.00000000
f 658/658/658 659/659/659 660/660/660
v 0.25937498 0.87500000 0.60937500
vt 0.63281250 0.38671875
vn 0.00000000 0.00000000 1.00000000
v 0.25937498 0.70000005 0.60937500
vt 0.63281250 0.39843750
vn 0.00000000 0.00000000 1.00000000
v 0.40625000 0.87500000 0.60937500
vt 0.64257812 0.38671875
vn 0.00000000 0.00000000 1.00000000
f 661/661/661 662/662/662 663/663/663
v 0.25937498 0.70000005 0.60937500
vt 0.63281250 0.39843750
vn 0.00000000 0.00000000 1.00000000
v 0.40625000 0.70000005 0.60937500
vt 0.64257812 0.39843750
vn 0.00000000 0.00000000 1.00000000
v 0.40625000 0.87500000 0.60937500
vt 0.64257812 0.38671875
vn 0.00000000 0.00000000 1.00000000
f 664/664/664 665/665/665 666/666/666
v 0.40625000 0.87500000 0.46875000
vt 0.61914062 0.38671875
vn 0.00000000 0.00000000 -1.00000000
v 0.40625000 0.70000005 0.46875000
vt 0.61914062 0.39843750
vn 0.00000000 0.00000000 -1.00000000
v 0.25937498 0.87500000 0.46875000
vt 0.62890625 0.38671875
vn 0.00000000 0.00000000 -1.00000000
f 667/667/667 668/668/668 669/669/669
v 0.40625000 0.70000005 0.46875000
vt 0.61914062 0.39843750
vn 0.00000000 0.00000000 -1.00000000
v 0.25937498 0.70000005 0.46875000
vt 0.62890625 0.39843750
vn 0.00000000 0.00000000 -1.00000000
v 0.25937498 0.87500000 0.46875000
vt 0.62890625 0.38671875
vn 0.00000000 0.00000000 -1.00000000
f 670/670/670 671/671/671 672/672/672
v 0.73124999 0.74375010 0.98750000
vt 0.40039062 0.47851562
vn 1.00000000 0.00000000 0.00000000
v 0.73124999 0.72499990 0.98750000
vt 0.40039062 0.48046875
vn 1.00000000 0.00000000 0.00000000
v 0.73124999 0.74375010 0.84375000
vt 0.41015625 0.47851562
vn 1.00000000 0.00000000 0.00000000
f 673/673/673 674/674/674 675/675/675
v 0.73124999 0.72499990 0.98750000
vt 0.40039062 0.48046875
vn 1.00000000 0.00000000 0.00000000
v 0.73124999 0.72499990 0.84375000
vt 0.41015625 0.48046875
vn 1.00000000 0.00000000 0.00000000
v 0.73124999 0.74375010 0.84375000
vt 0.41015625 0.47851562
vn 1.00000000 0.00000000 0.00000000
f 676/676/676 677/677/677 678/678/678
v 0.63749999 0.74375010 0.84375000
vt 0.41406250 0.47851562
vn -1.00000000 0.00000000 0.00000000
v 0.63749999 0.72499990 0.84375000
vt 0.41406250 0.48046875
vn -1.00000000 0.00000000 0.00000000
v 0.63749999 0.74375010 0.98750000
vt 0.42382812 0.47851562
vn -1.00000000 0.00000000 0.00000000
f 679/679/679 680/680/680 681/681/681
v 0.63749999 0.72499990 0.84375000
vt 0.41406250 0.48046875
vn -1.00000000 0.00000000 0.00000000
v 0.63749999 0.72499990 0.98750000
vt 0.42382812 0.48046875
vn -1.00000000 0.00000000 0.00000000
v 0.63749999 0.74375010 0.98750000
vt 0.42382812 0.47851562
vn -1.00000000 0.00000000 0.00000000
f 682/682/682 683/683/683 684/684/684
v 0.63749999 0.74375010 0.84375000
vt 0.85351562 0.40625000
vn 0.00000000 1.00000000 0.00000000
v 0.63749999 0.74375010 0.98750000
vt 0.85351562 0.41601562
vn 0.00000000 1.00000000 0.00000000
v 0.73124999 0.74375010 0.84375000
vt 0.85937500 0.40625000
vn 0.00000000 1.00000000 0.00000000
f 685/685/685 686/686/686 687/687/687
v 0.63749999 0.74375010 0.98750000
vt 0.85351562 0.41601562
vn 0.00000000 1.00000000 0.00000000
v 0.73124999 0.74375010 0.98750000
vt 0.85937500 0.41601562
vn 0.00000000 1.00000000 0.00000000
v 0.73124999 0.74375010 0.84375000
vt 0.85937500 0.40625000
vn 0.00000000 1.00000000 0.00000000
f 688/688/688 689/689/689 690/690/690
v 0.63749999 0.72499990 0.98750000
vt 0.86328125 0.40625000
vn 0.00000000 -1.00000000 0.00000000
v 0.63749999 0.72499990 0.84375000
vt 0.86328125 0.41601562
vn 0.00000000 -1.00000000 0.00000000
v 0.73124999 0.72499990 0.98750000
vt 0.86914062 0.40625000
vn 0.00000000 -1.00000000 0.00000000
f 691/691/691 692/692/692 693/693/693
v 0.63749999 0.72499990 0.84375000
vt 0.86328125 0.41601562
vn 0.00000000 -1.00000000 0.00000000
v 0.73124999 0.72499990 0.84375000
vt 0.86914062 0.41601562
vn 0.00000000 -1.00000000 0.00000000
v 0.73124999 0.72499990 0.98750000
vt 0.86914062 0.40625000
vn 0.00000000 -1.00000000 0.00000000
f 694/694/694 695/695/695 696/696/696
v 0.63749999 0.74375010 0.98750000
vt 0.63281250 0.47851562
vn 0.00000000 0.00000000 1.00000000
v 0.63749999 0.72499990 0.98750000
vt 0.63281250 0.48046875
vn 0.00000000 0.00000000 1.00000000
v 0.73124999 0.74375010 0.98750000
vt 0.63867188 0.47851562
vn 0.00000000 0.00000000 1.00000000
f 697/697/697 698/698/698 699/699/699
v 0.63749999 0.72499990 0.98750000
vt 0.63281250 0.48046875
vn 0.00000000 0.00000000 1.00000000
v 0.73124999 0.72499990 0.98750000
vt 0.63867188 0.48046875
vn 0.00000000 0.00000000 1.00000000
v 0.73124999 0.74375010 0.98750000
vt 0.63867188 0.47851562
vn 0.00000000 0.00000000 1.00000000
f 700/700/700 701/701/701 702/702/702
v 0.73124999 0.74375010 0.84375000
vt 0.62304688 0.47851562
vn 0.00000000 0.00000000 -1.00000000
v 0.73124999 0.72499990 0.84375000
vt 0.62304688 0.48046875
vn 0.00000000 0.00000000 -1.00000000
v 0.63749999 0.74375010 0.84375000
vt 0.62890625 0.47851562
vn 0.00000000 0.00000000 -1.00000000
f 703/703/703 704/704/704 705/705/705
v 0.73124999 0.72499990 0.84375000
vt 0.62304688 0.48046875
vn 0.00000000 0.00000000 -1.00000000
v 0.63749999 0.72499990 0.84375000
vt 0.62890625 0.48046875
vn 0.00000000 0.00000000 -1.00000000
v 0.63749999 0.74375010 0.84375000
vt 0.62890625 0.47851562
vn 0.00000000 0.00000000 -1.00000000
f 706/706/706 707/707/707 708/708/708
