# Generated from the approved Charon statue B; positions are in blocks.
mtllib kingdoms:models/block/charon_statue/charon_statue.mtl
s off
usemtl stone
v 0.50000000 0.09375000 0.43750000
vt 0.83398438 0.26953125
vn 1.00000000 0.00000000 0.00000000
v 0.50000000 0.00000000 0.43750000
vt 0.83398438 0.27539062
vn 1.00000000 0.00000000 0.00000000
v 0.50000000 0.00000000 0.00000000
vt 0.86107017 0.27539062
vn 1.00000000 0.00000000 0.00000000
f 1/1/1 2/2/2 3/3/3
v 0.50000000 0.09375000 0.43750000
vt 0.83398438 0.26953125
vn 1.00000000 0.00000000 0.00000000
v 0.50000000 0.00000000 0.00000000
vt 0.86107017 0.27539062
vn 1.00000000 0.00000000 0.00000000
v 0.50000000 0.09375000 0.00000000
vt 0.86107017 0.26953125
vn 1.00000000 0.00000000 0.00000000
f 4/4/4 5/5/5 6/6/6
v 0.00000000 0.09375000 0.10419254
vt 0.28730348 0.23913043
vn 0.00000000 1.00000000 0.00000000
v 0.15825471 0.09375000 0.00000000
vt 0.29713296 0.23267983
vn 0.00000000 1.00000000 0.00000000
v 0.00000000 0.09375000 0.00000000
vt 0.28730348 0.23267983
vn 0.00000000 1.00000000 0.00000000
f 7/7/7 8/8/8 9/9/9
v 0.00000000 0.09375000 0.43750000
vt 0.28730348 0.25976562
vn 0.00000000 1.00000000 0.00000000
v 0.50000000 0.09375000 0.43750000
vt 0.31835938 0.25976562
vn 0.00000000 1.00000000 0.00000000
v 0.50000000 0.09375000 0.00000000
vt 0.31835938 0.23267983
vn 0.00000000 1.00000000 0.00000000
f 10/10/10 11/11/11 12/12/12
v 0.00000000 0.09375000 0.43750000
vt 0.28730348 0.25976562
vn 0.00000000 1.00000000 0.00000000
v 0.50000000 0.09375000 0.00000000
vt 0.31835938 0.23267983
vn 0.00000000 1.00000000 0.00000000
v 0.15825471 0.09375000 0.00000000
vt 0.29713296 0.23267983
vn 0.00000000 1.00000000 0.00000000
f 13/13/13 14/14/14 15/15/15
v 0.00000000 0.09375000 0.43750000
vt 0.28730348 0.25976562
vn 0.00000000 1.00000000 0.00000000
v 0.15825471 0.09375000 0.00000000
vt 0.29713296 0.23267983
vn 0.00000000 1.00000000 0.00000000
v 0.00000000 0.09375000 0.10419254
vt 0.28730348 0.23913043
vn 0.00000000 1.00000000 0.00000000
f 16/16/16 17/17/17 18/18/18
v 0.29875000 0.00000000 0.43750000
vt 0.59492188 0.27539062
vn 0.00000000 0.00000000 1.00000000
v 0.50000000 0.09375000 0.43750000
vt 0.60742188 0.26953125
vn 0.00000000 0.00000000 1.00000000
v 0.00000000 0.09375000 0.43750000
vt 0.57636598 0.26953125
vn 0.00000000 0.00000000 1.00000000
f 19/19/19 20/20/20 21/21/21
v 0.29875000 0.00000000 0.43750000
vt 0.59492188 0.27539062
vn 0.00000000 0.00000000 1.00000000
v 0.00000000 0.09375000 0.43750000
vt 0.57636598 0.26953125
vn 0.00000000 0.00000000 1.00000000
v 0.00000000 0.00000000 0.43750000
vt 0.57636598 0.27539062
vn 0.00000000 0.00000000 1.00000000
f 22/22/22 23/23/23 24/24/24
v 0.50000000 0.00000000 0.43750000
vt 0.60742188 0.27539062
vn 0.00000000 0.00000000 1.00000000
v 0.50000000 0.09375000 0.43750000
vt 0.60742188 0.26953125
vn 0.00000000 0.00000000 1.00000000
v 0.29875000 0.00000000 0.43750000
vt 0.59492188 0.27539062
vn 0.00000000 0.00000000 1.00000000
f 25/25/25 26/26/26 27/27/27
v 0.51249999 0.25000000 0.53750002
vt 0.19335938 0.36328125
vn 1.00000000 0.00000000 0.00000000
v 0.51249999 0.00000000 0.53750002
vt 0.19335938 0.37890625
vn 1.00000000 0.00000000 0.00000000
v 0.51249999 0.00000000 0.42375002
vt 0.20039062 0.37890625
vn 1.00000000 0.00000000 0.00000000
f 28/28/28 29/29/29 30/30/30
v 0.51249999 0.25000000 0.53750002
vt 0.19335938 0.36328125
vn 1.00000000 0.00000000 0.00000000
v 0.51249999 0.00000000 0.42375002
vt 0.20039062 0.37890625
vn 1.00000000 0.00000000 0.00000000
v 0.51249999 0.23282967 0.00000000
vt 0.22658396 0.36435440
vn 1.00000000 0.00000000 0.00000000
f 31/31/31 32/32/32 33/33/33
v 0.51249999 0.25000000 0.53750002
vt 0.19335938 0.36328125
vn 1.00000000 0.00000000 0.00000000
v 0.51249999 0.23282967 0.00000000
vt 0.22658396 0.36435440
vn 1.00000000 0.00000000 0.00000000
v 0.51249999 0.25000000 0.00000000
vt 0.22658396 0.36328125
vn 1.00000000 0.00000000 0.00000000
f 34/34/34 35/35/35 36/36/36
v 0.51249999 0.23282967 0.00000000
vt 0.22658396 0.36435440
vn 1.00000000 0.00000000 0.00000000
v 0.51249999 0.00000000 0.42375002
vt 0.20039062 0.37890625
vn 1.00000000 0.00000000 0.00000000
v 0.51249999 0.00000000 0.00000000
vt 0.22658396 0.37890625
vn 1.00000000 0.00000000 0.00000000
f 37/37/37 38/38/38 39/39/39
v 0.00000000 0.25000000 0.24148393
vt 0.71229669 0.23560855
vn 0.00000000 1.00000000 0.00000000
v 0.45377747 0.25000000 0.00000000
vt 0.74049193 0.22068166
vn 0.00000000 1.00000000 0.00000000
v 0.00000000 0.25000000 0.00000000
vt 0.71229669 0.22068166
vn 0.00000000 1.00000000 0.00000000
f 40/40/40 41/41/41 42/42/42
v 0.00000000 0.25000000 0.53750002
vt 0.71229669 0.25390625
vn 0.00000000 1.00000000 0.00000000
v 0.51249999 0.25000000 0.53750002
vt 0.74414062 0.25390625
vn 0.00000000 1.00000000 0.00000000
v 0.51249999 0.25000000 0.00000000
vt 0.74414062 0.22068166
vn 0.00000000 1.00000000 0.00000000
f 43/43/43 44/44/44 45/45/45
v 0.00000000 0.25000000 0.53750002
vt 0.71229669 0.25390625
vn 0.00000000 1.00000000 0.00000000
v 0.51249999 0.25000000 0.00000000
vt 0.74414062 0.22068166
vn 0.00000000 1.00000000 0.00000000
v 0.45377747 0.25000000 0.00000000
vt 0.74049193 0.22068166
vn 0.00000000 1.00000000 0.00000000
f 46/46/46 47/47/47 48/48/48
v 0.00000000 0.25000000 0.53750002
vt 0.71229669 0.25390625
vn 0.00000000 1.00000000 0.00000000
v 0.45377747 0.25000000 0.00000000
vt 0.74049193 0.22068166
vn 0.00000000 1.00000000 0.00000000
v 0.00000000 0.25000000 0.24148393
vt 0.71229669 0.23560855
vn 0.00000000 1.00000000 0.00000000
f 49/49/49 50/50/50 51/51/51
v 0.00000000 0.10014620 0.53750002
vt 0.72206232 0.34725649
vn 0.00000000 0.00000000 1.00000000
v 0.51249999 0.25000000 0.53750002
vt 0.75390625 0.33789062
vn 0.00000000 0.00000000 1.00000000
v 0.00000000 0.25000000 0.53750002
vt 0.72206232 0.33789062
vn 0.00000000 0.00000000 1.00000000
f 52/52/52 53/53/53 54/54/54
v 0.51249999 0.00000000 0.53750002
vt 0.75390625 0.35351562
vn 0.00000000 0.00000000 1.00000000
v 0.51249999 0.25000000 0.53750002
vt 0.75390625 0.33789062
vn 0.00000000 0.00000000 1.00000000
v 0.00000000 0.10014620 0.53750002
vt 0.72206232 0.34725649
vn 0.00000000 0.00000000 1.00000000
f 55/55/55 56/56/56 57/57/57
v 0.51249999 0.00000000 0.53750002
vt 0.75390625 0.35351562
vn 0.00000000 0.00000000 1.00000000
v 0.00000000 0.10014620 0.53750002
vt 0.72206232 0.34725649
vn 0.00000000 0.00000000 1.00000000
v 0.00000000 0.00000000 0.53750002
vt 0.72206232 0.35351562
vn 0.00000000 0.00000000 1.00000000
f 58/58/58 59/59/59 60/60/60
v 0.64278182 0.19388087 0.41874999
vt 0.10351562 0.36328125
vn 0.97437006 0.22495105 0.00000000
v 0.68754275 0.00000000 0.41874999
vt 0.10351562 0.37623572
vn 0.97437006 0.22495105 0.00000000
v 0.68754275 0.00000000 0.19987489
vt 0.11732685 0.37623572
vn 0.97437006 0.22495105 0.00000000
f 61/61/61 62/62/62 63/63/63
v 0.64278182 0.19388087 0.41874999
vt 0.10351562 0.36328125
vn 0.97437006 0.22495105 0.00000000
v 0.68754275 0.00000000 0.19987489
vt 0.11732685 0.37623572
vn 0.97437006 0.22495105 0.00000000
v 0.66679102 0.08988560 0.00000000
vt 0.12993915 0.37022987
vn 0.97437006 0.22495105 0.00000000
f 64/64/64 65/65/65 66/66/66
v 0.64278182 0.19388087 0.41874999
vt 0.10351562 0.36328125
vn 0.97437006 0.22495105 0.00000000
v 0.66679102 0.08988560 0.00000000
vt 0.12993915 0.37022987
vn 0.97437006 0.22495105 0.00000000
v 0.64278182 0.19388087 0.00000000
vt 0.12993915 0.36328125
vn 0.97437006 0.22495105 0.00000000
f 67/67/67 68/68/68 69/69/69
v 0.66679102 0.08988560 0.00000000
vt 0.12993915 0.37022987
vn 0.97437006 0.22495105 0.00000000
v 0.68754275 0.00000000 0.19987489
vt 0.11732685 0.37623572
vn 0.97437006 0.22495105 0.00000000
v 0.68754275 0.00000000 0.00000000
vt 0.12993915 0.37623572
vn 0.97437006 0.22495105 0.00000000
f 70/70/70 71/71/71 72/72/72
v 0.30909310 0.00000000 0.00000000
vt 0.16302960 0.37069323
vn -0.97437006 -0.22495105 0.00000000
v 0.30909310 0.00000000 0.17207916
vt 0.17388796 0.37069323
vn -0.97437006 -0.22495105 0.00000000
v 0.28348286 0.11093016 0.41874999
vt 0.18945312 0.36328125
vn -0.97437006 -0.22495105 0.00000000
f 73/73/73 74/74/74 75/75/75
v 0.30909310 0.00000000 0.00000000
vt 0.16302960 0.37069323
vn -0.97437006 -0.22495105 0.00000000
v 0.28348286 0.11093016 0.41874999
vt 0.18945312 0.36328125
vn -0.97437006 -0.22495105 0.00000000
v 0.28348286 0.11093016 0.00000000
vt 0.16302960 0.36328125
vn -0.97437006 -0.22495105 0.00000000
f 76/76/76 77/77/77 78/78/78
v 0.30909310 0.00000000 0.41874999
vt 0.18945312 0.37069323
vn -0.97437006 -0.22495105 0.00000000
v 0.28348286 0.11093016 0.41874999
vt 0.18945312 0.36328125
vn -0.97437006 -0.22495105 0.00000000
v 0.30909310 0.00000000 0.17207916
vt 0.17388796 0.37069323
vn -0.97437006 -0.22495105 0.00000000
f 79/79/79 80/80/80 81/81/81
v 0.28348286 0.11093016 0.00000000
vt 0.50585938 0.23334210
vn -0.22495105 0.97437006 0.00000000
v 0.28348286 0.11093016 0.41874999
vt 0.50585938 0.25976562
vn -0.22495105 0.97437006 0.00000000
v 0.51495431 0.16436956 0.00000000
vt 0.52095853 0.23334210
vn -0.22495105 0.97437006 0.00000000
f 82/82/82 83/83/83 84/84/84
v 0.28348286 0.11093016 0.41874999
vt 0.50585938 0.25976562
vn -0.22495105 0.97437006 0.00000000
v 0.64278182 0.19388087 0.41874999
vt 0.52929688 0.25976562
vn -0.22495105 0.97437006 0.00000000
v 0.64278182 0.19388087 0.00000000
vt 0.52929688 0.23334210
vn -0.22495105 0.97437006 0.00000000
f 85/85/85 86/86/86 87/87/87
v 0.28348286 0.11093016 0.41874999
vt 0.50585938 0.25976562
vn -0.22495105 0.97437006 0.00000000
v 0.64278182 0.19388087 0.00000000
vt 0.52929688 0.23334210
vn -0.22495105 0.97437006 0.00000000
v 0.51495431 0.16436956 0.00000000
vt 0.52095853 0.23334210
vn -0.22495105 0.97437006 0.00000000
f 88/88/88 89/89/89 90/90/90
v 0.28348286 0.11093016 0.41874999
vt 0.36132812 0.36328125
vn 0.00000000 0.00000000 1.00000000
v 0.30909310 0.00000000 0.41874999
vt 0.36132812 0.37069323
vn 0.00000000 0.00000000 1.00000000
v 0.49201483 0.00000000 0.41874999
vt 0.37265652 0.37337217
vn 0.00000000 0.00000000 1.00000000
f 91/91/91 92/92/92 93/93/93
v 0.28348286 0.11093016 0.41874999
vt 0.36132812 0.36328125
vn 0.00000000 0.00000000 1.00000000
v 0.49201483 0.00000000 0.41874999
vt 0.37265652 0.37337217
vn 0.00000000 0.00000000 1.00000000
v 0.64278182 0.19388087 0.41874999
vt 0.38476562 0.36328125
vn 0.00000000 0.00000000 1.00000000
f 94/94/94 95/95/95 96/96/96
v 0.68754275 0.00000000 0.41874999
vt 0.38476562 0.37623572
vn 0.00000000 0.00000000 1.00000000
v 0.64278182 0.19388087 0.41874999
vt 0.38476562 0.36328125
vn 0.00000000 0.00000000 1.00000000
v 0.49201483 0.00000000 0.41874999
vt 0.37265652 0.37337217
vn 0.00000000 0.00000000 1.00000000
f 97/97/97 98/98/98 99/99/99
v 0.31874999 0.76874995 0.43125001
vt 0.37695312 0.26953125
vn 1.00000000 0.00000000 0.00000000
v 0.31874999 0.26874995 0.43125001
vt 0.37695312 0.30078125
vn 1.00000000 0.00000000 0.00000000
v 0.31874999 0.76874995 0.14062500
vt 0.39453125 0.26953125
vn 1.00000000 0.00000000 0.00000000
f 100/100/100 101/101/101 102/102/102
v 0.31874999 0.26874995 0.43125001
vt 0.37695312 0.30078125
vn 1.00000000 0.00000000 0.00000000
v 0.31874999 0.26874995 0.14062500
vt 0.39453125 0.30078125
vn 1.00000000 0.00000000 0.00000000
v 0.31874999 0.76874995 0.14062500
vt 0.39453125 0.26953125
vn 1.00000000 0.00000000 0.00000000
f 103/103/103 104/104/104 105/105/105
v 0.00000000 0.76874995 0.28045401
vt 0.71854732 0.37173865
vn 0.00000000 1.00000000 0.00000000
v 0.31874999 0.76874995 0.14062500
vt 0.73828125 0.36328125
vn 0.00000000 1.00000000 0.00000000
v 0.00000000 0.76874995 0.14062500
vt 0.71854732 0.36328125
vn 0.00000000 1.00000000 0.00000000
f 106/106/106 107/107/107 108/108/108
v 0.00000000 0.76874995 0.43125001
vt 0.71854732 0.38085938
vn 0.00000000 1.00000000 0.00000000
v 0.31874999 0.76874995 0.43125001
vt 0.73828125 0.38085938
vn 0.00000000 1.00000000 0.00000000
v 0.31874999 0.76874995 0.14062500
vt 0.73828125 0.36328125
vn 0.00000000 1.00000000 0.00000000
f 109/109/109 110/110/110 111/111/111
v 0.00000000 0.76874995 0.43125001
vt 0.71854732 0.38085938
vn 0.00000000 1.00000000 0.00000000
v 0.31874999 0.76874995 0.14062500
vt 0.73828125 0.36328125
vn 0.00000000 1.00000000 0.00000000
v 0.00000000 0.76874995 0.28045401
vt 0.71854732 0.37173865
vn 0.00000000 1.00000000 0.00000000
f 112/112/112 113/113/113 114/114/114
v 0.00000000 0.26874995 0.29142100
vt 0.76346919 0.37173865
vn 0.00000000 -1.00000000 0.00000000
v 0.31874999 0.26874995 0.43125001
vt 0.78320312 0.36328125
vn 0.00000000 -1.00000000 0.00000000
v 0.00000000 0.26874995 0.43125001
vt 0.76346919 0.36328125
vn 0.00000000 -1.00000000 0.00000000
f 115/115/115 116/116/116 117/117/117
v 0.00000000 0.26874995 0.14062500
vt 0.76346919 0.38085938
vn 0.00000000 -1.00000000 0.00000000
v 0.31874999 0.26874995 0.14062500
vt 0.78320312 0.38085938
vn 0.00000000 -1.00000000 0.00000000
v 0.31874999 0.26874995 0.43125001
vt 0.78320312 0.36328125
vn 0.00000000 -1.00000000 0.00000000
f 118/118/118 119/119/119 120/120/120
v 0.00000000 0.26874995 0.14062500
vt 0.76346919 0.38085938
vn 0.00000000 -1.00000000 0.00000000
v 0.31874999 0.26874995 0.43125001
vt 0.78320312 0.36328125
vn 0.00000000 -1.00000000 0.00000000
v 0.00000000 0.26874995 0.29142100
vt 0.76346919 0.37173865
vn 0.00000000 -1.00000000 0.00000000
f 121/121/121 122/122/122 123/123/123
v 0.00000000 0.52818392 0.43125001
vt 0.25175044 0.28456663
vn 0.00000000 0.00000000 1.00000000
v 0.31874999 0.76874995 0.43125001
vt 0.27148438 0.26953125
vn 0.00000000 0.00000000 1.00000000
v 0.00000000 0.76874995 0.43125001
vt 0.25175044 0.26953125
vn 0.00000000 0.00000000 1.00000000
f 124/124/124 125/125/125 126/126/126
v 0.00000000 0.26874995 0.43125001
vt 0.25175044 0.30078125
vn 0.00000000 0.00000000 1.00000000
v 0.31874999 0.26874995 0.43125001
vt 0.27148438 0.30078125
vn 0.00000000 0.00000000 1.00000000
v 0.31874999 0.76874995 0.43125001
vt 0.27148438 0.26953125
vn 0.00000000 0.00000000 1.00000000
f 127/127/127 128/128/128 129/129/129
v 0.00000000 0.26874995 0.43125001
vt 0.25175044 0.30078125
vn 0.00000000 0.00000000 1.00000000
v 0.31874999 0.76874995 0.43125001
vt 0.27148438 0.26953125
vn 0.00000000 0.00000000 1.00000000
v 0.00000000 0.52818392 0.43125001
vt 0.25175044 0.28456663
vn 0.00000000 0.00000000 1.00000000
f 130/130/130 131/131/131 132/132/132
v 0.31874999 0.76874995 0.14062500
vt 0.18554688 0.26953125
vn 0.00000000 0.00000000 -1.00000000
v 0.31874999 0.26874995 0.14062500
vt 0.18554688 0.30078125
vn 0.00000000 0.00000000 -1.00000000
v 0.00000000 0.50931599 0.14062500
vt 0.20528081 0.28574587
vn 0.00000000 0.00000000 -1.00000000
f 133/133/133 134/134/134 135/135/135
v 0.31874999 0.76874995 0.14062500
vt 0.18554688 0.26953125
vn 0.00000000 0.00000000 -1.00000000
v 0.00000000 0.50931599 0.14062500
vt 0.20528081 0.28574587
vn 0.00000000 0.00000000 -1.00000000
v 0.00000000 0.76874995 0.14062500
vt 0.20528081 0.26953125
vn 0.00000000 0.00000000 -1.00000000
f 136/136/136 137/137/137 138/138/138
v 0.31874999 0.26874995 0.14062500
vt 0.18554688 0.30078125
vn 0.00000000 0.00000000 -1.00000000
v 0.00000000 0.26874995 0.14062500
vt 0.20528081 0.30078125
vn 0.00000000 0.00000000 -1.00000000
v 0.00000000 0.50931599 0.14062500
vt 0.20528081 0.28574587
vn 0.00000000 0.00000000 -1.00000000
f 139/139/139 140/140/140 141/141/141
v 0.23750000 0.86875010 0.34687501
vt 0.02539062 0.45312500
vn 1.00000000 0.00000000 0.00000000
v 0.23750000 0.76874995 0.34687501
vt 0.02539062 0.45898438
vn 1.00000000 0.00000000 0.00000000
v 0.23750000 0.86875010 0.09687500
vt 0.04101562 0.45312500
vn 1.00000000 0.00000000 0.00000000
f 142/142/142 143/143/143 144/144/144
v 0.23750000 0.76874995 0.34687501
vt 0.02539062 0.45898438
vn 1.00000000 0.00000000 0.00000000
v 0.23750000 0.76874995 0.09687500
vt 0.04101562 0.45898438
vn 1.00000000 0.00000000 0.00000000
v 0.23750000 0.86875010 0.09687500
vt 0.04101562 0.45312500
vn 1.00000000 0.00000000 0.00000000
f 145/145/145 146/146/146 147/147/147
v 0.00000000 0.86875010 0.21272866
vt 0.94059642 0.37052210
vn 0.00000000 1.00000000 0.00000000
v 0.23750000 0.86875010 0.09687500
vt 0.95507812 0.36328125
vn 0.00000000 1.00000000 0.00000000
v 0.00000000 0.86875010 0.09687500
vt 0.94059642 0.36328125
vn 0.00000000 1.00000000 0.00000000
f 148/148/148 149/149/149 150/150/150
v 0.00000000 0.86875010 0.34687501
vt 0.94059642 0.37890625
vn 0.00000000 1.00000000 0.00000000
v 0.23750000 0.86875010 0.34687501
vt 0.95507812 0.37890625
vn 0.00000000 1.00000000 0.00000000
v 0.23750000 0.86875010 0.09687500
vt 0.95507812 0.36328125
vn 0.00000000 1.00000000 0.00000000
f 151/151/151 152/152/152 153/153/153
v 0.00000000 0.86875010 0.34687501
vt 0.94059642 0.37890625
vn 0.00000000 1.00000000 0.00000000
v 0.23750000 0.86875010 0.09687500
vt 0.95507812 0.36328125
vn 0.00000000 1.00000000 0.00000000
v 0.00000000 0.86875010 0.21272866
vt 0.94059642 0.37052210
vn 0.00000000 1.00000000 0.00000000
f 154/154/154 155/155/155 156/156/156
v 0.00000000 0.76874995 0.23102135
vt 0.97575267 0.37052210
vn 0.00000000 -1.00000000 0.00000000
v 0.23750000 0.76874995 0.34687501
vt 0.99023438 0.36328125
vn 0.00000000 -1.00000000 0.00000000
v 0.00000000 0.76874995 0.34687501
vt 0.97575267 0.36328125
vn 0.00000000 -1.00000000 0.00000000
f 157/157/157 158/158/158 159/159/159
v 0.00000000 0.76874995 0.09687500
vt 0.97575267 0.37890625
vn 0.00000000 -1.00000000 0.00000000
v 0.23750000 0.76874995 0.09687500
vt 0.99023438 0.37890625
vn 0.00000000 -1.00000000 0.00000000
v 0.23750000 0.76874995 0.34687501
vt 0.99023438 0.36328125
vn 0.00000000 -1.00000000 0.00000000
f 160/160/160 161/161/161 162/162/162
v 0.00000000 0.76874995 0.09687500
vt 0.97575267 0.37890625
vn 0.00000000 -1.00000000 0.00000000
v 0.23750000 0.76874995 0.34687501
vt 0.99023438 0.36328125
vn 0.00000000 -1.00000000 0.00000000
v 0.00000000 0.76874995 0.23102135
vt 0.97575267 0.37052210
vn 0.00000000 -1.00000000 0.00000000
f 163/163/163 164/164/164 165/165/165
v 0.00000000 0.82240857 0.34687501
vt 0.78434642 0.44607470
vn 0.00000000 0.00000000 1.00000000
v 0.23750000 0.86875010 0.34687501
vt 0.79882812 0.44335938
vn 0.00000000 0.00000000 1.00000000
v 0.00000000 0.86875010 0.34687501
vt 0.78434642 0.44335938
vn 0.00000000 0.00000000 1.00000000
f 166/166/166 167/167/167 168/168/168
v 0.00000000 0.76874995 0.34687501
vt 0.78434642 0.44921875
vn 0.00000000 0.00000000 1.00000000
v 0.23750000 0.76874995 0.34687501
vt 0.79882812 0.44921875
vn 0.00000000 0.00000000 1.00000000
v 0.23750000 0.86875010 0.34687501
vt 0.79882812 0.44335938
vn 0.00000000 0.00000000 1.00000000
f 169/169/169 170/170/170 171/171/171
v 0.00000000 0.76874995 0.34687501
vt 0.78434642 0.44921875
vn 0.00000000 0.00000000 1.00000000
v 0.23750000 0.86875010 0.34687501
vt 0.79882812 0.44335938
vn 0.00000000 0.00000000 1.00000000
v 0.00000000 0.82240857 0.34687501
vt 0.78434642 0.44607470
vn 0.00000000 0.00000000 1.00000000
f 172/172/172 173/173/173 174/174/174
v 0.23750000 0.86875010 0.09687500
vt 0.73242188 0.44335938
vn 0.00000000 0.00000000 -1.00000000
v 0.23750000 0.76874995 0.09687500
vt 0.73242188 0.44921875
vn 0.00000000 0.00000000 -1.00000000
v 0.00000000 0.81509148 0.09687500
vt 0.74690358 0.44650343
vn 0.00000000 0.00000000 -1.00000000
f 175/175/175 176/176/176 177/177/177
v 0.23750000 0.86875010 0.09687500
vt 0.73242188 0.44335938
vn 0.00000000 0.00000000 -1.00000000
v 0.00000000 0.81509148 0.09687500
vt 0.74690358 0.44650343
vn 0.00000000 0.00000000 -1.00000000
v 0.00000000 0.86875010 0.09687500
vt 0.74690358 0.44335938
vn 0.00000000 0.00000000 -1.00000000
f 178/178/178 179/179/179 180/180/180
v 0.23750000 0.76874995 0.09687500
vt 0.73242188 0.44921875
vn 0.00000000 0.00000000 -1.00000000
v 0.00000000 0.76874995 0.09687500
vt 0.74690358 0.44921875
vn 0.00000000 0.00000000 -1.00000000
v 0.00000000 0.81509148 0.09687500
vt 0.74690358 0.44650343
vn 0.00000000 0.00000000 -1.00000000
f 181/181/181 182/182/182 183/183/183
v 0.36875001 0.46875000 0.40937501
vt 0.38867188 0.36328125
vn 1.00000000 0.00000000 0.00000000
v 0.36875001 0.15625000 0.40937501
vt 0.38867188 0.38281250
vn 1.00000000 0.00000000 0.00000000
v 0.36875001 0.46875000 0.10312500
vt 0.40820312 0.36328125
vn 1.00000000 0.00000000 0.00000000
f 184/184/184 185/185/185 186/186/186
v 0.36875001 0.15625000 0.40937501
vt 0.38867188 0.38281250
vn 1.00000000 0.00000000 0.00000000
v 0.36875001 0.15625000 0.10312500
vt 0.40820312 0.38281250
vn 1.00000000 0.00000000 0.00000000
v 0.36875001 0.46875000 0.10312500
vt 0.40820312 0.36328125
vn 1.00000000 0.00000000 0.00000000
f 187/187/187 188/188/188 189/189/189
v 0.00000000 0.46875000 0.25245352
vt 0.02597172 0.37280475
vn 0.00000000 1.00000000 0.00000000
v 0.36875001 0.46875000 0.10312500
vt 0.04882812 0.36328125
vn 0.00000000 1.00000000 0.00000000
v 0.00000000 0.46875000 0.10312500
vt 0.02597172 0.36328125
vn 0.00000000 1.00000000 0.00000000
f 190/190/190 191/191/191 192/192/192
v 0.00000000 0.46875000 0.40937501
vt 0.02597172 0.38281250
vn 0.00000000 1.00000000 0.00000000
v 0.36875001 0.46875000 0.40937501
vt 0.04882812 0.38281250
vn 0.00000000 1.00000000 0.00000000
v 0.36875001 0.46875000 0.10312500
vt 0.04882812 0.36328125
vn 0.00000000 1.00000000 0.00000000
f 193/193/193 194/194/194 195/195/195
v 0.00000000 0.46875000 0.40937501
vt 0.02597172 0.38281250
vn 0.00000000 1.00000000 0.00000000
v 0.36875001 0.46875000 0.10312500
vt 0.04882812 0.36328125
vn 0.00000000 1.00000000 0.00000000
v 0.00000000 0.46875000 0.25245352
vt 0.02597172 0.37280475
vn 0.00000000 1.00000000 0.00000000
f 196/196/196 197/197/197 198/198/198
v 0.00000000 0.15625000 0.26004649
vt 0.07675297 0.37280475
vn 0.00000000 -1.00000000 0.00000000
v 0.36875001 0.15625000 0.40937501
vt 0.09960938 0.36328125
vn 0.00000000 -1.00000000 0.00000000
v 0.00000000 0.15625000 0.40937501
vt 0.07675297 0.36328125
vn 0.00000000 -1.00000000 0.00000000
f 199/199/199 200/200/200 201/201/201
v 0.00000000 0.15625000 0.10312500
vt 0.07675297 0.38281250
vn 0.00000000 -1.00000000 0.00000000
v 0.36875001 0.15625000 0.10312500
vt 0.09960938 0.38281250
vn 0.00000000 -1.00000000 0.00000000
v 0.36875001 0.15625000 0.40937501
vt 0.09960938 0.36328125
vn 0.00000000 -1.00000000 0.00000000
f 202/202/202 203/203/203 204/204/204
v 0.00000000 0.15625000 0.10312500
vt 0.07675297 0.38281250
vn 0.00000000 -1.00000000 0.00000000
v 0.36875001 0.15625000 0.40937501
vt 0.09960938 0.36328125
vn 0.00000000 -1.00000000 0.00000000
v 0.00000000 0.15625000 0.26004649
vt 0.07675297 0.37280475
vn 0.00000000 -1.00000000 0.00000000
f 205/205/205 206/206/206 207/207/207
v 0.00000000 0.31637396 0.40937501
vt 0.95761234 0.34741413
vn 0.00000000 0.00000000 1.00000000
v 0.36875001 0.46875000 0.40937501
vt 0.98046875 0.33789062
vn 0.00000000 0.00000000 1.00000000
v 0.00000000 0.46875000 0.40937501
vt 0.95761234 0.33789062
vn 0.00000000 0.00000000 1.00000000
f 208/208/208 209/209/209 210/210/210
v 0.00000000 0.15625000 0.40937501
vt 0.95761234 0.35742188
vn 0.00000000 0.00000000 1.00000000
v 0.36875001 0.15625000 0.40937501
vt 0.98046875 0.35742188
vn 0.00000000 0.00000000 1.00000000
v 0.36875001 0.46875000 0.40937501
vt 0.98046875 0.33789062
vn 0.00000000 0.00000000 1.00000000
f 211/211/211 212/212/212 213/213/213
v 0.00000000 0.15625000 0.40937501
vt 0.95761234 0.35742188
vn 0.00000000 0.00000000 1.00000000
v 0.36875001 0.46875000 0.40937501
vt 0.98046875 0.33789062
vn 0.00000000 0.00000000 1.00000000
v 0.00000000 0.31637396 0.40937501
vt 0.95761234 0.34741413
vn 0.00000000 0.00000000 1.00000000
f 214/214/214 215/215/215 216/216/216
v 0.36875001 0.46875000 0.10312500
vt 0.88281250 0.33789062
vn 0.00000000 0.00000000 -1.00000000
v 0.36875001 0.15625000 0.10312500
vt 0.88281250 0.35742188
vn 0.00000000 0.00000000 -1.00000000
v 0.00000000 0.30862604 0.10312500
vt 0.90566891 0.34789837
vn 0.00000000 0.00000000 -1.00000000
f 217/217/217 218/218/218 219/219/219
v 0.36875001 0.46875000 0.10312500
vt 0.88281250 0.33789062
vn 0.00000000 0.00000000 -1.00000000
v 0.00000000 0.30862604 0.10312500
vt 0.90566891 0.34789837
vn 0.00000000 0.00000000 -1.00000000
v 0.00000000 0.46875000 0.10312500
vt 0.90566891 0.33789062
vn 0.00000000 0.00000000 -1.00000000
f 220/220/220 221/221/221 222/222/222
v 0.36875001 0.15625000 0.10312500
vt 0.88281250 0.35742188
vn 0.00000000 0.00000000 -1.00000000
v 0.00000000 0.15625000 0.10312500
vt 0.90566891 0.35742188
vn 0.00000000 0.00000000 -1.00000000
v 0.00000000 0.30862604 0.10312500
vt 0.90566891 0.34789837
vn 0.00000000 0.00000000 -1.00000000
f 223/223/223 224/224/224 225/225/225
v 0.40625000 0.67499995 0.28437501
vt 0.04687500 0.30468750
vn 1.00000000 0.00000000 0.00000000
v 0.40625000 0.21250010 0.28437501
vt 0.04687500 0.33398438
vn 1.00000000 0.00000000 0.00000000
v 0.40625000 0.40917060 0.00000000
vt 0.06431622 0.32152636
vn 1.00000000 0.00000000 0.00000000
f 226/226/226 227/227/227 228/228/228
v 0.40625000 0.67499995 0.28437501
vt 0.04687500 0.30468750
vn 1.00000000 0.00000000 0.00000000
v 0.40625000 0.40917060 0.00000000
vt 0.06431622 0.32152636
vn 1.00000000 0.00000000 0.00000000
v 0.40625000 0.67499995 0.00000000
vt 0.06431622 0.30468750
vn 1.00000000 0.00000000 0.00000000
f 229/229/229 230/230/230 231/231/231
v 0.40625000 0.21250010 0.28437501
vt 0.04687500 0.33398438
vn 1.00000000 0.00000000 0.00000000
v 0.40625000 0.21250010 0.00000000
vt 0.06431622 0.33398438
vn 1.00000000 0.00000000 0.00000000
v 0.40625000 0.40917060 0.00000000
vt 0.06431622 0.32152636
vn 1.00000000 0.00000000 0.00000000
f 232/232/232 233/233/233 234/234/234
v 0.25000000 0.47832945 0.00000000
vt 0.11537128 0.31714552
vn -1.00000000 0.00000000 0.00000000
v 0.25000000 0.67499995 0.28437501
vt 0.13281250 0.30468750
vn -1.00000000 0.00000000 0.00000000
v 0.25000000 0.67499995 0.00000000
vt 0.11537128 0.30468750
vn -1.00000000 0.00000000 0.00000000
f 235/235/235 236/236/236 237/237/237
v 0.25000000 0.21250010 0.00000000
vt 0.11537128 0.33398438
vn -1.00000000 0.00000000 0.00000000
v 0.25000000 0.21250010 0.28437501
vt 0.13281250 0.33398438
vn -1.00000000 0.00000000 0.00000000
v 0.25000000 0.67499995 0.28437501
vt 0.13281250 0.30468750
vn -1.00000000 0.00000000 0.00000000
f 238/238/238 239/239/239 240/240/240
v 0.25000000 0.21250010 0.00000000
vt 0.11537128 0.33398438
vn -1.00000000 0.00000000 0.00000000
v 0.25000000 0.67499995 0.28437501
vt 0.13281250 0.30468750
vn -1.00000000 0.00000000 0.00000000
v 0.25000000 0.47832945 0.00000000
vt 0.11537128 0.31714552
vn -1.00000000 0.00000000 0.00000000
f 241/241/241 242/242/242 243/243/243
v 0.25000000 0.67499995 0.00000000
vt 0.65039062 0.24232440
vn 0.00000000 1.00000000 0.00000000
v 0.25000000 0.67499995 0.28437501
vt 0.65039062 0.25976562
vn 0.00000000 1.00000000 0.00000000
v 0.31644276 0.67499995 0.00000000
vt 0.65454330 0.24232440
vn 0.00000000 1.00000000 0.00000000
f 244/244/244 245/245/245 246/246/246
v 0.25000000 0.67499995 0.28437501
vt 0.65039062 0.25976562
vn 0.00000000 1.00000000 0.00000000
v 0.40625000 0.67499995 0.28437501
vt 0.66015625 0.25976562
vn 0.00000000 1.00000000 0.00000000
v 0.40625000 0.67499995 0.00000000
vt 0.66015625 0.24232440
vn 0.00000000 1.00000000 0.00000000
f 247/247/247 248/248/248 249/249/249
v 0.25000000 0.67499995 0.28437501
vt 0.65039062 0.25976562
vn 0.00000000 1.00000000 0.00000000
v 0.40625000 0.67499995 0.00000000
vt 0.66015625 0.24232440
vn 0.00000000 1.00000000 0.00000000
v 0.31644276 0.67499995 0.00000000
vt 0.65454330 0.24232440
vn 0.00000000 1.00000000 0.00000000
f 250/250/250 251/251/251 252/252/252
v 0.25000000 0.21250010 0.28437501
vt 0.66406250 0.21875000
vn 0.00000000 -1.00000000 0.00000000
v 0.25000000 0.21250010 0.00000000
vt 0.66406250 0.23619122
vn 0.00000000 -1.00000000 0.00000000
v 0.33980724 0.21250010 0.00000000
vt 0.66967545 0.23619122
vn 0.00000000 -1.00000000 0.00000000
f 253/253/253 254/254/254 255/255/255
v 0.25000000 0.21250010 0.28437501
vt 0.66406250 0.21875000
vn 0.00000000 -1.00000000 0.00000000
v 0.33980724 0.21250010 0.00000000
vt 0.66967545 0.23619122
vn 0.00000000 -1.00000000 0.00000000
v 0.40625000 0.21250010 0.28437501
vt 0.67382812 0.21875000
vn 0.00000000 -1.00000000 0.00000000
f 256/256/256 257/257/257 258/258/258
v 0.40625000 0.21250010 0.00000000
vt 0.67382812 0.23619122
vn 0.00000000 -1.00000000 0.00000000
v 0.40625000 0.21250010 0.28437501
vt 0.67382812 0.21875000
vn 0.00000000 -1.00000000 0.00000000
v 0.33980724 0.21250010 0.00000000
vt 0.66967545 0.23619122
vn 0.00000000 -1.00000000 0.00000000
f 259/259/259 260/260/260 261/261/261
v 0.25000000 0.67499995 0.28437501
vt 0.27539062 0.30468750
vn 0.00000000 0.00000000 1.00000000
v 0.25000000 0.21250010 0.28437501
vt 0.27539062 0.33398438
vn 0.00000000 0.00000000 1.00000000
v 0.40625000 0.67499995 0.28437501
vt 0.28515625 0.30468750
vn 0.00000000 0.00000000 1.00000000
f 262/262/262 263/263/263 264/264/264
v 0.25000000 0.21250010 0.28437501
vt 0.27539062 0.33398438
vn 0.00000000 0.00000000 1.00000000
v 0.40625000 0.21250010 0.28437501
vt 0.28515625 0.33398438
vn 0.00000000 0.00000000 1.00000000
v 0.40625000 0.67499995 0.28437501
vt 0.28515625 0.30468750
vn 0.00000000 0.00000000 1.00000000
f 265/265/265 266/266/266 267/267/267
v 0.28957800 0.93014261 0.26562501
vt 0.13671875 0.33789062
vn 0.88294759 0.46947156 0.00000000
v 0.44509046 0.63766621 0.26562501
vt 0.13671875 0.35937500
vn 0.88294759 0.46947156 0.00000000
v 0.38092270 0.75834822 0.00000000
vt 0.15364267 0.35051009
vn 0.88294759 0.46947156 0.00000000
f 268/268/268 269/269/269 270/270/270
v 0.28957800 0.93014261 0.26562501
vt 0.13671875 0.33789062
vn 0.88294759 0.46947156 0.00000000
v 0.38092270 0.75834822 0.00000000
vt 0.15364267 0.35051009
vn 0.88294759 0.46947156 0.00000000
v 0.28957800 0.93014261 0.00000000
vt 0.15364267 0.33789062
vn 0.88294759 0.46947156 0.00000000
f 271/271/271 272/272/272 273/273/273
v 0.44509046 0.63766621 0.26562501
vt 0.13671875 0.35937500
vn 0.88294759 0.46947156 0.00000000
v 0.44509046 0.63766621 0.00000000
vt 0.15364267 0.35937500
vn 0.88294759 0.46947156 0.00000000
v 0.38092270 0.75834822 0.00000000
vt 0.15364267 0.35051009
vn 0.88294759 0.46947156 0.00000000
f 274/274/274 275/275/275 276/276/276
v 0.19095230 0.72290178 0.00000000
vt 0.20573233 0.34675554
vn -0.88294759 -0.46947156 0.00000000
v 0.12678454 0.84358379 0.26562501
vt 0.22265625 0.33789062
vn -0.88294759 -0.46947156 0.00000000
v 0.12678454 0.84358379 0.00000000
vt 0.20573233 0.33789062
vn -0.88294759 -0.46947156 0.00000000
f 277/277/277 278/278/278 279/279/279
v 0.28229700 0.55110739 0.00000000
vt 0.20573233 0.35937500
vn -0.88294759 -0.46947156 0.00000000
v 0.28229700 0.55110739 0.26562501
vt 0.22265625 0.35937500
vn -0.88294759 -0.46947156 0.00000000
v 0.12678454 0.84358379 0.26562501
vt 0.22265625 0.33789062
vn -0.88294759 -0.46947156 0.00000000
f 280/280/280 281/281/281 282/282/282
v 0.28229700 0.55110739 0.00000000
vt 0.20573233 0.35937500
vn -0.88294759 -0.46947156 0.00000000
v 0.12678454 0.84358379 0.26562501
vt 0.22265625 0.33789062
vn -0.88294759 -0.46947156 0.00000000
v 0.19095230 0.72290178 0.00000000
vt 0.20573233 0.34675554
vn -0.88294759 -0.46947156 0.00000000
f 283/283/283 284/284/284 285/285/285
v 0.12678454 0.84358379 0.00000000
vt 0.59179688 0.24284170
vn -0.46947156 0.88294759 0.00000000
v 0.12678454 0.84358379 0.26562501
vt 0.59179688 0.25976562
vn -0.46947156 0.88294759 0.00000000
v 0.19395660 0.87929981 0.00000000
vt 0.59663228 0.24284170
vn -0.46947156 0.88294759 0.00000000
f 286/286/286 287/287/287 288/288/288
v 0.12678454 0.84358379 0.26562501
vt 0.59179688 0.25976562
vn -0.46947156 0.88294759 0.00000000
v 0.28957800 0.93014261 0.26562501
vt 0.60351562 0.25976562
vn -0.46947156 0.88294759 0.00000000
v 0.28957800 0.93014261 0.00000000
vt 0.60351562 0.24284170
vn -0.46947156 0.88294759 0.00000000
f 289/289/289 290/290/290 291/291/291
v 0.12678454 0.84358379 0.26562501
vt 0.59179688 0.25976562
vn -0.46947156 0.88294759 0.00000000
v 0.28957800 0.93014261 0.00000000
vt 0.60351562 0.24284170
vn -0.46947156 0.88294759 0.00000000
v 0.19395660 0.87929981 0.00000000
vt 0.59663228 0.24284170
vn -0.46947156 0.88294759 0.00000000
f 292/292/292 293/293/293 294/294/294
v 0.28229700 0.55110739 0.26562501
vt 0.60742188 0.21875000
vn 0.46947156 -0.88294759 0.00000000
v 0.28229700 0.55110739 0.00000000
vt 0.60742188 0.23567392
vn 0.46947156 -0.88294759 0.00000000
v 0.37791840 0.60195019 0.00000000
vt 0.61430522 0.23567392
vn 0.46947156 -0.88294759 0.00000000
f 295/295/295 296/296/296 297/297/297
v 0.28229700 0.55110739 0.26562501
vt 0.60742188 0.21875000
vn 0.46947156 -0.88294759 0.00000000
v 0.37791840 0.60195019 0.00000000
vt 0.61430522 0.23567392
vn 0.46947156 -0.88294759 0.00000000
v 0.44509046 0.63766621 0.26562501
vt 0.61914062 0.21875000
vn 0.46947156 -0.88294759 0.00000000
f 298/298/298 299/299/299 300/300/300
v 0.44509046 0.63766621 0.00000000
vt 0.61914062 0.23567392
vn 0.46947156 -0.88294759 0.00000000
v 0.44509046 0.63766621 0.26562501
vt 0.61914062 0.21875000
vn 0.46947156 -0.88294759 0.00000000
v 0.37791840 0.60195019 0.00000000
vt 0.61430522 0.23567392
vn 0.46947156 -0.88294759 0.00000000
f 301/301/301 302/302/302 303/303/303
v 0.12678454 0.84358379 0.26562501
vt 0.44531250 0.33789062
vn 0.00000000 0.00000000 1.00000000
v 0.28229700 0.55110739 0.26562501
vt 0.44531250 0.35937500
vn 0.00000000 0.00000000 1.00000000
v 0.28957800 0.93014261 0.26562501
vt 0.45703125 0.33789062
vn 0.00000000 0.00000000 1.00000000
f 304/304/304 305/305/305 306/306/306
v 0.28229700 0.55110739 0.26562501
vt 0.44531250 0.35937500
vn 0.00000000 0.00000000 1.00000000
v 0.44509046 0.63766621 0.26562501
vt 0.45703125 0.35937500
vn 0.00000000 0.00000000 1.00000000
v 0.28957800 0.93014261 0.26562501
vt 0.45703125 0.33789062
vn 0.00000000 0.00000000 1.00000000
f 307/307/307 308/308/308 309/309/309
v 0.20625000 0.95937490 0.29062501
vt 0.23242188 0.41992188
vn 1.00000000 0.00000000 0.00000000
v 0.20625000 0.82500005 0.29062501
vt 0.23242188 0.42773438
vn 1.00000000 0.00000000 0.00000000
v 0.20625000 0.88450891 0.00000000
vt 0.25058594 0.42427455
vn 1.00000000 0.00000000 0.00000000
f 310/310/310 311/311/311 312/312/312
v 0.20625000 0.95937490 0.29062501
vt 0.23242188 0.41992188
vn 1.00000000 0.00000000 0.00000000
v 0.20625000 0.88450891 0.00000000
vt 0.25058594 0.42427455
vn 1.00000000 0.00000000 0.00000000
v 0.20625000 0.95937490 0.00000000
vt 0.25058594 0.41992188
vn 1.00000000 0.00000000 0.00000000
f 313/313/313 314/314/314 315/315/315
v 0.20625000 0.82500005 0.29062501
vt 0.23242188 0.42773438
vn 1.00000000 0.00000000 0.00000000
v 0.20625000 0.82500005 0.00000000
vt 0.25058594 0.42773438
vn 1.00000000 0.00000000 0.00000000
v 0.20625000 0.88450891 0.00000000
vt 0.25058594 0.42427455
vn 1.00000000 0.00000000 0.00000000
f 316/316/316 317/317/317 318/318/318
v 0.00000000 0.95937490 0.29062501
vt 0.40348307 0.25976562
vn 0.00000000 1.00000000 0.00000000
v 0.20625000 0.95937490 0.29062501
vt 0.41601562 0.25976562
vn 0.00000000 1.00000000 0.00000000
v 0.20625000 0.95937490 0.00000000
vt 0.41601562 0.24160156
vn 0.00000000 1.00000000 0.00000000
f 319/319/319 320/320/320 321/321/321
v 0.00000000 0.95937490 0.29062501
vt 0.40348307 0.25976562
vn 0.00000000 1.00000000 0.00000000
v 0.20625000 0.95937490 0.00000000
vt 0.41601562 0.24160156
vn 0.00000000 1.00000000 0.00000000
v 0.00000000 0.95937490 0.00000000
vt 0.40348307 0.24160156
vn 0.00000000 1.00000000 0.00000000
f 322/322/322 323/323/323 324/324/324
v 0.00696428 0.82500005 0.00000000
vt 0.43515625 0.23691406
vn 0.00000000 -1.00000000 0.00000000
v 0.20625000 0.82500005 0.29062501
vt 0.44726562 0.21875000
vn 0.00000000 -1.00000000 0.00000000
v 0.00000000 0.82500005 0.29062501
vt 0.43473307 0.21875000
vn 0.00000000 -1.00000000 0.00000000
f 325/325/325 326/326/326 327/327/327
v 0.00696428 0.82500005 0.00000000
vt 0.43515625 0.23691406
vn 0.00000000 -1.00000000 0.00000000
v 0.00000000 0.82500005 0.29062501
vt 0.43473307 0.21875000
vn 0.00000000 -1.00000000 0.00000000
v 0.00000000 0.82500005 0.00000000
vt 0.43473307 0.23691406
vn 0.00000000 -1.00000000 0.00000000
f 328/328/328 329/329/329 330/330/330
v 0.20625000 0.82500005 0.00000000
vt 0.44726562 0.23691406
vn 0.00000000 -1.00000000 0.00000000
v 0.20625000 0.82500005 0.29062501
vt 0.44726562 0.21875000
vn 0.00000000 -1.00000000 0.00000000
v 0.00696428 0.82500005 0.00000000
vt 0.43515625 0.23691406
vn 0.00000000 -1.00000000 0.00000000
f 331/331/331 332/332/332 333/333/333
v 0.00000000 0.89778643 0.29062501
vt 0.89957682 0.42350260
vn 0.00000000 0.00000000 1.00000000
v 0.20625000 0.95937490 0.29062501
vt 0.91210938 0.41992188
vn 0.00000000 0.00000000 1.00000000
v 0.00000000 0.95937490 0.29062501
vt 0.89957682 0.41992188
vn 0.00000000 0.00000000 1.00000000
f 334/334/334 335/335/335 336/336/336
v 0.00000000 0.82500005 0.29062501
vt 0.89957682 0.42773438
vn 0.00000000 0.00000000 1.00000000
v 0.20625000 0.82500005 0.29062501
vt 0.91210938 0.42773438
vn 0.00000000 0.00000000 1.00000000
v 0.20625000 0.95937490 0.29062501
vt 0.91210938 0.41992188
vn 0.00000000 0.00000000 1.00000000
f 337/337/337 338/338/338 339/339/339
v 0.00000000 0.82500005 0.29062501
vt 0.89957682 0.42773438
vn 0.00000000 0.00000000 1.00000000
v 0.20625000 0.95937490 0.29062501
vt 0.91210938 0.41992188
vn 0.00000000 0.00000000 1.00000000
v 0.00000000 0.89778643 0.29062501
vt 0.89957682 0.42350260
vn 0.00000000 0.00000000 1.00000000
f 340/340/340 341/341/341 342/342/342
v 0.09375000 1.00000000 0.17187500
vt 0.13476562 0.47851562
vn 1.00000000 0.00000000 0.00000000
v 0.09375000 0.95937490 0.17187500
vt 0.13476562 0.48046875
vn 1.00000000 0.00000000 0.00000000
v 0.09375000 0.97799474 0.00000000
vt 0.14550781 0.47957357
vn 1.00000000 0.00000000 0.00000000
f 343/343/343 344/344/344 345/345/345
v 0.09375000 1.00000000 0.17187500
vt 0.13476562 0.47851562
vn 1.00000000 0.00000000 0.00000000
v 0.09375000 0.97799474 0.00000000
vt 0.14550781 0.47957357
vn 1.00000000 0.00000000 0.00000000
v 0.09375000 1.00000000 0.00000000
vt 0.14550781 0.47851562
vn 1.00000000 0.00000000 0.00000000
f 346/346/346 347/347/347 348/348/348
v 0.09375000 0.95937490 0.17187500
vt 0.13476562 0.48046875
vn 1.00000000 0.00000000 0.00000000
v 0.09375000 0.95937490 0.00000000
vt 0.14550781 0.48046875
vn 1.00000000 0.00000000 0.00000000
v 0.09375000 0.97799474 0.00000000
vt 0.14550781 0.47957357
vn 1.00000000 0.00000000 0.00000000
f 349/349/349 350/350/350 351/351/351
v 0.00000000 1.00000000 0.17187500
vt 0.79269622 0.32812500
vn 0.00000000 1.00000000 0.00000000
v 0.09375000 1.00000000 0.17187500
vt 0.79882812 0.32812500
vn 0.00000000 1.00000000 0.00000000
v 0.09375000 1.00000000 0.00000000
vt 0.79882812 0.31738281
vn 0.00000000 1.00000000 0.00000000
f 352/352/352 353/353/353 354/354/354
v 0.00000000 1.00000000 0.17187500
vt 0.79269622 0.32812500
vn 0.00000000 1.00000000 0.00000000
v 0.09375000 1.00000000 0.00000000
vt 0.79882812 0.31738281
vn 0.00000000 1.00000000 0.00000000
v 0.00000000 1.00000000 0.00000000
vt 0.79269622 0.31738281
vn 0.00000000 1.00000000 0.00000000
f 355/355/355 356/356/356 357/357/357
v 0.00000000 0.95937490 0.04106105
vt 0.81418060 0.31286337
vn 0.00000000 -1.00000000 0.00000000
v 0.09375000 0.95937490 0.17187500
vt 0.82031250 0.30468750
vn 0.00000000 -1.00000000 0.00000000
v 0.00000000 0.95937490 0.17187500
vt 0.81418060 0.30468750
vn 0.00000000 -1.00000000 0.00000000
f 358/358/358 359/359/359 360/360/360
v 0.09375000 0.95937490 0.00000000
vt 0.82031250 0.31542969
vn 0.00000000 -1.00000000 0.00000000
v 0.09375000 0.95937490 0.17187500
vt 0.82031250 0.30468750
vn 0.00000000 -1.00000000 0.00000000
v 0.00000000 0.95937490 0.04106105
vt 0.81418060 0.31286337
vn 0.00000000 -1.00000000 0.00000000
f 361/361/361 362/362/362 363/363/363
v 0.09375000 0.95937490 0.00000000
vt 0.82031250 0.31542969
vn 0.00000000 -1.00000000 0.00000000
v 0.00000000 0.95937490 0.04106105
vt 0.81418060 0.31286337
vn 0.00000000 -1.00000000 0.00000000
v 0.00000000 0.95937490 0.00000000
vt 0.81418060 0.31542969
vn 0.00000000 -1.00000000 0.00000000
f 364/364/364 365/365/365 366/366/366
v 0.00000000 0.98582845 0.17187500
vt 0.26925872 0.47919695
vn 0.00000000 0.00000000 1.00000000
v 0.09375000 1.00000000 0.17187500
vt 0.27539062 0.47851562
vn 0.00000000 0.00000000 1.00000000
v 0.00000000 1.00000000 0.17187500
vt 0.26925872 0.47851562
vn 0.00000000 0.00000000 1.00000000
f 367/367/367 368/368/368 369/369/369
v 0.00000000 0.95937490 0.17187500
vt 0.26925872 0.48046875
vn 0.00000000 0.00000000 1.00000000
v 0.09375000 0.95937490 0.17187500
vt 0.27539062 0.48046875
vn 0.00000000 0.00000000 1.00000000
v 0.09375000 1.00000000 0.17187500
vt 0.27539062 0.47851562
vn 0.00000000 0.00000000 1.00000000
f 370/370/370 371/371/371 372/372/372
v 0.00000000 0.95937490 0.17187500
vt 0.26925872 0.48046875
vn 0.00000000 0.00000000 1.00000000
v 0.09375000 1.00000000 0.17187500
vt 0.27539062 0.47851562
vn 0.00000000 0.00000000 1.00000000
v 0.00000000 0.98582845 0.17187500
vt 0.26925872 0.47919695
vn 0.00000000 0.00000000 1.00000000
f 373/373/373 374/374/374 375/375/375
v 0.25000000 0.75000000 0.14687499
vt 0.89257812 0.21875000
vn 1.00000000 0.00000000 0.00000000
v 0.25000000 0.19374990 0.14687499
vt 0.89257812 0.25390625
vn 1.00000000 0.00000000 0.00000000
v 0.25000000 0.69651441 0.00000000
vt 0.90140475 0.22213041
vn 1.00000000 0.00000000 0.00000000
f 376/376/376 377/377/377 378/378/378
v 0.25000000 0.75000000 0.14687499
vt 0.89257812 0.21875000
vn 1.00000000 0.00000000 0.00000000
v 0.25000000 0.69651441 0.00000000
vt 0.90140475 0.22213041
vn 1.00000000 0.00000000 0.00000000
v 0.25000000 0.75000000 0.00000000
vt 0.90140475 0.21875000
vn 1.00000000 0.00000000 0.00000000
f 379/379/379 380/380/380 381/381/381
v 0.25000000 0.19374990 0.14687499
vt 0.89257812 0.25390625
vn 1.00000000 0.00000000 0.00000000
v 0.25000000 0.19374990 0.00000000
vt 0.90140475 0.25390625
vn 1.00000000 0.00000000 0.00000000
v 0.25000000 0.69651441 0.00000000
vt 0.90140475 0.22213041
vn 1.00000000 0.00000000 0.00000000
f 382/382/382 383/383/383 384/384/384
v 0.00000000 0.75000000 0.05908764
vt 0.27379670 0.41073994
vn 0.00000000 1.00000000 0.00000000
v 0.19771635 0.75000000 0.00000000
vt 0.28586989 0.40718900
vn 0.00000000 1.00000000 0.00000000
v 0.00000000 0.75000000 0.00000000
vt 0.27379670 0.40718900
vn 0.00000000 1.00000000 0.00000000
f 385/385/385 386/386/386 387/387/387
v 0.00000000 0.75000000 0.14687499
vt 0.27379670 0.41601562
vn 0.00000000 1.00000000 0.00000000
v 0.25000000 0.75000000 0.14687499
vt 0.28906250 0.41601562
vn 0.00000000 1.00000000 0.00000000
v 0.25000000 0.75000000 0.00000000
vt 0.28906250 0.40718900
vn 0.00000000 1.00000000 0.00000000
f 388/388/388 389/389/389 390/390/390
v 0.00000000 0.75000000 0.14687499
vt 0.27379670 0.41601562
vn 0.00000000 1.00000000 0.00000000
v 0.25000000 0.75000000 0.00000000
vt 0.28906250 0.40718900
vn 0.00000000 1.00000000 0.00000000
v 0.19771635 0.75000000 0.00000000
vt 0.28586989 0.40718900
vn 0.00000000 1.00000000 0.00000000
f 391/391/391 392/392/392 393/393/393
v 0.00000000 0.75000000 0.14687499
vt 0.27379670 0.41601562
vn 0.00000000 1.00000000 0.00000000
v 0.19771635 0.75000000 0.00000000
vt 0.28586989 0.40718900
vn 0.00000000 1.00000000 0.00000000
v 0.00000000 0.75000000 0.05908764
vt 0.27379670 0.41073994
vn 0.00000000 1.00000000 0.00000000
f 394/394/394 395/395/395 396/396/396
v 0.00000000 0.19374990 0.07216235
vt 0.31090607 0.41073994
vn 0.00000000 -1.00000000 0.00000000
v 0.25000000 0.19374990 0.14687499
vt 0.32617188 0.40625000
vn 0.00000000 -1.00000000 0.00000000
v 0.00000000 0.19374990 0.14687499
vt 0.31090607 0.40625000
vn 0.00000000 -1.00000000 0.00000000
f 397/397/397 398/398/398 399/399/399
v 0.25000000 0.19374990 0.00000000
vt 0.32617188 0.41507662
vn 0.00000000 -1.00000000 0.00000000
v 0.25000000 0.19374990 0.14687499
vt 0.32617188 0.40625000
vn 0.00000000 -1.00000000 0.00000000
v 0.00000000 0.19374990 0.07216235
vt 0.31090607 0.41073994
vn 0.00000000 -1.00000000 0.00000000
f 400/400/400 401/401/401 402/402/402
v 0.25000000 0.19374990 0.00000000
vt 0.32617188 0.41507662
vn 0.00000000 -1.00000000 0.00000000
v 0.00000000 0.19374990 0.07216235
vt 0.31090607 0.41073994
vn 0.00000000 -1.00000000 0.00000000
v 0.00000000 0.19374990 0.00000000
vt 0.31090607 0.41507662
vn 0.00000000 -1.00000000 0.00000000
f 403/403/403 404/404/404 405/405/405
v 0.00000000 0.49425282 0.14687499
vt 0.87340607 0.23491379
vn 0.00000000 0.00000000 1.00000000
v 0.25000000 0.75000000 0.14687499
vt 0.88867188 0.21875000
vn 0.00000000 0.00000000 1.00000000
v 0.00000000 0.75000000 0.14687499
vt 0.87340607 0.21875000
vn 0.00000000 0.00000000 1.00000000
f 406/406/406 407/407/407 408/408/408
v 0.00000000 0.19374990 0.14687499
vt 0.87340607 0.25390625
vn 0.00000000 0.00000000 1.00000000
v 0.25000000 0.19374990 0.14687499
vt 0.88867188 0.25390625
vn 0.00000000 0.00000000 1.00000000
v 0.25000000 0.75000000 0.14687499
vt 0.88867188 0.21875000
vn 0.00000000 0.00000000 1.00000000
f 409/409/409 410/410/410 411/411/411
v 0.00000000 0.19374990 0.14687499
vt 0.87340607 0.25390625
vn 0.00000000 0.00000000 1.00000000
v 0.25000000 0.75000000 0.14687499
vt 0.88867188 0.21875000
vn 0.00000000 0.00000000 1.00000000
v 0.00000000 0.49425282 0.14687499
vt 0.87340607 0.23491379
vn 0.00000000 0.00000000 1.00000000
f 412/412/412 413/413/413 414/414/414
v 0.08750000 0.32500005 0.00937500
vt 0.17773438 0.45312500
vn 1.00000000 0.00000000 0.00000000
v 0.08750000 0.22499990 0.00937500
vt 0.17773438 0.45898438
vn 1.00000000 0.00000000 0.00000000
v 0.08750000 0.23333325 0.00000000
vt 0.17838542 0.45849609
vn 1.00000000 0.00000000 0.00000000
f 415/415/415 416/416/416 417/417/417
v 0.08750000 0.32500005 0.00937500
vt 0.17773438 0.45312500
vn 1.00000000 0.00000000 0.00000000
v 0.08750000 0.23333325 0.00000000
vt 0.17838542 0.45849609
vn 1.00000000 0.00000000 0.00000000
v 0.08750000 0.32500005 0.00000000
vt 0.17838542 0.45312500
vn 1.00000000 0.00000000 0.00000000
f 418/418/418 419/419/419 420/420/420
v 0.08750000 0.22499990 0.00937500
vt 0.17773438 0.45898438
vn 1.00000000 0.00000000 0.00000000
v 0.08750000 0.22499990 0.00000000
vt 0.17838542 0.45898438
vn 1.00000000 0.00000000 0.00000000
v 0.08750000 0.23333325 0.00000000
vt 0.17838542 0.45849609
vn 1.00000000 0.00000000 0.00000000
f 421/421/421 422/422/422 423/423/423
v 0.00000000 0.32500005 0.00937500
vt 0.00982481 0.43945312
vn 0.00000000 1.00000000 0.00000000
v 0.08750000 0.32500005 0.00937500
vt 0.01562500 0.43945312
vn 0.00000000 1.00000000 0.00000000
v 0.08750000 0.32500005 0.00000000
vt 0.01562500 0.43880208
vn 0.00000000 1.00000000 0.00000000
f 424/424/424 425/425/425 426/426/426
v 0.00000000 0.32500005 0.00937500
vt 0.00982481 0.43945312
vn 0.00000000 1.00000000 0.00000000
v 0.08750000 0.32500005 0.00000000
vt 0.01562500 0.43880208
vn 0.00000000 1.00000000 0.00000000
v 0.00000000 0.32500005 0.00000000
vt 0.00982481 0.43880208
vn 0.00000000 1.00000000 0.00000000
f 427/427/427 428/428/428 429/429/429
v 0.07031250 0.22499990 0.00000000
vt 0.03206380 0.43229167
vn 0.00000000 -1.00000000 0.00000000
v 0.08750000 0.22499990 0.00937500
vt 0.03320312 0.43164062
vn 0.00000000 -1.00000000 0.00000000
v 0.00000000 0.22499990 0.00937500
vt 0.02740294 0.43164062
vn 0.00000000 -1.00000000 0.00000000
f 430/430/430 431/431/431 432/432/432
v 0.07031250 0.22499990 0.00000000
vt 0.03206380 0.43229167
vn 0.00000000 -1.00000000 0.00000000
v 0.00000000 0.22499990 0.00937500
vt 0.02740294 0.43164062
vn 0.00000000 -1.00000000 0.00000000
v 0.00000000 0.22499990 0.00000000
vt 0.02740294 0.43229167
vn 0.00000000 -1.00000000 0.00000000
f 433/433/433 434/434/434 435/435/435
v 0.08750000 0.22499990 0.00000000
vt 0.03320312 0.43229167
vn 0.00000000 -1.00000000 0.00000000
v 0.08750000 0.22499990 0.00937500
vt 0.03320312 0.43164062
vn 0.00000000 -1.00000000 0.00000000
v 0.07031250 0.22499990 0.00000000
vt 0.03206380 0.43229167
vn 0.00000000 -1.00000000 0.00000000
f 436/436/436 437/437/437 438/438/438
v 0.00000000 0.28257574 0.00937500
vt 0.08990294 0.45561080
vn 0.00000000 0.00000000 1.00000000
v 0.08750000 0.32500005 0.00937500
vt 0.09570312 0.45312500
vn 0.00000000 0.00000000 1.00000000
v 0.00000000 0.32500005 0.00937500
vt 0.08990294 0.45312500
vn 0.00000000 0.00000000 1.00000000
f 439/439/439 440/440/440 441/441/441
v 0.00000000 0.22499990 0.00937500
vt 0.08990294 0.45898438
vn 0.00000000 0.00000000 1.00000000
v 0.08750000 0.22499990 0.00937500
vt 0.09570312 0.45898438
vn 0.00000000 0.00000000 1.00000000
v 0.08750000 0.32500005 0.00937500
vt 0.09570312 0.45312500
vn 0.00000000 0.00000000 1.00000000
f 442/442/442 443/443/443 444/444/444
v 0.00000000 0.22499990 0.00937500
vt 0.08990294 0.45898438
vn 0.00000000 0.00000000 1.00000000
v 0.08750000 0.32500005 0.00937500
vt 0.09570312 0.45312500
vn 0.00000000 0.00000000 1.00000000
v 0.00000000 0.28257574 0.00937500
vt 0.08990294 0.45561080
vn 0.00000000 0.00000000 1.00000000
f 445/445/445 446/446/446 447/447/447
v 0.68474892 0.00492831 0.28750000
vt 0.33593750 0.30468750
vn 0.97814760 0.20791169 0.00000000
v 0.68579646 0.00000000 0.28750000
vt 0.33593750 0.30499763
vn 0.97814760 0.20791169 0.00000000
v 0.68579646 0.00000000 0.00000000
vt 0.35414907 0.30499763
vn 0.97814760 0.20791169 0.00000000
f 448/448/448 449/449/449 450/450/450
v 0.68474892 0.00492831 0.28750000
vt 0.33593750 0.30468750
vn 0.97814760 0.20791169 0.00000000
v 0.68579646 0.00000000 0.00000000
vt 0.35414907 0.30499763
vn 0.97814760 0.20791169 0.00000000
v 0.68474892 0.00492831 0.00000000
vt 0.35414907 0.30468750
vn 0.97814760 0.20791169 0.00000000
f 451/451/451 452/452/452 453/453/453
v 0.66156302 0.00000000 0.28750000
vt 0.15666573 0.33398438
vn -0.20791169 0.97814760 0.00000000
v 0.68474892 0.00492831 0.28750000
vt 0.15820312 0.33398438
vn -0.20791169 0.97814760 0.00000000
v 0.68474892 0.00492831 0.00000000
vt 0.15820312 0.31577280
vn -0.20791169 0.97814760 0.00000000
f 454/454/454 455/455/455 456/456/456
v 0.66156302 0.00000000 0.28750000
vt 0.15666573 0.33398438
vn -0.20791169 0.97814760 0.00000000
v 0.68474892 0.00492831 0.00000000
vt 0.15820312 0.31577280
vn -0.20791169 0.97814760 0.00000000
v 0.66156302 0.00000000 0.00000000
vt 0.15666573 0.31577280
vn -0.20791169 0.97814760 0.00000000
f 457/457/457 458/458/458 459/459/459
v 0.68226317 0.00000000 0.28750000
vt 0.44899459 0.30495241
vn 0.00000000 0.00000000 1.00000000
v 0.68474892 0.00492831 0.28750000
vt 0.44921875 0.30468750
vn 0.00000000 0.00000000 1.00000000
v 0.66156302 0.00000000 0.28750000
vt 0.44768135 0.30468750
vn 0.00000000 0.00000000 1.00000000
f 460/460/460 461/461/461 462/462/462
v 0.68579646 0.00000000 0.28750000
vt 0.44921875 0.30499763
vn 0.00000000 0.00000000 1.00000000
v 0.68474892 0.00492831 0.28750000
vt 0.44921875 0.30468750
vn 0.00000000 0.00000000 1.00000000
v 0.68226317 0.00000000 0.28750000
vt 0.44899459 0.30495241
vn 0.00000000 0.00000000 1.00000000
f 463/463/463 464/464/464 465/465/465
