# Generated from the approved Charon statue B; positions are in blocks.
mtllib kingdoms:models/block/charon_statue/charon_statue.mtl
s off
usemtl stone
v 1.00000000 0.07812500 1.00000000
vt 0.60351562 0.45312500
vn 1.00000000 0.00000000 0.00000000
v 1.00000000 0.00000000 1.00000000
vt 0.60351562 0.45703125
vn 1.00000000 0.00000000 0.00000000
v 1.00000000 0.03906250 0.00000000
vt 0.66601562 0.45507812
vn 1.00000000 0.00000000 0.00000000
f 1/1/1 2/2/2 3/3/3
v 1.00000000 0.07812500 1.00000000
vt 0.60351562 0.45312500
vn 1.00000000 0.00000000 0.00000000
v 1.00000000 0.03906250 0.00000000
vt 0.66601562 0.45507812
vn 1.00000000 0.00000000 0.00000000
v 1.00000000 0.07812500 0.00000000
vt 0.66601562 0.45312500
vn 1.00000000 0.00000000 0.00000000
f 4/4/4 5/5/5 6/6/6
v 1.00000000 0.00000000 1.00000000
vt 0.60351562 0.45703125
vn 1.00000000 0.00000000 0.00000000
v 1.00000000 0.00000000 0.00000000
vt 0.66601562 0.45703125
vn 1.00000000 0.00000000 0.00000000
v 1.00000000 0.03906250 0.00000000
vt 0.66601562 0.45507812
vn 1.00000000 0.00000000 0.00000000
f 7/7/7 8/8/8 9/9/9
v 0.00000000 0.07812500 1.00000000
vt 0.11132812 0.12695312
vn 0.00000000 1.00000000 0.00000000
v 1.00000000 0.07812500 1.00000000
vt 0.17382812 0.12695312
vn 0.00000000 1.00000000 0.00000000
v 1.00000000 0.07812500 0.00000000
vt 0.17382812 0.06445312
vn 0.00000000 1.00000000 0.00000000
f 10/10/10 11/11/11 12/12/12
v 0.00000000 0.07812500 1.00000000
vt 0.11132812 0.12695312
vn 0.00000000 1.00000000 0.00000000
v 1.00000000 0.07812500 0.00000000
vt 0.17382812 0.06445312
vn 0.00000000 1.00000000 0.00000000
v 0.00000000 0.07812500 0.00000000
vt 0.11132812 0.06445312
vn 0.00000000 1.00000000 0.00000000
f 13/13/13 14/14/14 15/15/15
v 0.00000000 0.00000000 0.00000000
vt 0.24023438 0.06445312
vn 0.00000000 -1.00000000 0.00000000
v 1.00000000 0.00000000 1.00000000
vt 0.30273438 0.00195312
vn 0.00000000 -1.00000000 0.00000000
v 0.00000000 0.00000000 1.00000000
vt 0.24023438 0.00195312
vn 0.00000000 -1.00000000 0.00000000
f 16/16/16 17/17/17 18/18/18
v 1.00000000 0.00000000 0.00000000
vt 0.30273438 0.06445312
vn 0.00000000 -1.00000000 0.00000000
v 1.00000000 0.00000000 1.00000000
vt 0.30273438 0.00195312
vn 0.00000000 -1.00000000 0.00000000
v 0.00000000 0.00000000 0.00000000
vt 0.24023438 0.06445312
vn 0.00000000 -1.00000000 0.00000000
f 19/19/19 20/20/20 21/21/21
v 0.00000000 0.03906250 1.00000000
vt 0.53710938 0.45507812
vn 0.00000000 0.00000000 1.00000000
v 1.00000000 0.07812500 1.00000000
vt 0.59960938 0.45312500
vn 0.00000000 0.00000000 1.00000000
v 0.00000000 0.07812500 1.00000000
vt 0.53710938 0.45312500
vn 0.00000000 0.00000000 1.00000000
f 22/22/22 23/23/23 24/24/24
v 0.00000000 0.00000000 1.00000000
vt 0.53710938 0.45703125
vn 0.00000000 0.00000000 1.00000000
v 1.00000000 0.00000000 1.00000000
vt 0.59960938 0.45703125
vn 0.00000000 0.00000000 1.00000000
v 1.00000000 0.07812500 1.00000000
vt 0.59960938 0.45312500
vn 0.00000000 0.00000000 1.00000000
f 25/25/25 26/26/26 27/27/27
v 0.00000000 0.00000000 1.00000000
vt 0.53710938 0.45703125
vn 0.00000000 0.00000000 1.00000000
v 1.00000000 0.07812500 1.00000000
vt 0.59960938 0.45312500
vn 0.00000000 0.00000000 1.00000000
v 0.00000000 0.03906250 1.00000000
vt 0.53710938 0.45507812
vn 0.00000000 0.00000000 1.00000000
f 28/28/28 29/29/29 30/30/30
v 0.97812498 0.23437500 0.97812498
vt 0.00195312 0.40625000
vn 1.00000000 0.00000000 0.00000000
v 0.97812498 0.07812500 0.97812498
vt 0.00195312 0.41601562
vn 1.00000000 0.00000000 0.00000000
v 0.97812498 0.15625000 0.00000000
vt 0.06347656 0.41113281
vn 1.00000000 0.00000000 0.00000000
f 31/31/31 32/32/32 33/33/33
v 0.97812498 0.23437500 0.97812498
vt 0.00195312 0.40625000
vn 1.00000000 0.00000000 0.00000000
v 0.97812498 0.15625000 0.00000000
vt 0.06347656 0.41113281
vn 1.00000000 0.00000000 0.00000000
v 0.97812498 0.23437500 0.00000000
vt 0.06347656 0.40625000
vn 1.00000000 0.00000000 0.00000000
f 34/34/34 35/35/35 36/36/36
v 0.97812498 0.07812500 0.97812498
vt 0.00195312 0.41601562
vn 1.00000000 0.00000000 0.00000000
v 0.97812498 0.07812500 0.00000000
vt 0.06347656 0.41601562
vn 1.00000000 0.00000000 0.00000000
v 0.97812498 0.15625000 0.00000000
vt 0.06347656 0.41113281
vn 1.00000000 0.00000000 0.00000000
f 37/37/37 38/38/38 39/39/39
v 0.00000000 0.23437500 0.97812498
vt 0.36816406 0.12500000
vn 0.00000000 1.00000000 0.00000000
v 0.97812498 0.23437500 0.97812498
vt 0.42968750 0.12500000
vn 0.00000000 1.00000000 0.00000000
v 0.97812498 0.23437500 0.00000000
vt 0.42968750 0.06347656
vn 0.00000000 1.00000000 0.00000000
f 40/40/40 41/41/41 42/42/42
v 0.00000000 0.23437500 0.97812498
vt 0.36816406 0.12500000
vn 0.00000000 1.00000000 0.00000000
v 0.97812498 0.23437500 0.00000000
vt 0.42968750 0.06347656
vn 0.00000000 1.00000000 0.00000000
v 0.00000000 0.23437500 0.00000000
vt 0.36816406 0.06347656
vn 0.00000000 1.00000000 0.00000000
f 43/43/43 44/44/44 45/45/45
v 0.00000000 0.07812500 0.00000000
vt 0.49511719 0.06347656
vn 0.00000000 -1.00000000 0.00000000
v 0.97812498 0.07812500 0.97812498
vt 0.55664062 0.00195312
vn 0.00000000 -1.00000000 0.00000000
v 0.00000000 0.07812500 0.97812498
vt 0.49511719 0.00195312
vn 0.00000000 -1.00000000 0.00000000
f 46/46/46 47/47/47 48/48/48
v 0.97812498 0.07812500 0.00000000
vt 0.55664062 0.06347656
vn 0.00000000 -1.00000000 0.00000000
v 0.97812498 0.07812500 0.97812498
vt 0.55664062 0.00195312
vn 0.00000000 -1.00000000 0.00000000
v 0.00000000 0.07812500 0.00000000
vt 0.49511719 0.06347656
vn 0.00000000 -1.00000000 0.00000000
f 49/49/49 50/50/50 51/51/51
v 0.00000000 0.15625000 0.97812498
vt 0.88183594 0.39160156
vn 0.00000000 0.00000000 1.00000000
v 0.97812498 0.23437500 0.97812498
vt 0.94335938 0.38671875
vn 0.00000000 0.00000000 1.00000000
v 0.00000000 0.23437500 0.97812498
vt 0.88183594 0.38671875
vn 0.00000000 0.00000000 1.00000000
f 52/52/52 53/53/53 54/54/54
v 0.00000000 0.07812500 0.97812498
vt 0.88183594 0.39648438
vn 0.00000000 0.00000000 1.00000000
v 0.97812498 0.07812500 0.97812498
vt 0.94335938 0.39648438
vn 0.00000000 0.00000000 1.00000000
v 0.97812498 0.23437500 0.97812498
vt 0.94335938 0.38671875
vn 0.00000000 0.00000000 1.00000000
f 55/55/55 56/56/56 57/57/57
v 0.00000000 0.07812500 0.97812498
vt 0.88183594 0.39648438
vn 0.00000000 0.00000000 1.00000000
v 0.97812498 0.23437500 0.97812498
vt 0.94335938 0.38671875
vn 0.00000000 0.00000000 1.00000000
v 0.00000000 0.15625000 0.97812498
vt 0.88183594 0.39160156
vn 0.00000000 0.00000000 1.00000000
f 58/58/58 59/59/59 60/60/60
v 1.00000000 0.32812500 1.00000000
vt 0.59960938 0.44335938
vn 1.00000000 0.00000000 0.00000000
v 1.00000000 0.23437500 1.00000000
vt 0.59960938 0.44921875
vn 1.00000000 0.00000000 0.00000000
v 1.00000000 0.32812500 0.00750000
vt 0.66210938 0.44335938
vn 1.00000000 0.00000000 0.00000000
f 61/61/61 62/62/62 63/63/63
v 1.00000000 0.23437500 1.00000000
vt 0.59960938 0.44921875
vn 1.00000000 0.00000000 0.00000000
v 1.00000000 0.23437500 0.00750000
vt 0.66210938 0.44921875
vn 1.00000000 0.00000000 0.00000000
v 1.00000000 0.32812500 0.00750000
vt 0.66210938 0.44335938
vn 1.00000000 0.00000000 0.00000000
f 64/64/64 65/65/65 66/66/66
v 0.00750000 0.32812500 0.00750000
vt 0.66601562 0.44335938
vn -1.00000000 0.00000000 0.00000000
v 0.00750000 0.23437500 0.00750000
vt 0.66601562 0.44921875
vn -1.00000000 0.00000000 0.00000000
v 0.00750000 0.32812500 1.00000000
vt 0.72851562 0.44335938
vn -1.00000000 0.00000000 0.00000000
f 67/67/67 68/68/68 69/69/69
v 0.00750000 0.23437500 0.00750000
vt 0.66601562 0.44921875
vn -1.00000000 0.00000000 0.00000000
v 0.00750000 0.23437500 1.00000000
vt 0.72851562 0.44921875
vn -1.00000000 0.00000000 0.00000000
v 0.00750000 0.32812500 1.00000000
vt 0.72851562 0.44335938
vn -1.00000000 0.00000000 0.00000000
f 70/70/70 71/71/71 72/72/72
v 0.00750000 0.32812500 0.00750000
vt 0.47851562 0.14843750
vn 0.00000000 1.00000000 0.00000000
v 0.00750000 0.32812500 1.00000000
vt 0.47851562 0.21093750
vn 0.00000000 1.00000000 0.00000000
v 1.00000000 0.32812500 0.00750000
vt 0.54101562 0.14843750
vn 0.00000000 1.00000000 0.00000000
f 73/73/73 74/74/74 75/75/75
v 0.00750000 0.32812500 1.00000000
vt 0.47851562 0.21093750
vn 0.00000000 1.00000000 0.00000000
v 1.00000000 0.32812500 1.00000000
vt 0.54101562 0.21093750
vn 0.00000000 1.00000000 0.00000000
v 1.00000000 0.32812500 0.00750000
vt 0.54101562 0.14843750
vn 0.00000000 1.00000000 0.00000000
f 76/76/76 77/77/77 78/78/78
v 0.00750000 0.23437500 1.00000000
vt 0.54492188 0.14843750
vn 0.00000000 -1.00000000 0.00000000
v 0.00750000 0.23437500 0.00750000
vt 0.54492188 0.21093750
vn 0.00000000 -1.00000000 0.00000000
v 1.00000000 0.23437500 1.00000000
vt 0.60742188 0.14843750
vn 0.00000000 -1.00000000 0.00000000
f 79/79/79 80/80/80 81/81/81
v 0.00750000 0.23437500 0.00750000
vt 0.54492188 0.21093750
vn 0.00000000 -1.00000000 0.00000000
v 1.00000000 0.23437500 0.00750000
vt 0.60742188 0.21093750
vn 0.00000000 -1.00000000 0.00000000
v 1.00000000 0.23437500 1.00000000
vt 0.60742188 0.14843750
vn 0.00000000 -1.00000000 0.00000000
f 82/82/82 83/83/83 84/84/84
v 0.00750000 0.32812500 1.00000000
vt 0.53320312 0.44335938
vn 0.00000000 0.00000000 1.00000000
v 0.00750000 0.23437500 1.00000000
vt 0.53320312 0.44921875
vn 0.00000000 0.00000000 1.00000000
v 1.00000000 0.32812500 1.00000000
vt 0.59570312 0.44335938
vn 0.00000000 0.00000000 1.00000000
f 85/85/85 86/86/86 87/87/87
v 0.00750000 0.23437500 1.00000000
vt 0.53320312 0.44921875
vn 0.00000000 0.00000000 1.00000000
v 1.00000000 0.23437500 1.00000000
vt 0.59570312 0.44921875
vn 0.00000000 0.00000000 1.00000000
v 1.00000000 0.32812500 1.00000000
vt 0.59570312 0.44335938
vn 0.00000000 0.00000000 1.00000000
f 88/88/88 89/89/89 90/90/90
v 1.00000000 0.32812500 0.00750000
vt 0.46679688 0.44335938
vn 0.00000000 0.00000000 -1.00000000
v 1.00000000 0.23437500 0.00750000
vt 0.46679688 0.44921875
vn 0.00000000 0.00000000 -1.00000000
v 0.00750000 0.32812500 0.00750000
vt 0.52929688 0.44335938
vn 0.00000000 0.00000000 -1.00000000
f 91/91/91 92/92/92 93/93/93
v 1.00000000 0.23437500 0.00750000
vt 0.46679688 0.44921875
vn 0.00000000 0.00000000 -1.00000000
v 0.00750000 0.23437500 0.00750000
vt 0.52929688 0.44921875
vn 0.00000000 0.00000000 -1.00000000
v 0.00750000 0.32812500 0.00750000
vt 0.52929688 0.44335938
vn 0.00000000 0.00000000 -1.00000000
f 94/94/94 95/95/95 96/96/96
v 0.49687499 0.22187500 0.98750001
vt 0.59179688 0.43164062
vn 1.00000000 0.00000000 0.00000000
v 0.49687499 0.09062500 0.98750001
vt 0.59179688 0.43945312
vn 1.00000000 0.00000000 0.00000000
v 0.49687499 0.22187500 0.96562499
vt 0.59375000 0.43164062
vn 1.00000000 0.00000000 0.00000000
f 97/97/97 98/98/98 99/99/99
v 0.49687499 0.09062500 0.98750001
vt 0.59179688 0.43945312
vn 1.00000000 0.00000000 0.00000000
v 0.49687499 0.09062500 0.96562499
vt 0.59375000 0.43945312
vn 1.00000000 0.00000000 0.00000000
v 0.49687499 0.22187500 0.96562499
vt 0.59375000 0.43164062
vn 1.00000000 0.00000000 0.00000000
f 100/100/100 101/101/101 102/102/102
v 0.03437500 0.22187500 0.96562499
vt 0.59765625 0.43164062
vn -1.00000000 0.00000000 0.00000000
v 0.03437500 0.09062500 0.96562499
vt 0.59765625 0.43945312
vn -1.00000000 0.00000000 0.00000000
v 0.03437500 0.22187500 0.98750001
vt 0.59960938 0.43164062
vn -1.00000000 0.00000000 0.00000000
f 103/103/103 104/104/104 105/105/105
v 0.03437500 0.09062500 0.96562499
vt 0.59765625 0.43945312
vn -1.00000000 0.00000000 0.00000000
v 0.03437500 0.09062500 0.98750001
vt 0.59960938 0.43945312
vn -1.00000000 0.00000000 0.00000000
v 0.03437500 0.22187500 0.98750001
vt 0.59960938 0.43164062
vn -1.00000000 0.00000000 0.00000000
f 106/106/106 107/107/107 108/108/108
v 0.03437500 0.22187500 0.96562499
vt 0.00195312 0.47851562
vn 0.00000000 1.00000000 0.00000000
v 0.03437500 0.22187500 0.98750001
vt 0.00195312 0.48046875
vn 0.00000000 1.00000000 0.00000000
v 0.49687499 0.22187500 0.96562499
vt 0.03125000 0.47851562
vn 0.00000000 1.00000000 0.00000000
f 109/109/109 110/110/110 111/111/111
v 0.03437500 0.22187500 0.98750001
vt 0.00195312 0.48046875
vn 0.00000000 1.00000000 0.00000000
v 0.49687499 0.22187500 0.98750001
vt 0.03125000 0.48046875
vn 0.00000000 1.00000000 0.00000000
v 0.49687499 0.22187500 0.96562499
vt 0.03125000 0.47851562
vn 0.00000000 1.00000000 0.00000000
f 112/112/112 113/113/113 114/114/114
v 0.03437500 0.09062500 0.98750001
vt 0.03515625 0.47851562
vn 0.00000000 -1.00000000 0.00000000
v 0.03437500 0.09062500 0.96562499
vt 0.03515625 0.48046875
vn 0.00000000 -1.00000000 0.00000000
v 0.49687499 0.09062500 0.98750001
vt 0.06445312 0.47851562
vn 0.00000000 -1.00000000 0.00000000
f 115/115/115 116/116/116 117/117/117
v 0.03437500 0.09062500 0.96562499
vt 0.03515625 0.48046875
vn 0.00000000 -1.00000000 0.00000000
v 0.49687499 0.09062500 0.96562499
vt 0.06445312 0.48046875
vn 0.00000000 -1.00000000 0.00000000
v 0.49687499 0.09062500 0.98750001
vt 0.06445312 0.47851562
vn 0.00000000 -1.00000000 0.00000000
f 118/118/118 119/119/119 120/120/120
v 0.03437500 0.22187500 0.98750001
vt 0.75390625 0.41992188
vn 0.00000000 0.00000000 1.00000000
v 0.03437500 0.09062500 0.98750001
vt 0.75390625 0.42773438
vn 0.00000000 0.00000000 1.00000000
v 0.49687499 0.22187500 0.98750001
vt 0.78320312 0.41992188
vn 0.00000000 0.00000000 1.00000000
f 121/121/121 122/122/122 123/123/123
v 0.03437500 0.09062500 0.98750001
vt 0.75390625 0.42773438
vn 0.00000000 0.00000000 1.00000000
v 0.49687499 0.09062500 0.98750001
vt 0.78320312 0.42773438
vn 0.00000000 0.00000000 1.00000000
v 0.49687499 0.22187500 0.98750001
vt 0.78320312 0.41992188
vn 0.00000000 0.00000000 1.00000000
f 124/124/124 125/125/125 126/126/126
v 0.49687499 0.22187500 0.96562499
vt 0.72070312 0.41992188
vn 0.00000000 0.00000000 -1.00000000
v 0.49687499 0.09062500 0.96562499
vt 0.72070312 0.42773438
vn 0.00000000 0.00000000 -1.00000000
v 0.03437500 0.22187500 0.96562499
vt 0.75000000 0.41992188
vn 0.00000000 0.00000000 -1.00000000
f 127/127/127 128/128/128 129/129/129
v 0.49687499 0.09062500 0.96562499
vt 0.72070312 0.42773438
vn 0.00000000 0.00000000 -1.00000000
v 0.03437500 0.09062500 0.96562499
vt 0.75000000 0.42773438
vn 0.00000000 0.00000000 -1.00000000
v 0.03437500 0.22187500 0.96562499
vt 0.75000000 0.41992188
vn 0.00000000 0.00000000 -1.00000000
f 130/130/130 131/131/131 132/132/132
v 0.99687499 0.22187500 0.98750001
vt 0.60351562 0.43164062
vn 1.00000000 0.00000000 0.00000000
v 0.99687499 0.09062500 0.98750001
vt 0.60351562 0.43945312
vn 1.00000000 0.00000000 0.00000000
v 0.99687499 0.22187500 0.96562499
vt 0.60546875 0.43164062
vn 1.00000000 0.00000000 0.00000000
f 133/133/133 134/134/134 135/135/135
v 0.99687499 0.09062500 0.98750001
vt 0.60351562 0.43945312
vn 1.00000000 0.00000000 0.00000000
v 0.99687499 0.09062500 0.96562499
vt 0.60546875 0.43945312
vn 1.00000000 0.00000000 0.00000000
v 0.99687499 0.22187500 0.96562499
vt 0.60546875 0.43164062
vn 1.00000000 0.00000000 0.00000000
f 136/136/136 137/137/137 138/138/138
v 0.53437501 0.22187500 0.96562499
vt 0.60937500 0.43164062
vn -1.00000000 0.00000000 0.00000000
v 0.53437501 0.09062500 0.96562499
vt 0.60937500 0.43945312
vn -1.00000000 0.00000000 0.00000000
v 0.53437501 0.22187500 0.98750001
vt 0.61132812 0.43164062
vn -1.00000000 0.00000000 0.00000000
f 139/139/139 140/140/140 141/141/141
v 0.53437501 0.09062500 0.96562499
vt 0.60937500 0.43945312
vn -1.00000000 0.00000000 0.00000000
v 0.53437501 0.09062500 0.98750001
vt 0.61132812 0.43945312
vn -1.00000000 0.00000000 0.00000000
v 0.53437501 0.22187500 0.98750001
vt 0.61132812 0.43164062
vn -1.00000000 0.00000000 0.00000000
f 142/142/142 143/143/143 144/144/144
v 0.53437501 0.22187500 0.96562499
vt 0.06835938 0.47851562
vn 0.00000000 1.00000000 0.00000000
v 0.53437501 0.22187500 0.98750001
vt 0.06835938 0.48046875
vn 0.00000000 1.00000000 0.00000000
v 0.99687499 0.22187500 0.96562499
vt 0.09765625 0.47851562
vn 0.00000000 1.00000000 0.00000000
f 145/145/145 146/146/146 147/147/147
v 0.53437501 0.22187500 0.98750001
vt 0.06835938 0.48046875
vn 0.00000000 1.00000000 0.00000000
v 0.99687499 0.22187500 0.98750001
vt 0.09765625 0.48046875
vn 0.00000000 1.00000000 0.00000000
v 0.99687499 0.22187500 0.96562499
vt 0.09765625 0.47851562
vn 0.00000000 1.00000000 0.00000000
f 148/148/148 149/149/149 150/150/150
v 0.53437501 0.09062500 0.98750001
vt 0.10156250 0.47851562
vn 0.00000000 -1.00000000 0.00000000
v 0.53437501 0.09062500 0.96562499
vt 0.10156250 0.48046875
vn 0.00000000 -1.00000000 0.00000000
v 0.99687499 0.09062500 0.98750001
vt 0.13085938 0.47851562
vn 0.00000000 -1.00000000 0.00000000
f 151/151/151 152/152/152 153/153/153
v 0.53437501 0.09062500 0.96562499
vt 0.10156250 0.48046875
vn 0.00000000 -1.00000000 0.00000000
v 0.99687499 0.09062500 0.96562499
vt 0.13085938 0.48046875
vn 0.00000000 -1.00000000 0.00000000
v 0.99687499 0.09062500 0.98750001
vt 0.13085938 0.47851562
vn 0.00000000 -1.00000000 0.00000000
f 154/154/154 155/155/155 156/156/156
v 0.53437501 0.22187500 0.98750001
vt 0.82031250 0.41992188
vn 0.00000000 0.00000000 1.00000000
v 0.53437501 0.09062500 0.98750001
vt 0.82031250 0.42773438
vn 0.00000000 0.00000000 1.00000000
v 0.99687499 0.22187500 0.98750001
vt 0.84960938 0.41992188
vn 0.00000000 0.00000000 1.00000000
f 157/157/157 158/158/158 159/159/159
v 0.53437501 0.09062500 0.98750001
vt 0.82031250 0.42773438
vn 0.00000000 0.00000000 1.00000000
v 0.99687499 0.09062500 0.98750001
vt 0.84960938 0.42773438
vn 0.00000000 0.00000000 1.00000000
v 0.99687499 0.22187500 0.98750001
vt 0.84960938 0.41992188
vn 0.00000000 0.00000000 1.00000000
f 160/160/160 161/161/161 162/162/162
v 0.99687499 0.22187500 0.96562499
vt 0.78710938 0.41992188
vn 0.00000000 0.00000000 -1.00000000
v 0.99687499 0.09062500 0.96562499
vt 0.78710938 0.42773438
vn 0.00000000 0.00000000 -1.00000000
v 0.53437501 0.22187500 0.96562499
vt 0.81640625 0.41992188
vn 0.00000000 0.00000000 -1.00000000
f 163/163/163 164/164/164 165/165/165
v 0.99687499 0.09062500 0.96562499
vt 0.78710938 0.42773438
vn 0.00000000 0.00000000 -1.00000000
v 0.53437501 0.09062500 0.96562499
vt 0.81640625 0.42773438
vn 0.00000000 0.00000000 -1.00000000
v 0.53437501 0.22187500 0.96562499
vt 0.81640625 0.41992188
vn 0.00000000 0.00000000 -1.00000000
f 166/166/166 167/167/167 168/168/168
v 0.57812500 0.65625000 0.57812500
vt 0.75781250 0.33789062
vn 1.00000000 0.00000000 0.00000000
v 0.57812500 0.32812500 0.57812500
vt 0.75781250 0.35742188
vn 1.00000000 0.00000000 0.00000000
v 0.57812500 0.53389831 0.00000000
vt 0.79455773 0.34517346
vn 1.00000000 0.00000000 0.00000000
f 169/169/169 170/170/170 171/171/171
v 0.57812500 0.65625000 0.57812500
vt 0.75781250 0.33789062
vn 1.00000000 0.00000000 0.00000000
v 0.57812500 0.53389831 0.00000000
vt 0.79455773 0.34517346
vn 1.00000000 0.00000000 0.00000000
v 0.57812500 0.65625000 0.00000000
vt 0.79455773 0.33789062
vn 1.00000000 0.00000000 0.00000000
f 172/172/172 173/173/173 174/174/174
v 0.57812500 0.32812500 0.57812500
vt 0.75781250 0.35742188
vn 1.00000000 0.00000000 0.00000000
v 0.57812500 0.32812500 0.00000000
vt 0.79455773 0.35742188
vn 1.00000000 0.00000000 0.00000000
v 0.57812500 0.53389831 0.00000000
vt 0.79455773 0.34517346
vn 1.00000000 0.00000000 0.00000000
f 175/175/175 176/176/176 177/177/177
v 0.00000000 0.65625000 0.10505757
vt 0.69628906 0.17696340
vn 0.00000000 1.00000000 0.00000000
v 0.13532839 0.65625000 0.00000000
vt 0.70474709 0.17028602
vn 0.00000000 1.00000000 0.00000000
v 0.00000000 0.65625000 0.00000000
vt 0.69628906 0.17028602
vn 0.00000000 1.00000000 0.00000000
f 178/178/178 179/179/179 180/180/180
v 0.00000000 0.65625000 0.57812500
vt 0.69628906 0.20703125
vn 0.00000000 1.00000000 0.00000000
v 0.57812500 0.65625000 0.57812500
vt 0.73242188 0.20703125
vn 0.00000000 1.00000000 0.00000000
v 0.57812500 0.65625000 0.00000000
vt 0.73242188 0.17028602
vn 0.00000000 1.00000000 0.00000000
f 181/181/181 182/182/182 183/183/183
v 0.00000000 0.65625000 0.57812500
vt 0.69628906 0.20703125
vn 0.00000000 1.00000000 0.00000000
v 0.57812500 0.65625000 0.00000000
vt 0.73242188 0.17028602
vn 0.00000000 1.00000000 0.00000000
v 0.13532839 0.65625000 0.00000000
vt 0.70474709 0.17028602
vn 0.00000000 1.00000000 0.00000000
f 184/184/184 185/185/185 186/186/186
v 0.00000000 0.65625000 0.57812500
vt 0.69628906 0.20703125
vn 0.00000000 1.00000000 0.00000000
v 0.13532839 0.65625000 0.00000000
vt 0.70474709 0.17028602
vn 0.00000000 1.00000000 0.00000000
v 0.00000000 0.65625000 0.10505757
vt 0.69628906 0.17696340
vn 0.00000000 1.00000000 0.00000000
f 187/187/187 188/188/188 189/189/189
v 0.00000000 0.32812500 0.12931743
vt 0.77441406 0.17696340
vn 0.00000000 -1.00000000 0.00000000
v 0.57812500 0.32812500 0.57812500
vt 0.81054688 0.14843750
vn 0.00000000 -1.00000000 0.00000000
v 0.00000000 0.32812500 0.57812500
vt 0.77441406 0.14843750
vn 0.00000000 -1.00000000 0.00000000
f 190/190/190 191/191/191 192/192/192
v 0.57812500 0.32812500 0.00000000
vt 0.81054688 0.18518273
vn 0.00000000 -1.00000000 0.00000000
v 0.57812500 0.32812500 0.57812500
vt 0.81054688 0.14843750
vn 0.00000000 -1.00000000 0.00000000
v 0.00000000 0.32812500 0.12931743
vt 0.77441406 0.17696340
vn 0.00000000 -1.00000000 0.00000000
f 193/193/193 194/194/194 195/195/195
v 0.57812500 0.32812500 0.00000000
vt 0.81054688 0.18518273
vn 0.00000000 -1.00000000 0.00000000
v 0.00000000 0.32812500 0.12931743
vt 0.77441406 0.17696340
vn 0.00000000 -1.00000000 0.00000000
v 0.00000000 0.32812500 0.00000000
vt 0.77441406 0.18518273
vn 0.00000000 -1.00000000 0.00000000
f 196/196/196 197/197/197 198/198/198
v 0.00000000 0.49650493 0.57812500
vt 0.57714844 0.34739926
vn 0.00000000 0.00000000 1.00000000
v 0.57812500 0.65625000 0.57812500
vt 0.61328125 0.33789062
vn 0.00000000 0.00000000 1.00000000
v 0.00000000 0.65625000 0.57812500
vt 0.57714844 0.33789062
vn 0.00000000 0.00000000 1.00000000
f 199/199/199 200/200/200 201/201/201
v 0.00000000 0.32812500 0.57812500
vt 0.57714844 0.35742188
vn 0.00000000 0.00000000 1.00000000
v 0.57812500 0.32812500 0.57812500
vt 0.61328125 0.35742188
vn 0.00000000 0.00000000 1.00000000
v 0.57812500 0.65625000 0.57812500
vt 0.61328125 0.33789062
vn 0.00000000 0.00000000 1.00000000
f 202/202/202 203/203/203 204/204/204
v 0.00000000 0.32812500 0.57812500
vt 0.57714844 0.35742188
vn 0.00000000 0.00000000 1.00000000
v 0.57812500 0.65625000 0.57812500
vt 0.61328125 0.33789062
vn 0.00000000 0.00000000 1.00000000
v 0.00000000 0.49650493 0.57812500
vt 0.57714844 0.34739926
vn 0.00000000 0.00000000 1.00000000
f 205/205/205 206/206/206 207/207/207
v 0.53125000 1.00000000 0.54062498
vt 0.07226562 0.27929688
vn 1.00000000 0.00000000 0.00000000
v 0.53125000 0.65625000 0.54062498
vt 0.07226562 0.30078125
vn 1.00000000 0.00000000 0.00000000
v 0.53125000 0.98022004 0.00000000
vt 0.10643434 0.28053312
vn 1.00000000 0.00000000 0.00000000
f 208/208/208 209/209/209 210/210/210
v 0.53125000 1.00000000 0.54062498
vt 0.07226562 0.27929688
vn 1.00000000 0.00000000 0.00000000
v 0.53125000 0.98022004 0.00000000
vt 0.10643434 0.28053312
vn 1.00000000 0.00000000 0.00000000
v 0.53125000 1.00000000 0.00000000
vt 0.10643434 0.27929688
vn 1.00000000 0.00000000 0.00000000
f 211/211/211 212/212/212 213/213/213
v 0.53125000 0.65625000 0.54062498
vt 0.07226562 0.30078125
vn 1.00000000 0.00000000 0.00000000
v 0.53125000 0.65625000 0.00000000
vt 0.10643434 0.30078125
vn 1.00000000 0.00000000 0.00000000
v 0.53125000 0.98022004 0.00000000
vt 0.10643434 0.28053312
vn 1.00000000 0.00000000 0.00000000
f 214/214/214 215/215/215 216/216/216
v 0.00000000 0.65625000 0.12828851
vt 0.96522983 0.17449809
vn 0.00000000 -1.00000000 0.00000000
v 0.53125000 0.65625000 0.54062498
vt 0.99804688 0.14843750
vn 0.00000000 -1.00000000 0.00000000
v 0.00000000 0.65625000 0.54062498
vt 0.96522983 0.14843750
vn 0.00000000 -1.00000000 0.00000000
f 217/217/217 218/218/218 219/219/219
v 0.53125000 0.65625000 0.00000000
vt 0.99804688 0.18260621
vn 0.00000000 -1.00000000 0.00000000
v 0.53125000 0.65625000 0.54062498
vt 0.99804688 0.14843750
vn 0.00000000 -1.00000000 0.00000000
v 0.00000000 0.65625000 0.12828851
vt 0.96522983 0.17449809
vn 0.00000000 -1.00000000 0.00000000
f 220/220/220 221/221/221 222/222/222
v 0.53125000 0.65625000 0.00000000
vt 0.99804688 0.18260621
vn 0.00000000 -1.00000000 0.00000000
v 0.00000000 0.65625000 0.12828851
vt 0.96522983 0.17449809
vn 0.00000000 -1.00000000 0.00000000
v 0.00000000 0.65625000 0.00000000
vt 0.96522983 0.18260621
vn 0.00000000 -1.00000000 0.00000000
f 223/223/223 224/224/224 225/225/225
v 0.00000000 0.90915697 0.54062498
vt 0.03554233 0.28497456
vn 0.00000000 0.00000000 1.00000000
v 0.19531250 1.00000000 0.54062498
vt 0.04760742 0.27929688
vn 0.00000000 0.00000000 1.00000000
v 0.00000000 1.00000000 0.54062498
vt 0.03554233 0.27929688
vn 0.00000000 0.00000000 1.00000000
f 226/226/226 227/227/227 228/228/228
v 0.00000000 0.65625000 0.54062498
vt 0.03554233 0.30078125
vn 0.00000000 0.00000000 1.00000000
v 0.53125000 0.65625000 0.54062498
vt 0.06835938 0.30078125
vn 0.00000000 0.00000000 1.00000000
v 0.53125000 1.00000000 0.54062498
vt 0.06835938 0.27929688
vn 0.00000000 0.00000000 1.00000000
f 229/229/229 230/230/230 231/231/231
v 0.00000000 0.65625000 0.54062498
vt 0.03554233 0.30078125
vn 0.00000000 0.00000000 1.00000000
v 0.53125000 1.00000000 0.54062498
vt 0.06835938 0.27929688
vn 0.00000000 0.00000000 1.00000000
v 0.19531250 1.00000000 0.54062498
vt 0.04760742 0.27929688
vn 0.00000000 0.00000000 1.00000000
f 232/232/232 233/233/233 234/234/234
v 0.00000000 0.65625000 0.54062498
vt 0.03554233 0.30078125
vn 0.00000000 0.00000000 1.00000000
v 0.19531250 1.00000000 0.54062498
vt 0.04760742 0.27929688
vn 0.00000000 0.00000000 1.00000000
v 0.00000000 0.90915697 0.54062498
vt 0.03554233 0.28497456
vn 0.00000000 0.00000000 1.00000000
f 235/235/235 236/236/236 237/237/237
v 0.11562500 1.00000000 0.57187498
vt 0.58398438 0.05273437
vn 1.00000000 0.00000000 0.00000000
v 0.11562500 0.37500000 0.57187498
vt 0.58398438 0.09179688
vn 1.00000000 0.00000000 0.00000000
v 0.11562500 1.00000000 0.51345107
vt 0.58738111 0.05273438
vn 1.00000000 0.00000000 0.00000000
f 238/238/238 239/239/239 240/240/240
v 0.11562500 0.37500000 0.57187498
vt 0.58398438 0.09179688
vn 1.00000000 0.00000000 0.00000000
v 0.11562500 0.37500000 0.43750000
vt 0.59179688 0.09179688
vn 1.00000000 0.00000000 0.00000000
v 0.11562500 1.00000000 0.43750000
vt 0.59179688 0.05273438
vn 1.00000000 0.00000000 0.00000000
f 241/241/241 242/242/242 243/243/243
v 0.11562500 0.37500000 0.57187498
vt 0.58398438 0.09179688
vn 1.00000000 0.00000000 0.00000000
v 0.11562500 1.00000000 0.43750000
vt 0.59179688 0.05273438
vn 1.00000000 0.00000000 0.00000000
v 0.11562500 1.00000000 0.51345107
vt 0.58738111 0.05273437
vn 1.00000000 0.00000000 0.00000000
f 244/244/244 245/245/245 246/246/246
v 0.01250000 1.00000000 0.43750000
vt 0.59570312 0.05273437
vn -1.00000000 0.00000000 0.00000000
v 0.01250000 0.37500000 0.43750000
vt 0.59570312 0.09179688
vn -1.00000000 0.00000000 0.00000000
v 0.01250000 1.00000000 0.49592390
vt 0.59909986 0.05273438
vn -1.00000000 0.00000000 0.00000000
f 247/247/247 248/248/248 249/249/249
v 0.01250000 0.37500000 0.43750000
vt 0.59570312 0.09179688
vn -1.00000000 0.00000000 0.00000000
v 0.01250000 0.37500000 0.57187498
vt 0.60351562 0.09179688
vn -1.00000000 0.00000000 0.00000000
v 0.01250000 1.00000000 0.57187498
vt 0.60351562 0.05273438
vn -1.00000000 0.00000000 0.00000000
f 250/250/250 251/251/251 252/252/252
v 0.01250000 0.37500000 0.43750000
vt 0.59570312 0.09179688
vn -1.00000000 0.00000000 0.00000000
v 0.01250000 1.00000000 0.57187498
vt 0.60351562 0.05273438
vn -1.00000000 0.00000000 0.00000000
v 0.01250000 1.00000000 0.49592390
vt 0.59909986 0.05273437
vn -1.00000000 0.00000000 0.00000000
f 253/253/253 254/254/254 255/255/255
v 0.01250000 0.37500000 0.57187498
vt 0.35546875 0.43164062
vn 0.00000000 -1.00000000 0.00000000
v 0.01250000 0.37500000 0.43750000
vt 0.35546875 0.43945312
vn 0.00000000 -1.00000000 0.00000000
v 0.11562500 0.37500000 0.57187498
vt 0.36132812 0.43164062
vn 0.00000000 -1.00000000 0.00000000
f 256/256/256 257/257/257 258/258/258
v 0.01250000 0.37500000 0.43750000
vt 0.35546875 0.43945312
vn 0.00000000 -1.00000000 0.00000000
v 0.11562500 0.37500000 0.43750000
vt 0.36132812 0.43945312
vn 0.00000000 -1.00000000 0.00000000
v 0.11562500 0.37500000 0.57187498
vt 0.36132812 0.43164062
vn 0.00000000 -1.00000000 0.00000000
f 259/259/259 260/260/260 261/261/261
v 0.01250000 1.00000000 0.57187498
vt 0.66015625 0.05273437
vn 0.00000000 0.00000000 1.00000000
v 0.01250000 0.37500000 0.57187498
vt 0.66015625 0.09179688
vn 0.00000000 0.00000000 1.00000000
v 0.05733696 1.00000000 0.57187498
vt 0.66270380 0.05273438
vn 0.00000000 0.00000000 1.00000000
f 262/262/262 263/263/263 264/264/264
v 0.01250000 0.37500000 0.57187498
vt 0.66015625 0.09179688
vn 0.00000000 0.00000000 1.00000000
v 0.11562500 0.37500000 0.57187498
vt 0.66601562 0.09179688
vn 0.00000000 0.00000000 1.00000000
v 0.11562500 1.00000000 0.57187498
vt 0.66601562 0.05273438
vn 0.00000000 0.00000000 1.00000000
f 265/265/265 266/266/266 267/267/267
v 0.01250000 0.37500000 0.57187498
vt 0.66015625 0.09179688
vn 0.00000000 0.00000000 1.00000000
v 0.11562500 1.00000000 0.57187498
vt 0.66601562 0.05273438
vn 0.00000000 0.00000000 1.00000000
v 0.05733696 1.00000000 0.57187498
vt 0.66270380 0.05273437
vn 0.00000000 0.00000000 1.00000000
f 268/268/268 269/269/269 270/270/270
v 0.11562500 1.00000000 0.43750000
vt 0.65039062 0.05273437
vn 0.00000000 0.00000000 -1.00000000
v 0.11562500 0.37500000 0.43750000
vt 0.65039062 0.09179688
vn 0.00000000 0.00000000 -1.00000000
v 0.07078804 1.00000000 0.43750000
vt 0.65293818 0.05273438
vn 0.00000000 0.00000000 -1.00000000
f 271/271/271 272/272/272 273/273/273
v 0.11562500 0.37500000 0.43750000
vt 0.65039062 0.09179688
vn 0.00000000 0.00000000 -1.00000000
v 0.01250000 0.37500000 0.43750000
vt 0.65625000 0.09179688
vn 0.00000000 0.00000000 -1.00000000
v 0.01250000 1.00000000 0.43750000
vt 0.65625000 0.05273438
vn 0.00000000 0.00000000 -1.00000000
f 274/274/274 275/275/275 276/276/276
v 0.11562500 0.37500000 0.43750000
vt 0.65039062 0.09179688
vn 0.00000000 0.00000000 -1.00000000
v 0.01250000 1.00000000 0.43750000
vt 0.65625000 0.05273438
vn 0.00000000 0.00000000 -1.00000000
v 0.07078804 1.00000000 0.43750000
vt 0.65293818 0.05273437
vn 0.00000000 0.00000000 -1.00000000
f 277/277/277 278/278/278 279/279/279
v 0.38437501 1.00000000 0.57187498
vt 0.78320312 0.04101562
vn 1.00000000 0.00000000 0.00000000
v 0.38437501 0.37500000 0.57187498
vt 0.78320312 0.08007812
vn 1.00000000 0.00000000 0.00000000
v 0.38437501 1.00000000 0.50468749
vt 0.78710938 0.04101562
vn 1.00000000 0.00000000 0.00000000
f 280/280/280 281/281/281 282/282/282
v 0.38437501 0.37500000 0.57187498
vt 0.78320312 0.08007812
vn 1.00000000 0.00000000 0.00000000
v 0.38437501 0.37500000 0.43750000
vt 0.79101562 0.08007812
vn 1.00000000 0.00000000 0.00000000
v 0.38437501 1.00000000 0.43750000
vt 0.79101562 0.04101562
vn 1.00000000 0.00000000 0.00000000
f 283/283/283 284/284/284 285/285/285
v 0.38437501 0.37500000 0.57187498
vt 0.78320312 0.08007812
vn 1.00000000 0.00000000 0.00000000
v 0.38437501 1.00000000 0.43750000
vt 0.79101562 0.04101562
vn 1.00000000 0.00000000 0.00000000
v 0.38437501 1.00000000 0.50468749
vt 0.78710938 0.04101562
vn 1.00000000 0.00000000 0.00000000
f 286/286/286 287/287/287 288/288/288
v 0.28125000 1.00000000 0.43750000
vt 0.79492188 0.04101562
vn -1.00000000 0.00000000 0.00000000
v 0.28125000 0.37500000 0.43750000
vt 0.79492188 0.08007812
vn -1.00000000 0.00000000 0.00000000
v 0.28125000 1.00000000 0.50468749
vt 0.79882812 0.04101562
vn -1.00000000 0.00000000 0.00000000
f 289/289/289 290/290/290 291/291/291
v 0.28125000 0.37500000 0.43750000
vt 0.79492188 0.08007812
vn -1.00000000 0.00000000 0.00000000
v 0.28125000 0.37500000 0.57187498
vt 0.80273438 0.08007812
vn -1.00000000 0.00000000 0.00000000
v 0.28125000 1.00000000 0.57187498
vt 0.80273438 0.04101562
vn -1.00000000 0.00000000 0.00000000
f 292/292/292 293/293/293 294/294/294
v 0.28125000 0.37500000 0.43750000
vt 0.79492188 0.08007812
vn -1.00000000 0.00000000 0.00000000
v 0.28125000 1.00000000 0.57187498
vt 0.80273438 0.04101562
vn -1.00000000 0.00000000 0.00000000
v 0.28125000 1.00000000 0.50468749
vt 0.79882812 0.04101562
vn -1.00000000 0.00000000 0.00000000
f 295/295/295 296/296/296 297/297/297
v 0.28125000 0.37500000 0.57187498
vt 0.37500000 0.43164062
vn 0.00000000 -1.00000000 0.00000000
v 0.28125000 0.37500000 0.43750000
vt 0.37500000 0.43945312
vn 0.00000000 -1.00000000 0.00000000
v 0.38437501 0.37500000 0.57187498
vt 0.38085938 0.43164062
vn 0.00000000 -1.00000000 0.00000000
f 298/298/298 299/299/299 300/300/300
v 0.28125000 0.37500000 0.43750000
vt 0.37500000 0.43945312
vn 0.00000000 -1.00000000 0.00000000
v 0.38437501 0.37500000 0.43750000
vt 0.38085938 0.43945312
vn 0.00000000 -1.00000000 0.00000000
v 0.38437501 0.37500000 0.57187498
vt 0.38085938 0.43164062
vn 0.00000000 -1.00000000 0.00000000
f 301/301/301 302/302/302 303/303/303
v 0.28125000 1.00000000 0.57187498
vt 0.85546875 0.04101562
vn 0.00000000 0.00000000 1.00000000
v 0.28125000 0.37500000 0.57187498
vt 0.85546875 0.08007812
vn 0.00000000 0.00000000 1.00000000
v 0.33281250 1.00000000 0.57187498
vt 0.85839844 0.04101562
vn 0.00000000 0.00000000 1.00000000
f 304/304/304 305/305/305 306/306/306
v 0.28125000 0.37500000 0.57187498
vt 0.85546875 0.08007812
vn 0.00000000 0.00000000 1.00000000
v 0.38437501 0.37500000 0.57187498
vt 0.86132812 0.08007812
vn 0.00000000 0.00000000 1.00000000
v 0.38437501 1.00000000 0.57187498
vt 0.86132812 0.04101562
vn 0.00000000 0.00000000 1.00000000
f 307/307/307 308/308/308 309/309/309
v 0.28125000 0.37500000 0.57187498
vt 0.85546875 0.08007812
vn 0.00000000 0.00000000 1.00000000
v 0.38437501 1.00000000 0.57187498
vt 0.86132812 0.04101562
vn 0.00000000 0.00000000 1.00000000
v 0.33281250 1.00000000 0.57187498
vt 0.85839844 0.04101562
vn 0.00000000 0.00000000 1.00000000
f 310/310/310 311/311/311 312/312/312
v 0.38437501 1.00000000 0.43750000
vt 0.84570312 0.04101562
vn 0.00000000 0.00000000 -1.00000000
v 0.38437501 0.37500000 0.43750000
vt 0.84570312 0.08007812
vn 0.00000000 0.00000000 -1.00000000
v 0.33281250 1.00000000 0.43750000
vt 0.84863281 0.04101562
vn 0.00000000 0.00000000 -1.00000000
f 313/313/313 314/314/314 315/315/315
v 0.38437501 0.37500000 0.43750000
vt 0.84570312 0.08007812
vn 0.00000000 0.00000000 -1.00000000
v 0.28125000 0.37500000 0.43750000
vt 0.85156250 0.08007812
vn 0.00000000 0.00000000 -1.00000000
v 0.28125000 1.00000000 0.43750000
vt 0.85156250 0.04101562
vn 0.00000000 0.00000000 -1.00000000
f 316/316/316 317/317/317 318/318/318
v 0.38437501 0.37500000 0.43750000
vt 0.84570312 0.08007812
vn 0.00000000 0.00000000 -1.00000000
v 0.28125000 1.00000000 0.43750000
vt 0.85156250 0.04101562
vn 0.00000000 0.00000000 -1.00000000
v 0.33281250 1.00000000 0.43750000
vt 0.84863281 0.04101562
vn 0.00000000 0.00000000 -1.00000000
f 319/319/319 320/320/320 321/321/321
v 0.54687500 1.00000000 0.57187498
vt 0.60742188 0.05273437
vn 1.00000000 0.00000000 0.00000000
v 0.54687500 0.37500000 0.57187498
vt 0.60742188 0.09179688
vn 1.00000000 0.00000000 0.00000000
v 0.54687500 1.00000000 0.51345107
vt 0.61081861 0.05273438
vn 1.00000000 0.00000000 0.00000000
f 322/322/322 323/323/323 324/324/324
v 0.54687500 0.37500000 0.57187498
vt 0.60742188 0.09179688
vn 1.00000000 0.00000000 0.00000000
v 0.54687500 0.37500000 0.43750000
vt 0.61523438 0.09179688
vn 1.00000000 0.00000000 0.00000000
v 0.54687500 1.00000000 0.43750000
vt 0.61523438 0.05273438
vn 1.00000000 0.00000000 0.00000000
f 325/325/325 326/326/326 327/327/327
v 0.54687500 0.37500000 0.57187498
vt 0.60742188 0.09179688
vn 1.00000000 0.00000000 0.00000000
v 0.54687500 1.00000000 0.43750000
vt 0.61523438 0.05273438
vn 1.00000000 0.00000000 0.00000000
v 0.54687500 1.00000000 0.51345107
vt 0.61081861 0.05273437
vn 1.00000000 0.00000000 0.00000000
f 328/328/328 329/329/329 330/330/330
v 0.44374999 1.00000000 0.43750000
vt 0.61914062 0.05273437
vn -1.00000000 0.00000000 0.00000000
v 0.44374999 0.37500000 0.43750000
vt 0.61914062 0.09179688
vn -1.00000000 0.00000000 0.00000000
v 0.44374999 1.00000000 0.49592390
vt 0.62253736 0.05273438
vn -1.00000000 0.00000000 0.00000000
f 331/331/331 332/332/332 333/333/333
v 0.44374999 0.37500000 0.43750000
vt 0.61914062 0.09179688
vn -1.00000000 0.00000000 0.00000000
v 0.44374999 0.37500000 0.57187498
vt 0.62695312 0.09179688
vn -1.00000000 0.00000000 0.00000000
v 0.44374999 1.00000000 0.57187498
vt 0.62695312 0.05273438
vn -1.00000000 0.00000000 0.00000000
f 334/334/334 335/335/335 336/336/336
v 0.44374999 0.37500000 0.43750000
vt 0.61914062 0.09179688
vn -1.00000000 0.00000000 0.00000000
v 0.44374999 1.00000000 0.57187498
vt 0.62695312 0.05273438
vn -1.00000000 0.00000000 0.00000000
v 0.44374999 1.00000000 0.49592390
vt 0.62253736 0.05273437
vn -1.00000000 0.00000000 0.00000000
f 337/337/337 338/338/338 339/339/339
v 0.44374999 0.37500000 0.57187498
vt 0.39453125 0.43164062
vn 0.00000000 -1.00000000 0.00000000
v 0.44374999 0.37500000 0.43750000
vt 0.39453125 0.43945312
vn 0.00000000 -1.00000000 0.00000000
v 0.54687500 0.37500000 0.57187498
vt 0.40039062 0.43164062
vn 0.00000000 -1.00000000 0.00000000
f 340/340/340 341/341/341 342/342/342
v 0.44374999 0.37500000 0.43750000
vt 0.39453125 0.43945312
vn 0.00000000 -1.00000000 0.00000000
v 0.54687500 0.37500000 0.43750000
vt 0.40039062 0.43945312
vn 0.00000000 -1.00000000 0.00000000
v 0.54687500 0.37500000 0.57187498
vt 0.40039062 0.43164062
vn 0.00000000 -1.00000000 0.00000000
f 343/343/343 344/344/344 345/345/345
v 0.44374999 1.00000000 0.57187498
vt 0.67968750 0.05273437
vn 0.00000000 0.00000000 1.00000000
v 0.44374999 0.37500000 0.57187498
vt 0.67968750 0.09179688
vn 0.00000000 0.00000000 1.00000000
v 0.48858695 1.00000000 0.57187498
vt 0.68223505 0.05273438
vn 0.00000000 0.00000000 1.00000000
f 346/346/346 347/347/347 348/348/348
v 0.44374999 0.37500000 0.57187498
vt 0.67968750 0.09179688
vn 0.00000000 0.00000000 1.00000000
v 0.54687500 0.37500000 0.57187498
vt 0.68554688 0.09179688
vn 0.00000000 0.00000000 1.00000000
v 0.54687500 1.00000000 0.57187498
vt 0.68554688 0.05273438
vn 0.00000000 0.00000000 1.00000000
f 349/349/349 350/350/350 351/351/351
v 0.44374999 0.37500000 0.57187498
vt 0.67968750 0.09179688
vn 0.00000000 0.00000000 1.00000000
v 0.54687500 1.00000000 0.57187498
vt 0.68554688 0.05273438
vn 0.00000000 0.00000000 1.00000000
v 0.48858695 1.00000000 0.57187498
vt 0.68223505 0.05273437
vn 0.00000000 0.00000000 1.00000000
f 352/352/352 353/353/353 354/354/354
v 0.54687500 1.00000000 0.43750000
vt 0.66992188 0.05273437
vn 0.00000000 0.00000000 -1.00000000
v 0.54687500 0.37500000 0.43750000
vt 0.66992188 0.09179688
vn 0.00000000 0.00000000 -1.00000000
v 0.50203804 1.00000000 0.43750000
vt 0.67246943 0.05273438
vn 0.00000000 0.00000000 -1.00000000
f 355/355/355 356/356/356 357/357/357
v 0.54687500 0.37500000 0.43750000
vt 0.66992188 0.09179688
vn 0.00000000 0.00000000 -1.00000000
v 0.44374999 0.37500000 0.43750000
vt 0.67578125 0.09179688
vn 0.00000000 0.00000000 -1.00000000
v 0.44374999 1.00000000 0.43750000
vt 0.67578125 0.05273438
vn 0.00000000 0.00000000 -1.00000000
f 358/358/358 359/359/359 360/360/360
v 0.54687500 0.37500000 0.43750000
vt 0.66992188 0.09179688
vn 0.00000000 0.00000000 -1.00000000
v 0.44374999 1.00000000 0.43750000
vt 0.67578125 0.05273438
vn 0.00000000 0.00000000 -1.00000000
v 0.50203804 1.00000000 0.43750000
vt 0.67246943 0.05273437
vn 0.00000000 0.00000000 -1.00000000
f 361/361/361 362/362/362 363/363/363
v 0.59359698 1.00000000 0.43125000
vt 0.97070312 0.02955572
vn 0.99756405 0.06975647 0.00000000
v 0.63690588 0.38065388 0.43125000
vt 0.97070312 0.06835938
vn 0.99756405 0.06975647 0.00000000
v 0.59359698 1.00000000 0.17925449
vt 0.98668110 0.02955572
vn 0.99756405 0.06975647 0.00000000
f 364/364/364 365/365/365 366/366/366
v 0.63690588 0.38065388 0.43125000
vt 0.97070312 0.06835938
vn 0.99756405 0.06975647 0.00000000
v 0.63690588 0.38065388 -0.00000000
vt 0.99804688 0.06835938
vn 0.99756405 0.06975647 0.00000000
v 0.59359698 1.00000000 -0.00000000
vt 0.99804688 0.02955572
vn 0.99756405 0.06975647 0.00000000
f 367/367/367 368/368/368 369/369/369
v 0.63690588 0.38065388 0.43125000
vt 0.97070312 0.06835938
vn 0.99756405 0.06975647 0.00000000
v 0.59359698 1.00000000 -0.00000000
vt 0.99804688 0.02955572
vn 0.99756405 0.06975647 0.00000000
v 0.59359698 1.00000000 0.17925449
vt 0.98668110 0.02955572
vn 0.99756405 0.06975647 0.00000000
f 370/370/370 371/371/371 372/372/372
v 0.46829174 1.00000000 -0.00000000
vt 0.00195312 0.17549379
vn -0.99756405 -0.06975647 0.00000000
v 0.51221037 0.37193432 -0.00000000
vt 0.00195312 0.21484375
vn -0.99756405 -0.06975647 0.00000000
v 0.46829174 1.00000000 0.25554327
vt 0.01815605 0.17549379
vn -0.99756405 -0.06975647 0.00000000
f 373/373/373 374/374/374 375/375/375
v 0.51221037 0.37193432 -0.00000000
vt 0.00195312 0.21484375
vn -0.99756405 -0.06975647 0.00000000
v 0.51221037 0.37193432 0.43125000
vt 0.02929688 0.21484375
vn -0.99756405 -0.06975647 0.00000000
v 0.46829174 1.00000000 0.43125000
vt 0.02929688 0.17549379
vn -0.99756405 -0.06975647 0.00000000
f 376/376/376 377/377/377 378/378/378
v 0.51221037 0.37193432 -0.00000000
vt 0.00195312 0.21484375
vn -0.99756405 -0.06975647 0.00000000
v 0.46829174 1.00000000 0.43125000
vt 0.02929688 0.17549379
vn -0.99756405 -0.06975647 0.00000000
v 0.46829174 1.00000000 0.25554327
vt 0.01815605 0.17549379
vn -0.99756405 -0.06975647 0.00000000
f 379/379/379 380/380/380 381/381/381
v 0.51221037 0.37193432 0.43125000
vt 0.32421875 0.30468750
vn 0.06975647 -0.99756405 0.00000000
v 0.51221037 0.37193432 -0.00000000
vt 0.32421875 0.33203125
vn 0.06975647 -0.99756405 0.00000000
v 0.63690588 0.38065388 0.43125000
vt 0.33203125 0.30468750
vn 0.06975647 -0.99756405 0.00000000
f 382/382/382 383/383/383 384/384/384
v 0.51221037 0.37193432 -0.00000000
vt 0.32421875 0.33203125
vn 0.06975647 -0.99756405 0.00000000
v 0.63690588 0.38065388 -0.00000000
vt 0.33203125 0.33203125
vn 0.06975647 -0.99756405 0.00000000
v 0.63690588 0.38065388 0.43125000
vt 0.33203125 0.30468750
vn 0.06975647 -0.99756405 0.00000000
f 385/385/385 386/386/386 387/387/387
v 0.46829174 1.00000000 0.43125000
vt 0.06835938 0.17549379
vn 0.00000000 0.00000000 1.00000000
v 0.51221037 0.37193432 0.43125000
vt 0.06835938 0.21484375
vn 0.00000000 0.00000000 1.00000000
v 0.54193727 1.00000000 0.43125000
vt 0.07295101 0.17581487
vn 0.00000000 0.00000000 1.00000000
f 388/388/388 389/389/389 390/390/390
v 0.51221037 0.37193432 0.43125000
vt 0.06835938 0.21484375
vn 0.00000000 0.00000000 1.00000000
v 0.63690588 0.38065388 0.43125000
vt 0.07617188 0.21484375
vn 0.00000000 0.00000000 1.00000000
v 0.59359698 1.00000000 0.43125000
vt 0.07617188 0.17604009
vn 0.00000000 0.00000000 1.00000000
f 391/391/391 392/392/392 393/393/393
v 0.51221037 0.37193432 0.43125000
vt 0.06835938 0.21484375
vn 0.00000000 0.00000000 1.00000000
v 0.59359698 1.00000000 0.43125000
vt 0.07617188 0.17604009
vn 0.00000000 0.00000000 1.00000000
v 0.54193727 1.00000000 0.43125000
vt 0.07295101 0.17581487
vn 0.00000000 0.00000000 1.00000000
f 394/394/394 395/395/395 396/396/396
v 0.59359698 1.00000000 -0.00000000
vt 0.05664062 0.17604009
vn 0.00000000 0.00000000 -1.00000000
v 0.63690588 0.38065388 -0.00000000
vt 0.05664062 0.21484375
vn 0.00000000 0.00000000 -1.00000000
v 0.51976908 1.00000000 -0.00000000
vt 0.06124363 0.17571822
vn 0.00000000 0.00000000 -1.00000000
f 397/397/397 398/398/398 399/399/399
v 0.63690588 0.38065388 -0.00000000
vt 0.05664062 0.21484375
vn 0.00000000 0.00000000 -1.00000000
v 0.51221037 0.37193432 -0.00000000
vt 0.06445312 0.21484375
vn 0.00000000 0.00000000 -1.00000000
v 0.46829174 1.00000000 -0.00000000
vt 0.06445312 0.17549379
vn 0.00000000 0.00000000 -1.00000000
f 400/400/400 401/401/401 402/402/402
v 0.63690588 0.38065388 -0.00000000
vt 0.05664062 0.21484375
vn 0.00000000 0.00000000 -1.00000000
v 0.46829174 1.00000000 -0.00000000
vt 0.06445312 0.17549379
vn 0.00000000 0.00000000 -1.00000000
v 0.51976908 1.00000000 -0.00000000
vt 0.06124363 0.17571822
vn 0.00000000 0.00000000 -1.00000000
f 403/403/403 404/404/404 405/405/405
v 0.78125000 0.34687501 0.61874998
vt 0.66210938 0.47851562
vn 1.00000000 0.00000000 0.00000000
v 0.78125000 0.32812500 0.61874998
vt 0.66210938 0.48046875
vn 1.00000000 0.00000000 0.00000000
v 0.78125000 0.34687501 0.51249999
vt 0.66796875 0.47851562
vn 1.00000000 0.00000000 0.00000000
f 406/406/406 407/407/407 408/408/408
v 0.78125000 0.32812500 0.61874998
vt 0.66210938 0.48046875
vn 1.00000000 0.00000000 0.00000000
v 0.78125000 0.32812500 0.51249999
vt 0.66796875 0.48046875
vn 1.00000000 0.00000000 0.00000000
v 0.78125000 0.34687501 0.51249999
vt 0.66796875 0.47851562
vn 1.00000000 0.00000000 0.00000000
f 409/409/409 410/410/410 411/411/411
v 0.63125002 0.34687501 0.51249999
vt 0.67187500 0.47851562
vn -1.00000000 0.00000000 0.00000000
v 0.63125002 0.32812500 0.51249999
vt 0.67187500 0.48046875
vn -1.00000000 0.00000000 0.00000000
v 0.63125002 0.34687501 0.61874998
vt 0.67773438 0.47851562
vn -1.00000000 0.00000000 0.00000000
f 412/412/412 413/413/413 414/414/414
v 0.63125002 0.32812500 0.51249999
vt 0.67187500 0.48046875
vn -1.00000000 0.00000000 0.00000000
v 0.63125002 0.32812500 0.61874998
vt 0.67773438 0.48046875
vn -1.00000000 0.00000000 0.00000000
v 0.63125002 0.34687501 0.61874998
vt 0.67773438 0.47851562
vn -1.00000000 0.00000000 0.00000000
f 415/415/415 416/416/416 417/417/417
v 0.63125002 0.34687501 0.51249999
vt 0.12695312 0.45312500
vn 0.00000000 1.00000000 0.00000000
v 0.63125002 0.34687501 0.61874998
vt 0.12695312 0.45898438
vn 0.00000000 1.00000000 0.00000000
v 0.78125000 0.34687501 0.51249999
vt 0.13671875 0.45312500
vn 0.00000000 1.00000000 0.00000000
f 418/418/418 419/419/419 420/420/420
v 0.63125002 0.34687501 0.61874998
vt 0.12695312 0.45898438
vn 0.00000000 1.00000000 0.00000000
v 0.78125000 0.34687501 0.61874998
vt 0.13671875 0.45898438
vn 0.00000000 1.00000000 0.00000000
v 0.78125000 0.34687501 0.51249999
vt 0.13671875 0.45312500
vn 0.00000000 1.00000000 0.00000000
f 421/421/421 422/422/422 423/423/423
v 0.63125002 0.32812500 0.61874998
vt 0.14062500 0.45312500
vn 0.00000000 -1.00000000 0.00000000
v 0.63125002 0.32812500 0.51249999
vt 0.14062500 0.45898438
vn 0.00000000 -1.00000000 0.00000000
v 0.78125000 0.32812500 0.61874998
vt 0.15039062 0.45312500
vn 0.00000000 -1.00000000 0.00000000
f 424/424/424 425/425/425 426/426/426
v 0.63125002 0.32812500 0.51249999
vt 0.14062500 0.45898438
vn 0.00000000 -1.00000000 0.00000000
v 0.78125000 0.32812500 0.51249999
vt 0.15039062 0.45898438
vn 0.00000000 -1.00000000 0.00000000
v 0.78125000 0.32812500 0.61874998
vt 0.15039062 0.45312500
vn 0.00000000 -1.00000000 0.00000000
f 427/427/427 428/428/428 429/429/429
v 0.63125002 0.34687501 0.61874998
vt 0.49609375 0.47851562
vn 0.00000000 0.00000000 1.00000000
v 0.63125002 0.32812500 0.61874998
vt 0.49609375 0.48046875
vn 0.00000000 0.00000000 1.00000000
v 0.78125000 0.34687501 0.61874998
vt 0.50585938 0.47851562
vn 0.00000000 0.00000000 1.00000000
f 430/430/430 431/431/431 432/432/432
v 0.63125002 0.32812500 0.61874998
vt 0.49609375 0.48046875
vn 0.00000000 0.00000000 1.00000000
v 0.78125000 0.32812500 0.61874998
vt 0.50585938 0.48046875
vn 0.00000000 0.00000000 1.00000000
v 0.78125000 0.34687501 0.61874998
vt 0.50585938 0.47851562
vn 0.00000000 0.00000000 1.00000000
f 433/433/433 434/434/434 435/435/435
v 0.78125000 0.34687501 0.51249999
vt 0.48242188 0.47851562
vn 0.00000000 0.00000000 -1.00000000
v 0.78125000 0.32812500 0.51249999
vt 0.48242188 0.48046875
vn 0.00000000 0.00000000 -1.00000000
v 0.63125002 0.34687501 0.51249999
vt 0.49218750 0.47851562
vn 0.00000000 0.00000000 -1.00000000
f 436/436/436 437/437/437 438/438/438
v 0.78125000 0.32812500 0.51249999
vt 0.48242188 0.48046875
vn 0.00000000 0.00000000 -1.00000000
v 0.63125002 0.32812500 0.51249999
vt 0.49218750 0.48046875
vn 0.00000000 0.00000000 -1.00000000
v 0.63125002 0.34687501 0.51249999
vt 0.49218750 0.47851562
vn 0.00000000 0.00000000 -1.00000000
f 439/439/439 440/440/440 441/441/441
