# Generated from the approved Charon statue B; positions are in blocks.
mtllib kingdoms:models/block/charon_statue/charon_statue.mtl
s off
usemtl stone
v 0.49374998 0.00000000 0.00000000
vt 0.89283608 0.27539062
vn -1.00000000 0.00000000 0.00000000
v 0.49374998 0.00000000 0.30500000
vt 0.91171875 0.27539062
vn -1.00000000 0.00000000 0.00000000
v 0.49374998 0.09375000 0.43750000
vt 0.91992188 0.26953125
vn -1.00000000 0.00000000 0.00000000
f 1/1/1 2/2/2 3/3/3
v 0.49374998 0.00000000 0.00000000
vt 0.89283608 0.27539062
vn -1.00000000 0.00000000 0.00000000
v 0.49374998 0.09375000 0.43750000
vt 0.91992188 0.26953125
vn -1.00000000 0.00000000 0.00000000
v 0.49374998 0.09375000 0.00000000
vt 0.89283608 0.26953125
vn -1.00000000 0.00000000 0.00000000
f 4/4/4 5/5/5 6/6/6
v 0.49374998 0.00000000 0.43750000
vt 0.91992188 0.27539062
vn -1.00000000 0.00000000 0.00000000
v 0.49374998 0.09375000 0.43750000
vt 0.91992188 0.26953125
vn -1.00000000 0.00000000 0.00000000
v 0.49374998 0.00000000 0.30500000
vt 0.91171875 0.27539062
vn -1.00000000 0.00000000 0.00000000
f 7/7/7 8/8/8 9/9/9
v 0.49374998 0.09375000 0.00000000
vt 0.25585938 0.23267983
vn 0.00000000 1.00000000 0.00000000
v 0.49374998 0.09375000 0.43750000
vt 0.25585938 0.25976562
vn 0.00000000 1.00000000 0.00000000
v 1.00000000 0.09375000 0.10419254
vt 0.28730348 0.23913043
vn 0.00000000 1.00000000 0.00000000
f 10/10/10 11/11/11 12/12/12
v 0.49374998 0.09375000 0.00000000
vt 0.25585938 0.23267983
vn 0.00000000 1.00000000 0.00000000
v 1.00000000 0.09375000 0.10419254
vt 0.28730348 0.23913043
vn 0.00000000 1.00000000 0.00000000
v 1.00000000 0.09375000 0.00000000
vt 0.28730348 0.23267983
vn 0.00000000 1.00000000 0.00000000
f 13/13/13 14/14/14 15/15/15
v 0.49374998 0.09375000 0.43750000
vt 0.25585938 0.25976562
vn 0.00000000 1.00000000 0.00000000
v 1.00000000 0.09375000 0.43750000
vt 0.28730348 0.25976562
vn 0.00000000 1.00000000 0.00000000
v 1.00000000 0.09375000 0.10419254
vt 0.28730348 0.23913043
vn 0.00000000 1.00000000 0.00000000
f 16/16/16 17/17/17 18/18/18
v 0.49374998 0.09375000 0.43750000
vt 0.54492188 0.26953125
vn 0.00000000 0.00000000 1.00000000
v 0.49374998 0.00000000 0.43750000
vt 0.54492188 0.27539062
vn 0.00000000 0.00000000 1.00000000
v 1.00000000 0.00000000 0.43750000
vt 0.57636598 0.27539062
vn 0.00000000 0.00000000 1.00000000
f 19/19/19 20/20/20 21/21/21
v 0.49374998 0.09375000 0.43750000
vt 0.54492188 0.26953125
vn 0.00000000 0.00000000 1.00000000
v 1.00000000 0.00000000 0.43750000
vt 0.57636598 0.27539062
vn 0.00000000 0.00000000 1.00000000
v 1.00000000 0.09375000 0.43750000
vt 0.57636598 0.26953125
vn 0.00000000 0.00000000 1.00000000
f 22/22/22 23/23/23 24/24/24
v 0.44375002 0.00000000 0.00000000
vt 0.23435354 0.37890625
vn -1.00000000 0.00000000 0.00000000
v 0.44375002 0.00000000 0.08250000
vt 0.23945312 0.37890625
vn -1.00000000 0.00000000 0.00000000
v 0.44375002 0.25000000 0.53750002
vt 0.26757812 0.36328125
vn -1.00000000 0.00000000 0.00000000
f 25/25/25 26/26/26 27/27/27
v 0.44375002 0.00000000 0.00000000
vt 0.23435354 0.37890625
vn -1.00000000 0.00000000 0.00000000
v 0.44375002 0.25000000 0.53750002
vt 0.26757812 0.36328125
vn -1.00000000 0.00000000 0.00000000
v 0.44375002 0.25000000 0.00000000
vt 0.23435354 0.36328125
vn -1.00000000 0.00000000 0.00000000
f 28/28/28 29/29/29 30/30/30
v 0.44375002 0.00000000 0.53750002
vt 0.26757812 0.37890625
vn -1.00000000 0.00000000 0.00000000
v 0.44375002 0.25000000 0.53750002
vt 0.26757812 0.36328125
vn -1.00000000 0.00000000 0.00000000
v 0.44375002 0.00000000 0.08250000
vt 0.23945312 0.37890625
vn -1.00000000 0.00000000 0.00000000
f 31/31/31 32/32/32 33/33/33
v 0.44375002 0.25000000 0.00000000
vt 0.67773438 0.22068166
vn 0.00000000 1.00000000 0.00000000
v 0.44375002 0.25000000 0.53750002
vt 0.67773438 0.25390625
vn 0.00000000 1.00000000 0.00000000
v 1.00000000 0.25000000 0.24148393
vt 0.71229669 0.23560855
vn 0.00000000 1.00000000 0.00000000
f 34/34/34 35/35/35 36/36/36
v 0.44375002 0.25000000 0.00000000
vt 0.67773438 0.22068166
vn 0.00000000 1.00000000 0.00000000
v 1.00000000 0.25000000 0.24148393
vt 0.71229669 0.23560855
vn 0.00000000 1.00000000 0.00000000
v 1.00000000 0.25000000 0.00000000
vt 0.71229669 0.22068166
vn 0.00000000 1.00000000 0.00000000
f 37/37/37 38/38/38 39/39/39
v 0.44375002 0.25000000 0.53750002
vt 0.67773438 0.25390625
vn 0.00000000 1.00000000 0.00000000
v 1.00000000 0.25000000 0.53750002
vt 0.71229669 0.25390625
vn 0.00000000 1.00000000 0.00000000
v 1.00000000 0.25000000 0.24148393
vt 0.71229669 0.23560855
vn 0.00000000 1.00000000 0.00000000
f 40/40/40 41/41/41 42/42/42
v 0.44375002 0.25000000 0.53750002
vt 0.68750000 0.33789062
vn 0.00000000 0.00000000 1.00000000
v 0.44375002 0.00000000 0.53750002
vt 0.68750000 0.35351562
vn 0.00000000 0.00000000 1.00000000
v 0.65750002 0.00000000 0.53750002
vt 0.70078125 0.35351562
vn 0.00000000 0.00000000 1.00000000
f 43/43/43 44/44/44 45/45/45
v 0.44375002 0.25000000 0.53750002
vt 0.68750000 0.33789062
vn 0.00000000 0.00000000 1.00000000
v 0.65750002 0.00000000 0.53750002
vt 0.70078125 0.35351562
vn 0.00000000 0.00000000 1.00000000
v 1.00000000 0.10014620 0.53750002
vt 0.72206232 0.34725649
vn 0.00000000 0.00000000 1.00000000
f 46/46/46 47/47/47 48/48/48
v 0.44375002 0.25000000 0.53750002
vt 0.68750000 0.33789062
vn 0.00000000 0.00000000 1.00000000
v 1.00000000 0.10014620 0.53750002
vt 0.72206232 0.34725649
vn 0.00000000 0.00000000 1.00000000
v 1.00000000 0.25000000 0.53750002
vt 0.72206232 0.33789062
vn 0.00000000 0.00000000 1.00000000
f 49/49/49 50/50/50 51/51/51
v 1.00000000 0.00000000 0.53750002
vt 0.72206232 0.35351562
vn 0.00000000 0.00000000 1.00000000
v 1.00000000 0.10014620 0.53750002
vt 0.72206232 0.34725649
vn 0.00000000 0.00000000 1.00000000
v 0.65750002 0.00000000 0.53750002
vt 0.70078125 0.35351562
vn 0.00000000 0.00000000 1.00000000
f 52/52/52 53/53/53 54/54/54
v 0.69963534 0.15635438 0.42187501
vt 0.92187500 0.30468750
vn 0.97814760 -0.20791169 0.00000000
v 0.66640119 0.00000000 0.42187501
vt 0.92187500 0.31486297
vn 0.97814760 -0.20791169 0.00000000
v 0.66640119 0.00000000 0.07479451
vt 0.94346472 0.31486297
vn 0.97814760 -0.20791169 0.00000000
f 55/55/55 56/56/56 57/57/57
v 0.69963534 0.15635438 0.42187501
vt 0.92187500 0.30468750
vn 0.97814760 -0.20791169 0.00000000
v 0.66640119 0.00000000 0.07479451
vt 0.94346472 0.31486297
vn 0.97814760 -0.20791169 0.00000000
v 0.67436077 0.03744686 0.00000000
vt 0.94811722 0.31242595
vn 0.97814760 -0.20791169 0.00000000
f 58/58/58 59/59/59 60/60/60
v 0.69963534 0.15635438 0.42187501
vt 0.92187500 0.30468750
vn 0.97814760 -0.20791169 0.00000000
v 0.67436077 0.03744686 0.00000000
vt 0.94811722 0.31242595
vn 0.97814760 -0.20791169 0.00000000
v 0.69963534 0.15635438 0.00000000
vt 0.94811722 0.30468750
vn 0.97814760 -0.20791169 0.00000000
f 61/61/61 62/62/62 63/63/63
v 0.67436077 0.03744686 0.00000000
vt 0.94811722 0.31242595
vn 0.97814760 -0.20791169 0.00000000
v 0.66640119 0.00000000 0.07479451
vt 0.94346472 0.31486297
vn 0.97814760 -0.20791169 0.00000000
v 0.66640119 0.00000000 0.00000000
vt 0.94811722 0.31486297
vn 0.97814760 -0.20791169 0.00000000
f 64/64/64 65/65/65 66/66/66
v 0.27876423 0.02505314 0.00000000
vt 0.01672653 0.35163655
vn -0.97814760 0.20791169 0.00000000
v 0.32365985 0.23627044 0.42187501
vt 0.04296875 0.33789062
vn -0.97814760 0.20791169 0.00000000
v 0.32365985 0.23627044 0.00000000
vt 0.01672653 0.33789062
vn -0.97814760 0.20791169 0.00000000
f 67/67/67 68/68/68 69/69/69
v 0.27343902 0.00000000 0.42187501
vt 0.04296875 0.35326700
vn -0.97814760 0.20791169 0.00000000
v 0.32365985 0.23627044 0.42187501
vt 0.04296875 0.33789062
vn -0.97814760 0.20791169 0.00000000
v 0.27876423 0.02505314 0.00000000
vt 0.01672653 0.35163655
vn -0.97814760 0.20791169 0.00000000
f 70/70/70 71/71/71 72/72/72
v 0.27343902 0.00000000 0.42187501
vt 0.04296875 0.35326700
vn -0.97814760 0.20791169 0.00000000
v 0.27876423 0.02505314 0.00000000
vt 0.01672653 0.35163655
vn -0.97814760 0.20791169 0.00000000
v 0.27343902 0.00000000 0.00000000
vt 0.01672653 0.35326700
vn -0.97814760 0.20791169 0.00000000
f 73/73/73 74/74/74 75/75/75
v 0.32365985 0.23627044 0.00000000
vt 0.45117188 0.23352340
vn 0.20791169 0.97814760 0.00000000
v 0.32365985 0.23627044 0.42187501
vt 0.45117188 0.25976562
vn 0.20791169 0.97814760 0.00000000
v 0.56421289 0.18513931 0.00000000
vt 0.46616743 0.23352340
vn 0.20791169 0.97814760 0.00000000
f 76/76/76 77/77/77 78/78/78
v 0.32365985 0.23627044 0.42187501
vt 0.45117188 0.25976562
vn 0.20791169 0.97814760 0.00000000
v 0.69963534 0.15635438 0.42187501
vt 0.47460938 0.25976562
vn 0.20791169 0.97814760 0.00000000
v 0.69963534 0.15635438 0.00000000
vt 0.47460938 0.23352340
vn 0.20791169 0.97814760 0.00000000
f 79/79/79 80/80/80 81/81/81
v 0.32365985 0.23627044 0.42187501
vt 0.45117188 0.25976562
vn 0.20791169 0.97814760 0.00000000
v 0.69963534 0.15635438 0.00000000
vt 0.47460938 0.23352340
vn 0.20791169 0.97814760 0.00000000
v 0.56421289 0.18513931 0.00000000
vt 0.46616743 0.23352340
vn 0.20791169 0.97814760 0.00000000
f 82/82/82 83/83/83 84/84/84
v 0.32365985 0.23627044 0.42187501
vt 0.32421875 0.33789062
vn 0.00000000 0.00000000 1.00000000
v 0.27343902 0.00000000 0.42187501
vt 0.32421875 0.35326700
vn 0.00000000 0.00000000 1.00000000
v 0.42084082 0.00000000 0.42187501
vt 0.33301026 0.35131612
vn 0.00000000 0.00000000 1.00000000
f 85/85/85 86/86/86 87/87/87
v 0.32365985 0.23627044 0.42187501
vt 0.32421875 0.33789062
vn 0.00000000 0.00000000 1.00000000
v 0.42084082 0.00000000 0.42187501
vt 0.33301026 0.35131612
vn 0.00000000 0.00000000 1.00000000
v 0.69963534 0.15635438 0.42187501
vt 0.34765625 0.33789062
vn 0.00000000 0.00000000 1.00000000
f 88/88/88 89/89/89 90/90/90
v 0.66640119 0.00000000 0.42187501
vt 0.34765625 0.34806610
vn 0.00000000 0.00000000 1.00000000
v 0.69963534 0.15635438 0.42187501
vt 0.34765625 0.33789062
vn 0.00000000 0.00000000 1.00000000
v 0.42084082 0.00000000 0.42187501
vt 0.33301026 0.35131612
vn 0.00000000 0.00000000 1.00000000
f 91/91/91 92/92/92 93/93/93
v 0.65625000 0.76874995 0.14062500
vt 0.39843750 0.26953125
vn -1.00000000 0.00000000 0.00000000
v 0.65625000 0.26874995 0.14062500
vt 0.39843750 0.30078125
vn -1.00000000 0.00000000 0.00000000
v 0.65625000 0.76874995 0.43125001
vt 0.41601562 0.26953125
vn -1.00000000 0.00000000 0.00000000
f 94/94/94 95/95/95 96/96/96
v 0.65625000 0.26874995 0.14062500
vt 0.39843750 0.30078125
vn -1.00000000 0.00000000 0.00000000
v 0.65625000 0.26874995 0.43125001
vt 0.41601562 0.30078125
vn -1.00000000 0.00000000 0.00000000
v 0.65625000 0.76874995 0.43125001
vt 0.41601562 0.26953125
vn -1.00000000 0.00000000 0.00000000
f 97/97/97 98/98/98 99/99/99
v 0.65625000 0.76874995 0.14062500
vt 0.69726562 0.36328125
vn 0.00000000 1.00000000 0.00000000
v 0.65625000 0.76874995 0.43125001
vt 0.69726562 0.38085938
vn 0.00000000 1.00000000 0.00000000
v 1.00000000 0.76874995 0.28045401
vt 0.71854732 0.37173865
vn 0.00000000 1.00000000 0.00000000
f 100/100/100 101/101/101 102/102/102
v 0.65625000 0.76874995 0.14062500
vt 0.69726562 0.36328125
vn 0.00000000 1.00000000 0.00000000
v 1.00000000 0.76874995 0.28045401
vt 0.71854732 0.37173865
vn 0.00000000 1.00000000 0.00000000
v 1.00000000 0.76874995 0.14062500
vt 0.71854732 0.36328125
vn 0.00000000 1.00000000 0.00000000
f 103/103/103 104/104/104 105/105/105
v 0.65625000 0.76874995 0.43125001
vt 0.69726562 0.38085938
vn 0.00000000 1.00000000 0.00000000
v 1.00000000 0.76874995 0.43125001
vt 0.71854732 0.38085938
vn 0.00000000 1.00000000 0.00000000
v 1.00000000 0.76874995 0.28045401
vt 0.71854732 0.37173865
vn 0.00000000 1.00000000 0.00000000
f 106/106/106 107/107/107 108/108/108
v 0.65625000 0.26874995 0.43125001
vt 0.74218750 0.36328125
vn 0.00000000 -1.00000000 0.00000000
v 0.65625000 0.26874995 0.14062500
vt 0.74218750 0.38085938
vn 0.00000000 -1.00000000 0.00000000
v 1.00000000 0.26874995 0.29142100
vt 0.76346919 0.37173865
vn 0.00000000 -1.00000000 0.00000000
f 109/109/109 110/110/110 111/111/111
v 0.65625000 0.26874995 0.43125001
vt 0.74218750 0.36328125
vn 0.00000000 -1.00000000 0.00000000
v 1.00000000 0.26874995 0.29142100
vt 0.76346919 0.37173865
vn 0.00000000 -1.00000000 0.00000000
v 1.00000000 0.26874995 0.43125001
vt 0.76346919 0.36328125
vn 0.00000000 -1.00000000 0.00000000
f 112/112/112 113/113/113 114/114/114
v 0.65625000 0.26874995 0.14062500
vt 0.74218750 0.38085938
vn 0.00000000 -1.00000000 0.00000000
v 1.00000000 0.26874995 0.14062500
vt 0.76346919 0.38085938
vn 0.00000000 -1.00000000 0.00000000
v 1.00000000 0.26874995 0.29142100
vt 0.76346919 0.37173865
vn 0.00000000 -1.00000000 0.00000000
f 115/115/115 116/116/116 117/117/117
v 0.65625000 0.76874995 0.43125001
vt 0.23046875 0.26953125
vn 0.00000000 0.00000000 1.00000000
v 0.65625000 0.26874995 0.43125001
vt 0.23046875 0.30078125
vn 0.00000000 0.00000000 1.00000000
v 1.00000000 0.52818392 0.43125001
vt 0.25175044 0.28456663
vn 0.00000000 0.00000000 1.00000000
f 118/118/118 119/119/119 120/120/120
v 0.65625000 0.76874995 0.43125001
vt 0.23046875 0.26953125
vn 0.00000000 0.00000000 1.00000000
v 1.00000000 0.52818392 0.43125001
vt 0.25175044 0.28456663
vn 0.00000000 0.00000000 1.00000000
v 1.00000000 0.76874995 0.43125001
vt 0.25175044 0.26953125
vn 0.00000000 0.00000000 1.00000000
f 121/121/121 122/122/122 123/123/123
v 0.65625000 0.26874995 0.43125001
vt 0.23046875 0.30078125
vn 0.00000000 0.00000000 1.00000000
v 1.00000000 0.26874995 0.43125001
vt 0.25175044 0.30078125
vn 0.00000000 0.00000000 1.00000000
v 1.00000000 0.52818392 0.43125001
vt 0.25175044 0.28456663
vn 0.00000000 0.00000000 1.00000000
f 124/124/124 125/125/125 126/126/126
v 1.00000000 0.50931599 0.14062500
vt 0.20528081 0.28574587
vn 0.00000000 0.00000000 -1.00000000
v 0.65625000 0.76874995 0.14062500
vt 0.22656250 0.26953125
vn 0.00000000 0.00000000 -1.00000000
v 1.00000000 0.76874995 0.14062500
vt 0.20528081 0.26953125
vn 0.00000000 0.00000000 -1.00000000
f 127/127/127 128/128/128 129/129/129
v 1.00000000 0.26874995 0.14062500
vt 0.20528081 0.30078125
vn 0.00000000 0.00000000 -1.00000000
v 0.65625000 0.26874995 0.14062500
vt 0.22656250 0.30078125
vn 0.00000000 0.00000000 -1.00000000
v 0.65625000 0.76874995 0.14062500
vt 0.22656250 0.26953125
vn 0.00000000 0.00000000 -1.00000000
f 130/130/130 131/131/131 132/132/132
v 1.00000000 0.26874995 0.14062500
vt 0.20528081 0.30078125
vn 0.00000000 0.00000000 -1.00000000
v 0.65625000 0.76874995 0.14062500
vt 0.22656250 0.26953125
vn 0.00000000 0.00000000 -1.00000000
v 1.00000000 0.50931599 0.14062500
vt 0.20528081 0.28574587
vn 0.00000000 0.00000000 -1.00000000
f 133/133/133 134/134/134 135/135/135
v 0.72499999 0.86875010 0.09687500
vt 0.04492188 0.45312500
vn -1.00000000 0.00000000 0.00000000
v 0.72499999 0.76874995 0.09687500
vt 0.04492188 0.45898438
vn -1.00000000 0.00000000 0.00000000
v 0.72499999 0.86875010 0.34687501
vt 0.06054688 0.45312500
vn -1.00000000 0.00000000 0.00000000
f 136/136/136 137/137/137 138/138/138
v 0.72499999 0.76874995 0.09687500
vt 0.04492188 0.45898438
vn -1.00000000 0.00000000 0.00000000
v 0.72499999 0.76874995 0.34687501
vt 0.06054688 0.45898438
vn -1.00000000 0.00000000 0.00000000
v 0.72499999 0.86875010 0.34687501
vt 0.06054688 0.45312500
vn -1.00000000 0.00000000 0.00000000
f 139/139/139 140/140/140 141/141/141
v 0.72499999 0.86875010 0.09687500
vt 0.92382812 0.36328125
vn 0.00000000 1.00000000 0.00000000
v 0.72499999 0.86875010 0.34687501
vt 0.92382812 0.37890625
vn 0.00000000 1.00000000 0.00000000
v 1.00000000 0.86875010 0.21272866
vt 0.94059642 0.37052210
vn 0.00000000 1.00000000 0.00000000
f 142/142/142 143/143/143 144/144/144
v 0.72499999 0.86875010 0.09687500
vt 0.92382812 0.36328125
vn 0.00000000 1.00000000 0.00000000
v 1.00000000 0.86875010 0.21272866
vt 0.94059642 0.37052210
vn 0.00000000 1.00000000 0.00000000
v 1.00000000 0.86875010 0.09687500
vt 0.94059642 0.36328125
vn 0.00000000 1.00000000 0.00000000
f 145/145/145 146/146/146 147/147/147
v 0.72499999 0.86875010 0.34687501
vt 0.92382812 0.37890625
vn 0.00000000 1.00000000 0.00000000
v 1.00000000 0.86875010 0.34687501
vt 0.94059642 0.37890625
vn 0.00000000 1.00000000 0.00000000
v 1.00000000 0.86875010 0.21272866
vt 0.94059642 0.37052210
vn 0.00000000 1.00000000 0.00000000
f 148/148/148 149/149/149 150/150/150
v 0.72499999 0.76874995 0.34687501
vt 0.95898438 0.36328125
vn 0.00000000 -1.00000000 0.00000000
v 0.72499999 0.76874995 0.09687500
vt 0.95898438 0.37890625
vn 0.00000000 -1.00000000 0.00000000
v 1.00000000 0.76874995 0.23102135
vt 0.97575267 0.37052210
vn 0.00000000 -1.00000000 0.00000000
f 151/151/151 152/152/152 153/153/153
v 0.72499999 0.76874995 0.34687501
vt 0.95898438 0.36328125
vn 0.00000000 -1.00000000 0.00000000
v 1.00000000 0.76874995 0.23102135
vt 0.97575267 0.37052210
vn 0.00000000 -1.00000000 0.00000000
v 1.00000000 0.76874995 0.34687501
vt 0.97575267 0.36328125
vn 0.00000000 -1.00000000 0.00000000
f 154/154/154 155/155/155 156/156/156
v 0.72499999 0.76874995 0.09687500
vt 0.95898438 0.37890625
vn 0.00000000 -1.00000000 0.00000000
v 1.00000000 0.76874995 0.09687500
vt 0.97575267 0.37890625
vn 0.00000000 -1.00000000 0.00000000
v 1.00000000 0.76874995 0.23102135
vt 0.97575267 0.37052210
vn 0.00000000 -1.00000000 0.00000000
f 157/157/157 158/158/158 159/159/159
v 0.72499999 0.86875010 0.34687501
vt 0.76757812 0.44335938
vn 0.00000000 0.00000000 1.00000000
v 0.72499999 0.76874995 0.34687501
vt 0.76757812 0.44921875
vn 0.00000000 0.00000000 1.00000000
v 1.00000000 0.82240857 0.34687501
vt 0.78434642 0.44607470
vn 0.00000000 0.00000000 1.00000000
f 160/160/160 161/161/161 162/162/162
v 0.72499999 0.86875010 0.34687501
vt 0.76757812 0.44335938
vn 0.00000000 0.00000000 1.00000000
v 1.00000000 0.82240857 0.34687501
vt 0.78434642 0.44607470
vn 0.00000000 0.00000000 1.00000000
v 1.00000000 0.86875010 0.34687501
vt 0.78434642 0.44335938
vn 0.00000000 0.00000000 1.00000000
f 163/163/163 164/164/164 165/165/165
v 0.72499999 0.76874995 0.34687501
vt 0.76757812 0.44921875
vn 0.00000000 0.00000000 1.00000000
v 1.00000000 0.76874995 0.34687501
vt 0.78434642 0.44921875
vn 0.00000000 0.00000000 1.00000000
v 1.00000000 0.82240857 0.34687501
vt 0.78434642 0.44607470
vn 0.00000000 0.00000000 1.00000000
f 166/166/166 167/167/167 168/168/168
v 1.00000000 0.81509148 0.09687500
vt 0.74690358 0.44650343
vn 0.00000000 0.00000000 -1.00000000
v 0.72499999 0.86875010 0.09687500
vt 0.76367188 0.44335938
vn 0.00000000 0.00000000 -1.00000000
v 1.00000000 0.86875010 0.09687500
vt 0.74690358 0.44335938
vn 0.00000000 0.00000000 -1.00000000
f 169/169/169 170/170/170 171/171/171
v 1.00000000 0.76874995 0.09687500
vt 0.74690358 0.44921875
vn 0.00000000 0.00000000 -1.00000000
v 0.72499999 0.76874995 0.09687500
vt 0.76367188 0.44921875
vn 0.00000000 0.00000000 -1.00000000
v 0.72499999 0.86875010 0.09687500
vt 0.76367188 0.44335938
vn 0.00000000 0.00000000 -1.00000000
f 172/172/172 173/173/173 174/174/174
v 1.00000000 0.76874995 0.09687500
vt 0.74690358 0.44921875
vn 0.00000000 0.00000000 -1.00000000
v 0.72499999 0.86875010 0.09687500
vt 0.76367188 0.44335938
vn 0.00000000 0.00000000 -1.00000000
v 1.00000000 0.81509148 0.09687500
vt 0.74690358 0.44650343
vn 0.00000000 0.00000000 -1.00000000
f 175/175/175 176/176/176 177/177/177
v 0.61250001 0.46875000 0.10312500
vt 0.41210938 0.36328125
vn -1.00000000 0.00000000 0.00000000
v 0.61250001 0.15625000 0.10312500
vt 0.41210938 0.38281250
vn -1.00000000 0.00000000 0.00000000
v 0.61250001 0.46875000 0.40937501
vt 0.43164062 0.36328125
vn -1.00000000 0.00000000 0.00000000
f 178/178/178 179/179/179 180/180/180
v 0.61250001 0.15625000 0.10312500
vt 0.41210938 0.38281250
vn -1.00000000 0.00000000 0.00000000
v 0.61250001 0.15625000 0.40937501
vt 0.43164062 0.38281250
vn -1.00000000 0.00000000 0.00000000
v 0.61250001 0.46875000 0.40937501
vt 0.43164062 0.36328125
vn -1.00000000 0.00000000 0.00000000
f 181/181/181 182/182/182 183/183/183
v 0.61250001 0.46875000 0.10312500
vt 0.00195312 0.36328125
vn 0.00000000 1.00000000 0.00000000
v 0.61250001 0.46875000 0.40937501
vt 0.00195312 0.38281250
vn 0.00000000 1.00000000 0.00000000
v 1.00000000 0.46875000 0.25245352
vt 0.02597172 0.37280475
vn 0.00000000 1.00000000 0.00000000
f 184/184/184 185/185/185 186/186/186
v 0.61250001 0.46875000 0.10312500
vt 0.00195312 0.36328125
vn 0.00000000 1.00000000 0.00000000
v 1.00000000 0.46875000 0.25245352
vt 0.02597172 0.37280475
vn 0.00000000 1.00000000 0.00000000
v 1.00000000 0.46875000 0.10312500
vt 0.02597172 0.36328125
vn 0.00000000 1.00000000 0.00000000
f 187/187/187 188/188/188 189/189/189
v 0.61250001 0.46875000 0.40937501
vt 0.00195312 0.38281250
vn 0.00000000 1.00000000 0.00000000
v 1.00000000 0.46875000 0.40937501
vt 0.02597172 0.38281250
vn 0.00000000 1.00000000 0.00000000
v 1.00000000 0.46875000 0.25245352
vt 0.02597172 0.37280475
vn 0.00000000 1.00000000 0.00000000
f 190/190/190 191/191/191 192/192/192
v 0.61250001 0.15625000 0.40937501
vt 0.05273438 0.36328125
vn 0.00000000 -1.00000000 0.00000000
v 0.61250001 0.15625000 0.10312500
vt 0.05273438 0.38281250
vn 0.00000000 -1.00000000 0.00000000
v 1.00000000 0.15625000 0.26004649
vt 0.07675297 0.37280475
vn 0.00000000 -1.00000000 0.00000000
f 193/193/193 194/194/194 195/195/195
v 0.61250001 0.15625000 0.40937501
vt 0.05273438 0.36328125
vn 0.00000000 -1.00000000 0.00000000
v 1.00000000 0.15625000 0.26004649
vt 0.07675297 0.37280475
vn 0.00000000 -1.00000000 0.00000000
v 1.00000000 0.15625000 0.40937501
vt 0.07675297 0.36328125
vn 0.00000000 -1.00000000 0.00000000
f 196/196/196 197/197/197 198/198/198
v 0.61250001 0.15625000 0.10312500
vt 0.05273438 0.38281250
vn 0.00000000 -1.00000000 0.00000000
v 1.00000000 0.15625000 0.10312500
vt 0.07675297 0.38281250
vn 0.00000000 -1.00000000 0.00000000
v 1.00000000 0.15625000 0.26004649
vt 0.07675297 0.37280475
vn 0.00000000 -1.00000000 0.00000000
f 199/199/199 200/200/200 201/201/201
v 0.61250001 0.46875000 0.40937501
vt 0.93359375 0.33789062
vn 0.00000000 0.00000000 1.00000000
v 0.61250001 0.15625000 0.40937501
vt 0.93359375 0.35742188
vn 0.00000000 0.00000000 1.00000000
v 1.00000000 0.31637396 0.40937501
vt 0.95761234 0.34741413
vn 0.00000000 0.00000000 1.00000000
f 202/202/202 203/203/203 204/204/204
v 0.61250001 0.46875000 0.40937501
vt 0.93359375 0.33789062
vn 0.00000000 0.00000000 1.00000000
v 1.00000000 0.31637396 0.40937501
vt 0.95761234 0.34741413
vn 0.00000000 0.00000000 1.00000000
v 1.00000000 0.46875000 0.40937501
vt 0.95761234 0.33789062
vn 0.00000000 0.00000000 1.00000000
f 205/205/205 206/206/206 207/207/207
v 0.61250001 0.15625000 0.40937501
vt 0.93359375 0.35742188
vn 0.00000000 0.00000000 1.00000000
v 1.00000000 0.15625000 0.40937501
vt 0.95761234 0.35742188
vn 0.00000000 0.00000000 1.00000000
v 1.00000000 0.31637396 0.40937501
vt 0.95761234 0.34741413
vn 0.00000000 0.00000000 1.00000000
f 208/208/208 209/209/209 210/210/210
v 1.00000000 0.30862604 0.10312500
vt 0.90566891 0.34789837
vn 0.00000000 0.00000000 -1.00000000
v 0.61250001 0.46875000 0.10312500
vt 0.92968750 0.33789062
vn 0.00000000 0.00000000 -1.00000000
v 1.00000000 0.46875000 0.10312500
vt 0.90566891 0.33789062
vn 0.00000000 0.00000000 -1.00000000
f 211/211/211 212/212/212 213/213/213
v 1.00000000 0.15625000 0.10312500
vt 0.90566891 0.35742188
vn 0.00000000 0.00000000 -1.00000000
v 0.61250001 0.15625000 0.10312500
vt 0.92968750 0.35742188
vn 0.00000000 0.00000000 -1.00000000
v 0.61250001 0.46875000 0.10312500
vt 0.92968750 0.33789062
vn 0.00000000 0.00000000 -1.00000000
f 214/214/214 215/215/215 216/216/216
v 1.00000000 0.15625000 0.10312500
vt 0.90566891 0.35742188
vn 0.00000000 0.00000000 -1.00000000
v 0.61250001 0.46875000 0.10312500
vt 0.92968750 0.33789062
vn 0.00000000 0.00000000 -1.00000000
v 1.00000000 0.30862604 0.10312500
vt 0.90566891 0.34789837
vn 0.00000000 0.00000000 -1.00000000
f 217/217/217 218/218/218 219/219/219
v 0.71250001 0.67499995 0.28437501
vt 0.92382812 0.26953125
vn 1.00000000 0.00000000 0.00000000
v 0.71250001 0.21250010 0.28437501
vt 0.92382812 0.29882812
vn 1.00000000 0.00000000 0.00000000
v 0.71250001 0.40917060 0.00000000
vt 0.94126935 0.28637011
vn 1.00000000 0.00000000 0.00000000
f 220/220/220 221/221/221 222/222/222
v 0.71250001 0.67499995 0.28437501
vt 0.92382812 0.26953125
vn 1.00000000 0.00000000 0.00000000
v 0.71250001 0.40917060 0.00000000
vt 0.94126935 0.28637011
vn 1.00000000 0.00000000 0.00000000
v 0.71250001 0.67499995 0.00000000
vt 0.94126935 0.26953125
vn 1.00000000 0.00000000 0.00000000
f 223/223/223 224/224/224 225/225/225
v 0.71250001 0.21250010 0.28437501
vt 0.92382812 0.29882812
vn 1.00000000 0.00000000 0.00000000
v 0.71250001 0.21250010 0.00000000
vt 0.94126935 0.29882812
vn 1.00000000 0.00000000 0.00000000
v 0.71250001 0.40917060 0.00000000
vt 0.94126935 0.28637011
vn 1.00000000 0.00000000 0.00000000
f 226/226/226 227/227/227 228/228/228
v 0.55625001 0.47832945 0.00000000
vt 0.02552753 0.31714552
vn -1.00000000 0.00000000 0.00000000
v 0.55625001 0.67499995 0.28437501
vt 0.04296875 0.30468750
vn -1.00000000 0.00000000 0.00000000
v 0.55625001 0.67499995 0.00000000
vt 0.02552753 0.30468750
vn -1.00000000 0.00000000 0.00000000
f 229/229/229 230/230/230 231/231/231
v 0.55625001 0.21250010 0.00000000
vt 0.02552753 0.33398438
vn -1.00000000 0.00000000 0.00000000
v 0.55625001 0.21250010 0.28437501
vt 0.04296875 0.33398438
vn -1.00000000 0.00000000 0.00000000
v 0.55625001 0.67499995 0.28437501
vt 0.04296875 0.30468750
vn -1.00000000 0.00000000 0.00000000
f 232/232/232 233/233/233 234/234/234
v 0.55625001 0.21250010 0.00000000
vt 0.02552753 0.33398438
vn -1.00000000 0.00000000 0.00000000
v 0.55625001 0.67499995 0.28437501
vt 0.04296875 0.30468750
vn -1.00000000 0.00000000 0.00000000
v 0.55625001 0.47832945 0.00000000
vt 0.02552753 0.31714552
vn -1.00000000 0.00000000 0.00000000
f 235/235/235 236/236/236 237/237/237
v 0.55625001 0.67499995 0.00000000
vt 0.62304688 0.24232440
vn 0.00000000 1.00000000 0.00000000
v 0.55625001 0.67499995 0.28437501
vt 0.62304688 0.25976562
vn 0.00000000 1.00000000 0.00000000
v 0.62269276 0.67499995 0.00000000
vt 0.62719955 0.24232440
vn 0.00000000 1.00000000 0.00000000
f 238/238/238 239/239/239 240/240/240
v 0.55625001 0.67499995 0.28437501
vt 0.62304688 0.25976562
vn 0.00000000 1.00000000 0.00000000
v 0.71250001 0.67499995 0.28437501
vt 0.63281250 0.25976562
vn 0.00000000 1.00000000 0.00000000
v 0.71250001 0.67499995 0.00000000
vt 0.63281250 0.24232440
vn 0.00000000 1.00000000 0.00000000
f 241/241/241 242/242/242 243/243/243
v 0.55625001 0.67499995 0.28437501
vt 0.62304688 0.25976562
vn 0.00000000 1.00000000 0.00000000
v 0.71250001 0.67499995 0.00000000
vt 0.63281250 0.24232440
vn 0.00000000 1.00000000 0.00000000
v 0.62269276 0.67499995 0.00000000
vt 0.62719955 0.24232440
vn 0.00000000 1.00000000 0.00000000
f 244/244/244 245/245/245 246/246/246
v 0.55625001 0.21250010 0.28437501
vt 0.63671875 0.21875000
vn 0.00000000 -1.00000000 0.00000000
v 0.55625001 0.21250010 0.00000000
vt 0.63671875 0.23619122
vn 0.00000000 -1.00000000 0.00000000
v 0.64605725 0.21250010 0.00000000
vt 0.64233170 0.23619122
vn 0.00000000 -1.00000000 0.00000000
f 247/247/247 248/248/248 249/249/249
v 0.55625001 0.21250010 0.28437501
vt 0.63671875 0.21875000
vn 0.00000000 -1.00000000 0.00000000
v 0.64605725 0.21250010 0.00000000
vt 0.64233170 0.23619122
vn 0.00000000 -1.00000000 0.00000000
v 0.71250001 0.21250010 0.28437501
vt 0.64648438 0.21875000
vn 0.00000000 -1.00000000 0.00000000
f 250/250/250 251/251/251 252/252/252
v 0.71250001 0.21250010 0.00000000
vt 0.64648438 0.23619122
vn 0.00000000 -1.00000000 0.00000000
v 0.71250001 0.21250010 0.28437501
vt 0.64648438 0.21875000
vn 0.00000000 -1.00000000 0.00000000
v 0.64605725 0.21250010 0.00000000
vt 0.64233170 0.23619122
vn 0.00000000 -1.00000000 0.00000000
f 253/253/253 254/254/254 255/255/255
v 0.55625001 0.67499995 0.28437501
vt 0.24804688 0.30468750
vn 0.00000000 0.00000000 1.00000000
v 0.55625001 0.21250010 0.28437501
vt 0.24804688 0.33398438
vn 0.00000000 0.00000000 1.00000000
v 0.71250001 0.67499995 0.28437501
vt 0.25781250 0.30468750
vn 0.00000000 0.00000000 1.00000000
f 256/256/256 257/257/257 258/258/258
v 0.55625001 0.21250010 0.28437501
vt 0.24804688 0.33398438
vn 0.00000000 0.00000000 1.00000000
v 0.71250001 0.21250010 0.28437501
vt 0.25781250 0.33398438
vn 0.00000000 0.00000000 1.00000000
v 0.71250001 0.67499995 0.28437501
vt 0.25781250 0.30468750
vn 0.00000000 0.00000000 1.00000000
f 259/259/259 260/260/260 261/261/261
v 0.83571546 0.84358379 0.26562501
vt 0.04687500 0.33789062
vn 0.88294759 -0.46947156 0.00000000
v 0.68020300 0.55110739 0.26562501
vt 0.04687500 0.35937500
vn 0.88294759 -0.46947156 0.00000000
v 0.74437077 0.67178940 0.00000000
vt 0.06379892 0.35051009
vn 0.88294759 -0.46947156 0.00000000
f 262/262/262 263/263/263 264/264/264
v 0.83571546 0.84358379 0.26562501
vt 0.04687500 0.33789062
vn 0.88294759 -0.46947156 0.00000000
v 0.74437077 0.67178940 0.00000000
vt 0.06379892 0.35051009
vn 0.88294759 -0.46947156 0.00000000
v 0.83571546 0.84358379 0.00000000
vt 0.06379892 0.33789062
vn 0.88294759 -0.46947156 0.00000000
f 265/265/265 266/266/266 267/267/267
v 0.68020300 0.55110739 0.26562501
vt 0.04687500 0.35937500
vn 0.88294759 -0.46947156 0.00000000
v 0.68020300 0.55110739 0.00000000
vt 0.06379892 0.35937500
vn 0.88294759 -0.46947156 0.00000000
v 0.74437077 0.67178940 0.00000000
vt 0.06379892 0.35051009
vn 0.88294759 -0.46947156 0.00000000
f 268/268/268 269/269/269 270/270/270
v 0.60875423 0.80946060 0.00000000
vt 0.11588858 0.34675554
vn -0.88294759 0.46947156 0.00000000
v 0.67292200 0.93014261 0.26562501
vt 0.13281250 0.33789062
vn -0.88294759 0.46947156 0.00000000
v 0.67292200 0.93014261 0.00000000
vt 0.11588858 0.33789062
vn -0.88294759 0.46947156 0.00000000
f 271/271/271 272/272/272 273/273/273
v 0.51740954 0.63766621 0.00000000
vt 0.11588858 0.35937500
vn -0.88294759 0.46947156 0.00000000
v 0.51740954 0.63766621 0.26562501
vt 0.13281250 0.35937500
vn -0.88294759 0.46947156 0.00000000
v 0.67292200 0.93014261 0.26562501
vt 0.13281250 0.33789062
vn -0.88294759 0.46947156 0.00000000
f 274/274/274 275/275/275 276/276/276
v 0.51740954 0.63766621 0.00000000
vt 0.11588858 0.35937500
vn -0.88294759 0.46947156 0.00000000
v 0.67292200 0.93014261 0.26562501
vt 0.13281250 0.33789062
vn -0.88294759 0.46947156 0.00000000
v 0.60875423 0.80946060 0.00000000
vt 0.11588858 0.34675554
vn -0.88294759 0.46947156 0.00000000
f 277/277/277 278/278/278 279/279/279
v 0.67292200 0.93014261 0.00000000
vt 0.56054688 0.24284170
vn 0.46947156 0.88294759 0.00000000
v 0.67292200 0.93014261 0.26562501
vt 0.56054688 0.25976562
vn 0.46947156 0.88294759 0.00000000
v 0.74009406 0.89442659 0.00000000
vt 0.56538228 0.24284170
vn 0.46947156 0.88294759 0.00000000
f 280/280/280 281/281/281 282/282/282
v 0.67292200 0.93014261 0.26562501
vt 0.56054688 0.25976562
vn 0.46947156 0.88294759 0.00000000
v 0.83571546 0.84358379 0.26562501
vt 0.57226562 0.25976562
vn 0.46947156 0.88294759 0.00000000
v 0.83571546 0.84358379 0.00000000
vt 0.57226562 0.24284170
vn 0.46947156 0.88294759 0.00000000
f 283/283/283 284/284/284 285/285/285
v 0.67292200 0.93014261 0.26562501
vt 0.56054688 0.25976562
vn 0.46947156 0.88294759 0.00000000
v 0.83571546 0.84358379 0.00000000
vt 0.57226562 0.24284170
vn 0.46947156 0.88294759 0.00000000
v 0.74009406 0.89442659 0.00000000
vt 0.56538228 0.24284170
vn 0.46947156 0.88294759 0.00000000
f 286/286/286 287/287/287 288/288/288
v 0.51740954 0.63766621 0.26562501
vt 0.57617188 0.21875000
vn -0.46947156 -0.88294759 0.00000000
v 0.51740954 0.63766621 0.00000000
vt 0.57617188 0.23567392
vn -0.46947156 -0.88294759 0.00000000
v 0.61303094 0.58682341 0.00000000
vt 0.58305522 0.23567392
vn -0.46947156 -0.88294759 0.00000000
f 289/289/289 290/290/290 291/291/291
v 0.51740954 0.63766621 0.26562501
vt 0.57617188 0.21875000
vn -0.46947156 -0.88294759 0.00000000
v 0.61303094 0.58682341 0.00000000
vt 0.58305522 0.23567392
vn -0.46947156 -0.88294759 0.00000000
v 0.68020300 0.55110739 0.26562501
vt 0.58789062 0.21875000
vn -0.46947156 -0.88294759 0.00000000
f 292/292/292 293/293/293 294/294/294
v 0.68020300 0.55110739 0.00000000
vt 0.58789062 0.23567392
vn -0.46947156 -0.88294759 0.00000000
v 0.68020300 0.55110739 0.26562501
vt 0.58789062 0.21875000
vn -0.46947156 -0.88294759 0.00000000
v 0.61303094 0.58682341 0.00000000
vt 0.58305522 0.23567392
vn -0.46947156 -0.88294759 0.00000000
f 295/295/295 296/296/296 297/297/297
v 0.67292200 0.93014261 0.26562501
vt 0.41406250 0.33789062
vn 0.00000000 0.00000000 1.00000000
v 0.51740954 0.63766621 0.26562501
vt 0.41406250 0.35937500
vn 0.00000000 0.00000000 1.00000000
v 0.83571546 0.84358379 0.26562501
vt 0.42578125 0.33789062
vn 0.00000000 0.00000000 1.00000000
f 298/298/298 299/299/299 300/300/300
v 0.51740954 0.63766621 0.26562501
vt 0.41406250 0.35937500
vn 0.00000000 0.00000000 1.00000000
v 0.68020300 0.55110739 0.26562501
vt 0.42578125 0.35937500
vn 0.00000000 0.00000000 1.00000000
v 0.83571546 0.84358379 0.26562501
vt 0.42578125 0.33789062
vn 0.00000000 0.00000000 1.00000000
f 301/301/301 302/302/302 303/303/303
v 0.75624999 0.89986604 0.00000000
vt 0.30019531 0.42338170
vn -1.00000000 0.00000000 0.00000000
v 0.75624999 0.95937490 0.29062501
vt 0.31835938 0.41992188
vn -1.00000000 0.00000000 0.00000000
v 0.75624999 0.95937490 0.00000000
vt 0.30019531 0.41992188
vn -1.00000000 0.00000000 0.00000000
f 304/304/304 305/305/305 306/306/306
v 0.75624999 0.82500005 0.00000000
vt 0.30019531 0.42773438
vn -1.00000000 0.00000000 0.00000000
v 0.75624999 0.82500005 0.29062501
vt 0.31835938 0.42773438
vn -1.00000000 0.00000000 0.00000000
v 0.75624999 0.95937490 0.29062501
vt 0.31835938 0.41992188
vn -1.00000000 0.00000000 0.00000000
f 307/307/307 308/308/308 309/309/309
v 0.75624999 0.82500005 0.00000000
vt 0.30019531 0.42773438
vn -1.00000000 0.00000000 0.00000000
v 0.75624999 0.95937490 0.29062501
vt 0.31835938 0.41992188
vn -1.00000000 0.00000000 0.00000000
v 0.75624999 0.89986604 0.00000000
vt 0.30019531 0.42338170
vn -1.00000000 0.00000000 0.00000000
f 310/310/310 311/311/311 312/312/312
v 0.75624999 0.95937490 0.00000000
vt 0.38867188 0.24160156
vn 0.00000000 1.00000000 0.00000000
v 0.75624999 0.95937490 0.29062501
vt 0.38867188 0.25976562
vn 0.00000000 1.00000000 0.00000000
v 0.95553571 0.95937490 0.00000000
vt 0.40078125 0.24160156
vn 0.00000000 1.00000000 0.00000000
f 313/313/313 314/314/314 315/315/315
v 0.75624999 0.95937490 0.29062501
vt 0.38867188 0.25976562
vn 0.00000000 1.00000000 0.00000000
v 1.00000000 0.95937490 0.29062501
vt 0.40348307 0.25976562
vn 0.00000000 1.00000000 0.00000000
v 1.00000000 0.95937490 0.00000000
vt 0.40348307 0.24160156
vn 0.00000000 1.00000000 0.00000000
f 316/316/316 317/317/317 318/318/318
v 0.75624999 0.95937490 0.29062501
vt 0.38867188 0.25976562
vn 0.00000000 1.00000000 0.00000000
v 1.00000000 0.95937490 0.00000000
vt 0.40348307 0.24160156
vn 0.00000000 1.00000000 0.00000000
v 0.95553571 0.95937490 0.00000000
vt 0.40078125 0.24160156
vn 0.00000000 1.00000000 0.00000000
f 319/319/319 320/320/320 321/321/321
v 0.75624999 0.82500005 0.29062501
vt 0.41992188 0.21875000
vn 0.00000000 -1.00000000 0.00000000
v 0.75624999 0.82500005 0.00000000
vt 0.41992188 0.23691406
vn 0.00000000 -1.00000000 0.00000000
v 1.00000000 0.82500005 0.00000000
vt 0.43473307 0.23691406
vn 0.00000000 -1.00000000 0.00000000
f 322/322/322 323/323/323 324/324/324
v 0.75624999 0.82500005 0.29062501
vt 0.41992188 0.21875000
vn 0.00000000 -1.00000000 0.00000000
v 1.00000000 0.82500005 0.00000000
vt 0.43473307 0.23691406
vn 0.00000000 -1.00000000 0.00000000
v 1.00000000 0.82500005 0.29062501
vt 0.43473307 0.21875000
vn 0.00000000 -1.00000000 0.00000000
f 325/325/325 326/326/326 327/327/327
v 0.75624999 0.95937490 0.29062501
vt 0.88476562 0.41992188
vn 0.00000000 0.00000000 1.00000000
v 0.75624999 0.82500005 0.29062501
vt 0.88476562 0.42773438
vn 0.00000000 0.00000000 1.00000000
v 1.00000000 0.89778643 0.29062501
vt 0.89957682 0.42350260
vn 0.00000000 0.00000000 1.00000000
f 328/328/328 329/329/329 330/330/330
v 0.75624999 0.95937490 0.29062501
vt 0.88476562 0.41992188
vn 0.00000000 0.00000000 1.00000000
v 1.00000000 0.89778643 0.29062501
vt 0.89957682 0.42350260
vn 0.00000000 0.00000000 1.00000000
v 1.00000000 0.95937490 0.29062501
vt 0.89957682 0.41992188
vn 0.00000000 0.00000000 1.00000000
f 331/331/331 332/332/332 333/333/333
v 0.75624999 0.82500005 0.29062501
vt 0.88476562 0.42773438
vn 0.00000000 0.00000000 1.00000000
v 1.00000000 0.82500005 0.29062501
vt 0.89957682 0.42773438
vn 0.00000000 0.00000000 1.00000000
v 1.00000000 0.89778643 0.29062501
vt 0.89957682 0.42350260
vn 0.00000000 0.00000000 1.00000000
f 334/334/334 335/335/335 336/336/336
v 0.82500000 0.98138016 0.00000000
vt 0.17480469 0.47941081
vn -1.00000000 0.00000000 0.00000000
v 0.82500000 1.00000000 0.17187500
vt 0.18554688 0.47851562
vn -1.00000000 0.00000000 0.00000000
v 0.82500000 1.00000000 0.00000000
vt 0.17480469 0.47851562
vn -1.00000000 0.00000000 0.00000000
f 337/337/337 338/338/338 339/339/339
v 0.82500000 0.95937490 0.00000000
vt 0.17480469 0.48046875
vn -1.00000000 0.00000000 0.00000000
v 0.82500000 0.95937490 0.17187500
vt 0.18554688 0.48046875
vn -1.00000000 0.00000000 0.00000000
v 0.82500000 1.00000000 0.17187500
vt 0.18554688 0.47851562
vn -1.00000000 0.00000000 0.00000000
f 340/340/340 341/341/341 342/342/342
v 0.82500000 0.95937490 0.00000000
vt 0.17480469 0.48046875
vn -1.00000000 0.00000000 0.00000000
v 0.82500000 1.00000000 0.17187500
vt 0.18554688 0.47851562
vn -1.00000000 0.00000000 0.00000000
v 0.82500000 0.98138016 0.00000000
vt 0.17480469 0.47941081
vn -1.00000000 0.00000000 0.00000000
f 343/343/343 344/344/344 345/345/345
v 0.82500000 1.00000000 0.00000000
vt 0.78125000 0.31738281
vn 0.00000000 1.00000000 0.00000000
v 0.82500000 1.00000000 0.17187500
vt 0.78125000 0.32812500
vn 0.00000000 1.00000000 0.00000000
v 0.94817708 1.00000000 0.00000000
vt 0.78930664 0.31738281
vn 0.00000000 1.00000000 0.00000000
f 346/346/346 347/347/347 348/348/348
v 0.82500000 1.00000000 0.17187500
vt 0.78125000 0.32812500
vn 0.00000000 1.00000000 0.00000000
v 1.00000000 1.00000000 0.17187500
vt 0.79269622 0.32812500
vn 0.00000000 1.00000000 0.00000000
v 1.00000000 1.00000000 0.00000000
vt 0.79269622 0.31738281
vn 0.00000000 1.00000000 0.00000000
f 349/349/349 350/350/350 351/351/351
v 0.82500000 1.00000000 0.17187500
vt 0.78125000 0.32812500
vn 0.00000000 1.00000000 0.00000000
v 1.00000000 1.00000000 0.00000000
vt 0.79269622 0.31738281
vn 0.00000000 1.00000000 0.00000000
v 0.94817708 1.00000000 0.00000000
vt 0.78930664 0.31738281
vn 0.00000000 1.00000000 0.00000000
f 352/352/352 353/353/353 354/354/354
v 0.82500000 0.95937490 0.17187500
vt 0.80273438 0.30468750
vn 0.00000000 -1.00000000 0.00000000
v 0.82500000 0.95937490 0.00000000
vt 0.80273438 0.31542969
vn 0.00000000 -1.00000000 0.00000000
v 0.97057292 0.95937490 0.00000000
vt 0.81225586 0.31542969
vn 0.00000000 -1.00000000 0.00000000
f 355/355/355 356/356/356 357/357/357
v 0.82500000 0.95937490 0.17187500
vt 0.80273438 0.30468750
vn 0.00000000 -1.00000000 0.00000000
v 0.97057292 0.95937490 0.00000000
vt 0.81225586 0.31542969
vn 0.00000000 -1.00000000 0.00000000
v 1.00000000 0.95937490 0.04106105
vt 0.81418060 0.31286337
vn 0.00000000 -1.00000000 0.00000000
f 358/358/358 359/359/359 360/360/360
v 0.82500000 0.95937490 0.17187500
vt 0.80273438 0.30468750
vn 0.00000000 -1.00000000 0.00000000
v 1.00000000 0.95937490 0.04106105
vt 0.81418060 0.31286337
vn 0.00000000 -1.00000000 0.00000000
v 1.00000000 0.95937490 0.17187500
vt 0.81418060 0.30468750
vn 0.00000000 -1.00000000 0.00000000
f 361/361/361 362/362/362 363/363/363
v 1.00000000 0.95937490 0.00000000
vt 0.81418060 0.31542969
vn 0.00000000 -1.00000000 0.00000000
v 1.00000000 0.95937490 0.04106105
vt 0.81418060 0.31286337
vn 0.00000000 -1.00000000 0.00000000
v 0.97057292 0.95937490 0.00000000
vt 0.81225586 0.31542969
vn 0.00000000 -1.00000000 0.00000000
f 364/364/364 365/365/365 366/366/366
v 0.82500000 1.00000000 0.17187500
vt 0.25781250 0.47851562
vn 0.00000000 0.00000000 1.00000000
v 0.82500000 0.95937490 0.17187500
vt 0.25781250 0.48046875
vn 0.00000000 0.00000000 1.00000000
v 1.00000000 0.98582845 0.17187500
vt 0.26925872 0.47919695
vn 0.00000000 0.00000000 1.00000000
f 367/367/367 368/368/368 369/369/369
v 0.82500000 1.00000000 0.17187500
vt 0.25781250 0.47851562
vn 0.00000000 0.00000000 1.00000000
v 1.00000000 0.98582845 0.17187500
vt 0.26925872 0.47919695
vn 0.00000000 0.00000000 1.00000000
v 1.00000000 1.00000000 0.17187500
vt 0.26925872 0.47851562
vn 0.00000000 0.00000000 1.00000000
f 370/370/370 371/371/371 372/372/372
v 0.82500000 0.95937490 0.17187500
vt 0.25781250 0.48046875
vn 0.00000000 0.00000000 1.00000000
v 1.00000000 0.95937490 0.17187500
vt 0.26925872 0.48046875
vn 0.00000000 0.00000000 1.00000000
v 1.00000000 0.98582845 0.17187500
vt 0.26925872 0.47919695
vn 0.00000000 0.00000000 1.00000000
f 373/373/373 374/374/374 375/375/375
v 0.70625001 0.24723549 0.00000000
vt 0.90718900 0.25052584
vn -1.00000000 0.00000000 0.00000000
v 0.70625001 0.75000000 0.14687499
vt 0.91601562 0.21875000
vn -1.00000000 0.00000000 0.00000000
v 0.70625001 0.75000000 0.00000000
vt 0.90718900 0.21875000
vn -1.00000000 0.00000000 0.00000000
f 376/376/376 377/377/377 378/378/378
v 0.70625001 0.19374990 0.00000000
vt 0.90718900 0.25390625
vn -1.00000000 0.00000000 0.00000000
v 0.70625001 0.19374990 0.14687499
vt 0.91601562 0.25390625
vn -1.00000000 0.00000000 0.00000000
v 0.70625001 0.75000000 0.14687499
vt 0.91601562 0.21875000
vn -1.00000000 0.00000000 0.00000000
f 379/379/379 380/380/380 381/381/381
v 0.70625001 0.19374990 0.00000000
vt 0.90718900 0.25390625
vn -1.00000000 0.00000000 0.00000000
v 0.70625001 0.75000000 0.14687499
vt 0.91601562 0.21875000
vn -1.00000000 0.00000000 0.00000000
v 0.70625001 0.24723549 0.00000000
vt 0.90718900 0.25052584
vn -1.00000000 0.00000000 0.00000000
f 382/382/382 383/383/383 384/384/384
v 0.70625001 0.75000000 0.00000000
vt 0.25585938 0.40718900
vn 0.00000000 1.00000000 0.00000000
v 0.70625001 0.75000000 0.14687499
vt 0.25585938 0.41601562
vn 0.00000000 1.00000000 0.00000000
v 1.00000000 0.75000000 0.05908764
vt 0.27379670 0.41073994
vn 0.00000000 1.00000000 0.00000000
f 385/385/385 386/386/386 387/387/387
v 0.70625001 0.75000000 0.00000000
vt 0.25585938 0.40718900
vn 0.00000000 1.00000000 0.00000000
v 1.00000000 0.75000000 0.05908764
vt 0.27379670 0.41073994
vn 0.00000000 1.00000000 0.00000000
v 1.00000000 0.75000000 0.00000000
vt 0.27379670 0.40718900
vn 0.00000000 1.00000000 0.00000000
f 388/388/388 389/389/389 390/390/390
v 0.70625001 0.75000000 0.14687499
vt 0.25585938 0.41601562
vn 0.00000000 1.00000000 0.00000000
v 1.00000000 0.75000000 0.14687499
vt 0.27379670 0.41601562
vn 0.00000000 1.00000000 0.00000000
v 1.00000000 0.75000000 0.05908764
vt 0.27379670 0.41073994
vn 0.00000000 1.00000000 0.00000000
f 391/391/391 392/392/392 393/393/393
v 0.70625001 0.19374990 0.14687499
vt 0.29296875 0.40625000
vn 0.00000000 -1.00000000 0.00000000
v 0.70625001 0.19374990 0.00000000
vt 0.29296875 0.41507662
vn 0.00000000 -1.00000000 0.00000000
v 0.75853367 0.19374990 0.00000000
vt 0.29616136 0.41507662
vn 0.00000000 -1.00000000 0.00000000
f 394/394/394 395/395/395 396/396/396
v 0.70625001 0.19374990 0.14687499
vt 0.29296875 0.40625000
vn 0.00000000 -1.00000000 0.00000000
v 0.75853367 0.19374990 0.00000000
vt 0.29616136 0.41507662
vn 0.00000000 -1.00000000 0.00000000
v 1.00000000 0.19374990 0.07216235
vt 0.31090607 0.41073994
vn 0.00000000 -1.00000000 0.00000000
f 397/397/397 398/398/398 399/399/399
v 0.70625001 0.19374990 0.14687499
vt 0.29296875 0.40625000
vn 0.00000000 -1.00000000 0.00000000
v 1.00000000 0.19374990 0.07216235
vt 0.31090607 0.41073994
vn 0.00000000 -1.00000000 0.00000000
v 1.00000000 0.19374990 0.14687499
vt 0.31090607 0.40625000
vn 0.00000000 -1.00000000 0.00000000
f 400/400/400 401/401/401 402/402/402
v 1.00000000 0.19374990 0.00000000
vt 0.31090607 0.41507662
vn 0.00000000 -1.00000000 0.00000000
v 1.00000000 0.19374990 0.07216235
vt 0.31090607 0.41073994
vn 0.00000000 -1.00000000 0.00000000
v 0.75853367 0.19374990 0.00000000
vt 0.29616136 0.41507662
vn 0.00000000 -1.00000000 0.00000000
f 403/403/403 404/404/404 405/405/405
v 0.70625001 0.75000000 0.14687499
vt 0.85546875 0.21875000
vn 0.00000000 0.00000000 1.00000000
v 0.70625001 0.19374990 0.14687499
vt 0.85546875 0.25390625
vn 0.00000000 0.00000000 1.00000000
v 1.00000000 0.49425282 0.14687499
vt 0.87340607 0.23491379
vn 0.00000000 0.00000000 1.00000000
f 406/406/406 407/407/407 408/408/408
v 0.70625001 0.75000000 0.14687499
vt 0.85546875 0.21875000
vn 0.00000000 0.00000000 1.00000000
v 1.00000000 0.49425282 0.14687499
vt 0.87340607 0.23491379
vn 0.00000000 0.00000000 1.00000000
v 1.00000000 0.75000000 0.14687499
vt 0.87340607 0.21875000
vn 0.00000000 0.00000000 1.00000000
f 409/409/409 410/410/410 411/411/411
v 0.70625001 0.19374990 0.14687499
vt 0.85546875 0.25390625
vn 0.00000000 0.00000000 1.00000000
v 1.00000000 0.19374990 0.14687499
vt 0.87340607 0.25390625
vn 0.00000000 0.00000000 1.00000000
v 1.00000000 0.49425282 0.14687499
vt 0.87340607 0.23491379
vn 0.00000000 0.00000000 1.00000000
f 412/412/412 413/413/413 414/414/414
v 0.88125000 0.31666670 0.00000000
vt 0.19661458 0.45361328
vn -1.00000000 0.00000000 0.00000000
v 0.88125000 0.32500005 0.00937500
vt 0.19726562 0.45312500
vn -1.00000000 0.00000000 0.00000000
v 0.88125000 0.32500005 0.00000000
vt 0.19661458 0.45312500
vn -1.00000000 0.00000000 0.00000000
f 415/415/415 416/416/416 417/417/417
v 0.88125000 0.22499990 0.00000000
vt 0.19661458 0.45898438
vn -1.00000000 0.00000000 0.00000000
v 0.88125000 0.22499990 0.00937500
vt 0.19726562 0.45898438
vn -1.00000000 0.00000000 0.00000000
v 0.88125000 0.32500005 0.00937500
vt 0.19726562 0.45312500
vn -1.00000000 0.00000000 0.00000000
f 418/418/418 419/419/419 420/420/420
v 0.88125000 0.22499990 0.00000000
vt 0.19661458 0.45898438
vn -1.00000000 0.00000000 0.00000000
v 0.88125000 0.32500005 0.00937500
vt 0.19726562 0.45312500
vn -1.00000000 0.00000000 0.00000000
v 0.88125000 0.31666670 0.00000000
vt 0.19661458 0.45361328
vn -1.00000000 0.00000000 0.00000000
f 421/421/421 422/422/422 423/423/423
v 0.88125000 0.32500005 0.00000000
vt 0.00195312 0.43880208
vn 0.00000000 1.00000000 0.00000000
v 0.88125000 0.32500005 0.00937500
vt 0.00195312 0.43945312
vn 0.00000000 1.00000000 0.00000000
v 0.89843750 0.32500005 0.00000000
vt 0.00309245 0.43880208
vn 0.00000000 1.00000000 0.00000000
f 424/424/424 425/425/425 426/426/426
v 0.88125000 0.32500005 0.00937500
vt 0.00195312 0.43945312
vn 0.00000000 1.00000000 0.00000000
v 1.00000000 0.32500005 0.00937500
vt 0.00982481 0.43945312
vn 0.00000000 1.00000000 0.00000000
v 1.00000000 0.32500005 0.00000000
vt 0.00982481 0.43880208
vn 0.00000000 1.00000000 0.00000000
f 427/427/427 428/428/428 429/429/429
v 0.88125000 0.32500005 0.00937500
vt 0.00195312 0.43945312
vn 0.00000000 1.00000000 0.00000000
v 1.00000000 0.32500005 0.00000000
vt 0.00982481 0.43880208
vn 0.00000000 1.00000000 0.00000000
v 0.89843750 0.32500005 0.00000000
vt 0.00309245 0.43880208
vn 0.00000000 1.00000000 0.00000000
f 430/430/430 431/431/431 432/432/432
v 0.88125000 0.22499990 0.00937500
vt 0.01953125 0.43164062
vn 0.00000000 -1.00000000 0.00000000
v 0.88125000 0.22499990 0.00000000
vt 0.01953125 0.43229167
vn 0.00000000 -1.00000000 0.00000000
v 1.00000000 0.22499990 0.00000000
vt 0.02740294 0.43229167
vn 0.00000000 -1.00000000 0.00000000
f 433/433/433 434/434/434 435/435/435
v 0.88125000 0.22499990 0.00937500
vt 0.01953125 0.43164062
vn 0.00000000 -1.00000000 0.00000000
v 1.00000000 0.22499990 0.00000000
vt 0.02740294 0.43229167
vn 0.00000000 -1.00000000 0.00000000
v 1.00000000 0.22499990 0.00937500
vt 0.02740294 0.43164062
vn 0.00000000 -1.00000000 0.00000000
f 436/436/436 437/437/437 438/438/438
v 0.88125000 0.32500005 0.00937500
vt 0.08203125 0.45312500
vn 0.00000000 0.00000000 1.00000000
v 0.88125000 0.22499990 0.00937500
vt 0.08203125 0.45898438
vn 0.00000000 0.00000000 1.00000000
v 1.00000000 0.28257574 0.00937500
vt 0.08990294 0.45561080
vn 0.00000000 0.00000000 1.00000000
f 439/439/439 440/440/440 441/441/441
v 0.88125000 0.32500005 0.00937500
vt 0.08203125 0.45312500
vn 0.00000000 0.00000000 1.00000000
v 1.00000000 0.28257574 0.00937500
vt 0.08990294 0.45561080
vn 0.00000000 0.00000000 1.00000000
v 1.00000000 0.32500005 0.00937500
vt 0.08990294 0.45312500
vn 0.00000000 0.00000000 1.00000000
f 442/442/442 443/443/443 444/444/444
v 0.88125000 0.22499990 0.00937500
vt 0.08203125 0.45898438
vn 0.00000000 0.00000000 1.00000000
v 1.00000000 0.22499990 0.00937500
vt 0.08990294 0.45898438
vn 0.00000000 0.00000000 1.00000000
v 1.00000000 0.28257574 0.00937500
vt 0.08990294 0.45561080
vn 0.00000000 0.00000000 1.00000000
f 445/445/445 446/446/446 447/447/447
v 0.31586008 0.00000000 0.00000000
vt 0.66913555 0.30472875
vn -0.99026807 0.13917310 0.00000000
v 0.31586008 0.00000000 0.23665306
vt 0.68354219 0.30472875
vn -0.99026807 0.13917310 0.00000000
v 0.31595499 0.00067531 0.23749999
vt 0.68359375 0.30468750
vn -0.99026807 0.13917310 0.00000000
f 448/448/448 449/449/449 450/450/450
v 0.31586008 0.00000000 0.00000000
vt 0.66913555 0.30472875
vn -0.99026807 0.13917310 0.00000000
v 0.31595499 0.00067531 0.23749999
vt 0.68359375 0.30468750
vn -0.99026807 0.13917310 0.00000000
v 0.31595499 0.00067531 0.00000000
vt 0.66913555 0.30468750
vn -0.99026807 0.13917310 0.00000000
f 451/451/451 452/452/452 453/453/453
v 0.31586008 0.00000000 0.23749999
vt 0.68359375 0.30472875
vn -0.99026807 0.13917310 0.00000000
v 0.31595499 0.00067531 0.23749999
vt 0.68359375 0.30468750
vn -0.99026807 0.13917310 0.00000000
v 0.31586008 0.00000000 0.23665306
vt 0.68354219 0.30472875
vn -0.99026807 0.13917310 0.00000000
f 454/454/454 455/455/455 456/456/456
v 0.31595499 0.00067531 0.00000000
vt 0.18750000 0.31952618
vn 0.13917310 0.99026807 0.00000000
v 0.31595499 0.00067531 0.23749999
vt 0.18750000 0.33398438
vn 0.13917310 0.99026807 0.00000000
v 0.32076009 0.00000000 0.22987490
vt 0.18780946 0.33352019
vn 0.13917310 0.99026807 0.00000000
f 457/457/457 458/458/458 459/459/459
v 0.31595499 0.00067531 0.00000000
vt 0.18750000 0.31952618
vn 0.13917310 0.99026807 0.00000000
v 0.32076009 0.00000000 0.22987490
vt 0.18780946 0.33352019
vn 0.13917310 0.99026807 0.00000000
v 0.32076009 0.00000000 0.00000000
vt 0.18780946 0.31952618
vn 0.13917310 0.99026807 0.00000000
f 460/460/460 461/461/461 462/462/462
v 0.31595499 0.00067531 0.23749999
vt 0.18750000 0.33398438
vn 0.13917310 0.99026807 0.00000000
v 0.32076009 0.00000000 0.23749999
vt 0.18780946 0.33398438
vn 0.13917310 0.99026807 0.00000000
v 0.32076009 0.00000000 0.22987490
vt 0.18780946 0.33352019
vn 0.13917310 0.99026807 0.00000000
f 463/463/463 464/464/464 465/465/465
v 0.31595499 0.00067531 0.23749999
vt 0.75781250 0.30468750
vn 0.00000000 0.00000000 1.00000000
v 0.31586008 0.00000000 0.23749999
vt 0.75781250 0.30472875
vn 0.00000000 0.00000000 1.00000000
v 0.32076009 0.00000000 0.23749999
vt 0.75812196 0.30468750
vn 0.00000000 0.00000000 1.00000000
f 466/466/466 467/467/467 468/468/468
v 0.77500001 0.21875000 0.48124999
vt 0.55664062 0.47851562
vn 1.00000000 0.00000000 0.00000000
v 0.77500001 0.20000005 0.48124999
vt 0.55664062 0.48046875
vn 1.00000000 0.00000000 0.00000000
v 0.77500001 0.21875000 0.35624999
vt 0.56445312 0.47851562
vn 1.00000000 0.00000000 0.00000000
f 469/469/469 470/470/470 471/471/471
v 0.77500001 0.20000005 0.48124999
vt 0.55664062 0.48046875
vn 1.00000000 0.00000000 0.00000000
v 0.77500001 0.20000005 0.35624999
vt 0.56445312 0.48046875
vn 1.00000000 0.00000000 0.00000000
v 0.77500001 0.21875000 0.35624999
vt 0.56445312 0.47851562
vn 1.00000000 0.00000000 0.00000000
f 472/472/472 473/473/473 474/474/474
v 0.64375001 0.21875000 0.35624999
vt 0.56835938 0.47851562
vn -1.00000000 0.00000000 0.00000000
v 0.64375001 0.20000005 0.35624999
vt 0.56835938 0.48046875
vn -1.00000000 0.00000000 0.00000000
v 0.64375001 0.21875000 0.48124999
vt 0.57617188 0.47851562
vn -1.00000000 0.00000000 0.00000000
f 475/475/475 476/476/476 477/477/477
v 0.64375001 0.20000005 0.35624999
vt 0.56835938 0.48046875
vn -1.00000000 0.00000000 0.00000000
v 0.64375001 0.20000005 0.48124999
vt 0.57617188 0.48046875
vn -1.00000000 0.00000000 0.00000000
v 0.64375001 0.21875000 0.48124999
vt 0.57617188 0.47851562
vn -1.00000000 0.00000000 0.00000000
f 478/478/478 479/479/479 480/480/480
v 0.64375001 0.21875000 0.35624999
vt 0.24414062 0.43164062
vn 0.00000000 1.00000000 0.00000000
v 0.64375001 0.21875000 0.48124999
vt 0.24414062 0.43945312
vn 0.00000000 1.00000000 0.00000000
v 0.77500001 0.21875000 0.35624999
vt 0.25195312 0.43164062
vn 0.00000000 1.00000000 0.00000000
f 481/481/481 482/482/482 483/483/483
v 0.64375001 0.21875000 0.48124999
vt 0.24414062 0.43945312
vn 0.00000000 1.00000000 0.00000000
v 0.77500001 0.21875000 0.48124999
vt 0.25195312 0.43945312
vn 0.00000000 1.00000000 0.00000000
v 0.77500001 0.21875000 0.35624999
vt 0.25195312 0.43164062
vn 0.00000000 1.00000000 0.00000000
f 484/484/484 485/485/485 486/486/486
v 0.64375001 0.20000005 0.48124999
vt 0.25585938 0.43164062
vn 0.00000000 -1.00000000 0.00000000
v 0.64375001 0.20000005 0.35624999
vt 0.25585938 0.43945312
vn 0.00000000 -1.00000000 0.00000000
v 0.77500001 0.20000005 0.48124999
vt 0.26367188 0.43164062
vn 0.00000000 -1.00000000 0.00000000
f 487/487/487 488/488/488 489/489/489
v 0.64375001 0.20000005 0.35624999
vt 0.25585938 0.43945312
vn 0.00000000 -1.00000000 0.00000000
v 0.77500001 0.20000005 0.35624999
vt 0.26367188 0.43945312
vn 0.00000000 -1.00000000 0.00000000
v 0.77500001 0.20000005 0.48124999
vt 0.26367188 0.43164062
vn 0.00000000 -1.00000000 0.00000000
f 490/490/490 491/491/491 492/492/492
v 0.64375001 0.21875000 0.48124999
vt 0.54492188 0.47851562
vn 0.00000000 0.00000000 1.00000000
v 0.64375001 0.20000005 0.48124999
vt 0.54492188 0.48046875
vn 0.00000000 0.00000000 1.00000000
v 0.77500001 0.21875000 0.48124999
vt 0.55273438 0.47851562
vn 0.00000000 0.00000000 1.00000000
f 493/493/493 494/494/494 495/495/495
v 0.64375001 0.20000005 0.48124999
vt 0.54492188 0.48046875
vn 0.00000000 0.00000000 1.00000000
v 0.77500001 0.20000005 0.48124999
vt 0.55273438 0.48046875
vn 0.00000000 0.00000000 1.00000000
v 0.77500001 0.21875000 0.48124999
vt 0.55273438 0.47851562
vn 0.00000000 0.00000000 1.00000000
f 496/496/496 497/497/497 498/498/498
v 0.77500001 0.21875000 0.35624999
vt 0.53320312 0.47851562
vn 0.00000000 0.00000000 -1.00000000
v 0.77500001 0.20000005 0.35624999
vt 0.53320312 0.48046875
vn 0.00000000 0.00000000 -1.00000000
v 0.64375001 0.21875000 0.35624999
vt 0.54101562 0.47851562
vn 0.00000000 0.00000000 -1.00000000
f 499/499/499 500/500/500 501/501/501
v 0.77500001 0.20000005 0.35624999
vt 0.53320312 0.48046875
vn 0.00000000 0.00000000 -1.00000000
v 0.64375001 0.20000005 0.35624999
vt 0.54101562 0.48046875
vn 0.00000000 0.00000000 -1.00000000
v 0.64375001 0.21875000 0.35624999
vt 0.54101562 0.47851562
vn 0.00000000 0.00000000 -1.00000000
f 502/502/502 503/503/503 504/504/504
v 0.93750000 0.97812510 0.16249999
vt 0.64257812 0.47851562
vn 1.00000000 0.00000000 0.00000000
v 0.93750000 0.95937490 0.16249999
vt 0.64257812 0.48046875
vn 1.00000000 0.00000000 0.00000000
v 0.93750000 0.97812510 0.06875000
vt 0.64843750 0.47851562
vn 1.00000000 0.00000000 0.00000000
f 505/505/505 506/506/506 507/507/507
v 0.93750000 0.95937490 0.16249999
vt 0.64257812 0.48046875
vn 1.00000000 0.00000000 0.00000000
v 0.93750000 0.95937490 0.06875000
vt 0.64843750 0.48046875
vn 1.00000000 0.00000000 0.00000000
v 0.93750000 0.97812510 0.06875000
vt 0.64843750 0.47851562
vn 1.00000000 0.00000000 0.00000000
f 508/508/508 509/509/509 510/510/510
v 0.82500000 0.97812510 0.06875000
vt 0.65234375 0.47851562
vn -1.00000000 0.00000000 0.00000000
v 0.82500000 0.95937490 0.06875000
vt 0.65234375 0.48046875
vn -1.00000000 0.00000000 0.00000000
v 0.82500000 0.97812510 0.16249999
vt 0.65820312 0.47851562
vn -1.00000000 0.00000000 0.00000000
f 511/511/511 512/512/512 513/513/513
v 0.82500000 0.95937490 0.06875000
vt 0.65234375 0.48046875
vn -1.00000000 0.00000000 0.00000000
v 0.82500000 0.95937490 0.16249999
vt 0.65820312 0.48046875
vn -1.00000000 0.00000000 0.00000000
v 0.82500000 0.97812510 0.16249999
vt 0.65820312 0.47851562
vn -1.00000000 0.00000000 0.00000000
f 514/514/514 515/515/515 516/516/516
v 0.82500000 0.97812510 0.06875000
vt 0.22460938 0.45312500
vn 0.00000000 1.00000000 0.00000000
v 0.82500000 0.97812510 0.16249999
vt 0.22460938 0.45898438
vn 0.00000000 1.00000000 0.00000000
v 0.93750000 0.97812510 0.06875000
vt 0.23242188 0.45312500
vn 0.00000000 1.00000000 0.00000000
f 517/517/517 518/518/518 519/519/519
v 0.82500000 0.97812510 0.16249999
vt 0.22460938 0.45898438
vn 0.00000000 1.00000000 0.00000000
v 0.93750000 0.97812510 0.16249999
vt 0.23242188 0.45898438
vn 0.00000000 1.00000000 0.00000000
v 0.93750000 0.97812510 0.06875000
vt 0.23242188 0.45312500
vn 0.00000000 1.00000000 0.00000000
f 520/520/520 521/521/521 522/522/522
v 0.82500000 0.95937490 0.16249999
vt 0.23632812 0.45312500
vn 0.00000000 -1.00000000 0.00000000
v 0.82500000 0.95937490 0.06875000
vt 0.23632812 0.45898438
vn 0.00000000 -1.00000000 0.00000000
v 0.93750000 0.95937490 0.16249999
vt 0.24414062 0.45312500
vn 0.00000000 -1.00000000 0.00000000
f 523/523/523 524/524/524 525/525/525
v 0.82500000 0.95937490 0.06875000
vt 0.23632812 0.45898438
vn 0.00000000 -1.00000000 0.00000000
v 0.93750000 0.95937490 0.06875000
vt 0.24414062 0.45898438
vn 0.00000000 -1.00000000 0.00000000
v 0.93750000 0.95937490 0.16249999
vt 0.24414062 0.45312500
vn 0.00000000 -1.00000000 0.00000000
f 526/526/526 527/527/527 528/528/528
v 0.82500000 0.97812510 0.16249999
vt 0.59179688 0.47851562
vn 0.00000000 0.00000000 1.00000000
v 0.82500000 0.95937490 0.16249999
vt 0.59179688 0.48046875
vn 0.00000000 0.00000000 1.00000000
v 0.93750000 0.97812510 0.16249999
vt 0.59960938 0.47851562
vn 0.00000000 0.00000000 1.00000000
f 529/529/529 530/530/530 531/531/531
v 0.82500000 0.95937490 0.16249999
vt 0.59179688 0.48046875
vn 0.00000000 0.00000000 1.00000000
v 0.93750000 0.95937490 0.16249999
vt 0.59960938 0.48046875
vn 0.00000000 0.00000000 1.00000000
v 0.93750000 0.97812510 0.16249999
vt 0.59960938 0.47851562
vn 0.00000000 0.00000000 1.00000000
f 532/532/532 533/533/533 534/534/534
v 0.93750000 0.97812510 0.06875000
vt 0.58007812 0.47851562
vn 0.00000000 0.00000000 -1.00000000
v 0.93750000 0.95937490 0.06875000
vt 0.58007812 0.48046875
vn 0.00000000 0.00000000 -1.00000000
v 0.82500000 0.97812510 0.06875000
vt 0.58789062 0.47851562
vn 0.00000000 0.00000000 -1.00000000
f 535/535/535 536/536/536 537/537/537
v 0.93750000 0.95937490 0.06875000
vt 0.58007812 0.48046875
vn 0.00000000 0.00000000 -1.00000000
v 0.82500000 0.95937490 0.06875000
vt 0.58789062 0.48046875
vn 0.00000000 0.00000000 -1.00000000
v 0.82500000 0.97812510 0.06875000
vt 0.58789062 0.47851562
vn 0.00000000 0.00000000 -1.00000000
f 538/538/538 539/539/539 540/540/540
